<?xml version="1.0" encoding="UTF-8" standalone="no"?>
<!DOCTYPE svg PUBLIC "-//W3C//DTD SVG 1.1//EN" "http://www.w3.org/Graphics/SVG/1.1/DTD/svg11.dtd">
<svg width="100%" height="100%" viewBox="0 0 689 642" version="1.1" xmlns="http://www.w3.org/2000/svg" xmlns:xlink="http://www.w3.org/1999/xlink" xml:space="preserve" xmlns:serif="http://www.serif.com/" style="fill-rule:evenodd;clip-rule:evenodd;stroke-linecap:round;stroke-linejoin:round;stroke-miterlimit:1.5;">
    <g transform="matrix(1,0,0,1,-11257.5,-1946.24)">
        <g transform="matrix(1,0,0,0.970588,9751.15,1466.95)">
            <g transform="matrix(0.555702,0,0,0.572541,1808.79,519.573)">
                <g transform="matrix(0.371554,0,0,0.371554,-1272.49,112.418)">
                    <path d="M4041.29,529.246C4157.69,529.246 4252.19,623.744 4252.19,740.139C4252.19,856.535 4157.69,951.033 4041.29,951.033C3924.9,951.033 3830.4,856.535 3830.4,740.139C3830.4,623.744 3924.9,529.246 4041.29,529.246ZM4041.29,611.43C4112.33,611.43 4170,669.103 4170,740.139C4170,811.176 4112.33,868.849 4041.29,868.849C3970.26,868.849 3912.58,811.176 3912.58,740.139C3912.58,669.103 3970.26,611.43 4041.29,611.43Z" style="fill:rgb(235,235,235);"/>
                </g>
                <g transform="matrix(0.371554,0,0,0.371554,-1073.22,116.172)">
                    <path d="M4041.29,529.246C4157.69,529.246 4252.19,623.744 4252.19,740.139C4252.19,856.535 4157.69,951.033 4041.29,951.033C3924.9,951.033 3830.4,856.535 3830.4,740.139C3830.4,623.744 3924.9,529.246 4041.29,529.246ZM4041.29,611.43C4112.33,611.43 4170,669.103 4170,740.139C4170,811.176 4112.33,868.849 4041.29,868.849C3970.26,868.849 3912.58,811.176 3912.58,740.139C3912.58,669.103 3970.26,611.43 4041.29,611.43Z" style="fill:rgb(235,235,235);"/>
                </g>
                <g transform="matrix(0.371554,0,0,0.371554,-1273.65,306.369)">
                    <path d="M4041.29,529.246C4157.69,529.246 4252.19,623.744 4252.19,740.139C4252.19,856.535 4157.69,951.033 4041.29,951.033C3924.9,951.033 3830.4,856.535 3830.4,740.139C3830.4,623.744 3924.9,529.246 4041.29,529.246ZM4041.29,611.43C4112.33,611.43 4170,669.103 4170,740.139C4170,811.176 4112.33,868.849 4041.29,868.849C3970.26,868.849 3912.58,811.176 3912.58,740.139C3912.58,669.103 3970.26,611.43 4041.29,611.43Z" style="fill:rgb(235,235,235);"/>
                </g>
                <g transform="matrix(0.371554,0,0,0.371554,-1069.53,320.143)">
                    <path d="M4041.29,529.246C4157.69,529.246 4252.19,623.744 4252.19,740.139C4252.19,856.535 4157.69,951.033 4041.29,951.033C3924.9,951.033 3830.4,856.535 3830.4,740.139C3830.4,623.744 3924.9,529.246 4041.29,529.246ZM4041.29,611.43C4112.33,611.43 4170,669.103 4170,740.139C4170,811.176 4112.33,868.849 4041.29,868.849C3970.26,868.849 3912.58,811.176 3912.58,740.139C3912.58,669.103 3970.26,611.43 4041.29,611.43Z" style="fill:rgb(235,235,235);"/>
                </g>
                <g transform="matrix(0.371554,0,0,0.371554,-1176.43,509.178)">
                    <path d="M4041.29,529.246C4157.69,529.246 4252.19,623.744 4252.19,740.139C4252.19,856.535 4157.69,951.033 4041.29,951.033C3924.9,951.033 3830.4,856.535 3830.4,740.139C3830.4,623.744 3924.9,529.246 4041.29,529.246ZM4041.29,611.43C4112.33,611.43 4170,669.103 4170,740.139C4170,811.176 4112.33,868.849 4041.29,868.849C3970.26,868.849 3912.58,811.176 3912.58,740.139C3912.58,669.103 3970.26,611.43 4041.29,611.43Z" style="fill:rgb(235,235,235);"/>
                </g>
                <g transform="matrix(0.371554,0,0,0.371554,-912.813,483.326)">
                    <path d="M4041.29,529.246C4157.69,529.246 4252.19,623.744 4252.19,740.139C4252.19,856.535 4157.69,951.033 4041.29,951.033C3924.9,951.033 3830.4,856.535 3830.4,740.139C3830.4,623.744 3924.9,529.246 4041.29,529.246ZM4041.29,611.43C4112.33,611.43 4170,669.103 4170,740.139C4170,811.176 4112.33,868.849 4041.29,868.849C3970.26,868.849 3912.58,811.176 3912.58,740.139C3912.58,669.103 3970.26,611.43 4041.29,611.43Z" style="fill:rgb(235,235,235);"/>
                </g>
                <g transform="matrix(0.371554,0,0,0.371554,-884.398,228.011)">
                    <path d="M4041.29,529.246C4157.69,529.246 4252.19,623.744 4252.19,740.139C4252.19,856.535 4157.69,951.033 4041.29,951.033C3924.9,951.033 3830.4,856.535 3830.4,740.139C3830.4,623.744 3924.9,529.246 4041.29,529.246ZM4041.29,611.43C4112.33,611.43 4170,669.103 4170,740.139C4170,811.176 4112.33,868.849 4041.29,868.849C3970.26,868.849 3912.58,811.176 3912.58,740.139C3912.58,669.103 3970.26,611.43 4041.29,611.43Z" style="fill:rgb(235,235,235);"/>
                </g>
                <g transform="matrix(0.371554,0,0,0.371554,-1272.49,112.418)">
                    <path d="M4041.29,529.246C4157.69,529.246 4252.19,623.744 4252.19,740.139C4252.19,856.535 4157.69,951.033 4041.29,951.033C3924.9,951.033 3830.4,856.535 3830.4,740.139C3830.4,623.744 3924.9,529.246 4041.29,529.246ZM4041.29,611.43C4112.33,611.43 4170,669.103 4170,740.139C4170,811.176 4112.33,868.849 4041.29,868.849C3970.26,868.849 3912.58,811.176 3912.58,740.139C3912.58,669.103 3970.26,611.43 4041.29,611.43Z" style="fill:rgb(235,235,235);"/>
                </g>
                <g transform="matrix(0.371554,0,0,0.371554,-1073.22,116.172)">
                    <path d="M4041.29,529.246C4157.69,529.246 4252.19,623.744 4252.19,740.139C4252.19,856.535 4157.69,951.033 4041.29,951.033C3924.9,951.033 3830.4,856.535 3830.4,740.139C3830.4,623.744 3924.9,529.246 4041.29,529.246ZM4041.29,611.43C4112.33,611.43 4170,669.103 4170,740.139C4170,811.176 4112.33,868.849 4041.29,868.849C3970.26,868.849 3912.58,811.176 3912.58,740.139C3912.58,669.103 3970.26,611.43 4041.29,611.43Z" style="fill:rgb(235,235,235);"/>
                </g>
                <g transform="matrix(0.371554,0,0,0.371554,-1273.65,306.369)">
                    <path d="M4041.29,529.246C4157.69,529.246 4252.19,623.744 4252.19,740.139C4252.19,856.535 4157.69,951.033 4041.29,951.033C3924.9,951.033 3830.4,856.535 3830.4,740.139C3830.4,623.744 3924.9,529.246 4041.29,529.246ZM4041.29,611.43C4112.33,611.43 4170,669.103 4170,740.139C4170,811.176 4112.33,868.849 4041.29,868.849C3970.26,868.849 3912.58,811.176 3912.58,740.139C3912.58,669.103 3970.26,611.43 4041.29,611.43Z" style="fill:rgb(235,235,235);"/>
                </g>
                <g transform="matrix(0.371554,0,0,0.371554,-1069.53,320.143)">
                    <path d="M4041.29,529.246C4157.69,529.246 4252.19,623.744 4252.19,740.139C4252.19,856.535 4157.69,951.033 4041.29,951.033C3924.9,951.033 3830.4,856.535 3830.4,740.139C3830.4,623.744 3924.9,529.246 4041.29,529.246ZM4041.29,611.43C4112.33,611.43 4170,669.103 4170,740.139C4170,811.176 4112.33,868.849 4041.29,868.849C3970.26,868.849 3912.58,811.176 3912.58,740.139C3912.58,669.103 3970.26,611.43 4041.29,611.43Z" style="fill:rgb(235,235,235);"/>
                </g>
                <g transform="matrix(0.371554,0,0,0.371554,-1176.43,509.178)">
                    <path d="M4041.29,529.246C4157.69,529.246 4252.19,623.744 4252.19,740.139C4252.19,856.535 4157.69,951.033 4041.29,951.033C3924.9,951.033 3830.4,856.535 3830.4,740.139C3830.4,623.744 3924.9,529.246 4041.29,529.246ZM4041.29,611.43C4112.33,611.43 4170,669.103 4170,740.139C4170,811.176 4112.33,868.849 4041.29,868.849C3970.26,868.849 3912.58,811.176 3912.58,740.139C3912.58,669.103 3970.26,611.43 4041.29,611.43Z" style="fill:rgb(235,235,235);"/>
                </g>
                <g transform="matrix(0.371554,0,0,0.371554,-912.813,483.326)">
                    <path d="M4041.29,529.246C4157.69,529.246 4252.19,623.744 4252.19,740.139C4252.19,856.535 4157.69,951.033 4041.29,951.033C3924.9,951.033 3830.4,856.535 3830.4,740.139C3830.4,623.744 3924.9,529.246 4041.29,529.246ZM4041.29,611.43C4112.33,611.43 4170,669.103 4170,740.139C4170,811.176 4112.33,868.849 4041.29,868.849C3970.26,868.849 3912.58,811.176 3912.58,740.139C3912.58,669.103 3970.26,611.43 4041.29,611.43Z" style="fill:rgb(235,235,235);"/>
                </g>
                <g transform="matrix(0.371554,0,0,0.371554,-884.398,228.011)">
                    <path d="M4041.29,529.246C4157.69,529.246 4252.19,623.744 4252.19,740.139C4252.19,856.535 4157.69,951.033 4041.29,951.033C3924.9,951.033 3830.4,856.535 3830.4,740.139C3830.4,623.744 3924.9,529.246 4041.29,529.246ZM4041.29,611.43C4112.33,611.43 4170,669.103 4170,740.139C4170,811.176 4112.33,868.849 4041.29,868.849C3970.26,868.849 3912.58,811.176 3912.58,740.139C3912.58,669.103 3970.26,611.43 4041.29,611.43Z" style="fill:rgb(235,235,235);"/>
                </g>
                <g transform="matrix(0.371554,0,0,0.371554,-1272.49,112.418)">
                    <path d="M4190.42,591.015C4150.87,551.465 4097.23,529.246 4041.29,529.246C3924.82,529.246 3830.4,623.666 3830.4,740.139L3912.58,740.139C3912.58,669.055 3970.21,611.43 4041.29,611.43C4075.43,611.43 4108.17,624.991 4132.3,649.128L4190.42,591.015Z" style="fill:rgb(145,230,35);"/>
                </g>
                <g transform="matrix(0.371554,0,0,0.371554,-1073.22,116.172)">
                    <path d="M4190.42,591.015C4150.87,551.465 4097.23,529.246 4041.29,529.246C3924.82,529.246 3830.4,623.666 3830.4,740.139L3912.58,740.139C3912.58,669.055 3970.21,611.43 4041.29,611.43C4075.43,611.43 4108.17,624.991 4132.3,649.128L4190.42,591.015Z" style="fill:rgb(255,164,9);"/>
                </g>
                <g transform="matrix(0.371554,0,0,0.371554,-1273.65,306.369)">
                    <path d="M4190.42,591.015C4150.87,551.465 4097.23,529.246 4041.29,529.246C3924.82,529.246 3830.4,623.666 3830.4,740.139L3912.58,740.139C3912.58,669.055 3970.21,611.43 4041.29,611.43C4075.43,611.43 4108.17,624.991 4132.3,649.128L4190.42,591.015Z" style="fill:rgb(46,168,255);"/>
                </g>
                <g transform="matrix(0.371554,0,0,0.371554,-1069.53,320.143)">
                    <path d="M4190.42,591.015C4150.87,551.465 4097.23,529.246 4041.29,529.246C3924.82,529.246 3830.4,623.666 3830.4,740.139L3912.58,740.139C3912.58,669.055 3970.21,611.43 4041.29,611.43C4075.43,611.43 4108.17,624.991 4132.3,649.128L4190.42,591.015Z" style="fill:rgb(255,88,91);"/>
                </g>
                <g transform="matrix(0.371554,0,0,0.371554,-1176.43,509.178)">
                    <path d="M4190.42,591.015C4150.87,551.465 4097.23,529.246 4041.29,529.246C3924.82,529.246 3830.4,623.666 3830.4,740.139L3912.58,740.139C3912.58,669.055 3970.21,611.43 4041.29,611.43C4075.43,611.43 4108.17,624.991 4132.3,649.128L4190.42,591.015Z" style="fill:rgb(255,226,76);"/>
                </g>
                <g transform="matrix(0.371554,0,0,0.371554,-912.813,483.326)">
                    <path d="M4190.42,591.015C4150.87,551.465 4097.23,529.246 4041.29,529.246C3924.82,529.246 3830.4,623.666 3830.4,740.139L3912.58,740.139C3912.58,669.055 3970.21,611.43 4041.29,611.43C4075.43,611.43 4108.17,624.991 4132.3,649.128L4190.42,591.015Z" style="fill:rgb(30,109,166);"/>
                </g>
                <g transform="matrix(0.371554,0,0,0.371554,-884.398,228.011)">
                    <path d="M4190.42,591.015C4150.87,551.465 4097.23,529.246 4041.29,529.246C3924.82,529.246 3830.4,623.666 3830.4,740.139L3912.58,740.139C3912.58,669.055 3970.21,611.43 4041.29,611.43C4075.43,611.43 4108.17,624.991 4132.3,649.128L4190.42,591.015Z" style="fill:rgb(224,81,244);"/>
                </g>
            </g>
        </g>
        <g transform="matrix(1,0,0,0.970588,9751.15,1466.95)">
            <g transform="matrix(0.555143,0,0,0.571965,286.652,105.859)">
                <path d="M2533.5,1091.93C2533.8,1089.75 2534.09,1087.57 2534.36,1085.38L2534.38,1085.24C2534.82,1078.93 2535.1,1073.24 2535.28,1066.96L2535.3,1066.37C2535.14,1059.46 2534.8,1052.55 2534.3,1045.66L2534.26,1045.15C2531.31,1017.17 2524.5,990.355 2516.31,963.374L2516.21,963.046C2513.47,954.713 2510.62,946.415 2507.81,938.108C2507.4,936.9 2506.99,935.692 2506.58,934.484C2502.46,922.223 2498.33,909.607 2495.16,897.024C2495.05,896.59 2494.93,896.156 2494.82,895.722C2490.08,877.288 2488.38,863.895 2489.2,844.846C2491.57,789.833 2534.25,748.073 2573.47,714.761C2574.1,714.226 2574.73,713.692 2575.36,713.158C2587.61,702.88 2600.29,693.161 2613.11,683.617L2613.12,683.611C2618.68,680.335 2622.66,678.971 2629.07,678.29C2630.92,678.475 2632.77,678.659 2634.62,678.844C2642.67,681.332 2648.42,684.174 2653.49,691.819C2661.98,707.743 2658.71,724.332 2642.88,733.663C2641.88,734.26 2640.88,734.859 2639.88,735.46C2629.24,741.869 2618.61,748.295 2608.24,755.135C2574.06,777.681 2534.45,807.258 2530.91,851.814C2529.91,864.308 2531.48,875.669 2533.96,887.869C2534.04,888.246 2534.12,888.622 2534.21,888.998C2538.03,906.02 2543.43,922.704 2548.49,939.379C2548.88,940.669 2549.27,941.959 2549.66,943.25C2550.45,945.891 2551.24,948.533 2552.03,951.178C2552.03,951.178 2552.86,953.871 2553.28,955.216C2553.6,956.238 2553.92,957.261 2554.24,958.284C2559.78,976.23 2564.71,994.364 2568.53,1012.76C2568.73,1013.61 2568.93,1014.45 2569.12,1015.3C2571,1023.53 2572.53,1031.11 2573.97,1039.41C2573.97,1039.41 2574.33,1041.19 2574.51,1042.08C2581.68,1032.28 2589.3,1022.82 2597.12,1013.52L2597.37,1013.23C2597.99,1012.45 2598.61,1011.67 2599.24,1010.9C2599.94,1010.02 2600.65,1009.15 2601.35,1008.28C2606.24,1002.25 2611.18,996.255 2616.1,990.248C2617.14,988.972 2618.19,987.695 2619.23,986.417C2635.47,966.47 2650.63,945.819 2663.07,923.209L2663.2,922.963C2683.7,884.076 2695,841.491 2699.76,798.032L2699.76,798.022C2702.96,783.523 2712.42,775.671 2727.34,773.964C2729.41,774.13 2731.48,774.297 2733.55,774.463C2733.55,774.464 2733.56,774.465 2733.57,774.466C2736.66,775.173 2742.33,776.641 2744.86,778.805C2766.64,797.385 2752.47,828.809 2745.32,850.62C2745.04,851.533 2744.74,852.445 2744.45,853.356C2733.93,885.782 2719.63,916.929 2700.87,945.41C2700.64,945.781 2700.4,946.152 2700.16,946.522C2689.35,963.214 2677.15,978.927 2664.18,993.988C2663.6,994.686 2663.01,995.382 2662.43,996.077C2653.42,1006.75 2645.33,1015.78 2635.79,1026.57C2634.71,1027.79 2633.63,1029.02 2632.55,1030.25C2630.76,1032.29 2628.97,1034.34 2627.19,1036.39L2626.66,1037L2626.38,1037.33C2625.61,1038.26 2624.85,1039.19 2624.09,1040.13C2615.05,1051.28 2606.34,1062.68 2598.46,1074.68C2602.18,1074.52 2605.91,1074.39 2609.64,1074.24C2610.93,1074.19 2612.22,1074.13 2613.5,1074.08C2639.76,1072.89 2666.32,1067.8 2689.78,1055.49C2716.2,1041.63 2738.58,1021.1 2757.42,998.172C2780.46,970.143 2792.06,955.536 2810.63,924.288L2810.64,924.279C2822.63,908.331 2840.96,908.324 2855.91,920.894C2865.55,932.866 2867,946.851 2857.08,959.367C2856.44,960.19 2855.79,961.012 2855.15,961.833C2847.42,971.615 2839.91,980.732 2831.56,990.259C2830.99,990.92 2830.43,991.579 2829.86,992.238C2808.14,1017.31 2784.44,1040.9 2757.69,1060.62C2757.11,1061.05 2756.54,1061.49 2755.96,1061.92C2739.98,1073.81 2722.83,1084.3 2704.54,1092.24C2704.05,1092.46 2703.55,1092.68 2703.05,1092.9C2684.62,1101.05 2665.14,1106.47 2645.19,1109.14C2644.63,1109.21 2644.08,1109.31 2643.53,1109.39C2629.93,1111.39 2616.26,1112.08 2602.55,1112.81C2601.37,1112.88 2600.19,1112.94 2599.01,1113.01C2597.17,1113.12 2595.33,1113.25 2593.49,1113.39L2593.3,1113.4C2591.27,1113.64 2589.24,1113.91 2587.22,1114.24C2588.97,1123.57 2590.36,1132.43 2591.61,1141.93C2591.61,1141.93 2592.05,1144.39 2592.28,1145.62C2592.45,1146.55 2592.62,1147.48 2592.8,1148.41C2594.74,1159.1 2596.23,1168.84 2597.61,1179.62C2597.61,1179.62 2597.95,1181.68 2598.12,1182.71C2598.29,1183.74 2598.46,1184.78 2598.63,1185.81C2600.22,1195.75 2601.45,1204.75 2602.62,1214.78C2602.73,1215.58 2602.84,1216.38 2602.95,1217.18C2605.41,1235.91 2607.13,1254.72 2608.24,1273.57C2608.24,1273.57 2608.33,1280.07 2608.32,1283.32C2608.64,1285.03 2608.97,1286.73 2609.3,1288.43L2609.3,1288.44L2609.29,1288.94L2609.32,1289.05L2609.32,1289.06C2609.3,1289.55 2609.29,1290.04 2609.28,1290.53L2609.33,1290.79L2609.33,1290.8C2609.29,1291.38 2609.27,1291.97 2609.24,1292.55C2609.24,1293.2 2609.22,1293.85 2609.2,1294.5C2609.42,1295.53 2609.64,1296.55 2609.86,1297.58C2609.86,1297.58 2610.15,1299.8 2610.27,1300.91C2610.4,1302.02 2610.53,1303.12 2610.65,1304.22C2611.04,1307.49 2611.43,1310.76 2611.85,1314.03L2611.99,1315.11C2611.99,1315.11 2612.1,1317.94 2612.12,1319.36C2612.18,1323.54 2612.26,1327.71 2612.38,1331.89L2612.41,1332.81C2612.31,1333.86 2612.22,1334.92 2612.13,1335.97C2612.04,1336.99 2611.96,1338 2611.88,1339.01C2611.18,1347.64 2610.67,1355.23 2610.23,1363.84L2610.22,1363.91C2610.14,1364.86 2610.05,1365.81 2609.96,1366.76C2609.87,1367.73 2609.79,1368.69 2609.7,1369.66C2608.74,1380.71 2608.07,1390.79 2607.58,1401.87L2607.56,1402.22C2607.49,1403.34 2607.41,1404.46 2607.33,1405.57C2607.27,1406.5 2607.22,1407.42 2607.16,1408.35C2603.6,1466.34 2608.59,1524.64 2619.26,1581.68C2623.35,1603.57 2628.06,1625.97 2638.82,1645.75C2638.82,1645.75 2642.51,1650.94 2644.4,1653.51C2644.4,1653.51 2653.97,1664.45 2658.84,1669.85C2658.84,1669.85 2671.1,1681.87 2677.33,1687.77L2678.08,1688.49L2678.85,1689.25C2701.69,1741.6 2675.66,1803.45 2623.87,1825.6C2623.87,1825.6 2623.87,1825.6 2623.86,1825.6C2608.84,1831.14 2592.66,1835.34 2576.49,1833.83C2538.55,1830.28 2503.97,1805.21 2487.3,1771.17L2487.3,1771.16L2487.26,1770C2487.17,1768.41 2487.09,1766.81 2487.02,1765.22C2486.62,1756.88 2486.33,1749.8 2486.07,1741.46L2486.04,1740.28L2486.01,1739.55C2485.91,1738.25 2485.81,1736.95 2485.72,1735.65C2485.2,1728.75 2484.74,1721.86 2484.34,1714.96L2484.29,1714.23C2484.14,1712.98 2483.98,1711.73 2483.83,1710.48C2483.64,1709 2483.46,1707.52 2483.28,1706.03C2483.2,1705.29 2483.11,1704.55 2483.02,1703.81L2482.97,1703.34C2482.67,1702.07 2482.39,1700.79 2482.1,1699.52C2481.78,1698.09 2481.46,1696.67 2481.14,1695.24L2481.14,1695.22C2480.64,1693.87 2480.15,1692.52 2479.66,1691.17C2476.08,1681.32 2473.01,1672.49 2469.74,1662.54C2469.28,1661.17 2468.76,1659.83 2468.28,1658.47C2463.57,1645.22 2459.5,1632.93 2455.39,1619.48C2455.07,1618.44 2454.73,1617.41 2454.41,1616.38C2432.31,1546.25 2420.18,1474.25 2417.46,1400.81L2417.44,1400.08C2417.02,1370.61 2418.32,1342.87 2421.53,1313.67L2421.55,1313.54C2423.01,1306.6 2424.28,1300.84 2425.87,1293.92L2425.97,1293.47C2428.24,1286.79 2430.58,1280.13 2432.99,1273.5C2433.44,1272.54 2433.89,1271.58 2434.34,1270.61C2439.76,1259.16 2444.75,1249.04 2450.55,1237.73L2451.11,1236.62C2456.61,1227.01 2462.26,1217.47 2468.03,1208.01C2471.24,1197.47 2474.61,1186.95 2477.03,1176.2L2477.07,1175.77C2478.06,1161.78 2478.38,1149.76 2476.93,1136.1L2476.92,1136.06C2476.07,1131.12 2475.21,1126.71 2474.14,1121.83L2474.09,1121.61C2472.6,1116.42 2470.96,1111.28 2469.15,1106.19L2469.1,1106.06C2461.38,1086.99 2450.95,1069.72 2435.61,1055.48L2435.51,1055.38C2424.26,1045.65 2410.95,1038.61 2396.47,1035.15C2396.09,1035.07 2395.71,1034.99 2395.33,1034.91C2352.55,1026.29 2307.45,1045.93 2271.44,1066.59C2270.66,1067.04 2269.87,1067.5 2269.09,1067.95C2259.95,1073.29 2251.73,1078.45 2242.87,1084.3L2242.32,1084.66C2241.7,1085.09 2241.07,1085.51 2240.45,1085.93L2240.44,1085.93C2225.92,1093.57 2209.48,1090.46 2200.68,1075.18L2200.68,1075.17C2193.09,1058.51 2197.51,1042.25 2214.16,1034.01C2215.1,1033.55 2216.04,1033.08 2216.99,1032.62C2227.59,1027.46 2237.69,1022.84 2248.63,1018.28C2249.32,1017.99 2250.02,1017.69 2250.72,1017.39C2280.87,1004.67 2312.23,994.998 2344.86,991.668C2345.44,991.61 2346.02,991.554 2346.6,991.5C2351.91,991.015 2356.79,990.751 2362.12,990.691C2362.84,990.685 2363.55,990.682 2364.26,990.682C2400.04,990.797 2434.44,1002.63 2460.86,1027.45C2461.24,1027.8 2461.62,1028.14 2462,1028.49C2467.86,1033.87 2473.28,1039.7 2478.27,1045.91C2477.6,1043.36 2476.91,1040.82 2476.18,1038.28L2476.15,1038.17C2470.78,1021.37 2464.06,1004.92 2455.18,989.643L2455.06,989.448C2413.98,923.067 2335.05,908.599 2264.72,891.241L2262.78,890.762C2259.64,890.018 2256.5,889.272 2253.36,888.524C2251.03,887.969 2248.7,887.413 2246.38,886.856C2237.51,884.725 2228.66,882.517 2219.8,880.352C2218.97,880.148 2218.14,879.944 2217.31,879.739L2217.3,879.737L2211.81,877.742C2199.22,869.754 2195.07,858.002 2198.09,843.32L2198.09,843.301C2203,831.531 2210.47,824.683 2223.16,822.373C2225.04,822.434 2226.92,822.496 2228.8,822.557C2232.96,823.616 2232.89,823.413 2236.82,824.88C2237.6,825.17 2238.38,825.453 2239.16,825.739C2252.21,830.499 2261.99,833.969 2275.34,838.676C2281.77,840.969 2288.25,843.107 2294.71,845.317C2296.81,846.036 2298.91,846.756 2301.01,847.477C2328.62,856.985 2356.33,866.714 2382.76,879.228C2383.33,879.501 2383.91,879.762 2384.48,880.029C2405.29,889.771 2424.96,901.638 2442.63,916.34C2443.1,916.731 2443.56,917.124 2444.03,917.518C2461.5,932.395 2476.1,950.295 2487.5,970.197C2487.8,970.708 2488.11,971.221 2488.41,971.734C2498.53,988.923 2506.35,1007.31 2512.66,1026.26C2512.95,1027.05 2513.24,1027.85 2513.53,1028.65C2516.18,1036.13 2518.42,1043.1 2520.67,1050.73C2520.98,1051.77 2521.35,1052.81 2521.68,1053.84C2523.6,1059.84 2525.21,1065.23 2526.94,1071.31C2526.94,1071.31 2527.66,1073.54 2528.02,1074.65C2528.32,1075.54 2528.61,1076.44 2528.9,1077.34C2530.23,1081.48 2531.52,1085.63 2532.77,1089.8C2532.77,1089.8 2533.25,1091.22 2533.5,1091.93" style="fill:rgb(235,235,235);"/>
            </g>
        </g>
        <g transform="matrix(1,0,0,0.970588,9751.15,1466.95)">
            <g transform="matrix(0.984566,0,0,1.0144,1215.71,-120.693)">
                <g transform="matrix(1.01453,5.55112e-17,-5.55112e-17,1.01453,-3556.76,-4747.92)">
                    <path d="M4097.93,5592.69L4097.93,5663.26" style="fill:none;stroke:black;stroke-width:8.34px;"/>
                </g>
                <g transform="matrix(6.61067e-18,1.01453,-1.01453,6.61067e-18,6310.43,-3195.65)">
                    <path d="M4097.93,5592.69L4097.93,5663.26" style="fill:none;stroke:black;stroke-width:8.34px;"/>
                </g>
            </g>
        </g>
    </g>
</svg>
