<?xml version="1.0" encoding="UTF-8" standalone="no"?>
<!DOCTYPE svg PUBLIC "-//W3C//DTD SVG 1.1//EN" "http://www.w3.org/Graphics/SVG/1.1/DTD/svg11.dtd">
<svg width="100%" height="100%" viewBox="0 0 200 150" version="1.1" xmlns="http://www.w3.org/2000/svg" xmlns:xlink="http://www.w3.org/1999/xlink" xml:space="preserve" style="fill-rule:evenodd;clip-rule:evenodd;stroke-linejoin:round;stroke-miterlimit:1.41421;">
    <g transform="matrix(1,0,0,1,-2.22388,2.72877)">
        <path d="M51.183,98.557L51.072,98.561L50.962,98.562L50.851,98.56L50.741,98.556L50.631,98.55L50.521,98.54L50.412,98.529L50.302,98.514L50.193,98.498L50.085,98.479L49.976,98.458L49.868,98.435L49.76,98.41L49.653,98.382L49.546,98.353L49.439,98.322L49.386,98.305L49.332,98.288L49.226,98.253L49.12,98.216L49.015,98.177L48.909,98.137L48.804,98.094L48.699,98.05L48.595,98.005L48.491,97.957L48.387,97.908L48.283,97.858L48.179,97.806L48.076,97.752L47.973,97.697L47.869,97.641L47.767,97.583L47.664,97.524L47.561,97.463L47.459,97.401L47.356,97.338L47.254,97.273L47.152,97.207L47.05,97.139L46.948,97.071L46.847,97.001L46.745,96.93L46.643,96.858L46.542,96.785L46.44,96.71L46.339,96.634L46.237,96.557L46.136,96.48L46.035,96.401L45.934,96.321L45.833,96.239L45.731,96.157L45.629,96.073L45.428,95.905L45.227,95.732L45.025,95.555L44.823,95.375L44.622,95.191L44.421,95.004L44.219,94.814L44.018,94.62L43.818,94.424L43.617,94.225L43.416,94.024L43.216,93.82L43.016,93.614L42.816,93.405L42.616,93.195L42.417,92.983L42.218,92.769L42.019,92.553L41.821,92.336L41.623,92.117L41.425,91.898L41.228,91.677L41.031,91.455L40.835,91.233L40.638,91.01L40.249,90.563L39.861,90.115L39.476,89.668L39.094,89.222L38.342,88.342L38.253,88.239L38.165,88.139L38.076,88.039L37.987,87.941L37.896,87.843L37.806,87.747L37.714,87.651L37.623,87.556L37.53,87.462L37.437,87.369L37.343,87.277L37.249,87.185L37.155,87.095L37.06,87.005L36.964,86.917L36.868,86.829L36.772,86.742L36.675,86.656L36.578,86.571L36.481,86.487L36.383,86.403L36.285,86.321L36.187,86.239L36.089,86.159L35.99,86.079L35.891,86L35.792,85.922L35.693,85.844L35.593,85.768L35.494,85.692L35.394,85.618L35.295,85.544L35.195,85.471L35.097,85.4L34.896,85.257L34.697,85.119L34.498,84.985L34.3,84.854L34.102,84.726L33.906,84.601L33.71,84.48L33.516,84.362L33.323,84.248L33.132,84.137L32.943,84.029L32.756,83.925L32.571,83.824L32.388,83.726L32.208,83.632L32.031,83.54L31.856,83.452L31.685,83.367L31.517,83.286L31.353,83.207L31.192,83.132L31.035,83.06L30.883,82.991L30.734,82.925L30.59,82.862L30.451,82.802L30.316,82.745L30.187,82.692L30.062,82.641L29.943,82.593L29.882,82.569L29.862,82.625L29.834,82.711L29.805,82.801L29.777,82.896L29.75,82.996L29.724,83.101L29.698,83.21L29.673,83.324L29.65,83.443L29.628,83.566L29.607,83.695L29.588,83.832L29.58,83.897L29.571,83.967L29.564,84.039L29.557,84.111L29.55,84.185L29.544,84.26L29.539,84.336L29.534,84.414L29.53,84.493L29.526,84.573L29.523,84.655L29.521,84.738L29.52,84.822L29.519,84.907L29.519,84.994L29.52,85.083L29.522,85.172L29.525,85.263L29.528,85.355L29.533,85.449L29.538,85.544L29.544,85.641L29.551,85.738L29.559,85.837L29.569,85.938L29.579,86.04L29.59,86.143L29.602,86.248L29.616,86.354L29.63,86.462L29.646,86.571L29.662,86.681L29.68,86.793L29.7,86.907L29.72,87.021L29.742,87.137L29.764,87.255L29.789,87.374L29.814,87.495L29.841,87.617L29.869,87.74L29.899,87.865L29.93,87.992L29.962,88.12L29.996,88.249L30.032,88.38L30.069,88.512L30.107,88.646L30.147,88.781L30.189,88.918L30.232,89.056L30.277,89.196L30.323,89.338L30.371,89.481L30.421,89.625L30.473,89.771L30.526,89.918L30.581,90.067L30.638,90.218L30.696,90.37L30.819,90.684L30.942,90.992L31.064,91.295L31.186,91.593L31.307,91.887L31.428,92.175L31.548,92.459L31.667,92.739L31.786,93.014L31.904,93.285L32.022,93.552L32.138,93.814L32.369,94.33L32.596,94.832L32.819,95.32L33.038,95.797L33.252,96.263L33.461,96.72L33.665,97.169L33.863,97.61L33.96,97.83L34.055,98.047L34.149,98.263L34.241,98.479L34.331,98.693L34.42,98.907L34.506,99.119L34.591,99.332L34.674,99.544L34.754,99.756L34.833,99.968L34.909,100.18L34.983,100.392L35.055,100.605L35.125,100.818L35.192,101.031L35.256,101.245L35.318,101.46L35.377,101.676L35.433,101.893L35.486,102.111L35.536,102.327L35.561,102.439L35.584,102.55L35.607,102.66L35.628,102.771L35.649,102.883L35.67,102.995L35.689,103.107L35.707,103.219L35.725,103.332L35.742,103.445L35.758,103.559L35.773,103.673L35.787,103.788L35.8,103.903L35.813,104.018L35.824,104.134L35.835,104.251L35.845,104.368L35.854,104.485L35.861,104.603L35.868,104.721L35.874,104.84L35.879,104.96L35.884,105.08L35.887,105.2L35.889,105.321L35.89,105.443L35.89,105.566L35.889,105.701L35.887,105.835L35.883,105.97L35.878,106.103L35.871,106.235L35.863,106.367L35.854,106.498L35.844,106.629L35.832,106.758L35.819,106.887L35.804,107.015L35.788,107.142L35.771,107.269L35.753,107.395L35.734,107.52L35.714,107.644L35.692,107.768L35.669,107.891L35.645,108.013L35.62,108.135L35.594,108.256L35.567,108.376L35.539,108.496L35.51,108.614L35.48,108.733L35.449,108.85L35.417,108.967L35.384,109.083L35.351,109.198L35.316,109.313L35.281,109.428L35.244,109.541L35.207,109.654L35.169,109.767L35.131,109.878L35.092,109.99L35.051,110.1L35.01,110.212L34.927,110.429L34.841,110.645L34.764,110.833L34.753,110.859L34.663,111.071L34.571,111.282L34.476,111.491L34.381,111.698L34.283,111.903L34.185,112.107L34.085,112.309L33.984,112.511L33.882,112.711L33.779,112.91L33.675,113.108L33.571,113.306L33.363,113.697L32.944,114.476L32.736,114.865L32.634,115.059L32.532,115.253L32.431,115.448L32.33,115.643L32.231,115.838L32.133,116.034L32.036,116.23L31.941,116.428L31.847,116.626L31.754,116.825L31.664,117.025L31.575,117.226L31.488,117.429L31.403,117.633L31.32,117.838L31.238,118.047L31.199,118.149L31.16,118.254L31.122,118.359L31.084,118.464L31.047,118.57L31.01,118.677L30.974,118.784L30.939,118.891L30.904,118.999L30.871,119.108L30.837,119.217L30.805,119.326L30.774,119.432L30.745,119.538L30.717,119.643L30.691,119.748L30.665,119.853L30.641,119.957L30.618,120.062L30.596,120.166L30.575,120.27L30.556,120.373L30.537,120.476L30.52,120.579L30.503,120.682L30.488,120.784L30.474,120.886L30.46,120.988L30.448,121.089L30.437,121.19L30.426,121.291L30.417,121.392L30.409,121.492L30.401,121.591L30.395,121.691L30.389,121.789L30.384,121.888L30.38,121.986L30.377,122.084L30.375,122.181L30.374,122.278L30.373,122.374L30.374,122.47L30.375,122.566L30.377,122.661L30.379,122.755L30.382,122.849L30.386,122.943L30.391,123.036L30.397,123.128L30.403,123.22L30.409,123.311L30.417,123.402L30.425,123.49L30.443,123.671L30.463,123.848L30.485,124.021L30.509,124.193L30.536,124.361L30.564,124.527L30.593,124.69L30.625,124.85L30.657,125.006L30.691,125.16L30.726,125.31L30.762,125.457L30.799,125.601L30.837,125.741L30.875,125.877L30.914,126.01L30.953,126.139L30.992,126.264L31.025,126.367L31.028,126.365L31.372,126.141L31.743,125.896L31.936,125.767L32.136,125.633L32.34,125.494L32.549,125.352L32.763,125.205L32.98,125.054L33.201,124.9L33.425,124.742L33.651,124.581L33.88,124.417L34.11,124.249L34.342,124.079L34.576,123.906L34.81,123.731L35.044,123.554L35.278,123.374L35.511,123.192L35.744,123.009L35.976,122.824L36.205,122.638L36.433,122.451L36.658,122.263L36.88,122.074L37.099,121.885L37.315,121.694L37.42,121.6L37.525,121.505L37.629,121.411L37.731,121.316L37.832,121.221L37.932,121.127L38.031,121.033L38.128,120.938L38.224,120.845L38.318,120.751L38.41,120.658L38.501,120.565L38.591,120.473L38.678,120.381L38.764,120.289L38.848,120.198L38.93,120.107L39.009,120.018L39.087,119.928L39.163,119.84L39.237,119.752L39.308,119.665L39.378,119.579L39.445,119.494L39.509,119.41L39.572,119.327L39.631,119.245L39.689,119.165L39.744,119.085L39.796,119.007L39.845,118.931L39.892,118.856L39.936,118.783L39.978,118.711L40.016,118.642L40.052,118.574L40.085,118.509L40.121,118.436L40.172,118.328L40.228,118.211L40.286,118.095L40.344,117.979L40.403,117.864L40.462,117.749L40.464,117.747L40.522,117.635L40.583,117.521L40.645,117.408L40.708,117.296L40.771,117.184L40.835,117.072L40.9,116.961L40.965,116.851L41.031,116.741L41.098,116.632L41.165,116.524L41.234,116.416L41.303,116.309L41.372,116.202L41.442,116.096L41.513,115.991L41.585,115.886L41.657,115.782L41.73,115.678L41.803,115.576L41.877,115.473L41.952,115.372L42.028,115.271L42.104,115.171L42.18,115.072L42.257,114.973L42.335,114.875L42.414,114.777L42.493,114.68L42.572,114.584L42.652,114.489L42.733,114.394L42.814,114.301L42.896,114.207L42.979,114.115L43.062,114.023L43.145,113.932L43.229,113.842L43.314,113.753L43.399,113.664L43.484,113.576L43.57,113.489L43.657,113.403L43.744,113.317L43.832,113.232L43.92,113.148L44.008,113.065L44.098,112.982L44.187,112.901L44.277,112.82L44.368,112.74L44.459,112.661L44.55,112.583L44.642,112.505L44.734,112.429L44.827,112.353L44.92,112.278L45.014,112.204L45.108,112.131L45.203,112.059L45.298,111.987L45.393,111.917L45.489,111.847L45.585,111.778L45.682,111.711L45.779,111.644L45.876,111.578L45.974,111.513L46.072,111.449L46.171,111.386L46.27,111.324L46.369,111.262L46.469,111.202L46.569,111.143L46.669,111.085L46.77,111.028L46.871,110.971L46.973,110.916L47.075,110.862L47.177,110.809L47.279,110.757L47.382,110.706L47.485,110.655L47.589,110.607L47.693,110.559L47.797,110.512L47.901,110.466L48.006,110.421L48.111,110.378L48.217,110.336L48.323,110.294L48.429,110.254L48.535,110.215L48.641,110.177L48.748,110.141L48.855,110.105L48.963,110.071L49.071,110.038L49.178,110.006L49.287,109.976L49.395,109.946L49.504,109.918L49.613,109.891L49.722,109.866L49.831,109.841L49.941,109.818L50.05,109.797L50.16,109.776L50.271,109.757L50.381,109.739L50.492,109.723L50.602,109.708L50.713,109.695L50.824,109.682L50.935,109.672L51.047,109.662L51.158,109.655L51.27,109.648L51.381,109.643L51.493,109.64L51.605,109.638L51.722,109.637L51.868,109.64L52.02,109.646L52.173,109.656L52.325,109.67L52.479,109.687L52.633,109.707L52.788,109.731L52.944,109.757L53.101,109.786L53.259,109.817L53.419,109.851L53.58,109.888L53.742,109.927L53.906,109.969L54.071,110.013L54.238,110.06L54.407,110.108L54.577,110.159L54.749,110.212L54.922,110.267L55.098,110.325L55.274,110.384L55.453,110.445L55.633,110.508L55.815,110.574L55.999,110.641L56.184,110.71L56.371,110.78L56.559,110.853L56.75,110.927L56.941,111.003L57.135,111.081L57.33,111.16L57.526,111.241L57.724,111.323L57.925,111.408L58.327,111.579L58.736,111.757L59.151,111.94L59.571,112.128L59.996,112.321L60.425,112.518L60.859,112.72L61.298,112.925L61.74,113.133L62.186,113.345L62.635,113.56L63.088,113.777L64,114.218L64.922,114.665L65.851,115.117L66.783,115.57L67.487,115.91L67.718,116.021L68.186,116.243L68.653,116.464L69.12,116.683L69.585,116.901L70.049,117.117L70.511,117.33L70.971,117.54L71.428,117.747L71.882,117.951L72.333,118.151L72.781,118.347L73.224,118.538L73.665,118.725L73.882,118.816L74.098,118.907L74.314,118.995L74.482,119.064L74.528,119.083L74.741,119.167L74.953,119.251L75.163,119.333L75.372,119.413L75.579,119.492L75.785,119.569L75.989,119.645L76.191,119.719L76.392,119.791L76.59,119.861L76.787,119.93L76.982,119.996L77.174,120.061L77.365,120.124L77.554,120.184L77.74,120.243L77.924,120.3L78.105,120.354L78.383,120.436L78.664,120.515L78.95,120.594L79.239,120.671L79.533,120.747L79.83,120.821L80.132,120.894L80.437,120.965L80.746,121.036L81.058,121.104L81.374,121.172L81.694,121.238L82.017,121.302L82.103,121.319L82.344,121.365L82.674,121.426L83.007,121.485L83.344,121.543L83.683,121.6L84.026,121.655L84.372,121.708L84.721,121.761L85.073,121.811L85.427,121.861L85.785,121.909L86.145,121.955L86.507,122.001L86.873,122.044L87.241,122.086L87.611,122.127L87.984,122.167L88.359,122.205L88.737,122.241L89.116,122.276L89.498,122.31L89.882,122.342L90.268,122.373L90.656,122.403L91.046,122.431L91.438,122.458L91.832,122.483L92.228,122.507L92.625,122.529L93.024,122.55L93.424,122.57L93.826,122.588L94.23,122.605L94.635,122.621L95.041,122.635L95.449,122.647L95.858,122.659L96.268,122.669L96.679,122.677L97.092,122.685L97.505,122.69L97.919,122.695L98.334,122.698L98.751,122.7L99.167,122.7L99.271,122.7L99.585,122.7L100.003,122.699L100.422,122.697L100.842,122.693L101.262,122.688L101.682,122.682L102.103,122.674L102.524,122.665L102.945,122.655L103.367,122.643L103.789,122.63L104.211,122.616L104.633,122.6L105.055,122.583L105.477,122.565L105.899,122.545L106.32,122.525L106.742,122.502L107.163,122.479L107.584,122.454L108.004,122.428L108.424,122.401L108.843,122.373L109.262,122.343L109.68,122.312L110.098,122.28L110.514,122.246L110.93,122.212L111.345,122.176L111.759,122.138L112.172,122.1L112.584,122.06L112.995,122.019L113.405,121.977L113.814,121.934L114.221,121.889L114.627,121.843L115.032,121.796L115.435,121.748L115.836,121.699L116.237,121.648L116.635,121.597L116.878,121.564L117.032,121.545L117.427,121.494L117.821,121.441L118.212,121.388L118.602,121.333L118.99,121.277L119.376,121.22L119.76,121.162L120.141,121.102L120.52,121.042L120.898,120.98L121.272,120.917L121.645,120.853L122.015,120.788L122.382,120.722L122.747,120.655L123.109,120.587L123.468,120.517L123.825,120.447L124.179,120.375L124.53,120.302L124.878,120.228L125.223,120.154L125.254,120.147L125.566,120.08L125.905,120.006L126.241,119.931L126.574,119.855L126.905,119.778L127.335,119.675L127.762,119.571L128.186,119.467L128.606,119.362L129.022,119.257L129.434,119.15L129.843,119.043L130.247,118.935L130.648,118.827L131.046,118.718L131.439,118.608L131.829,118.497L132.215,118.386L132.597,118.274L132.975,118.161L133.127,118.115L133.35,118.05L133.721,117.939L134.089,117.827L134.453,117.715L134.813,117.602L135.169,117.488L135.521,117.374L135.87,117.259L136.215,117.143L136.555,117.026L136.892,116.909L137.225,116.791L137.554,116.672L137.879,116.553L138.201,116.433L138.518,116.313L138.832,116.191L139.141,116.069L139.447,115.947L139.748,115.823L140.046,115.699L140.34,115.575L140.629,115.449L140.915,115.324L141.197,115.197L141.474,115.07L141.748,114.942L142.018,114.814L142.284,114.685L142.545,114.556L142.803,114.426L143.056,114.295L143.306,114.164L143.552,114.033L143.793,113.901L144.03,113.768L144.264,113.635L144.493,113.501L144.718,113.367L144.939,113.233L145.156,113.098L145.369,112.962L145.578,112.827L145.783,112.691L145.984,112.554L146.18,112.417L146.376,112.278L146.467,112.211L146.561,112.143L146.654,112.074L146.746,112.005L146.767,111.989L146.836,111.936L146.926,111.867L147.015,111.799L147.103,111.73L147.19,111.661L147.276,111.592L147.361,111.523L147.445,111.454L147.527,111.385L147.609,111.315L147.69,111.246L147.77,111.177L147.849,111.107L147.927,111.038L148.004,110.969L148.079,110.899L148.154,110.829L148.228,110.76L148.301,110.69L148.373,110.621L148.444,110.551L148.514,110.481L148.583,110.412L148.651,110.342L148.718,110.272L148.784,110.202L148.849,110.132L148.913,110.062L148.976,109.993L149.038,109.923L149.099,109.853L149.16,109.783L149.219,109.713L149.277,109.643L149.335,109.573L149.391,109.503L149.447,109.433L149.502,109.363L149.555,109.293L149.608,109.223L149.66,109.153L149.711,109.083L149.761,109.013L149.81,108.943L149.859,108.873L149.906,108.803L149.953,108.732L149.998,108.662L150.043,108.592L150.087,108.522L150.13,108.452L150.173,108.381L150.214,108.311L150.254,108.241L150.294,108.17L150.333,108.1L150.371,108.03L150.408,107.959L150.445,107.889L150.48,107.818L150.515,107.747L150.549,107.676L150.582,107.606L150.614,107.535L150.646,107.464L150.677,107.393L150.707,107.322L150.736,107.25L150.764,107.179L150.792,107.108L150.819,107.036L150.845,106.964L150.87,106.893L150.895,106.821L150.919,106.749L150.942,106.676L150.964,106.604L150.986,106.531L151.007,106.459L151.027,106.386L151.046,106.312L151.065,106.239L151.083,106.166L151.1,106.092L151.117,106.018L151.132,105.944L151.147,105.869L151.162,105.795L151.175,105.72L151.188,105.644L151.2,105.569L151.212,105.493L151.222,105.417L151.232,105.341L151.241,105.264L151.25,105.187L151.257,105.11L151.264,105.032L151.27,104.954L151.276,104.876L151.28,104.797L151.284,104.718L151.288,104.639L151.29,104.559L151.292,104.479L151.293,104.399L151.293,104.318L151.292,104.237L151.291,104.155L151.288,104.073L151.285,103.99L151.282,103.908L151.277,103.824L151.272,103.74L151.265,103.656L151.258,103.572L151.251,103.487L151.242,103.401L151.232,103.315L151.222,103.229L151.211,103.142L151.199,103.055L151.186,102.967L151.173,102.878L151.158,102.79L151.143,102.701L151.126,102.611L151.11,102.524L151.093,102.441L151.077,102.362L151.059,102.283L151.04,102.204L151.02,102.125L150.999,102.047L150.977,101.969L150.954,101.89L150.931,101.812L150.906,101.734L150.88,101.656L150.853,101.579L150.825,101.501L150.796,101.423L150.765,101.346L150.734,101.268L150.702,101.191L150.669,101.113L150.634,101.036L150.599,100.959L150.562,100.881L150.525,100.804L150.486,100.727L150.446,100.649L150.405,100.572L150.363,100.495L150.32,100.418L150.276,100.34L150.231,100.263L150.184,100.186L150.137,100.108L150.088,100.031L150.038,99.954L149.987,99.877L149.935,99.799L149.881,99.722L149.827,99.645L149.771,99.568L149.714,99.49L149.656,99.413L149.597,99.336L149.537,99.259L149.475,99.181L149.413,99.104L149.349,99.027L149.284,98.95L149.218,98.873L149.15,98.796L149.082,98.719L149.012,98.642L148.941,98.565L148.869,98.488L148.796,98.411L148.722,98.334L148.646,98.258L148.569,98.181L148.566,98.177L148.492,98.104L148.413,98.027L148.333,97.951L148.251,97.874L148.169,97.798L148.086,97.721L148.001,97.645L147.915,97.569L147.828,97.493L147.74,97.417L147.651,97.341L147.56,97.265L147.469,97.189L147.376,97.114L147.282,97.038L147.187,96.963L147.091,96.888L146.994,96.813L146.896,96.738L146.796,96.663L146.696,96.589L146.594,96.515L146.492,96.44L146.388,96.366L146.283,96.292L146.177,96.219L146.07,96.145L145.962,96.072L145.853,95.998L145.743,95.925L145.631,95.853L145.519,95.78L145.406,95.708L145.291,95.635L145.176,95.563L145.06,95.491L144.942,95.42L144.826,95.35L144.584,95.206L144.34,95.065L144.092,94.924L143.84,94.784L143.585,94.646L143.325,94.508L143.062,94.371L142.795,94.235L142.525,94.1L142.251,93.966L141.973,93.833L141.692,93.701L141.408,93.57L141.12,93.44L140.828,93.311L140.534,93.183L140.236,93.056L139.935,92.93L139.63,92.806L139.323,92.682L139.012,92.559L138.699,92.438L138.382,92.317L138.063,92.198L137.74,92.079L137.415,91.962L137.087,91.846L136.757,91.731L136.423,91.617L136.087,91.504L135.749,91.393L135.407,91.282L135.064,91.172L134.717,91.064L134.369,90.957L134.018,90.851L133.664,90.746L133.309,90.642L132.951,90.539L132.591,90.437L132.229,90.337L131.865,90.237L131.498,90.139L131.13,90.042L130.76,89.946L130.387,89.851L130.013,89.757L129.637,89.664L129.26,89.572L128.88,89.482L128.499,89.393L128.116,89.304L127.732,89.217L127.346,89.131L126.958,89.046L126.569,88.962L126.179,88.879L125.787,88.798L125.394,88.717L124.999,88.638L124.604,88.559L124.207,88.482L123.809,88.406L123.409,88.331L123.009,88.257L122.608,88.184L122.205,88.112L121.802,88.041L121.398,87.972L120.993,87.903L120.587,87.836L120.18,87.769L119.773,87.704L119.365,87.639L118.956,87.576L118.546,87.514L118.136,87.453L117.726,87.393L117.315,87.334L116.904,87.276L116.493,87.219L116.086,87.164L115.678,87.112L115.27,87.062L114.859,87.015L114.447,86.969L114.034,86.926L113.619,86.885L113.203,86.847L112.786,86.81L112.368,86.776L111.948,86.743L111.527,86.713L111.106,86.685L110.683,86.659L110.26,86.635L109.835,86.614L109.41,86.594L108.984,86.576L108.557,86.56L108.129,86.547L107.701,86.535L107.273,86.525L106.843,86.517L106.414,86.511L106.126,86.509L105.984,86.507L105.553,86.504L105.122,86.503L104.691,86.504L104.26,86.507L103.828,86.512L103.397,86.518L102.965,86.526L102.533,86.536L102.102,86.548L101.67,86.561L101.239,86.576L100.807,86.593L100.376,86.611L99.946,86.632L99.515,86.653L99.085,86.677L98.656,86.702L98.227,86.728L97.798,86.757L97.37,86.786L96.943,86.818L96.516,86.851L96.09,86.885L95.665,86.921L95.241,86.958L94.817,86.997L94.395,87.037L93.973,87.078L93.553,87.121L93.133,87.165L92.715,87.211L92.298,87.258L91.882,87.306L91.468,87.356L91.055,87.407L90.643,87.459L90.233,87.512L89.824,87.567L89.416,87.623L89.011,87.68L88.607,87.738L88.204,87.797L87.804,87.858L87.405,87.919L87.008,87.982L86.613,88.046L86.219,88.11L85.828,88.176L85.439,88.243L85.052,88.311L84.667,88.38L84.284,88.449L83.904,88.52L83.525,88.592L83.15,88.664L82.776,88.738L82.405,88.812L82.036,88.887L81.67,88.963L81.307,89.04L80.946,89.117L80.588,89.195L80.233,89.274L79.88,89.354L79.531,89.435L79.184,89.516L78.84,89.598L78.499,89.68L78.161,89.763L77.827,89.847L77.495,89.931L77.167,90.016L76.842,90.101L76.52,90.187L76.201,90.274L75.886,90.361L75.575,90.448L75.267,90.536L74.962,90.624L74.662,90.713L74.364,90.802L74.071,90.891L73.781,90.981L73.496,91.071L73.214,91.161L72.936,91.252L72.662,91.343L72.392,91.434L72.126,91.525L71.865,91.616L71.607,91.708L71.354,91.8L71.106,91.891L70.861,91.983L70.621,92.075L70.386,92.167L70.155,92.259L69.929,92.351L69.708,92.442L69.491,92.534L69.279,92.625L69.072,92.717L68.869,92.808L68.481,92.986L68.102,93.161L67.734,93.333L67.377,93.501L67.03,93.665L66.693,93.825L66.365,93.982L66.047,94.136L65.434,94.434L64.853,94.718L63.773,95.25L63.268,95.498L62.782,95.734L62.544,95.849L62.311,95.961L62.08,96.07L61.853,96.176L61.628,96.28L61.404,96.382L61.183,96.481L60.963,96.577L60.744,96.672L60.526,96.763L60.307,96.853L60.089,96.94L59.871,97.024L59.652,97.106L59.432,97.186L59.21,97.263L58.987,97.338L58.763,97.411L58.536,97.481L58.307,97.549L58.075,97.614L57.84,97.677L57.602,97.738L57.361,97.796L57.115,97.852L56.866,97.906L56.612,97.958L56.353,98.008L56.089,98.055L55.82,98.101L55.545,98.144L55.265,98.185L54.977,98.225L54.683,98.263L54.382,98.299L54.074,98.333L53.758,98.366L53.433,98.397L53.1,98.426L52.758,98.454L52.407,98.48L52.127,98.5L52.046,98.505L51.675,98.528L51.326,98.549L51.183,98.557ZM51.866,96.25L51.944,96.242L52.213,96.216L52.55,96.181L52.876,96.146L53.192,96.109L53.499,96.071L53.797,96.033L54.086,95.993L54.366,95.951L54.638,95.909L54.902,95.865L55.159,95.82L55.409,95.773L55.652,95.725L55.888,95.676L56.119,95.625L56.344,95.573L56.565,95.519L56.78,95.464L56.991,95.406L57.198,95.347L57.402,95.287L57.603,95.224L57.801,95.159L57.998,95.093L58.192,95.024L58.385,94.953L58.578,94.88L58.77,94.804L58.962,94.726L59.154,94.646L59.348,94.563L59.542,94.477L59.738,94.388L59.936,94.296L60.137,94.202L60.34,94.104L60.547,94.003L60.757,93.899L60.97,93.792L61.188,93.681L61.41,93.567L61.637,93.45L62.108,93.205L62.601,92.946L63.668,92.384L64.246,92.081L64.858,91.763L65.178,91.598L65.507,91.429L65.846,91.256L66.195,91.079L66.554,90.898L66.924,90.713L67.306,90.524L67.7,90.331L67.918,90.225L68.142,90.118L68.371,90.012L68.604,89.906L68.841,89.8L69.082,89.695L69.328,89.589L69.577,89.484L69.831,89.379L70.089,89.274L70.35,89.169L70.616,89.064L70.886,88.96L71.16,88.856L71.437,88.752L71.719,88.648L72.004,88.545L72.293,88.442L72.586,88.339L72.882,88.237L73.182,88.135L73.486,88.033L73.793,87.932L74.104,87.831L74.418,87.731L74.736,87.631L75.057,87.531L75.381,87.432L75.709,87.334L76.04,87.236L76.374,87.138L76.711,87.041L77.052,86.944L77.395,86.848L77.742,86.753L78.091,86.658L78.444,86.564L78.799,86.471L79.158,86.378L79.519,86.286L79.883,86.194L80.249,86.104L80.619,86.014L80.991,85.925L81.365,85.836L81.742,85.749L82.122,85.662L82.504,85.576L82.888,85.491L83.275,85.407L83.664,85.323L84.056,85.241L84.449,85.159L84.845,85.079L85.243,84.999L85.643,84.921L86.045,84.843L86.449,84.767L86.855,84.691L87.263,84.617L87.673,84.544L88.085,84.471L88.498,84.4L88.913,84.33L89.33,84.262L89.748,84.194L90.169,84.128L90.59,84.063L91.013,83.999L91.438,83.936L91.864,83.875L92.291,83.815L92.72,83.756L93.15,83.699L93.581,83.643L94.013,83.589L94.446,83.536L94.881,83.484L95.316,83.434L95.753,83.385L96.191,83.338L96.629,83.292L97.068,83.248L97.508,83.205L97.949,83.164L98.391,83.124L98.833,83.086L99.276,83.05L99.719,83.016L100.163,82.983L100.608,82.951L101.053,82.922L101.498,82.894L101.944,82.868L102.39,82.844L102.836,82.821L103.283,82.801L103.73,82.782L104.176,82.765L104.623,82.75L105.07,82.737L105.517,82.726L105.964,82.717L106.112,82.714L106.411,82.71L106.858,82.705L107.304,82.703L107.751,82.702L108.197,82.704L108.643,82.708L109.088,82.713L109.533,82.721L109.977,82.731L110.421,82.743L110.865,82.758L111.308,82.774L111.75,82.793L112.192,82.814L112.633,82.837L113.073,82.863L113.512,82.891L113.95,82.921L114.388,82.954L114.825,82.989L115.26,83.026L115.695,83.066L116.129,83.109L116.561,83.154L116.991,83.201L117.416,83.249L117.839,83.299L118.262,83.349L118.685,83.401L119.107,83.453L119.529,83.507L119.951,83.562L120.372,83.618L120.792,83.675L121.212,83.734L121.631,83.793L122.05,83.854L122.468,83.916L122.885,83.979L123.302,84.043L123.718,84.108L124.132,84.175L124.546,84.242L124.959,84.311L125.372,84.381L125.783,84.452L126.193,84.525L126.602,84.599L127.01,84.673L127.416,84.75L127.822,84.827L128.226,84.905L128.629,84.985L129.031,85.066L129.432,85.149L129.831,85.232L130.229,85.317L130.625,85.403L131.019,85.491L131.413,85.579L131.804,85.669L132.194,85.761L132.583,85.853L132.97,85.947L133.355,86.043L133.738,86.139L134.12,86.237L134.499,86.337L134.877,86.437L135.253,86.539L135.627,86.643L135.999,86.748L136.369,86.854L136.737,86.961L137.103,87.07L137.467,87.181L137.829,87.293L138.188,87.406L138.545,87.521L138.9,87.637L139.253,87.755L139.604,87.874L139.952,87.995L140.297,88.117L140.641,88.241L140.981,88.366L141.32,88.493L141.656,88.621L141.989,88.751L142.319,88.883L142.647,89.016L142.973,89.151L143.295,89.287L143.615,89.425L143.932,89.565L144.247,89.706L144.558,89.849L144.867,89.994L145.172,90.141L145.475,90.289L145.775,90.44L146.072,90.592L146.366,90.746L146.656,90.901L146.944,91.059L147.226,91.217L147.369,91.299L147.51,91.38L147.649,91.461L147.788,91.543L147.925,91.626L148.062,91.709L148.199,91.792L148.334,91.876L148.468,91.961L148.602,92.046L148.735,92.132L148.867,92.218L148.998,92.304L149.128,92.391L149.258,92.479L149.386,92.567L149.514,92.656L149.641,92.746L149.766,92.836L149.891,92.926L150.016,93.017L150.139,93.109L150.261,93.201L150.382,93.294L150.503,93.387L150.622,93.481L150.741,93.576L150.859,93.671L150.976,93.767L151.091,93.863L151.206,93.96L151.32,94.058L151.433,94.156L151.545,94.255L151.656,94.355L151.766,94.455L151.874,94.556L151.982,94.658L152.089,94.76L152.195,94.863L152.299,94.967L152.403,95.071L152.505,95.176L152.607,95.282L152.707,95.389L152.806,95.496L152.904,95.604L153.001,95.712L153.097,95.822L153.192,95.932L153.286,96.042L153.378,96.154L153.47,96.266L153.56,96.379L153.649,96.493L153.736,96.607L153.823,96.722L153.908,96.838L153.992,96.955L154.075,97.072L154.157,97.191L154.237,97.31L154.316,97.429L154.394,97.55L154.47,97.671L154.545,97.793L154.619,97.916L154.691,98.039L154.762,98.163L154.831,98.288L154.899,98.414L154.966,98.541L155.031,98.668L155.095,98.796L155.157,98.925L155.218,99.054L155.277,99.184L155.335,99.315L155.391,99.447L155.445,99.579L155.499,99.713L155.55,99.846L155.6,99.981L155.648,100.116L155.695,100.252L155.739,100.388L155.783,100.525L155.824,100.663L155.864,100.802L155.902,100.941L155.939,101.08L155.974,101.221L156.007,101.362L156.037,101.5L156.065,101.634L156.092,101.765L156.117,101.896L156.141,102.026L156.164,102.157L156.186,102.287L156.206,102.418L156.226,102.549L156.244,102.679L156.261,102.809L156.277,102.94L156.292,103.07L156.305,103.2L156.317,103.33L156.328,103.46L156.338,103.59L156.347,103.719L156.354,103.849L156.36,103.979L156.365,104.108L156.369,104.237L156.371,104.367L156.372,104.496L156.372,104.625L156.371,104.753L156.368,104.882L156.365,105.011L156.36,105.139L156.353,105.267L156.346,105.395L156.337,105.523L156.327,105.651L156.316,105.778L156.303,105.905L156.29,106.033L156.274,106.159L156.258,106.286L156.241,106.412L156.222,106.539L156.202,106.665L156.18,106.79L156.158,106.916L156.134,107.041L156.109,107.166L156.082,107.29L156.055,107.415L156.026,107.539L155.996,107.662L155.964,107.786L155.932,107.909L155.898,108.032L155.863,108.154L155.827,108.276L155.789,108.398L155.75,108.519L155.71,108.64L155.669,108.761L155.627,108.881L155.583,109.001L155.538,109.121L155.492,109.24L155.445,109.359L155.397,109.477L155.347,109.595L155.296,109.712L155.244,109.829L155.191,109.946L155.137,110.062L155.082,110.178L155.025,110.294L154.967,110.409L154.909,110.523L154.849,110.637L154.788,110.751L154.725,110.864L154.662,110.977L154.598,111.089L154.532,111.201L154.466,111.312L154.398,111.423L154.329,111.533L154.259,111.643L154.189,111.753L154.117,111.862L154.044,111.97L153.97,112.078L153.894,112.186L153.818,112.293L153.741,112.4L153.663,112.506L153.584,112.612L153.503,112.717L153.422,112.822L153.34,112.926L153.257,113.03L153.172,113.134L153.087,113.237L153.001,113.339L152.914,113.441L152.825,113.543L152.736,113.644L152.646,113.745L152.555,113.845L152.463,113.945L152.37,114.044L152.276,114.143L152.181,114.241L152.085,114.339L151.988,114.437L151.891,114.534L151.792,114.631L151.692,114.727L151.592,114.823L151.49,114.918L151.388,115.013L151.285,115.108L151.18,115.202L151.075,115.296L150.969,115.389L150.862,115.482L150.754,115.574L150.646,115.667L150.536,115.758L150.425,115.85L150.314,115.94L150.201,116.031L150.088,116.121L150.001,116.19L149.974,116.211L149.859,116.3L149.742,116.388L149.625,116.477L149.504,116.567L149.269,116.739L149.027,116.912L148.781,117.084L148.532,117.254L148.279,117.423L148.023,117.59L147.763,117.756L147.5,117.92L147.234,118.084L146.964,118.246L146.69,118.406L146.413,118.565L146.133,118.723L145.849,118.88L145.562,119.036L145.271,119.19L144.976,119.343L144.679,119.495L144.378,119.646L144.073,119.795L143.765,119.944L143.453,120.091L143.139,120.237L142.82,120.382L142.498,120.526L142.173,120.669L141.844,120.81L141.512,120.951L141.176,121.09L140.837,121.229L140.495,121.367L140.149,121.503L139.799,121.638L139.447,121.773L139.09,121.906L138.73,122.039L138.367,122.17L138.001,122.301L137.63,122.43L137.257,122.559L136.88,122.687L136.499,122.813L136.115,122.939L135.728,123.064L135.337,123.188L134.943,123.311L134.707,123.383L134.545,123.431L134.143,123.549L133.737,123.666L133.328,123.782L132.916,123.897L132.5,124.011L132.08,124.125L131.658,124.237L131.232,124.349L130.802,124.459L130.369,124.569L129.933,124.678L129.493,124.785L129.05,124.892L128.603,124.999L128.152,125.104L127.795,125.186L127.434,125.267L127.071,125.346L126.705,125.424L126.369,125.494L126.336,125.501L125.964,125.573L125.59,125.645L125.213,125.715L124.834,125.783L124.452,125.851L124.068,125.917L123.682,125.981L123.293,126.045L122.903,126.107L122.51,126.167L122.115,126.227L121.718,126.285L121.319,126.342L120.918,126.397L120.515,126.451L120.11,126.504L119.704,126.556L119.296,126.606L118.886,126.655L118.474,126.703L118.061,126.749L117.646,126.794L117.485,126.811L117.23,126.836L116.812,126.876L116.392,126.914L115.972,126.951L115.55,126.986L115.126,127.02L114.702,127.053L114.276,127.085L113.85,127.115L113.422,127.144L112.993,127.172L112.564,127.198L112.133,127.223L111.702,127.246L111.27,127.269L110.837,127.29L110.404,127.309L109.97,127.328L109.536,127.345L109.1,127.36L108.665,127.375L108.229,127.388L107.793,127.399L107.356,127.409L106.919,127.418L106.482,127.426L106.045,127.432L105.608,127.437L105.171,127.441L104.733,127.443L104.296,127.444L103.859,127.444L103.422,127.442L102.985,127.439L102.549,127.434L102.113,127.428L101.677,127.421L101.242,127.412L100.807,127.402L100.373,127.391L99.939,127.378L99.506,127.364L99.181,127.353L99.074,127.349L98.642,127.331L98.212,127.311L97.782,127.291L97.353,127.269L96.925,127.245L96.498,127.22L96.072,127.194L95.647,127.166L95.224,127.137L94.801,127.107L94.38,127.075L93.96,127.042L93.542,127.008L93.125,126.972L92.709,126.934L92.296,126.896L91.883,126.856L91.472,126.814L91.063,126.771L90.656,126.727L90.251,126.681L89.847,126.634L89.445,126.585L89.045,126.535L88.648,126.484L88.252,126.431L87.858,126.376L87.467,126.321L87.077,126.263L86.69,126.205L86.305,126.145L85.923,126.083L85.543,126.02L85.166,125.956L84.79,125.89L84.418,125.822L84.048,125.753L83.681,125.683L83.316,125.611L82.954,125.538L82.595,125.463L82.239,125.387L81.886,125.309L81.535,125.23L81.28,125.17L81.188,125.149L80.843,125.067L80.502,124.984L80.163,124.9L79.828,124.814L79.496,124.726L79.167,124.637L78.842,124.546L78.52,124.453L78.201,124.359L77.885,124.263L77.573,124.166L77.265,124.066L76.961,123.966L76.756,123.896L76.55,123.825L76.343,123.751L76.135,123.676L75.925,123.599L75.715,123.52L75.503,123.44L75.291,123.357L75.077,123.273L74.863,123.187L74.647,123.1L74.431,123.011L74.213,122.921L73.994,122.829L73.775,122.735L73.555,122.64L73.333,122.544L73.111,122.447L73.064,122.426L72.888,122.349L72.664,122.25L72.439,122.15L72.212,122.048L71.76,121.842L71.304,121.632L70.845,121.418L70.385,121.2L69.923,120.979L69.459,120.755L68.994,120.529L68.527,120.3L68.061,120.069L67.593,119.836L67.126,119.602L66.658,119.367L66.191,119.13L65.96,119.014L65.258,118.662L64.329,118.195L63.407,117.731L62.495,117.273L61.596,116.824L61.152,116.603L60.712,116.386L60.277,116.172L59.846,115.961L59.42,115.755L59,115.553L58.586,115.356L58.177,115.164L57.776,114.978L57.381,114.797L56.993,114.622L56.611,114.453L56.425,114.372L56.24,114.292L56.057,114.214L55.877,114.138L55.698,114.063L55.522,113.991L55.348,113.92L55.176,113.851L55.007,113.785L54.841,113.72L54.677,113.658L54.515,113.597L54.357,113.539L54.201,113.483L54.048,113.43L53.898,113.378L53.751,113.33L53.607,113.283L53.466,113.239L53.329,113.197L53.195,113.158L53.065,113.121L52.938,113.087L52.815,113.056L52.696,113.027L52.581,113L52.47,112.977L52.363,112.955L52.261,112.937L52.164,112.921L52.072,112.907L51.984,112.896L51.902,112.888L51.826,112.882L51.756,112.877L51.685,112.875L51.623,112.874L51.554,112.875L51.486,112.876L51.417,112.878L51.347,112.881L51.278,112.885L51.208,112.89L51.137,112.895L51.067,112.902L50.996,112.91L50.925,112.918L50.854,112.928L50.782,112.938L50.71,112.95L50.638,112.962L50.566,112.975L50.493,112.989L50.42,113.005L50.347,113.021L50.273,113.038L50.2,113.056L50.126,113.075L50.052,113.094L49.978,113.115L49.903,113.137L49.829,113.16L49.754,113.183L49.679,113.208L49.604,113.233L49.528,113.26L49.453,113.287L49.377,113.315L49.302,113.344L49.226,113.375L49.15,113.406L49.074,113.438L48.998,113.471L48.922,113.505L48.846,113.539L48.769,113.575L48.693,113.612L48.617,113.649L48.54,113.688L48.464,113.727L48.387,113.767L48.311,113.808L48.234,113.85L48.158,113.893L48.081,113.937L48.005,113.982L47.929,114.027L47.852,114.074L47.776,114.121L47.7,114.169L47.624,114.218L47.548,114.268L47.472,114.319L47.396,114.371L47.321,114.423L47.245,114.476L47.17,114.531L47.094,114.585L47.019,114.641L46.944,114.698L46.87,114.755L46.795,114.814L46.721,114.873L46.647,114.932L46.573,114.993L46.499,115.054L46.425,115.117L46.352,115.18L46.279,115.243L46.206,115.308L46.134,115.373L46.061,115.439L45.989,115.506L45.918,115.573L45.846,115.642L45.775,115.711L45.705,115.78L45.634,115.851L45.564,115.922L45.494,115.994L45.425,116.066L45.356,116.14L45.287,116.213L45.219,116.288L45.151,116.363L45.083,116.439L45.016,116.516L44.949,116.593L44.883,116.671L44.817,116.75L44.751,116.829L44.686,116.909L44.621,116.989L44.557,117.07L44.493,117.152L44.43,117.234L44.367,117.317L44.305,117.401L44.243,117.485L44.182,117.57L44.121,117.655L44.06,117.741L44.001,117.827L43.941,117.914L43.882,118.001L43.824,118.09L43.766,118.178L43.709,118.267L43.653,118.357L43.597,118.447L43.541,118.538L43.486,118.629L43.432,118.72L43.378,118.813L43.325,118.905L43.273,118.998L43.221,119.092L43.171,119.184L43.17,119.186L43.119,119.281L43.069,119.376L43.02,119.471L42.972,119.567L42.924,119.663L42.872,119.77L42.817,119.881L42.755,120.001L42.69,120.12L42.623,120.237L42.553,120.354L42.482,120.47L42.408,120.586L42.332,120.7L42.254,120.814L42.174,120.928L42.092,121.041L42.008,121.153L41.922,121.265L41.835,121.376L41.745,121.487L41.654,121.598L41.562,121.708L41.467,121.818L41.372,121.928L41.274,122.037L41.175,122.146L41.075,122.254L40.973,122.363L40.87,122.471L40.765,122.579L40.66,122.686L40.552,122.793L40.444,122.9L40.335,123.007L40.224,123.113L40.112,123.219L40,123.325L39.886,123.43L39.771,123.535L39.655,123.64L39.539,123.744L39.421,123.848L39.302,123.953L39.064,124.158L38.823,124.363L38.579,124.566L38.334,124.767L38.086,124.967L37.838,125.164L37.588,125.359L37.338,125.552L37.088,125.743L36.837,125.931L36.588,126.116L36.339,126.298L36.092,126.478L35.846,126.655L35.602,126.828L35.36,126.998L35.122,127.164L34.886,127.327L34.654,127.485L34.426,127.64L34.202,127.791L33.982,127.937L33.768,128.079L33.559,128.217L33.354,128.35L32.968,128.6L32.607,128.83L32.277,129.038L31.981,129.222L31.721,129.382L31.501,129.516L31.323,129.623L31.191,129.703L31.083,129.767L30.87,129.871L30.643,129.94L30.407,129.971L30.17,129.963L29.937,129.917L29.715,129.834L29.509,129.715L29.509,129.715L29.326,129.565L29.169,129.387L29.043,129.185L29.012,129.124L28.972,129.042L28.921,128.937L28.862,128.808L28.794,128.654L28.72,128.481L28.68,128.382L28.638,128.28L28.596,128.172L28.553,128.06L28.509,127.941L28.464,127.818L28.418,127.69L28.372,127.556L28.326,127.418L28.28,127.275L28.233,127.127L28.187,126.974L28.141,126.817L28.096,126.655L28.051,126.489L28.007,126.318L27.964,126.143L27.922,125.964L27.881,125.781L27.842,125.594L27.804,125.402L27.768,125.207L27.734,125.008L27.702,124.806L27.672,124.599L27.644,124.389L27.619,124.176L27.596,123.959L27.577,123.742L27.568,123.628L27.56,123.516L27.553,123.403L27.547,123.289L27.541,123.175L27.536,123.06L27.533,122.944L27.53,122.828L27.528,122.71L27.527,122.592L27.527,122.474L27.527,122.354L27.529,122.234L27.532,122.114L27.536,121.992L27.541,121.87L27.547,121.748L27.554,121.625L27.563,121.501L27.572,121.377L27.583,121.252L27.595,121.126L27.608,121L27.622,120.874L27.637,120.747L27.654,120.619L27.672,120.491L27.691,120.362L27.712,120.233L27.734,120.104L27.757,119.974L27.782,119.844L27.809,119.713L27.836,119.582L27.865,119.451L27.896,119.319L27.928,119.187L27.961,119.054L27.997,118.922L28.033,118.788L28.072,118.655L28.111,118.523L28.151,118.392L28.192,118.264L28.233,118.137L28.275,118.011L28.317,117.885L28.361,117.76L28.405,117.637L28.449,117.514L28.494,117.391L28.54,117.27L28.586,117.149L28.634,117.028L28.729,116.793L28.826,116.559L28.925,116.328L29.026,116.1L29.128,115.874L29.232,115.652L29.336,115.432L29.442,115.215L29.549,115L29.656,114.787L29.764,114.577L29.872,114.369L29.981,114.163L30.089,113.959L30.198,113.758L30.307,113.557L30.523,113.163L30.948,112.39L31.155,112.011L31.256,111.824L31.356,111.637L31.454,111.451L31.551,111.266L31.646,111.081L31.739,110.897L31.83,110.713L31.919,110.53L32.006,110.347L32.091,110.165L32.173,109.982L32.253,109.8L32.262,109.777L32.33,109.617L32.404,109.434L32.477,109.249L32.511,109.159L32.545,109.068L32.578,108.976L32.611,108.884L32.643,108.791L32.674,108.699L32.704,108.606L32.734,108.514L32.763,108.421L32.791,108.327L32.818,108.234L32.844,108.14L32.87,108.046L32.895,107.952L32.919,107.857L32.942,107.762L32.964,107.667L32.986,107.571L33.006,107.475L33.026,107.379L33.044,107.282L33.062,107.185L33.079,107.087L33.095,106.988L33.11,106.89L33.124,106.79L33.138,106.691L33.15,106.59L33.161,106.489L33.171,106.387L33.18,106.285L33.188,106.182L33.195,106.079L33.201,105.974L33.206,105.869L33.21,105.764L33.213,105.657L33.215,105.549L33.215,105.449L33.215,105.349L33.214,105.25L33.212,105.151L33.21,105.052L33.206,104.955L33.202,104.857L33.197,104.76L33.192,104.664L33.185,104.568L33.178,104.473L33.17,104.378L33.162,104.283L33.152,104.189L33.142,104.095L33.131,104.002L33.12,103.908L33.108,103.815L33.095,103.723L33.081,103.63L33.067,103.538L33.051,103.446L33.036,103.354L33.019,103.262L33.002,103.171L32.984,103.079L32.966,102.988L32.947,102.899L32.906,102.714L32.863,102.531L32.817,102.348L32.768,102.165L32.717,101.981L32.663,101.797L32.607,101.612L32.548,101.427L32.487,101.24L32.423,101.052L32.356,100.863L32.287,100.672L32.216,100.48L32.142,100.286L32.066,100.091L31.988,99.893L31.907,99.694L31.824,99.492L31.739,99.289L31.652,99.083L31.563,98.874L31.472,98.664L31.283,98.233L31.086,97.791L30.883,97.338L30.673,96.871L30.457,96.39L30.236,95.894L30.009,95.382L29.778,94.854L29.66,94.583L29.542,94.308L29.422,94.028L29.302,93.744L29.181,93.454L29.06,93.16L28.937,92.861L28.814,92.556L28.691,92.247L28.567,91.931L28.442,91.611L28.317,91.284L28.254,91.115L28.192,90.947L28.132,90.781L28.074,90.616L28.018,90.452L27.963,90.29L27.91,90.129L27.859,89.969L27.81,89.811L27.762,89.654L27.716,89.498L27.672,89.344L27.63,89.191L27.589,89.04L27.549,88.889L27.512,88.741L27.475,88.593L27.441,88.447L27.408,88.302L27.376,88.159L27.346,88.016L27.317,87.876L27.29,87.736L27.265,87.598L27.24,87.461L27.217,87.325L27.196,87.191L27.175,87.058L27.157,86.927L27.139,86.796L27.123,86.667L27.108,86.54L27.094,86.413L27.082,86.288L27.07,86.165L27.06,86.042L27.051,85.921L27.043,85.801L27.037,85.683L27.031,85.566L27.027,85.45L27.023,85.335L27.021,85.222L27.02,85.11L27.019,84.999L27.02,84.889L27.022,84.781L27.024,84.674L27.028,84.569L27.032,84.465L27.038,84.362L27.044,84.26L27.051,84.16L27.059,84.061L27.067,83.963L27.077,83.866L27.087,83.771L27.098,83.677L27.109,83.585L27.122,83.491L27.148,83.315L27.177,83.141L27.209,82.973L27.243,82.809L27.278,82.651L27.315,82.498L27.354,82.35L27.395,82.207L27.437,82.07L27.479,81.937L27.523,81.81L27.567,81.688L27.612,81.57L27.657,81.458L27.702,81.351L27.747,81.249L27.792,81.152L27.837,81.06L27.881,80.973L27.924,80.891L27.966,80.814L28.007,80.742L28.046,80.675L28.084,80.613L28.121,80.555L28.157,80.499L28.216,80.413L28.268,80.341L28.308,80.29L28.324,80.27L28.471,80.117L28.641,79.991L28.831,79.897L29.033,79.836L29.244,79.811L29.455,79.823L29.661,79.87L29.736,79.894L29.83,79.926L29.955,79.969L30.109,80.024L30.291,80.091L30.5,80.171L30.732,80.262L30.86,80.314L30.992,80.368L31.129,80.425L31.272,80.486L31.42,80.549L31.573,80.617L31.731,80.687L31.893,80.761L32.061,80.838L32.232,80.919L32.407,81.003L32.587,81.09L32.77,81.181L32.957,81.276L33.147,81.374L33.341,81.475L33.537,81.581L33.737,81.69L33.939,81.802L34.144,81.918L34.351,82.038L34.56,82.162L34.771,82.29L34.984,82.421L35.198,82.556L35.414,82.695L35.631,82.838L35.849,82.985L36.068,83.136L36.288,83.291L36.507,83.449L36.618,83.531L36.729,83.613L36.839,83.696L36.949,83.781L37.059,83.866L37.17,83.952L37.28,84.039L37.39,84.127L37.5,84.217L37.61,84.307L37.72,84.399L37.829,84.491L37.939,84.585L38.048,84.68L38.157,84.775L38.265,84.872L38.374,84.97L38.482,85.069L38.589,85.169L38.697,85.271L38.804,85.373L38.91,85.477L39.016,85.581L39.122,85.687L39.227,85.794L39.331,85.902L39.435,86.011L39.539,86.121L39.642,86.233L39.744,86.345L39.846,86.459L39.947,86.574L40.047,86.69L40.145,86.805L40.893,87.695L41.269,88.141L41.647,88.587L42.026,89.032L42.406,89.475L42.596,89.695L42.786,89.914L42.976,90.132L43.167,90.348L43.357,90.563L43.547,90.777L43.738,90.988L43.928,91.198L44.118,91.406L44.308,91.611L44.497,91.814L44.686,92.015L44.875,92.213L45.064,92.408L45.252,92.599L45.439,92.788L45.626,92.974L45.812,93.156L45.998,93.334L46.183,93.509L46.367,93.68L46.55,93.846L46.732,94.009L46.914,94.167L47.095,94.321L47.184,94.395L47.273,94.469L47.362,94.541L47.451,94.613L47.539,94.683L47.627,94.752L47.715,94.819L47.802,94.885L47.889,94.95L47.975,95.014L48.061,95.076L48.147,95.137L48.232,95.196L48.317,95.254L48.401,95.311L48.485,95.366L48.568,95.42L48.651,95.472L48.733,95.523L48.814,95.572L48.895,95.62L48.976,95.666L49.056,95.71L49.135,95.753L49.214,95.795L49.291,95.835L49.369,95.873L49.445,95.91L49.521,95.945L49.596,95.979L49.67,96.011L49.744,96.041L49.816,96.07L49.888,96.097L49.959,96.122L50.03,96.146L50.099,96.168L50.167,96.189L50.235,96.208L50.301,96.226L50.367,96.242L50.432,96.256L50.496,96.269L50.558,96.28L50.62,96.29L50.681,96.299L50.742,96.305L50.801,96.311L50.859,96.315L50.916,96.318L50.973,96.319L51.029,96.319L51.084,96.317L51.141,96.314L51.508,96.283L51.866,96.25Z"/>
        <path d="M125.365,95.11C129.645,95.11 133.12,98.585 133.12,102.865C133.12,107.145 129.645,110.62 125.365,110.62C121.085,110.62 117.61,107.145 117.61,102.865C117.61,98.585 121.085,95.11 125.365,95.11ZM123.403,97.544C125.257,97.544 126.763,99.049 126.763,100.903C126.763,102.758 125.257,104.263 123.403,104.263C121.549,104.263 120.043,102.758 120.043,100.903C120.043,99.049 121.549,97.544 123.403,97.544Z"/>
        <path d="M167.858,75C171.296,75 174.088,77.792 174.088,81.231C174.088,84.669 171.296,87.461 167.858,87.461C164.419,87.461 161.627,84.669 161.627,81.231C161.627,77.792 164.419,75 167.858,75ZM167.1,76.903C168.966,76.903 170.482,78.419 170.482,80.286C170.482,82.152 168.966,83.668 167.1,83.668C165.233,83.668 163.717,82.152 163.717,80.286C163.717,78.419 165.233,76.903 167.1,76.903Z"/>
        <path d="M169.948,16.025C173.387,16.025 176.178,18.816 176.178,22.255C176.178,25.694 173.387,28.486 169.948,28.486C166.509,28.486 163.717,25.694 163.717,22.255C163.717,18.816 166.509,16.025 169.948,16.025ZM169.19,17.928C171.056,17.928 172.572,19.444 172.572,21.31C172.572,23.177 171.056,24.692 169.19,24.692C167.323,24.692 165.807,23.177 165.807,21.31C165.807,19.444 167.323,17.928 169.19,17.928Z"/>
        <path d="M155.397,48.953C158.835,48.953 161.627,51.745 161.627,55.184C161.627,58.622 158.835,61.414 155.397,61.414C151.958,61.414 149.166,58.622 149.166,55.184C149.166,51.745 151.958,48.953 155.397,48.953ZM154.639,50.856C156.505,50.856 158.021,52.372 158.021,54.239C158.021,56.105 156.505,57.621 154.639,57.621C152.772,57.621 151.256,56.105 151.256,54.239C151.256,52.372 152.772,50.856 154.639,50.856Z"/>
    </g>
</svg>
