<?xml version="1.0" encoding="UTF-8" standalone="no"?>
<!DOCTYPE svg PUBLIC "-//W3C//DTD SVG 1.1//EN" "http://www.w3.org/Graphics/SVG/1.1/DTD/svg11.dtd">
<svg width="100%" height="100%" viewBox="0 0 1301 841" version="1.1" xmlns="http://www.w3.org/2000/svg" xmlns:xlink="http://www.w3.org/1999/xlink" xml:space="preserve" xmlns:serif="http://www.serif.com/" style="fill-rule:evenodd;clip-rule:evenodd;stroke-linecap:round;stroke-linejoin:round;stroke-miterlimit:1.5;">
    <g transform="matrix(1,0,0,1,-11257.5,-1892.18)">
        <g transform="matrix(1,0,0,0.970588,9751.15,1466.95)">
            <g transform="matrix(0.430386,0.0927231,-0.0569528,0.280618,1389.96,-147.32)">
                <g transform="matrix(0.632837,0,0,1,1202.56,461.112)">
                    <path d="M2533.5,1091.93C2533.8,1089.75 2534.09,1087.57 2534.36,1085.38L2534.38,1085.24C2534.82,1078.93 2535.1,1073.24 2535.28,1066.96L2535.3,1066.37C2535.14,1059.46 2534.8,1052.55 2534.3,1045.66L2534.26,1045.15C2531.31,1017.17 2524.5,990.355 2516.31,963.374L2516.21,963.046C2513.47,954.713 2510.62,946.415 2507.81,938.108C2507.4,936.9 2506.99,935.692 2506.58,934.484C2502.46,922.223 2498.33,909.607 2495.16,897.024C2495.05,896.59 2494.93,896.156 2494.82,895.722C2490.08,877.288 2488.38,863.895 2489.2,844.846C2491.57,789.833 2534.25,748.073 2573.47,714.761C2574.1,714.226 2574.73,713.692 2575.36,713.158C2587.61,702.88 2600.29,693.161 2613.11,683.617L2613.12,683.611C2618.68,680.335 2622.66,678.971 2629.07,678.29C2630.92,678.475 2632.77,678.659 2634.62,678.844C2642.67,681.332 2648.42,684.174 2653.49,691.819C2661.98,707.743 2658.71,724.332 2642.88,733.663C2641.88,734.26 2640.88,734.859 2639.88,735.46C2629.24,741.869 2618.61,748.295 2608.24,755.135C2574.06,777.681 2534.45,807.258 2530.91,851.814C2529.91,864.308 2531.48,875.669 2533.96,887.869C2534.04,888.246 2534.12,888.622 2534.21,888.998C2538.03,906.02 2543.43,922.704 2548.49,939.379C2548.88,940.669 2549.27,941.959 2549.66,943.25C2550.45,945.891 2551.24,948.533 2552.03,951.178C2552.03,951.178 2552.86,953.871 2553.28,955.216C2553.6,956.238 2553.92,957.261 2554.24,958.284C2559.78,976.23 2564.71,994.364 2568.53,1012.76C2568.73,1013.61 2568.93,1014.45 2569.12,1015.3C2571,1023.53 2572.53,1031.11 2573.97,1039.41C2573.97,1039.41 2574.33,1041.19 2574.51,1042.08C2581.68,1032.28 2589.3,1022.82 2597.12,1013.52L2597.37,1013.23C2597.99,1012.45 2598.61,1011.67 2599.24,1010.9C2599.94,1010.02 2600.65,1009.15 2601.35,1008.28C2606.24,1002.25 2611.18,996.255 2616.1,990.248C2617.14,988.972 2618.19,987.695 2619.23,986.417C2635.47,966.47 2650.63,945.819 2663.07,923.209L2663.2,922.963C2683.7,884.076 2695,841.491 2699.76,798.032L2699.76,798.022C2702.96,783.523 2712.42,775.671 2727.34,773.964C2729.41,774.13 2731.48,774.297 2733.55,774.463C2733.55,774.464 2733.56,774.465 2733.57,774.466C2736.66,775.173 2742.33,776.641 2744.86,778.805C2766.64,797.385 2752.47,828.809 2745.32,850.62C2745.04,851.533 2744.74,852.445 2744.45,853.356C2733.93,885.782 2719.63,916.929 2700.87,945.41C2700.64,945.781 2700.4,946.152 2700.16,946.522C2689.35,963.214 2677.15,978.927 2664.18,993.988C2663.6,994.686 2663.01,995.382 2662.43,996.077C2653.42,1006.75 2645.33,1015.78 2635.79,1026.57C2634.71,1027.79 2633.63,1029.02 2632.55,1030.25C2630.76,1032.29 2628.97,1034.34 2627.19,1036.39L2626.66,1037L2626.38,1037.33C2625.61,1038.26 2624.85,1039.19 2624.09,1040.13C2615.05,1051.28 2606.34,1062.68 2598.46,1074.68C2602.18,1074.52 2605.91,1074.39 2609.64,1074.24C2610.93,1074.19 2612.22,1074.13 2613.5,1074.08C2639.76,1072.89 2666.32,1067.8 2689.78,1055.49C2716.2,1041.63 2738.58,1021.1 2757.42,998.172C2780.46,970.143 2792.06,955.536 2810.63,924.288L2810.64,924.279C2822.63,908.331 2840.96,908.324 2855.91,920.894C2865.55,932.866 2867,946.851 2857.08,959.367C2856.44,960.19 2855.79,961.012 2855.15,961.833C2847.42,971.615 2839.91,980.732 2831.56,990.259C2830.99,990.92 2830.43,991.579 2829.86,992.238C2808.14,1017.31 2784.44,1040.9 2757.69,1060.62C2757.11,1061.05 2756.54,1061.49 2755.96,1061.92C2739.98,1073.81 2722.83,1084.3 2704.54,1092.24C2704.05,1092.46 2703.55,1092.68 2703.05,1092.9C2684.62,1101.05 2665.14,1106.47 2645.19,1109.14C2644.63,1109.21 2644.08,1109.31 2643.53,1109.39C2629.93,1111.39 2616.26,1112.08 2602.55,1112.81C2601.37,1112.88 2600.19,1112.94 2599.01,1113.01C2597.17,1113.12 2595.33,1113.25 2593.49,1113.39L2593.3,1113.4C2591.27,1113.64 2589.24,1113.91 2587.22,1114.24C2588.97,1123.57 2590.36,1132.43 2591.61,1141.93C2591.61,1141.93 2592.05,1144.39 2592.28,1145.62C2592.45,1146.55 2592.62,1147.48 2592.8,1148.41C2594.74,1159.1 2596.23,1168.84 2597.61,1179.62C2597.61,1179.62 2597.95,1181.68 2598.12,1182.71C2598.29,1183.74 2598.46,1184.78 2598.63,1185.81C2600.22,1195.75 2601.45,1204.75 2602.62,1214.78C2602.73,1215.58 2602.84,1216.38 2602.95,1217.18C2605.41,1235.91 2607.13,1254.72 2608.24,1273.57C2608.24,1273.57 2608.33,1280.07 2608.32,1283.32C2608.64,1285.03 2608.97,1286.73 2609.3,1288.43L2609.3,1288.44L2609.29,1288.94L2609.32,1289.05L2609.32,1289.06C2609.3,1289.55 2609.29,1290.04 2609.28,1290.53L2609.33,1290.79L2609.33,1290.8C2609.29,1291.38 2609.27,1291.97 2609.24,1292.55C2609.24,1293.2 2609.22,1293.85 2609.2,1294.5C2609.42,1295.53 2609.64,1296.55 2609.86,1297.58C2609.86,1297.58 2610.15,1299.8 2610.27,1300.91C2610.4,1302.02 2610.53,1303.12 2610.65,1304.22C2611.04,1307.49 2611.43,1310.76 2611.85,1314.03L2611.99,1315.11C2611.99,1315.11 2612.1,1317.94 2612.12,1319.36C2612.18,1323.54 2612.26,1327.71 2612.38,1331.89L2612.41,1332.81C2612.31,1333.86 2612.22,1334.92 2612.13,1335.97C2612.04,1336.99 2611.96,1338 2611.88,1339.01C2611.18,1347.64 2610.67,1355.23 2610.23,1363.84L2610.22,1363.91C2610.14,1364.86 2610.05,1365.81 2609.96,1366.76C2609.87,1367.73 2609.79,1368.69 2609.7,1369.66C2608.74,1380.71 2608.07,1390.79 2607.58,1401.87L2607.56,1402.22C2607.49,1403.34 2607.41,1404.46 2607.33,1405.57C2607.27,1406.5 2607.22,1407.42 2607.16,1408.35C2603.6,1466.34 2608.59,1524.64 2619.26,1581.68C2623.35,1603.57 2628.06,1625.97 2638.82,1645.75C2638.82,1645.75 2642.51,1650.94 2644.4,1653.51C2644.4,1653.51 2653.97,1664.45 2658.84,1669.85C2658.84,1669.85 2671.1,1681.87 2677.33,1687.77L2678.08,1688.49L2678.85,1689.25C2701.69,1741.6 2675.66,1803.45 2623.87,1825.6C2623.87,1825.6 2623.87,1825.6 2623.86,1825.6C2608.84,1831.14 2592.66,1835.34 2576.49,1833.83C2538.55,1830.28 2503.97,1805.21 2487.3,1771.17L2487.3,1771.16L2487.26,1770C2487.17,1768.41 2487.09,1766.81 2487.02,1765.22C2486.62,1756.88 2486.33,1749.8 2486.07,1741.46L2486.04,1740.28L2486.01,1739.55C2485.91,1738.25 2485.81,1736.95 2485.72,1735.65C2485.2,1728.75 2484.74,1721.86 2484.34,1714.96L2484.29,1714.23C2484.14,1712.98 2483.98,1711.73 2483.83,1710.48C2483.64,1709 2483.46,1707.52 2483.28,1706.03C2483.2,1705.29 2483.11,1704.55 2483.02,1703.81L2482.97,1703.34C2482.67,1702.07 2482.39,1700.79 2482.1,1699.52C2481.78,1698.09 2481.46,1696.67 2481.14,1695.24L2481.14,1695.22C2480.64,1693.87 2480.15,1692.52 2479.66,1691.17C2476.08,1681.32 2473.01,1672.49 2469.74,1662.54C2469.28,1661.17 2468.76,1659.83 2468.28,1658.47C2463.57,1645.22 2459.5,1632.93 2455.39,1619.48C2455.07,1618.44 2454.73,1617.41 2454.41,1616.38C2432.31,1546.25 2420.18,1474.25 2417.46,1400.81L2417.44,1400.08C2417.02,1370.61 2418.32,1342.87 2421.53,1313.67L2421.55,1313.54C2423.01,1306.6 2424.28,1300.84 2425.87,1293.92L2425.97,1293.47C2428.24,1286.79 2430.58,1280.13 2432.99,1273.5C2433.44,1272.54 2433.89,1271.58 2434.34,1270.61C2439.76,1259.16 2444.75,1249.04 2450.55,1237.73L2451.11,1236.62C2456.61,1227.01 2462.26,1217.47 2468.03,1208.01C2471.24,1197.47 2474.61,1186.95 2477.03,1176.2L2477.07,1175.77C2478.06,1161.78 2478.38,1149.76 2476.93,1136.1L2476.92,1136.06C2476.07,1131.12 2475.21,1126.71 2474.14,1121.83L2474.09,1121.61C2472.6,1116.42 2470.96,1111.28 2469.15,1106.19L2469.1,1106.06C2461.38,1086.99 2450.95,1069.72 2435.61,1055.48L2435.51,1055.38C2424.26,1045.65 2410.95,1038.61 2396.47,1035.15C2396.09,1035.07 2395.71,1034.99 2395.33,1034.91C2352.55,1026.29 2307.45,1045.93 2271.44,1066.59C2270.66,1067.04 2269.87,1067.5 2269.09,1067.95C2259.95,1073.29 2251.73,1078.45 2242.87,1084.3L2242.32,1084.66C2241.7,1085.09 2241.07,1085.51 2240.45,1085.93L2240.44,1085.93C2225.92,1093.57 2209.48,1090.46 2200.68,1075.18L2200.68,1075.17C2193.09,1058.51 2197.51,1042.25 2214.16,1034.01C2215.1,1033.55 2216.04,1033.08 2216.99,1032.62C2227.59,1027.46 2237.69,1022.84 2248.63,1018.28C2249.32,1017.99 2250.02,1017.69 2250.72,1017.39C2280.87,1004.67 2312.23,994.998 2344.86,991.668C2345.44,991.61 2346.02,991.554 2346.6,991.5C2351.91,991.015 2356.79,990.751 2362.12,990.691C2362.84,990.685 2363.55,990.682 2364.26,990.682C2400.04,990.797 2434.44,1002.63 2460.86,1027.45C2461.24,1027.8 2461.62,1028.14 2462,1028.49C2467.86,1033.87 2473.28,1039.7 2478.27,1045.91C2477.6,1043.36 2476.91,1040.82 2476.18,1038.28L2476.15,1038.17C2470.78,1021.37 2464.06,1004.92 2455.18,989.643L2455.06,989.448C2413.98,923.067 2335.05,908.599 2264.72,891.241L2262.78,890.762C2259.64,890.018 2256.5,889.272 2253.36,888.524C2251.03,887.969 2248.7,887.413 2246.38,886.856C2237.51,884.725 2228.66,882.517 2219.8,880.352C2218.97,880.148 2218.14,879.944 2217.31,879.739L2217.3,879.737L2211.81,877.742C2199.22,869.754 2195.07,858.002 2198.09,843.32L2198.09,843.301C2203,831.531 2210.47,824.683 2223.16,822.373C2225.04,822.434 2226.92,822.496 2228.8,822.557C2232.96,823.616 2232.89,823.413 2236.82,824.88C2237.6,825.17 2238.38,825.453 2239.16,825.739C2252.21,830.499 2261.99,833.969 2275.34,838.676C2281.77,840.969 2288.25,843.107 2294.71,845.317C2296.81,846.036 2298.91,846.756 2301.01,847.477C2328.62,856.985 2356.33,866.714 2382.76,879.228C2383.33,879.501 2383.91,879.762 2384.48,880.029C2405.29,889.771 2424.96,901.638 2442.63,916.34C2443.1,916.731 2443.56,917.124 2444.03,917.518C2461.5,932.395 2476.1,950.295 2487.5,970.197C2487.8,970.708 2488.11,971.221 2488.41,971.734C2498.53,988.923 2506.35,1007.31 2512.66,1026.26C2512.95,1027.05 2513.24,1027.85 2513.53,1028.65C2516.18,1036.13 2518.42,1043.1 2520.67,1050.73C2520.98,1051.77 2521.35,1052.81 2521.68,1053.84C2523.6,1059.84 2525.21,1065.23 2526.94,1071.31C2526.94,1071.31 2527.66,1073.54 2528.02,1074.65C2528.32,1075.54 2528.61,1076.44 2528.9,1077.34C2530.23,1081.48 2531.52,1085.63 2532.77,1089.8C2532.77,1089.8 2533.25,1091.22 2533.5,1091.93" style="fill:rgb(235,235,235);"/>
                </g>
                <g transform="matrix(0.632837,0,0,1,0,0)">
                    <path d="M4434.72,1545.07C4435.13,1539.28 4435.38,1533.93 4435.55,1528.07L4435.56,1527.48C4435.41,1520.57 4435.07,1513.66 4434.57,1506.77L4434.53,1506.26C4431.57,1478.28 4424.77,1451.47 4416.57,1424.49L4416.47,1424.16C4413.73,1415.83 4410.89,1407.53 4408.07,1399.22C4407.66,1398.01 4407.26,1396.81 4406.85,1395.6C4402.72,1383.34 4398.59,1370.72 4395.43,1358.14C4395.31,1357.7 4395.2,1357.27 4395.09,1356.83C4390.34,1338.4 4388.65,1325.01 4389.47,1305.96C4391.84,1250.94 4434.51,1209.19 4473.73,1175.87C4474.36,1175.34 4474.99,1174.8 4475.63,1174.27C4487.87,1163.99 4500.56,1154.27 4513.38,1144.73L4513.38,1144.72C4518.94,1141.45 4522.93,1140.08 4529.34,1139.4C4531.19,1139.59 4533.03,1139.77 4534.88,1139.96C4542.93,1142.44 4548.69,1145.29 4553.76,1152.93C4562.25,1168.86 4558.98,1185.44 4543.15,1194.78C4542.15,1195.37 4541.15,1195.97 4540.15,1196.57C4529.51,1202.98 4518.87,1209.41 4508.5,1216.25C4474.33,1238.79 4434.71,1268.37 4431.17,1312.93C4430.18,1325.42 4431.75,1336.78 4434.23,1348.98C4434.31,1349.36 4434.39,1349.73 4434.47,1350.11C4438.3,1367.13 4443.69,1383.82 4448.76,1400.49C4449.15,1401.78 4449.54,1403.07 4449.93,1404.36C4450.72,1407 4451.51,1409.64 4452.29,1412.29C4452.29,1412.29 4453.13,1414.98 4453.55,1416.33C4453.87,1417.35 4454.19,1418.37 4454.51,1419.4C4460.05,1437.34 4464.98,1455.48 4468.8,1473.87C4469,1474.72 4469.19,1475.57 4469.39,1476.41C4471.26,1484.64 4472.79,1492.22 4474.24,1500.53C4474.24,1500.53 4474.6,1502.3 4474.77,1503.19C4481.94,1493.39 4489.57,1483.93 4497.38,1474.64L4497.63,1474.34C4498.26,1473.56 4498.88,1472.79 4499.5,1472.01C4500.21,1471.14 4500.91,1470.26 4501.62,1469.39C4506.51,1463.36 4511.45,1457.37 4516.37,1451.36C4517.41,1450.08 4518.45,1448.81 4519.5,1447.53C4535.73,1427.58 4550.9,1406.93 4563.33,1384.32L4563.47,1384.08C4583.96,1345.19 4595.27,1302.6 4600.02,1259.14L4600.02,1259.13C4603.23,1244.63 4612.69,1236.78 4627.6,1235.08C4629.67,1235.24 4631.74,1235.41 4633.81,1235.58C4633.82,1235.58 4633.82,1235.58 4633.83,1235.58C4636.93,1236.29 4642.59,1237.75 4645.13,1239.92C4666.91,1258.5 4652.73,1289.92 4645.59,1311.73C4645.3,1312.64 4645.01,1313.56 4644.72,1314.47C4634.19,1346.89 4619.89,1378.04 4601.14,1406.52C4600.9,1406.89 4600.66,1407.26 4600.43,1407.63C4589.61,1424.33 4577.42,1440.04 4564.44,1455.1C4563.86,1455.8 4563.28,1456.49 4562.69,1457.19C4553.69,1467.86 4545.59,1476.89 4536.06,1487.68C4534.98,1488.91 4533.89,1490.13 4532.81,1491.36C4531.02,1493.4 4529.23,1495.45 4527.46,1497.5L4526.93,1498.11L4526.64,1498.44C4525.88,1499.37 4525.12,1500.31 4524.36,1501.24C4515.32,1512.39 4506.61,1523.8 4498.72,1535.79C4502.45,1535.63 4506.18,1535.5 4509.91,1535.35C4511.19,1535.3 4512.48,1535.25 4513.77,1535.19C4540.03,1534 4566.58,1528.91 4590.04,1516.6C4616.47,1502.74 4638.84,1482.21 4657.69,1459.29C4680.73,1431.26 4692.32,1416.65 4710.9,1385.4L4710.9,1385.39C4722.9,1369.44 4741.23,1369.44 4756.18,1382.01C4765.81,1393.98 4767.26,1407.96 4757.35,1420.48C4756.7,1421.3 4756.06,1422.12 4755.41,1422.95C4747.69,1432.73 4740.17,1441.85 4731.83,1451.37C4731.26,1452.03 4730.69,1452.69 4730.12,1453.35C4708.4,1478.42 4684.7,1502.01 4657.96,1521.73C4657.38,1522.16 4656.81,1522.6 4656.23,1523.03C4640.25,1534.92 4623.1,1545.41 4604.81,1553.35C4604.31,1553.57 4603.81,1553.8 4603.32,1554.02C4584.89,1562.16 4565.41,1567.59 4545.45,1570.25C4544.9,1570.33 4544.35,1570.42 4543.8,1570.51C4530.2,1572.5 4516.53,1573.2 4502.82,1573.92C4501.64,1573.99 4500.46,1574.05 4499.28,1574.12C4497.44,1574.24 4495.6,1574.36 4493.76,1574.5L4493.56,1574.52C4491.53,1574.75 4489.51,1575.02 4487.49,1575.35C4489.23,1584.68 4490.63,1593.55 4491.88,1603.04C4491.88,1603.04 4492.31,1605.5 4492.54,1606.73C4492.72,1607.66 4492.89,1608.59 4493.06,1609.52C4495.01,1620.21 4496.5,1629.95 4497.88,1640.74C4497.88,1640.74 4498.21,1642.79 4498.38,1643.82C4498.56,1644.85 4498.72,1645.89 4498.89,1646.93C4500.48,1656.86 4501.72,1665.86 4502.89,1675.89C4503,1676.69 4503.11,1677.49 4503.21,1678.3C4505.67,1697.02 4507.39,1715.83 4508.51,1734.68C4508.51,1734.68 4508.59,1741.18 4508.58,1744.44C4508.91,1746.14 4509.24,1747.84 4509.57,1749.55L4509.57,1749.56L4509.56,1750.05L4509.58,1750.16L4509.58,1750.17C4509.56,1750.66 4509.55,1751.15 4509.54,1751.65L4509.59,1751.9L4509.59,1751.91C4509.56,1752.5 4509.53,1753.08 4509.51,1753.67C4509.5,1754.32 4509.49,1754.96 4509.47,1755.61C4509.69,1756.64 4509.9,1757.66 4510.12,1758.69C4510.12,1758.69 4510.41,1760.91 4510.54,1762.02C4510.66,1763.13 4510.79,1764.23 4510.92,1765.33C4511.3,1768.61 4511.7,1771.88 4512.12,1775.14L4512.26,1776.22C4512.26,1776.22 4512.37,1779.05 4512.39,1780.47C4512.44,1784.65 4512.53,1788.82 4512.64,1793L4512.67,1793.92C4512.58,1794.98 4512.49,1796.03 4512.4,1797.08C4512.31,1798.1 4512.23,1799.11 4512.14,1800.12C4511.44,1808.76 4510.94,1816.34 4510.49,1824.95L4510.49,1825.02C4510.4,1825.97 4510.31,1826.92 4510.23,1827.87C4510.14,1828.84 4510.05,1829.81 4509.97,1830.78C4509.01,1841.82 4508.34,1851.91 4507.85,1862.98L4507.83,1863.33C4507.75,1864.45 4507.68,1865.57 4507.6,1866.69C4507.54,1867.61 4507.48,1868.53 4507.42,1869.46C4503.87,1927.46 4508.86,1985.75 4519.52,2042.79C4523.61,2064.68 4528.33,2087.09 4539.09,2106.86C4539.09,2106.86 4542.77,2112.06 4544.66,2114.62C4544.66,2114.62 4554.23,2125.57 4559.11,2130.96L4560.53,2132.34C4457.69,2137.12 4383.15,1960.57 4400.64,1902.62C4418.37,1843.89 4449.12,1658.44 4434.72,1545.07Z" style="fill:rgb(30,109,166);"/>
                </g>
                <g transform="matrix(0.632837,0,0,1,0,0)">
                    <path d="M4379.95,2152.35C4458.74,2178.76 4534.55,2182.72 4566.57,2252.99C4555.9,2267.45 4541.46,2279.3 4524.14,2286.71C4524.14,2286.71 4524.13,2286.71 4524.13,2286.71C4509.11,2292.26 4492.92,2296.45 4476.76,2294.94C4438.81,2291.4 4404.23,2266.32 4387.57,2232.28L4387.57,2232.27L4387.52,2231.11C4387.44,2229.52 4387.36,2227.92 4387.28,2226.33C4386.88,2218 4386.6,2210.91 4386.34,2202.58L4386.3,2201.4L4386.28,2200.66C4386.18,2199.36 4386.08,2198.06 4385.98,2196.76C4385.47,2189.87 4385.01,2182.97 4384.6,2176.07L4384.56,2175.34C4384.4,2174.09 4384.24,2172.84 4384.09,2171.6C4383.91,2170.11 4383.73,2168.63 4383.55,2167.14C4383.46,2166.4 4383.37,2165.66 4383.29,2164.92L4383.23,2164.45C4382.94,2163.18 4382.65,2161.9 4382.36,2160.63C4382.04,2159.2 4381.73,2157.78 4381.41,2156.35L4381.4,2156.33L4379.95,2152.35Z" style="fill:rgb(224,81,244);"/>
                </g>
            </g>
        </g>
        <g transform="matrix(1,0,0,0.970588,9751.15,1466.95)">
            <g transform="matrix(0.426137,-0.11163,0.0685656,0.277847,1386.4,780.242)">
                <g transform="matrix(0.632837,0,0,1,727.719,458.353)">
                    <path d="M2533.5,1091.93C2533.8,1089.75 2534.09,1087.57 2534.36,1085.38L2534.38,1085.24C2534.82,1078.93 2535.1,1073.24 2535.28,1066.96L2535.3,1066.37C2535.14,1059.46 2534.8,1052.55 2534.3,1045.66L2534.26,1045.15C2531.31,1017.17 2524.5,990.355 2516.31,963.374L2516.21,963.046C2513.47,954.713 2510.62,946.415 2507.81,938.108C2507.4,936.9 2506.99,935.692 2506.58,934.484C2502.46,922.223 2498.33,909.607 2495.16,897.024C2495.05,896.59 2494.93,896.156 2494.82,895.722C2490.08,877.288 2488.38,863.895 2489.2,844.846C2491.57,789.833 2534.25,748.073 2573.47,714.761C2574.1,714.226 2574.73,713.692 2575.36,713.158C2587.61,702.88 2600.29,693.161 2613.11,683.617L2613.12,683.611C2618.68,680.335 2622.66,678.971 2629.07,678.29C2630.92,678.475 2632.77,678.659 2634.62,678.844C2642.67,681.332 2648.42,684.174 2653.49,691.819C2661.98,707.743 2658.71,724.332 2642.88,733.663C2641.88,734.26 2640.88,734.859 2639.88,735.46C2629.24,741.869 2618.61,748.295 2608.24,755.135C2574.06,777.681 2534.45,807.258 2530.91,851.814C2529.91,864.308 2531.48,875.669 2533.96,887.869C2534.04,888.246 2534.12,888.622 2534.21,888.998C2538.03,906.02 2543.43,922.704 2548.49,939.379C2548.88,940.669 2549.27,941.959 2549.66,943.25C2550.45,945.891 2551.24,948.533 2552.03,951.178C2552.03,951.178 2552.86,953.871 2553.28,955.216C2553.6,956.238 2553.92,957.261 2554.24,958.284C2559.78,976.23 2564.71,994.364 2568.53,1012.76C2568.73,1013.61 2568.93,1014.45 2569.12,1015.3C2571,1023.53 2572.53,1031.11 2573.97,1039.41C2573.97,1039.41 2574.33,1041.19 2574.51,1042.08C2581.68,1032.28 2589.3,1022.82 2597.12,1013.52L2597.37,1013.23C2597.99,1012.45 2598.61,1011.67 2599.24,1010.9C2599.94,1010.02 2600.65,1009.15 2601.35,1008.28C2606.24,1002.25 2611.18,996.255 2616.1,990.248C2617.14,988.972 2618.19,987.695 2619.23,986.417C2635.47,966.47 2650.63,945.819 2663.07,923.209L2663.2,922.963C2683.7,884.076 2695,841.491 2699.76,798.032L2699.76,798.022C2702.96,783.523 2712.42,775.671 2727.34,773.964C2729.41,774.13 2731.48,774.297 2733.55,774.463C2733.55,774.464 2733.56,774.465 2733.57,774.466C2736.66,775.173 2742.33,776.641 2744.86,778.805C2766.64,797.385 2752.47,828.809 2745.32,850.62C2745.04,851.533 2744.74,852.445 2744.45,853.356C2733.93,885.782 2719.63,916.929 2700.87,945.41C2700.64,945.781 2700.4,946.152 2700.16,946.522C2689.35,963.214 2677.15,978.927 2664.18,993.988C2663.6,994.686 2663.01,995.382 2662.43,996.077C2653.42,1006.75 2645.33,1015.78 2635.79,1026.57C2634.71,1027.79 2633.63,1029.02 2632.55,1030.25C2630.76,1032.29 2628.97,1034.34 2627.19,1036.39L2626.66,1037L2626.38,1037.33C2625.61,1038.26 2624.85,1039.19 2624.09,1040.13C2615.05,1051.28 2606.34,1062.68 2598.46,1074.68C2602.18,1074.52 2605.91,1074.39 2609.64,1074.24C2610.93,1074.19 2612.22,1074.13 2613.5,1074.08C2639.76,1072.89 2666.32,1067.8 2689.78,1055.49C2716.2,1041.63 2738.58,1021.1 2757.42,998.172C2780.46,970.143 2792.06,955.536 2810.63,924.288L2810.64,924.279C2822.63,908.331 2840.96,908.324 2855.91,920.894C2865.55,932.866 2867,946.851 2857.08,959.367C2856.44,960.19 2855.79,961.012 2855.15,961.833C2847.42,971.615 2839.91,980.732 2831.56,990.259C2830.99,990.92 2830.43,991.579 2829.86,992.238C2808.14,1017.31 2784.44,1040.9 2757.69,1060.62C2757.11,1061.05 2756.54,1061.49 2755.96,1061.92C2739.98,1073.81 2722.83,1084.3 2704.54,1092.24C2704.05,1092.46 2703.55,1092.68 2703.05,1092.9C2684.62,1101.05 2665.14,1106.47 2645.19,1109.14C2644.63,1109.21 2644.08,1109.31 2643.53,1109.39C2629.93,1111.39 2616.26,1112.08 2602.55,1112.81C2601.37,1112.88 2600.19,1112.94 2599.01,1113.01C2597.17,1113.12 2595.33,1113.25 2593.49,1113.39L2593.3,1113.4C2591.27,1113.64 2589.24,1113.91 2587.22,1114.24C2588.97,1123.57 2590.36,1132.43 2591.61,1141.93C2591.61,1141.93 2592.05,1144.39 2592.28,1145.62C2592.45,1146.55 2592.62,1147.48 2592.8,1148.41C2594.74,1159.1 2596.23,1168.84 2597.61,1179.62C2597.61,1179.62 2597.95,1181.68 2598.12,1182.71C2598.29,1183.74 2598.46,1184.78 2598.63,1185.81C2600.22,1195.75 2601.45,1204.75 2602.62,1214.78C2602.73,1215.58 2602.84,1216.38 2602.95,1217.18C2605.41,1235.91 2607.13,1254.72 2608.24,1273.57C2608.24,1273.57 2608.33,1280.07 2608.32,1283.32C2608.64,1285.03 2608.97,1286.73 2609.3,1288.43L2609.3,1288.44L2609.29,1288.94L2609.32,1289.05L2609.32,1289.06C2609.3,1289.55 2609.29,1290.04 2609.28,1290.53L2609.33,1290.79L2609.33,1290.8C2609.29,1291.38 2609.27,1291.97 2609.24,1292.55C2609.24,1293.2 2609.22,1293.85 2609.2,1294.5C2609.42,1295.53 2609.64,1296.55 2609.86,1297.58C2609.86,1297.58 2610.15,1299.8 2610.27,1300.91C2610.4,1302.02 2610.53,1303.12 2610.65,1304.22C2611.04,1307.49 2611.43,1310.76 2611.85,1314.03L2611.99,1315.11C2611.99,1315.11 2612.1,1317.94 2612.12,1319.36C2612.18,1323.54 2612.26,1327.71 2612.38,1331.89L2612.41,1332.81C2612.31,1333.86 2612.22,1334.92 2612.13,1335.97C2612.04,1336.99 2611.96,1338 2611.88,1339.01C2611.18,1347.64 2610.67,1355.23 2610.23,1363.84L2610.22,1363.91C2610.14,1364.86 2610.05,1365.81 2609.96,1366.76C2609.87,1367.73 2609.79,1368.69 2609.7,1369.66C2608.74,1380.71 2608.07,1390.79 2607.58,1401.87L2607.56,1402.22C2607.49,1403.34 2607.41,1404.46 2607.33,1405.57C2607.27,1406.5 2607.22,1407.42 2607.16,1408.35C2603.6,1466.34 2608.59,1524.64 2619.26,1581.68C2623.35,1603.57 2628.06,1625.97 2638.82,1645.75C2638.82,1645.75 2642.51,1650.94 2644.4,1653.51C2644.4,1653.51 2653.97,1664.45 2658.84,1669.85C2658.84,1669.85 2671.1,1681.87 2677.33,1687.77L2678.08,1688.49L2678.85,1689.25C2701.69,1741.6 2675.66,1803.45 2623.87,1825.6C2623.87,1825.6 2623.87,1825.6 2623.86,1825.6C2608.84,1831.14 2592.66,1835.34 2576.49,1833.83C2538.55,1830.28 2503.97,1805.21 2487.3,1771.17L2487.3,1771.16L2487.26,1770C2487.17,1768.41 2487.09,1766.81 2487.02,1765.22C2486.62,1756.88 2486.33,1749.8 2486.07,1741.46L2486.04,1740.28L2486.01,1739.55C2485.91,1738.25 2485.81,1736.95 2485.72,1735.65C2485.2,1728.75 2484.74,1721.86 2484.34,1714.96L2484.29,1714.23C2484.14,1712.98 2483.98,1711.73 2483.83,1710.48C2483.64,1709 2483.46,1707.52 2483.28,1706.03C2483.2,1705.29 2483.11,1704.55 2483.02,1703.81L2482.97,1703.34C2482.67,1702.07 2482.39,1700.79 2482.1,1699.52C2481.78,1698.09 2481.46,1696.67 2481.14,1695.24L2481.14,1695.22C2480.64,1693.87 2480.15,1692.52 2479.66,1691.17C2476.08,1681.32 2473.01,1672.49 2469.74,1662.54C2469.28,1661.17 2468.76,1659.83 2468.28,1658.47C2463.57,1645.22 2459.5,1632.93 2455.39,1619.48C2455.07,1618.44 2454.73,1617.41 2454.41,1616.38C2432.31,1546.25 2420.18,1474.25 2417.46,1400.81L2417.44,1400.08C2417.02,1370.61 2418.32,1342.87 2421.53,1313.67L2421.55,1313.54C2423.01,1306.6 2424.28,1300.84 2425.87,1293.92L2425.97,1293.47C2428.24,1286.79 2430.58,1280.13 2432.99,1273.5C2433.44,1272.54 2433.89,1271.58 2434.34,1270.61C2439.76,1259.16 2444.75,1249.04 2450.55,1237.73L2451.11,1236.62C2456.61,1227.01 2462.26,1217.47 2468.03,1208.01C2471.24,1197.47 2474.61,1186.95 2477.03,1176.2L2477.07,1175.77C2478.06,1161.78 2478.38,1149.76 2476.93,1136.1L2476.92,1136.06C2476.07,1131.12 2475.21,1126.71 2474.14,1121.83L2474.09,1121.61C2472.6,1116.42 2470.96,1111.28 2469.15,1106.19L2469.1,1106.06C2461.38,1086.99 2450.95,1069.72 2435.61,1055.48L2435.51,1055.38C2424.26,1045.65 2410.95,1038.61 2396.47,1035.15C2396.09,1035.07 2395.71,1034.99 2395.33,1034.91C2352.55,1026.29 2307.45,1045.93 2271.44,1066.59C2270.66,1067.04 2269.87,1067.5 2269.09,1067.95C2259.95,1073.29 2251.73,1078.45 2242.87,1084.3L2242.32,1084.66C2241.7,1085.09 2241.07,1085.51 2240.45,1085.93L2240.44,1085.93C2225.92,1093.57 2209.48,1090.46 2200.68,1075.18L2200.68,1075.17C2193.09,1058.51 2197.51,1042.25 2214.16,1034.01C2215.1,1033.55 2216.04,1033.08 2216.99,1032.62C2227.59,1027.46 2237.69,1022.84 2248.63,1018.28C2249.32,1017.99 2250.02,1017.69 2250.72,1017.39C2280.87,1004.67 2312.23,994.998 2344.86,991.668C2345.44,991.61 2346.02,991.554 2346.6,991.5C2351.91,991.015 2356.79,990.751 2362.12,990.691C2362.84,990.685 2363.55,990.682 2364.26,990.682C2400.04,990.797 2434.44,1002.63 2460.86,1027.45C2461.24,1027.8 2461.62,1028.14 2462,1028.49C2467.86,1033.87 2473.28,1039.7 2478.27,1045.91C2477.6,1043.36 2476.91,1040.82 2476.18,1038.28L2476.15,1038.17C2470.78,1021.37 2464.06,1004.92 2455.18,989.643L2455.06,989.448C2413.98,923.067 2335.05,908.599 2264.72,891.241L2262.78,890.762C2259.64,890.018 2256.5,889.272 2253.36,888.524C2251.03,887.969 2248.7,887.413 2246.38,886.856C2237.51,884.725 2228.66,882.517 2219.8,880.352C2218.97,880.148 2218.14,879.944 2217.31,879.739L2217.3,879.737L2211.81,877.742C2199.22,869.754 2195.07,858.002 2198.09,843.32L2198.09,843.301C2203,831.531 2210.47,824.683 2223.16,822.373C2225.04,822.434 2226.92,822.496 2228.8,822.557C2232.96,823.616 2232.89,823.413 2236.82,824.88C2237.6,825.17 2238.38,825.453 2239.16,825.739C2252.21,830.499 2261.99,833.969 2275.34,838.676C2281.77,840.969 2288.25,843.107 2294.71,845.317C2296.81,846.036 2298.91,846.756 2301.01,847.477C2328.62,856.985 2356.33,866.714 2382.76,879.228C2383.33,879.501 2383.91,879.762 2384.48,880.029C2405.29,889.771 2424.96,901.638 2442.63,916.34C2443.1,916.731 2443.56,917.124 2444.03,917.518C2461.5,932.395 2476.1,950.295 2487.5,970.197C2487.8,970.708 2488.11,971.221 2488.41,971.734C2498.53,988.923 2506.35,1007.31 2512.66,1026.26C2512.95,1027.05 2513.24,1027.85 2513.53,1028.65C2516.18,1036.13 2518.42,1043.1 2520.67,1050.73C2520.98,1051.77 2521.35,1052.81 2521.68,1053.84C2523.6,1059.84 2525.21,1065.23 2526.94,1071.31C2526.94,1071.31 2527.66,1073.54 2528.02,1074.65C2528.32,1075.54 2528.61,1076.44 2528.9,1077.34C2530.23,1081.48 2531.52,1085.63 2532.77,1089.8C2532.77,1089.8 2533.25,1091.22 2533.5,1091.93" style="fill:rgb(235,235,235);"/>
                </g>
                <g transform="matrix(0.632837,0,0,1,-121.925,-2.75919)">
                    <path d="M3916.85,1501.94L3917.1,1503.19C3924.27,1493.39 3931.9,1483.93 3939.71,1474.64L3939.96,1474.34C3940.58,1473.56 3941.21,1472.79 3941.83,1472.01C3942.54,1471.14 3943.24,1470.26 3943.95,1469.39C3948.84,1463.36 3953.78,1457.37 3958.7,1451.36C3959.74,1450.08 3960.78,1448.81 3961.83,1447.53C3978.06,1427.58 3993.23,1406.93 4005.66,1384.32L4005.8,1384.08C4026.29,1345.19 4037.6,1302.6 4042.35,1259.14L4042.35,1259.13C4045.56,1244.63 4055.01,1236.78 4069.93,1235.08C4072,1235.24 4074.07,1235.41 4076.14,1235.58C4076.15,1235.58 4076.15,1235.58 4076.16,1235.58C4079.26,1236.29 4084.92,1237.75 4087.46,1239.92C4109.24,1258.5 4095.06,1289.92 4087.92,1311.73C4087.63,1312.64 4087.34,1313.56 4087.04,1314.47C4076.52,1346.89 4062.22,1378.04 4043.47,1406.52C4043.23,1406.89 4042.99,1407.26 4042.75,1407.63C4031.94,1424.33 4019.74,1440.04 4006.77,1455.1C4006.19,1455.8 4005.61,1456.49 4005.02,1457.19C3996.02,1467.86 3987.92,1476.89 3978.39,1487.68C3977.3,1488.91 3976.22,1490.13 3975.14,1491.36C3973.35,1493.4 3971.56,1495.45 3969.79,1497.5L3969.26,1498.11L3968.97,1498.44C3968.21,1499.37 3967.45,1500.31 3966.69,1501.24C3957.65,1512.39 3948.93,1523.8 3941.05,1535.79C3944.78,1535.63 3948.51,1535.5 3952.24,1535.35C3953.52,1535.3 3954.81,1535.25 3956.1,1535.19C3982.35,1534 4008.91,1528.91 4032.37,1516.6C4058.8,1502.74 4081.17,1482.21 4100.01,1459.29C4123.05,1431.26 4134.65,1416.65 4153.22,1385.4L4153.23,1385.39C4165.23,1369.44 4183.56,1369.44 4198.51,1382.01C4208.14,1393.98 4209.59,1407.96 4199.68,1420.48C4199.03,1421.3 4198.39,1422.12 4197.74,1422.95C4190.02,1432.73 4182.5,1441.85 4174.16,1451.37C4173.59,1452.03 4173.02,1452.69 4172.45,1453.35C4150.73,1478.42 4127.03,1502.01 4100.29,1521.73C4099.7,1522.16 4099.13,1522.6 4098.56,1523.03C4082.58,1534.92 4065.43,1545.41 4047.14,1553.35C4046.64,1553.57 4046.14,1553.8 4045.64,1554.02C4027.22,1562.16 4007.74,1567.59 3987.78,1570.25C3987.23,1570.33 3986.68,1570.42 3986.12,1570.51C3972.53,1572.5 3958.86,1573.2 3945.14,1573.92C3943.97,1573.99 3942.79,1574.05 3941.61,1574.12C3939.77,1574.24 3937.93,1574.36 3936.09,1574.5L3935.89,1574.52C3933.86,1574.75 3931.84,1575.02 3929.82,1575.35C3931.56,1584.68 3932.95,1593.55 3934.21,1603.04C3934.21,1603.04 3934.64,1605.5 3934.87,1606.73C3935.05,1607.66 3935.22,1608.59 3935.39,1609.52C3937.33,1620.21 3938.83,1629.95 3940.2,1640.74C3940.2,1640.74 3940.54,1642.79 3940.71,1643.82C3940.88,1644.85 3941.05,1645.89 3941.22,1646.93C3942.81,1656.86 3944.05,1665.86 3945.22,1675.89C3945.33,1676.69 3945.43,1677.49 3945.54,1678.3C3948,1697.02 3949.72,1715.83 3950.84,1734.68C3950.84,1734.68 3950.92,1741.18 3950.91,1744.44C3951.24,1746.14 3951.57,1747.84 3951.9,1749.55L3951.9,1749.56L3951.89,1750.05L3951.91,1750.16L3951.91,1750.17C3951.89,1750.66 3951.88,1751.15 3951.87,1751.65L3951.92,1751.9L3951.92,1751.91C3951.89,1752.5 3951.86,1753.08 3951.84,1753.67C3951.83,1754.32 3951.82,1754.96 3951.8,1755.61C3952.01,1756.64 3952.23,1757.66 3952.45,1758.69C3952.45,1758.69 3952.74,1760.91 3952.87,1762.02C3952.99,1763.13 3953.12,1764.23 3953.25,1765.33C3953.63,1768.61 3954.03,1771.88 3954.45,1775.14L3954.59,1776.22C3954.59,1776.22 3954.7,1779.05 3954.72,1780.47C3954.77,1784.65 3954.86,1788.82 3954.97,1793L3955,1793.92C3954.91,1794.98 3954.82,1796.03 3954.72,1797.08C3954.64,1798.1 3954.56,1799.11 3954.47,1800.12C3953.77,1808.76 3953.27,1816.34 3952.82,1824.95L3952.82,1825.02C3952.73,1825.97 3952.64,1826.92 3952.56,1827.87C3952.47,1828.84 3952.38,1829.81 3952.3,1830.78C3951.34,1841.82 3950.66,1851.91 3950.17,1862.98L3950.16,1863.33C3950.08,1864.45 3950,1865.57 3949.93,1866.69C3949.87,1867.61 3949.81,1868.53 3949.75,1869.46C3946.2,1927.46 3951.19,1985.75 3961.85,2042.79C3963.67,2052.54 3965.62,2062.39 3968.2,2072.06C3895.03,2033.93 3824.12,1948.4 3831.76,1840.51C3840.11,1722.46 3888.74,1597.4 3916.85,1501.94Z" style="fill:rgb(255,164,9);"/>
                </g>
                <g transform="matrix(0.632837,0,0,1,-121.925,-2.75919)">
                    <path d="M3808.86,1560.57C3801.47,1544.11 3791.75,1529.17 3778.21,1516.59L3778.1,1516.49C3766.86,1506.76 3753.55,1499.72 3739.07,1496.26C3738.69,1496.18 3738.3,1496.1 3737.92,1496.02C3695.15,1487.4 3650.05,1507.05 3614.04,1527.7C3613.25,1528.16 3612.47,1528.61 3611.68,1529.07C3602.54,1534.41 3594.32,1539.56 3585.46,1545.41L3584.92,1545.78C3584.29,1546.2 3583.66,1546.62 3583.04,1547.04L3583.03,1547.05C3568.52,1554.68 3552.08,1551.57 3543.28,1536.3L3543.27,1536.29C3535.69,1519.62 3540.1,1503.36 3556.75,1495.12C3557.69,1494.66 3558.64,1494.2 3559.58,1493.74C3570.19,1488.57 3580.28,1483.95 3591.22,1479.4C3591.92,1479.1 3592.61,1478.8 3593.31,1478.51C3623.46,1465.78 3654.83,1456.11 3687.46,1452.78C3688.04,1452.72 3688.62,1452.67 3689.2,1452.61C3694.5,1452.13 3699.39,1451.86 3704.72,1451.8C3705.43,1451.8 3706.14,1451.79 3706.86,1451.79C3742.63,1451.91 3777.03,1463.74 3803.45,1488.57C3803.84,1488.91 3804.22,1489.26 3804.59,1489.6C3810.45,1494.99 3815.88,1500.81 3820.86,1507.03C3820.2,1504.47 3819.5,1501.93 3818.78,1499.39L3818.75,1499.28C3813.37,1482.48 3806.65,1466.03 3797.77,1450.76L3797.66,1450.56C3756.58,1384.18 3677.65,1369.71 3607.32,1352.35L3605.38,1351.88C3602.24,1351.13 3599.09,1350.38 3595.95,1349.64C3593.63,1349.08 3591.3,1348.53 3588.97,1347.97C3580.1,1345.84 3571.26,1343.63 3562.4,1341.46C3561.56,1341.26 3560.73,1341.06 3559.9,1340.85L3559.89,1340.85L3554.4,1338.85C3541.81,1330.87 3537.67,1319.12 3540.68,1304.43L3540.69,1304.41C3545.59,1292.64 3553.07,1285.8 3565.75,1283.49C3567.63,1283.55 3569.51,1283.61 3571.4,1283.67C3575.55,1284.73 3575.49,1284.53 3579.41,1285.99C3580.2,1286.28 3580.98,1286.57 3581.76,1286.85C3594.81,1291.61 3604.59,1295.08 3617.93,1299.79C3624.36,1302.08 3630.85,1304.22 3637.3,1306.43C3639.4,1307.15 3641.5,1307.87 3643.6,1308.59C3671.21,1318.1 3698.92,1327.83 3725.35,1340.34C3725.92,1340.61 3726.5,1340.87 3727.07,1341.14C3747.88,1350.88 3767.55,1362.75 3785.22,1377.45C3785.69,1377.84 3786.16,1378.24 3786.62,1378.63C3804.1,1393.51 3818.69,1411.41 3830.09,1431.31C3830.4,1431.82 3830.7,1432.33 3831.01,1432.85C3841.13,1450.04 3848.95,1468.42 3855.26,1487.37C3855.55,1488.16 3855.84,1488.96 3856.12,1489.76L3858.88,1497.91C3849.78,1518.56 3830.63,1540.5 3808.86,1560.57Z" style="fill:rgb(224,81,244);"/>
                </g>
                <g transform="matrix(0.632837,0,0,1,0,0)">
                    <path d="M3607.42,2084.44C3669.91,2122.01 3761.39,2167.24 3826.2,2145.11L3827.26,2146.13L3828.01,2146.84L3828.78,2147.6C3851.62,2199.95 3825.59,2261.81 3773.8,2283.95C3773.8,2283.95 3773.8,2283.95 3773.79,2283.95C3758.77,2289.5 3742.59,2293.69 3726.43,2292.18C3688.48,2288.64 3653.9,2263.57 3637.24,2229.52L3637.23,2229.51L3637.19,2228.35C3637.11,2226.76 3637.03,2225.16 3636.95,2223.57C3636.55,2215.24 3636.26,2208.15 3636,2199.82L3635.97,2198.64L3635.95,2197.9C3635.84,2196.6 3635.74,2195.3 3635.65,2194C3635.13,2187.11 3634.67,2180.21 3634.27,2173.31L3634.22,2172.58C3634.07,2171.33 3633.91,2170.08 3633.76,2168.84C3633.57,2167.35 3633.39,2165.87 3633.22,2164.38C3633.13,2163.64 3633.04,2162.9 3632.95,2162.16L3632.9,2161.7C3632.61,2160.42 3632.32,2159.14 3632.03,2157.87C3631.71,2156.44 3631.39,2155.02 3631.07,2153.6L3631.07,2153.57C3630.57,2152.22 3630.08,2150.87 3629.59,2149.52C3626.01,2139.67 3622.95,2130.84 3619.67,2120.89C3619.22,2119.52 3618.69,2118.18 3618.21,2116.82C3614.28,2105.77 3610.8,2095.39 3607.42,2084.44Z" style="fill:rgb(145,230,35);"/>
                </g>
            </g>
        </g>
        <g transform="matrix(1,0,0,0.970588,9751.15,1466.95)">
            <g transform="matrix(0.41742,0.142359,-0.0874405,0.272164,2045.35,416.119)">
                <g transform="matrix(0.632837,0,0,1,293.903,413.022)">
                    <path d="M2533.5,1091.93C2533.8,1089.75 2534.09,1087.57 2534.36,1085.38L2534.38,1085.24C2534.82,1078.93 2535.1,1073.24 2535.28,1066.96L2535.3,1066.37C2535.14,1059.46 2534.8,1052.55 2534.3,1045.66L2534.26,1045.15C2531.31,1017.17 2524.5,990.355 2516.31,963.374L2516.21,963.046C2513.47,954.713 2510.62,946.415 2507.81,938.108C2507.4,936.9 2506.99,935.692 2506.58,934.484C2502.46,922.223 2498.33,909.607 2495.16,897.024C2495.05,896.59 2494.93,896.156 2494.82,895.722C2490.08,877.288 2488.38,863.895 2489.2,844.846C2491.57,789.833 2534.25,748.073 2573.47,714.761C2574.1,714.226 2574.73,713.692 2575.36,713.158C2587.61,702.88 2600.29,693.161 2613.11,683.617L2613.12,683.611C2618.68,680.335 2622.66,678.971 2629.07,678.29C2630.92,678.475 2632.77,678.659 2634.62,678.844C2642.67,681.332 2648.42,684.174 2653.49,691.819C2661.98,707.743 2658.71,724.332 2642.88,733.663C2641.88,734.26 2640.88,734.859 2639.88,735.46C2629.24,741.869 2618.61,748.295 2608.24,755.135C2574.06,777.681 2534.45,807.258 2530.91,851.814C2529.91,864.308 2531.48,875.669 2533.96,887.869C2534.04,888.246 2534.12,888.622 2534.21,888.998C2538.03,906.02 2543.43,922.704 2548.49,939.379C2548.88,940.669 2549.27,941.959 2549.66,943.25C2550.45,945.891 2551.24,948.533 2552.03,951.178C2552.03,951.178 2552.86,953.871 2553.28,955.216C2553.6,956.238 2553.92,957.261 2554.24,958.284C2559.78,976.23 2564.71,994.364 2568.53,1012.76C2568.73,1013.61 2568.93,1014.45 2569.12,1015.3C2571,1023.53 2572.53,1031.11 2573.97,1039.41C2573.97,1039.41 2574.33,1041.19 2574.51,1042.08C2581.68,1032.28 2589.3,1022.82 2597.12,1013.52L2597.37,1013.23C2597.99,1012.45 2598.61,1011.67 2599.24,1010.9C2599.94,1010.02 2600.65,1009.15 2601.35,1008.28C2606.24,1002.25 2611.18,996.255 2616.1,990.248C2617.14,988.972 2618.19,987.695 2619.23,986.417C2635.47,966.47 2650.63,945.819 2663.07,923.209L2663.2,922.963C2683.7,884.076 2695,841.491 2699.76,798.032L2699.76,798.022C2702.96,783.523 2712.42,775.671 2727.34,773.964C2729.41,774.13 2731.48,774.297 2733.55,774.463C2733.55,774.464 2733.56,774.465 2733.57,774.466C2736.66,775.173 2742.33,776.641 2744.86,778.805C2766.64,797.385 2752.47,828.809 2745.32,850.62C2745.04,851.533 2744.74,852.445 2744.45,853.356C2733.93,885.782 2719.63,916.929 2700.87,945.41C2700.64,945.781 2700.4,946.152 2700.16,946.522C2689.35,963.214 2677.15,978.927 2664.18,993.988C2663.6,994.686 2663.01,995.382 2662.43,996.077C2653.42,1006.75 2645.33,1015.78 2635.79,1026.57C2634.71,1027.79 2633.63,1029.02 2632.55,1030.25C2630.76,1032.29 2628.97,1034.34 2627.19,1036.39L2626.66,1037L2626.38,1037.33C2625.61,1038.26 2624.85,1039.19 2624.09,1040.13C2615.05,1051.28 2606.34,1062.68 2598.46,1074.68C2602.18,1074.52 2605.91,1074.39 2609.64,1074.24C2610.93,1074.19 2612.22,1074.13 2613.5,1074.08C2639.76,1072.89 2666.32,1067.8 2689.78,1055.49C2716.2,1041.63 2738.58,1021.1 2757.42,998.172C2780.46,970.143 2792.06,955.536 2810.63,924.288L2810.64,924.279C2822.63,908.331 2840.96,908.324 2855.91,920.894C2865.55,932.866 2867,946.851 2857.08,959.367C2856.44,960.19 2855.79,961.012 2855.15,961.833C2847.42,971.615 2839.91,980.732 2831.56,990.259C2830.99,990.92 2830.43,991.579 2829.86,992.238C2808.14,1017.31 2784.44,1040.9 2757.69,1060.62C2757.11,1061.05 2756.54,1061.49 2755.96,1061.92C2739.98,1073.81 2722.83,1084.3 2704.54,1092.24C2704.05,1092.46 2703.55,1092.68 2703.05,1092.9C2684.62,1101.05 2665.14,1106.47 2645.19,1109.14C2644.63,1109.21 2644.08,1109.31 2643.53,1109.39C2629.93,1111.39 2616.26,1112.08 2602.55,1112.81C2601.37,1112.88 2600.19,1112.94 2599.01,1113.01C2597.17,1113.12 2595.33,1113.25 2593.49,1113.39L2593.3,1113.4C2591.27,1113.64 2589.24,1113.91 2587.22,1114.24C2588.97,1123.57 2590.36,1132.43 2591.61,1141.93C2591.61,1141.93 2592.05,1144.39 2592.28,1145.62C2592.45,1146.55 2592.62,1147.48 2592.8,1148.41C2594.74,1159.1 2596.23,1168.84 2597.61,1179.62C2597.61,1179.62 2597.95,1181.68 2598.12,1182.71C2598.29,1183.74 2598.46,1184.78 2598.63,1185.81C2600.22,1195.75 2601.45,1204.75 2602.62,1214.78C2602.73,1215.58 2602.84,1216.38 2602.95,1217.18C2605.41,1235.91 2607.13,1254.72 2608.24,1273.57C2608.24,1273.57 2608.33,1280.07 2608.32,1283.32C2608.64,1285.03 2608.97,1286.73 2609.3,1288.43L2609.3,1288.44L2609.29,1288.94L2609.32,1289.05L2609.32,1289.06C2609.3,1289.55 2609.29,1290.04 2609.28,1290.53L2609.33,1290.79L2609.33,1290.8C2609.29,1291.38 2609.27,1291.97 2609.24,1292.55C2609.24,1293.2 2609.22,1293.85 2609.2,1294.5C2609.42,1295.53 2609.64,1296.55 2609.86,1297.58C2609.86,1297.58 2610.15,1299.8 2610.27,1300.91C2610.4,1302.02 2610.53,1303.12 2610.65,1304.22C2611.04,1307.49 2611.43,1310.76 2611.85,1314.03L2611.99,1315.11C2611.99,1315.11 2612.1,1317.94 2612.12,1319.36C2612.18,1323.54 2612.26,1327.71 2612.38,1331.89L2612.41,1332.81C2612.31,1333.86 2612.22,1334.92 2612.13,1335.97C2612.04,1336.99 2611.96,1338 2611.88,1339.01C2611.18,1347.64 2610.67,1355.23 2610.23,1363.84L2610.22,1363.91C2610.14,1364.86 2610.05,1365.81 2609.96,1366.76C2609.87,1367.73 2609.79,1368.69 2609.7,1369.66C2608.74,1380.71 2608.07,1390.79 2607.58,1401.87L2607.56,1402.22C2607.49,1403.34 2607.41,1404.46 2607.33,1405.57C2607.27,1406.5 2607.22,1407.42 2607.16,1408.35C2603.6,1466.34 2608.59,1524.64 2619.26,1581.68C2623.35,1603.57 2628.06,1625.97 2638.82,1645.75C2638.82,1645.75 2642.51,1650.94 2644.4,1653.51C2644.4,1653.51 2653.97,1664.45 2658.84,1669.85C2658.84,1669.85 2671.1,1681.87 2677.33,1687.77L2678.08,1688.49L2678.85,1689.25C2701.69,1741.6 2675.66,1803.45 2623.87,1825.6C2623.87,1825.6 2623.87,1825.6 2623.86,1825.6C2608.84,1831.14 2592.66,1835.34 2576.49,1833.83C2538.55,1830.28 2503.97,1805.21 2487.3,1771.17L2487.3,1771.16L2487.26,1770C2487.17,1768.41 2487.09,1766.81 2487.02,1765.22C2486.62,1756.88 2486.33,1749.8 2486.07,1741.46L2486.04,1740.28L2486.01,1739.55C2485.91,1738.25 2485.81,1736.95 2485.72,1735.65C2485.2,1728.75 2484.74,1721.86 2484.34,1714.96L2484.29,1714.23C2484.14,1712.98 2483.98,1711.73 2483.83,1710.48C2483.64,1709 2483.46,1707.52 2483.28,1706.03C2483.2,1705.29 2483.11,1704.55 2483.02,1703.81L2482.97,1703.34C2482.67,1702.07 2482.39,1700.79 2482.1,1699.52C2481.78,1698.09 2481.46,1696.67 2481.14,1695.24L2481.14,1695.22C2480.64,1693.87 2480.15,1692.52 2479.66,1691.17C2476.08,1681.32 2473.01,1672.49 2469.74,1662.54C2469.28,1661.17 2468.76,1659.83 2468.28,1658.47C2463.57,1645.22 2459.5,1632.93 2455.39,1619.48C2455.07,1618.44 2454.73,1617.41 2454.41,1616.38C2432.31,1546.25 2420.18,1474.25 2417.46,1400.81L2417.44,1400.08C2417.02,1370.61 2418.32,1342.87 2421.53,1313.67L2421.55,1313.54C2423.01,1306.6 2424.28,1300.84 2425.87,1293.92L2425.97,1293.47C2428.24,1286.79 2430.58,1280.13 2432.99,1273.5C2433.44,1272.54 2433.89,1271.58 2434.34,1270.61C2439.76,1259.16 2444.75,1249.04 2450.55,1237.73L2451.11,1236.62C2456.61,1227.01 2462.26,1217.47 2468.03,1208.01C2471.24,1197.47 2474.61,1186.95 2477.03,1176.2L2477.07,1175.77C2478.06,1161.78 2478.38,1149.76 2476.93,1136.1L2476.92,1136.06C2476.07,1131.12 2475.21,1126.71 2474.14,1121.83L2474.09,1121.61C2472.6,1116.42 2470.96,1111.28 2469.15,1106.19L2469.1,1106.06C2461.38,1086.99 2450.95,1069.72 2435.61,1055.48L2435.51,1055.38C2424.26,1045.65 2410.95,1038.61 2396.47,1035.15C2396.09,1035.07 2395.71,1034.99 2395.33,1034.91C2352.55,1026.29 2307.45,1045.93 2271.44,1066.59C2270.66,1067.04 2269.87,1067.5 2269.09,1067.95C2259.95,1073.29 2251.73,1078.45 2242.87,1084.3L2242.32,1084.66C2241.7,1085.09 2241.07,1085.51 2240.45,1085.93L2240.44,1085.93C2225.92,1093.57 2209.48,1090.46 2200.68,1075.18L2200.68,1075.17C2193.09,1058.51 2197.51,1042.25 2214.16,1034.01C2215.1,1033.55 2216.04,1033.08 2216.99,1032.62C2227.59,1027.46 2237.69,1022.84 2248.63,1018.28C2249.32,1017.99 2250.02,1017.69 2250.72,1017.39C2280.87,1004.67 2312.23,994.998 2344.86,991.668C2345.44,991.61 2346.02,991.554 2346.6,991.5C2351.91,991.015 2356.79,990.751 2362.12,990.691C2362.84,990.685 2363.55,990.682 2364.26,990.682C2400.04,990.797 2434.44,1002.63 2460.86,1027.45C2461.24,1027.8 2461.62,1028.14 2462,1028.49C2467.86,1033.87 2473.28,1039.7 2478.27,1045.91C2477.6,1043.36 2476.91,1040.82 2476.18,1038.28L2476.15,1038.17C2470.78,1021.37 2464.06,1004.92 2455.18,989.643L2455.06,989.448C2413.98,923.067 2335.05,908.599 2264.72,891.241L2262.78,890.762C2259.64,890.018 2256.5,889.272 2253.36,888.524C2251.03,887.969 2248.7,887.413 2246.38,886.856C2237.51,884.725 2228.66,882.517 2219.8,880.352C2218.97,880.148 2218.14,879.944 2217.31,879.739L2217.3,879.737L2211.81,877.742C2199.22,869.754 2195.07,858.002 2198.09,843.32L2198.09,843.301C2203,831.531 2210.47,824.683 2223.16,822.373C2225.04,822.434 2226.92,822.496 2228.8,822.557C2232.96,823.616 2232.89,823.413 2236.82,824.88C2237.6,825.17 2238.38,825.453 2239.16,825.739C2252.21,830.499 2261.99,833.969 2275.34,838.676C2281.77,840.969 2288.25,843.107 2294.71,845.317C2296.81,846.036 2298.91,846.756 2301.01,847.477C2328.62,856.985 2356.33,866.714 2382.76,879.228C2383.33,879.501 2383.91,879.762 2384.48,880.029C2405.29,889.771 2424.96,901.638 2442.63,916.34C2443.1,916.731 2443.56,917.124 2444.03,917.518C2461.5,932.395 2476.1,950.295 2487.5,970.197C2487.8,970.708 2488.11,971.221 2488.41,971.734C2498.53,988.923 2506.35,1007.31 2512.66,1026.26C2512.95,1027.05 2513.24,1027.85 2513.53,1028.65C2516.18,1036.13 2518.42,1043.1 2520.67,1050.73C2520.98,1051.77 2521.35,1052.81 2521.68,1053.84C2523.6,1059.84 2525.21,1065.23 2526.94,1071.31C2526.94,1071.31 2527.66,1073.54 2528.02,1074.65C2528.32,1075.54 2528.61,1076.44 2528.9,1077.34C2530.23,1081.48 2531.52,1085.63 2532.77,1089.8C2532.77,1089.8 2533.25,1091.22 2533.5,1091.93" style="fill:rgb(235,235,235);"/>
                </g>
                <g transform="matrix(0.632837,0,0,1,0,0)">
                    <path d="M2881.79,1801.09C2915.1,1771.01 2954.8,1662.28 2996.97,1669.24C3019.6,1672.97 3044.69,1772.11 3074.21,1781.74L3074.12,1782.68C3073.16,1793.73 3072.49,1803.82 3072,1814.89L3071.99,1815.24C3071.91,1816.36 3071.83,1817.48 3071.76,1818.6C3071.7,1819.52 3071.64,1820.44 3071.58,1821.37C3068.03,1879.37 3073.02,1937.66 3083.68,1994.7C3087.77,2016.59 3092.49,2039 3103.24,2058.77C3103.24,2058.77 3106.93,2063.97 3108.82,2066.53C3108.82,2066.53 3118.39,2077.48 3123.27,2082.87C3123.27,2082.87 3135.52,2094.89 3141.75,2100.8L3142.5,2101.51L3143.28,2102.27C3166.11,2154.62 3140.08,2216.47 3088.29,2238.62C3088.29,2238.62 3088.29,2238.62 3088.28,2238.62C3073.26,2244.16 3057.08,2248.36 3040.92,2246.85C3002.97,2243.3 2968.39,2218.23 2951.73,2184.19L2951.72,2184.18L2951.68,2183.02C2951.6,2181.43 2951.52,2179.83 2951.44,2178.24C2951.04,2169.91 2950.76,2162.82 2950.49,2154.49L2950.46,2153.31L2950.44,2152.57C2950.33,2151.27 2950.24,2149.97 2950.14,2148.67C2949.62,2141.78 2949.16,2134.88 2948.76,2127.98L2948.72,2127.25C2948.56,2126 2948.4,2124.75 2948.25,2123.5C2948.06,2122.02 2947.88,2120.54 2947.7,2119.05C2947.62,2118.31 2947.53,2117.57 2947.44,2116.83L2947.39,2116.36C2947.1,2115.09 2946.81,2113.81 2946.52,2112.54C2946.2,2111.11 2945.88,2109.69 2945.57,2108.26L2945.56,2108.24C2945.06,2106.89 2944.57,2105.54 2944.08,2104.19C2940.5,2094.34 2937.44,2085.51 2934.16,2075.56C2933.71,2074.19 2933.18,2072.85 2932.7,2071.49C2927.99,2058.24 2923.92,2045.95 2919.81,2032.5C2919.49,2031.46 2919.15,2030.44 2918.83,2029.4C2896.73,1959.27 2884.6,1887.27 2881.89,1813.83L2881.86,1813.1C2881.8,1809.07 2881.78,1805.07 2881.79,1801.09Z" style="fill:rgb(46,168,255);"/>
                </g>
                <g transform="matrix(0.632837,0,0,1,0,0)">
                    <path d="M2940.57,1592.81L2941.45,1589.22L2941.49,1588.79C2942.48,1574.81 2942.8,1562.78 2941.35,1549.12L2941.34,1549.08C2940.49,1544.14 2939.64,1539.73 2938.57,1534.85L2938.52,1534.63C2937.02,1529.44 2935.38,1524.3 2933.57,1519.21L2933.52,1519.08C2925.8,1500.02 2915.37,1482.74 2900.03,1468.5L2899.93,1468.4C2888.68,1458.67 2875.38,1451.63 2860.89,1448.17C2860.51,1448.09 2860.13,1448.01 2859.75,1447.93C2816.97,1439.31 2771.88,1458.95 2735.86,1479.61C2735.08,1480.07 2734.3,1480.52 2733.51,1480.98C2724.37,1486.32 2716.15,1491.47 2707.29,1497.32L2706.74,1497.69C2706.12,1498.11 2705.49,1498.53 2704.87,1498.95L2704.86,1498.96C2690.34,1506.59 2673.9,1503.48 2665.1,1488.21L2665.1,1488.2C2657.51,1471.54 2661.93,1455.27 2678.58,1447.03C2679.52,1446.57 2680.46,1446.11 2681.41,1445.64C2692.01,1440.48 2702.11,1435.86 2713.05,1431.31C2713.74,1431.01 2714.44,1430.71 2715.14,1430.41C2745.29,1417.69 2776.65,1408.02 2809.28,1404.69C2809.86,1404.63 2810.44,1404.58 2811.02,1404.52C2816.33,1404.04 2821.22,1403.77 2826.55,1403.71C2827.26,1403.71 2827.97,1403.7 2828.68,1403.7C2864.46,1403.82 2898.86,1415.65 2925.28,1440.48C2925.66,1440.82 2926.04,1441.16 2926.42,1441.51C2932.28,1446.89 2937.7,1452.72 2942.69,1458.93C2942.02,1456.38 2941.33,1453.84 2940.61,1451.3L2940.57,1451.19C2935.2,1434.39 2928.48,1417.94 2919.6,1402.66L2919.48,1402.47C2878.41,1336.09 2799.47,1321.62 2729.14,1304.26L2727.2,1303.78C2724.06,1303.04 2720.92,1302.29 2717.78,1301.55C2715.45,1300.99 2713.13,1300.43 2710.8,1299.88C2701.93,1297.75 2693.08,1295.54 2684.22,1293.37C2683.39,1293.17 2682.56,1292.96 2681.73,1292.76L2681.72,1292.76L2676.23,1290.76C2663.64,1282.78 2659.49,1271.02 2662.51,1256.34L2662.51,1256.32C2667.42,1244.55 2674.89,1237.7 2687.58,1235.39C2689.46,1235.46 2691.34,1235.52 2693.22,1235.58C2697.38,1236.64 2697.31,1236.43 2701.24,1237.9C2702.02,1238.19 2702.8,1238.48 2703.59,1238.76C2716.64,1243.52 2726.42,1246.99 2739.76,1251.7C2746.19,1253.99 2752.67,1256.13 2759.13,1258.34C2761.23,1259.06 2763.33,1259.78 2765.43,1260.5C2793.04,1270.01 2820.75,1279.74 2847.18,1292.25C2847.75,1292.52 2848.33,1292.78 2848.9,1293.05C2869.71,1302.79 2889.38,1314.66 2907.05,1329.36C2907.52,1329.75 2907.99,1330.14 2908.45,1330.54C2925.92,1345.42 2940.52,1363.32 2951.92,1383.22C2952.22,1383.73 2952.53,1384.24 2952.83,1384.76C2962.95,1401.94 2970.77,1420.33 2977.09,1439.28C2977.38,1440.07 2977.66,1440.87 2977.95,1441.67C2980.6,1449.15 2982.84,1456.12 2985.09,1463.75C2985.4,1464.79 2985.77,1465.83 2986.1,1466.86C2988.02,1472.86 2989.64,1478.25 2991.36,1484.34C2991.36,1484.34 2992.08,1486.56 2992.44,1487.67C2992.74,1488.57 2993.03,1489.46 2993.32,1490.36C2994.65,1494.5 2995.94,1498.65 2997.19,1502.82L2997.25,1502.99C3000.85,1554.84 2977.5,1580.47 2940.57,1592.81Z" style="fill:rgb(145,230,35);"/>
                </g>
            </g>
        </g>
        <g transform="matrix(1,0,0,0.970588,9751.15,1466.95)">
            <g transform="matrix(0.273769,-0.0512738,0.0497658,0.282065,1993.58,411.426)">
                <g transform="matrix(1,0,0,1,-321.978,459.802)">
                    <path d="M2533.5,1091.93C2533.8,1089.75 2534.09,1087.57 2534.36,1085.38L2534.38,1085.24C2534.82,1078.93 2535.1,1073.24 2535.28,1066.96L2535.3,1066.37C2535.14,1059.46 2534.8,1052.55 2534.3,1045.66L2534.26,1045.15C2531.31,1017.17 2524.5,990.355 2516.31,963.374L2516.21,963.046C2513.47,954.713 2510.62,946.415 2507.81,938.108C2507.4,936.9 2506.99,935.692 2506.58,934.484C2502.46,922.223 2498.33,909.607 2495.16,897.024C2495.05,896.59 2494.93,896.156 2494.82,895.722C2490.08,877.288 2488.38,863.895 2489.2,844.846C2491.57,789.833 2534.25,748.073 2573.47,714.761C2574.1,714.226 2574.73,713.692 2575.36,713.158C2587.61,702.88 2600.29,693.161 2613.11,683.617L2613.12,683.611C2618.68,680.335 2622.66,678.971 2629.07,678.29C2630.92,678.475 2632.77,678.659 2634.62,678.844C2642.67,681.332 2648.42,684.174 2653.49,691.819C2661.98,707.743 2658.71,724.332 2642.88,733.663C2641.88,734.26 2640.88,734.859 2639.88,735.46C2629.24,741.869 2618.61,748.295 2608.24,755.135C2574.06,777.681 2534.45,807.258 2530.91,851.814C2529.91,864.308 2531.48,875.669 2533.96,887.869C2534.04,888.246 2534.12,888.622 2534.21,888.998C2538.03,906.02 2543.43,922.704 2548.49,939.379C2548.88,940.669 2549.27,941.959 2549.66,943.25C2550.45,945.891 2551.24,948.533 2552.03,951.178C2552.03,951.178 2552.86,953.871 2553.28,955.216C2553.6,956.238 2553.92,957.261 2554.24,958.284C2559.78,976.23 2564.71,994.364 2568.53,1012.76C2568.73,1013.61 2568.93,1014.45 2569.12,1015.3C2571,1023.53 2572.53,1031.11 2573.97,1039.41C2573.97,1039.41 2574.33,1041.19 2574.51,1042.08C2581.68,1032.28 2589.3,1022.82 2597.12,1013.52L2597.37,1013.23C2597.99,1012.45 2598.61,1011.67 2599.24,1010.9C2599.94,1010.02 2600.65,1009.15 2601.35,1008.28C2606.24,1002.25 2611.18,996.255 2616.1,990.248C2617.14,988.972 2618.19,987.695 2619.23,986.417C2635.47,966.47 2650.63,945.819 2663.07,923.209L2663.2,922.963C2683.7,884.076 2695,841.491 2699.76,798.032L2699.76,798.022C2702.96,783.523 2712.42,775.671 2727.34,773.964C2729.41,774.13 2731.48,774.297 2733.55,774.463C2733.55,774.464 2733.56,774.465 2733.57,774.466C2736.66,775.173 2742.33,776.641 2744.86,778.805C2766.64,797.385 2752.47,828.809 2745.32,850.62C2745.04,851.533 2744.74,852.445 2744.45,853.356C2733.93,885.782 2719.63,916.929 2700.87,945.41C2700.64,945.781 2700.4,946.152 2700.16,946.522C2689.35,963.214 2677.15,978.927 2664.18,993.988C2663.6,994.686 2663.01,995.382 2662.43,996.077C2653.42,1006.75 2645.33,1015.78 2635.79,1026.57C2634.71,1027.79 2633.63,1029.02 2632.55,1030.25C2630.76,1032.29 2628.97,1034.34 2627.19,1036.39L2626.66,1037L2626.38,1037.33C2625.61,1038.26 2624.85,1039.19 2624.09,1040.13C2615.05,1051.28 2606.34,1062.68 2598.46,1074.68C2602.18,1074.52 2605.91,1074.39 2609.64,1074.24C2610.93,1074.19 2612.22,1074.13 2613.5,1074.08C2639.76,1072.89 2666.32,1067.8 2689.78,1055.49C2716.2,1041.63 2738.58,1021.1 2757.42,998.172C2780.46,970.143 2792.06,955.536 2810.63,924.288L2810.64,924.279C2822.63,908.331 2840.96,908.324 2855.91,920.894C2865.55,932.866 2867,946.851 2857.08,959.367C2856.44,960.19 2855.79,961.012 2855.15,961.833C2847.42,971.615 2839.91,980.732 2831.56,990.259C2830.99,990.92 2830.43,991.579 2829.86,992.238C2808.14,1017.31 2784.44,1040.9 2757.69,1060.62C2757.11,1061.05 2756.54,1061.49 2755.96,1061.92C2739.98,1073.81 2722.83,1084.3 2704.54,1092.24C2704.05,1092.46 2703.55,1092.68 2703.05,1092.9C2684.62,1101.05 2665.14,1106.47 2645.19,1109.14C2644.63,1109.21 2644.08,1109.31 2643.53,1109.39C2629.93,1111.39 2616.26,1112.08 2602.55,1112.81C2601.37,1112.88 2600.19,1112.94 2599.01,1113.01C2597.17,1113.12 2595.33,1113.25 2593.49,1113.39L2593.3,1113.4C2591.27,1113.64 2589.24,1113.91 2587.22,1114.24C2588.97,1123.57 2590.36,1132.43 2591.61,1141.93C2591.61,1141.93 2592.05,1144.39 2592.28,1145.62C2592.45,1146.55 2592.62,1147.48 2592.8,1148.41C2594.74,1159.1 2596.23,1168.84 2597.61,1179.62C2597.61,1179.62 2597.95,1181.68 2598.12,1182.71C2598.29,1183.74 2598.46,1184.78 2598.63,1185.81C2600.22,1195.75 2601.45,1204.75 2602.62,1214.78C2602.73,1215.58 2602.84,1216.38 2602.95,1217.18C2605.41,1235.91 2607.13,1254.72 2608.24,1273.57C2608.24,1273.57 2608.33,1280.07 2608.32,1283.32C2608.64,1285.03 2608.97,1286.73 2609.3,1288.43L2609.3,1288.44L2609.29,1288.94L2609.32,1289.05L2609.32,1289.06C2609.3,1289.55 2609.29,1290.04 2609.28,1290.53L2609.33,1290.79L2609.33,1290.8C2609.29,1291.38 2609.27,1291.97 2609.24,1292.55C2609.24,1293.2 2609.22,1293.85 2609.2,1294.5C2609.42,1295.53 2609.64,1296.55 2609.86,1297.58C2609.86,1297.58 2610.15,1299.8 2610.27,1300.91C2610.4,1302.02 2610.53,1303.12 2610.65,1304.22C2611.04,1307.49 2611.43,1310.76 2611.85,1314.03L2611.99,1315.11C2611.99,1315.11 2612.1,1317.94 2612.12,1319.36C2612.18,1323.54 2612.26,1327.71 2612.38,1331.89L2612.41,1332.81C2612.31,1333.86 2612.22,1334.92 2612.13,1335.97C2612.04,1336.99 2611.96,1338 2611.88,1339.01C2611.18,1347.64 2610.67,1355.23 2610.23,1363.84L2610.22,1363.91C2610.14,1364.86 2610.05,1365.81 2609.96,1366.76C2609.87,1367.73 2609.79,1368.69 2609.7,1369.66C2608.74,1380.71 2608.07,1390.79 2607.58,1401.87L2607.56,1402.22C2607.49,1403.34 2607.41,1404.46 2607.33,1405.57C2607.27,1406.5 2607.22,1407.42 2607.16,1408.35C2603.6,1466.34 2608.59,1524.64 2619.26,1581.68C2623.35,1603.57 2628.06,1625.97 2638.82,1645.75C2638.82,1645.75 2642.51,1650.94 2644.4,1653.51C2644.4,1653.51 2653.97,1664.45 2658.84,1669.85C2658.84,1669.85 2671.1,1681.87 2677.33,1687.77L2678.08,1688.49L2678.85,1689.25C2701.69,1741.6 2675.66,1803.45 2623.87,1825.6C2623.87,1825.6 2623.87,1825.6 2623.86,1825.6C2608.84,1831.14 2592.66,1835.34 2576.49,1833.83C2538.55,1830.28 2503.97,1805.21 2487.3,1771.17L2487.3,1771.16L2487.26,1770C2487.17,1768.41 2487.09,1766.81 2487.02,1765.22C2486.62,1756.88 2486.33,1749.8 2486.07,1741.46L2486.04,1740.28L2486.01,1739.55C2485.91,1738.25 2485.81,1736.95 2485.72,1735.65C2485.2,1728.75 2484.74,1721.86 2484.34,1714.96L2484.29,1714.23C2484.14,1712.98 2483.98,1711.73 2483.83,1710.48C2483.64,1709 2483.46,1707.52 2483.28,1706.03C2483.2,1705.29 2483.11,1704.55 2483.02,1703.81L2482.97,1703.34C2482.67,1702.07 2482.39,1700.79 2482.1,1699.52C2481.78,1698.09 2481.46,1696.67 2481.14,1695.24L2481.14,1695.22C2480.64,1693.87 2480.15,1692.52 2479.66,1691.17C2476.08,1681.32 2473.01,1672.49 2469.74,1662.54C2469.28,1661.17 2468.76,1659.83 2468.28,1658.47C2463.57,1645.22 2459.5,1632.93 2455.39,1619.48C2455.07,1618.44 2454.73,1617.41 2454.41,1616.38C2432.31,1546.25 2420.18,1474.25 2417.46,1400.81L2417.44,1400.08C2417.02,1370.61 2418.32,1342.87 2421.53,1313.67L2421.55,1313.54C2423.01,1306.6 2424.28,1300.84 2425.87,1293.92L2425.97,1293.47C2428.24,1286.79 2430.58,1280.13 2432.99,1273.5C2433.44,1272.54 2433.89,1271.58 2434.34,1270.61C2439.76,1259.16 2444.75,1249.04 2450.55,1237.73L2451.11,1236.62C2456.61,1227.01 2462.26,1217.47 2468.03,1208.01C2471.24,1197.47 2474.61,1186.95 2477.03,1176.2L2477.07,1175.77C2478.06,1161.78 2478.38,1149.76 2476.93,1136.1L2476.92,1136.06C2476.07,1131.12 2475.21,1126.71 2474.14,1121.83L2474.09,1121.61C2472.6,1116.42 2470.96,1111.28 2469.15,1106.19L2469.1,1106.06C2461.38,1086.99 2450.95,1069.72 2435.61,1055.48L2435.51,1055.38C2424.26,1045.65 2410.95,1038.61 2396.47,1035.15C2396.09,1035.07 2395.71,1034.99 2395.33,1034.91C2352.55,1026.29 2307.45,1045.93 2271.44,1066.59C2270.66,1067.04 2269.87,1067.5 2269.09,1067.95C2259.95,1073.29 2251.73,1078.45 2242.87,1084.3L2242.32,1084.66C2241.7,1085.09 2241.07,1085.51 2240.45,1085.93L2240.44,1085.93C2225.92,1093.57 2209.48,1090.46 2200.68,1075.18L2200.68,1075.17C2193.09,1058.51 2197.51,1042.25 2214.16,1034.01C2215.1,1033.55 2216.04,1033.08 2216.99,1032.62C2227.59,1027.46 2237.69,1022.84 2248.63,1018.28C2249.32,1017.99 2250.02,1017.69 2250.72,1017.39C2280.87,1004.67 2312.23,994.998 2344.86,991.668C2345.44,991.61 2346.02,991.554 2346.6,991.5C2351.91,991.015 2356.79,990.751 2362.12,990.691C2362.84,990.685 2363.55,990.682 2364.26,990.682C2400.04,990.797 2434.44,1002.63 2460.86,1027.45C2461.24,1027.8 2461.62,1028.14 2462,1028.49C2467.86,1033.87 2473.28,1039.7 2478.27,1045.91C2477.6,1043.36 2476.91,1040.82 2476.18,1038.28L2476.15,1038.17C2470.78,1021.37 2464.06,1004.92 2455.18,989.643L2455.06,989.448C2413.98,923.067 2335.05,908.599 2264.72,891.241L2262.78,890.762C2259.64,890.018 2256.5,889.272 2253.36,888.524C2251.03,887.969 2248.7,887.413 2246.38,886.856C2237.51,884.725 2228.66,882.517 2219.8,880.352C2218.97,880.148 2218.14,879.944 2217.31,879.739L2217.3,879.737L2211.81,877.742C2199.22,869.754 2195.07,858.002 2198.09,843.32L2198.09,843.301C2203,831.531 2210.47,824.683 2223.16,822.373C2225.04,822.434 2226.92,822.496 2228.8,822.557C2232.96,823.616 2232.89,823.413 2236.82,824.88C2237.6,825.17 2238.38,825.453 2239.16,825.739C2252.21,830.499 2261.99,833.969 2275.34,838.676C2281.77,840.969 2288.25,843.107 2294.71,845.317C2296.81,846.036 2298.91,846.756 2301.01,847.477C2328.62,856.985 2356.33,866.714 2382.76,879.228C2383.33,879.501 2383.91,879.762 2384.48,880.029C2405.29,889.771 2424.96,901.638 2442.63,916.34C2443.1,916.731 2443.56,917.124 2444.03,917.518C2461.5,932.395 2476.1,950.295 2487.5,970.197C2487.8,970.708 2488.11,971.221 2488.41,971.734C2498.53,988.923 2506.35,1007.31 2512.66,1026.26C2512.95,1027.05 2513.24,1027.85 2513.53,1028.65C2516.18,1036.13 2518.42,1043.1 2520.67,1050.73C2520.98,1051.77 2521.35,1052.81 2521.68,1053.84C2523.6,1059.84 2525.21,1065.23 2526.94,1071.31C2526.94,1071.31 2527.66,1073.54 2528.02,1074.65C2528.32,1075.54 2528.61,1076.44 2528.9,1077.34C2530.23,1081.48 2531.52,1085.63 2532.77,1089.8C2532.77,1089.8 2533.25,1091.22 2533.5,1091.93" style="fill:rgb(235,235,235);"/>
                </g>
                <path d="M2097.61,1896.58C2110.92,1914.71 2128.01,1936.99 2156.6,1953.44C2286.88,2028.42 2255.64,2188.87 2224.84,2286.26C2199.22,2275.91 2177.5,2255.83 2165.33,2230.97L2165.32,2230.96L2165.28,2229.8C2165.2,2228.21 2165.12,2226.61 2165.04,2225.02C2164.64,2216.69 2164.36,2209.6 2164.09,2201.27L2164.06,2200.09L2164.04,2199.35C2163.93,2198.05 2163.84,2196.75 2163.74,2195.45C2163.22,2188.56 2162.76,2181.66 2162.36,2174.76L2162.32,2174.03C2162.16,2172.78 2162,2171.53 2161.85,2170.28C2161.66,2168.8 2161.48,2167.32 2161.31,2165.83C2161.22,2165.09 2161.13,2164.35 2161.04,2163.61L2160.99,2163.14C2160.7,2161.87 2160.41,2160.59 2160.12,2159.32C2159.8,2157.89 2159.48,2156.47 2159.16,2155.04L2159.16,2155.02C2158.66,2153.67 2158.17,2152.32 2157.68,2150.97C2154.1,2141.12 2151.04,2132.29 2147.76,2122.34C2147.31,2120.97 2146.78,2119.63 2146.3,2118.27C2141.59,2105.02 2137.52,2092.73 2133.41,2079.28C2133.1,2078.24 2132.75,2077.22 2132.43,2076.18C2113.95,2017.55 2102.44,1957.6 2097.61,1896.58Z" style="fill:rgb(255,226,76);"/>
                <g transform="matrix(1,0,0,1,228.628,-192.694)">
                    <path d="M2051.28,1861.49L2052.02,1867.27C2052.13,1868.08 2052.23,1868.88 2052.34,1869.68C2054.8,1888.4 2056.52,1907.21 2057.64,1926.06C2057.64,1926.06 2057.72,1932.57 2057.71,1935.82C2058.04,1937.52 2058.37,1939.23 2058.7,1940.93L2058.7,1940.94L2058.68,1941.43L2058.71,1941.55L2058.71,1941.56C2058.69,1942.05 2058.68,1942.54 2058.67,1943.03L2058.72,1943.29L2058.72,1943.3C2058.69,1943.88 2058.66,1944.47 2058.64,1945.05C2058.63,1945.7 2058.62,1946.35 2058.6,1947C2058.81,1948.02 2059.03,1949.05 2059.25,1950.07C2059.25,1950.07 2059.54,1952.29 2059.67,1953.41C2059.79,1954.51 2059.92,1955.61 2060.05,1956.72C2060.43,1959.99 2060.83,1963.26 2061.24,1966.53L2061.38,1967.61C2061.38,1967.61 2061.5,1970.44 2061.51,1971.85C2061.57,1976.03 2061.66,1980.21 2061.77,1984.38L2061.8,1985.31C2061.7,1986.36 2061.61,1987.41 2061.52,1988.47C2061.44,1989.48 2061.35,1990.49 2061.27,1991.51C2060.57,2000.14 2060.07,2007.73 2059.62,2016.34L2059.62,2016.4C2059.53,2017.35 2059.44,2018.3 2059.35,2019.26C2059.27,2020.22 2059.18,2021.19 2059.09,2022.16C2058.14,2033.21 2057.46,2043.29 2056.97,2054.36L2056.96,2054.72C2056.88,2055.83 2056.8,2056.95 2056.73,2058.07C2056.67,2058.99 2056.61,2059.92 2056.55,2060.84C2053.22,2115.18 2057.39,2169.78 2066.77,2223.37C1967.64,2128.64 1876.78,1989.87 2023.33,1876.65C2032.19,1869.8 2041.56,1864.71 2051.28,1861.49Z" style="fill:rgb(255,88,91);"/>
                </g>
                <g transform="matrix(-0.707107,0.707107,-0.49039,-0.49039,4516.02,1186.94)">
                    <path d="M1947.6,2015.77C1927.56,1952.08 1926.15,1872.82 1973.07,1871.07C1994.87,1870.26 2038.68,1879.85 2077.83,1899.7C2068.27,1904.6 2059.23,1908.98 2049.23,1913.63L2048.04,1914.18C2037.35,1918.38 2026.62,1922.34 2015.85,1926.11C2006.13,1933.58 1996.31,1940.87 1986.99,1949.36L1986.66,1949.77C1976.07,1963.01 1967.34,1974.95 1958.71,1990.36L1958.68,1990.41C1955.79,1996.31 1953.28,2001.68 1950.59,2007.74L1950.46,2008.02L1947.6,2015.77Z" style="fill:rgb(46,168,255);"/>
                </g>
            </g>
        </g>
        <g transform="matrix(1,0,0,0.970588,9751.15,1466.95)">
            <g transform="matrix(0.555702,0,0,0.572541,1808.79,519.573)">
                <g transform="matrix(0.371554,0,0,0.371554,-1272.49,112.418)">
                    <path d="M4041.29,529.246C4157.69,529.246 4252.19,623.744 4252.19,740.139C4252.19,856.535 4157.69,951.033 4041.29,951.033C3924.9,951.033 3830.4,856.535 3830.4,740.139C3830.4,623.744 3924.9,529.246 4041.29,529.246ZM4041.29,611.43C4112.33,611.43 4170,669.103 4170,740.139C4170,811.176 4112.33,868.849 4041.29,868.849C3970.26,868.849 3912.58,811.176 3912.58,740.139C3912.58,669.103 3970.26,611.43 4041.29,611.43Z" style="fill:rgb(235,235,235);"/>
                </g>
                <g transform="matrix(0.371554,0,0,0.371554,-1073.22,116.172)">
                    <path d="M4041.29,529.246C4157.69,529.246 4252.19,623.744 4252.19,740.139C4252.19,856.535 4157.69,951.033 4041.29,951.033C3924.9,951.033 3830.4,856.535 3830.4,740.139C3830.4,623.744 3924.9,529.246 4041.29,529.246ZM4041.29,611.43C4112.33,611.43 4170,669.103 4170,740.139C4170,811.176 4112.33,868.849 4041.29,868.849C3970.26,868.849 3912.58,811.176 3912.58,740.139C3912.58,669.103 3970.26,611.43 4041.29,611.43Z" style="fill:rgb(235,235,235);"/>
                </g>
                <g transform="matrix(0.371554,0,0,0.371554,-1273.65,306.369)">
                    <path d="M4041.29,529.246C4157.69,529.246 4252.19,623.744 4252.19,740.139C4252.19,856.535 4157.69,951.033 4041.29,951.033C3924.9,951.033 3830.4,856.535 3830.4,740.139C3830.4,623.744 3924.9,529.246 4041.29,529.246ZM4041.29,611.43C4112.33,611.43 4170,669.103 4170,740.139C4170,811.176 4112.33,868.849 4041.29,868.849C3970.26,868.849 3912.58,811.176 3912.58,740.139C3912.58,669.103 3970.26,611.43 4041.29,611.43Z" style="fill:rgb(235,235,235);"/>
                </g>
                <g transform="matrix(0.371554,0,0,0.371554,-1069.53,320.143)">
                    <path d="M4041.29,529.246C4157.69,529.246 4252.19,623.744 4252.19,740.139C4252.19,856.535 4157.69,951.033 4041.29,951.033C3924.9,951.033 3830.4,856.535 3830.4,740.139C3830.4,623.744 3924.9,529.246 4041.29,529.246ZM4041.29,611.43C4112.33,611.43 4170,669.103 4170,740.139C4170,811.176 4112.33,868.849 4041.29,868.849C3970.26,868.849 3912.58,811.176 3912.58,740.139C3912.58,669.103 3970.26,611.43 4041.29,611.43Z" style="fill:rgb(235,235,235);"/>
                </g>
                <g transform="matrix(0.371554,0,0,0.371554,-1176.43,509.178)">
                    <path d="M4041.29,529.246C4157.69,529.246 4252.19,623.744 4252.19,740.139C4252.19,856.535 4157.69,951.033 4041.29,951.033C3924.9,951.033 3830.4,856.535 3830.4,740.139C3830.4,623.744 3924.9,529.246 4041.29,529.246ZM4041.29,611.43C4112.33,611.43 4170,669.103 4170,740.139C4170,811.176 4112.33,868.849 4041.29,868.849C3970.26,868.849 3912.58,811.176 3912.58,740.139C3912.58,669.103 3970.26,611.43 4041.29,611.43Z" style="fill:rgb(235,235,235);"/>
                </g>
                <g transform="matrix(0.371554,0,0,0.371554,-912.813,483.326)">
                    <path d="M4041.29,529.246C4157.69,529.246 4252.19,623.744 4252.19,740.139C4252.19,856.535 4157.69,951.033 4041.29,951.033C3924.9,951.033 3830.4,856.535 3830.4,740.139C3830.4,623.744 3924.9,529.246 4041.29,529.246ZM4041.29,611.43C4112.33,611.43 4170,669.103 4170,740.139C4170,811.176 4112.33,868.849 4041.29,868.849C3970.26,868.849 3912.58,811.176 3912.58,740.139C3912.58,669.103 3970.26,611.43 4041.29,611.43Z" style="fill:rgb(235,235,235);"/>
                </g>
                <g transform="matrix(0.371554,0,0,0.371554,-884.398,228.011)">
                    <path d="M4041.29,529.246C4157.69,529.246 4252.19,623.744 4252.19,740.139C4252.19,856.535 4157.69,951.033 4041.29,951.033C3924.9,951.033 3830.4,856.535 3830.4,740.139C3830.4,623.744 3924.9,529.246 4041.29,529.246ZM4041.29,611.43C4112.33,611.43 4170,669.103 4170,740.139C4170,811.176 4112.33,868.849 4041.29,868.849C3970.26,868.849 3912.58,811.176 3912.58,740.139C3912.58,669.103 3970.26,611.43 4041.29,611.43Z" style="fill:rgb(235,235,235);"/>
                </g>
                <g transform="matrix(0.371554,0,0,0.371554,-1272.49,112.418)">
                    <path d="M4041.29,529.246C4157.69,529.246 4252.19,623.744 4252.19,740.139C4252.19,856.535 4157.69,951.033 4041.29,951.033C3924.9,951.033 3830.4,856.535 3830.4,740.139C3830.4,623.744 3924.9,529.246 4041.29,529.246ZM4041.29,611.43C4112.33,611.43 4170,669.103 4170,740.139C4170,811.176 4112.33,868.849 4041.29,868.849C3970.26,868.849 3912.58,811.176 3912.58,740.139C3912.58,669.103 3970.26,611.43 4041.29,611.43Z" style="fill:rgb(235,235,235);"/>
                </g>
                <g transform="matrix(0.371554,0,0,0.371554,-1073.22,116.172)">
                    <path d="M4041.29,529.246C4157.69,529.246 4252.19,623.744 4252.19,740.139C4252.19,856.535 4157.69,951.033 4041.29,951.033C3924.9,951.033 3830.4,856.535 3830.4,740.139C3830.4,623.744 3924.9,529.246 4041.29,529.246ZM4041.29,611.43C4112.33,611.43 4170,669.103 4170,740.139C4170,811.176 4112.33,868.849 4041.29,868.849C3970.26,868.849 3912.58,811.176 3912.58,740.139C3912.58,669.103 3970.26,611.43 4041.29,611.43Z" style="fill:rgb(235,235,235);"/>
                </g>
                <g transform="matrix(0.371554,0,0,0.371554,-1273.65,306.369)">
                    <path d="M4041.29,529.246C4157.69,529.246 4252.19,623.744 4252.19,740.139C4252.19,856.535 4157.69,951.033 4041.29,951.033C3924.9,951.033 3830.4,856.535 3830.4,740.139C3830.4,623.744 3924.9,529.246 4041.29,529.246ZM4041.29,611.43C4112.33,611.43 4170,669.103 4170,740.139C4170,811.176 4112.33,868.849 4041.29,868.849C3970.26,868.849 3912.58,811.176 3912.58,740.139C3912.58,669.103 3970.26,611.43 4041.29,611.43Z" style="fill:rgb(235,235,235);"/>
                </g>
                <g transform="matrix(0.371554,0,0,0.371554,-1069.53,320.143)">
                    <path d="M4041.29,529.246C4157.69,529.246 4252.19,623.744 4252.19,740.139C4252.19,856.535 4157.69,951.033 4041.29,951.033C3924.9,951.033 3830.4,856.535 3830.4,740.139C3830.4,623.744 3924.9,529.246 4041.29,529.246ZM4041.29,611.43C4112.33,611.43 4170,669.103 4170,740.139C4170,811.176 4112.33,868.849 4041.29,868.849C3970.26,868.849 3912.58,811.176 3912.58,740.139C3912.58,669.103 3970.26,611.43 4041.29,611.43Z" style="fill:rgb(235,235,235);"/>
                </g>
                <g transform="matrix(0.371554,0,0,0.371554,-1176.43,509.178)">
                    <path d="M4041.29,529.246C4157.69,529.246 4252.19,623.744 4252.19,740.139C4252.19,856.535 4157.69,951.033 4041.29,951.033C3924.9,951.033 3830.4,856.535 3830.4,740.139C3830.4,623.744 3924.9,529.246 4041.29,529.246ZM4041.29,611.43C4112.33,611.43 4170,669.103 4170,740.139C4170,811.176 4112.33,868.849 4041.29,868.849C3970.26,868.849 3912.58,811.176 3912.58,740.139C3912.58,669.103 3970.26,611.43 4041.29,611.43Z" style="fill:rgb(235,235,235);"/>
                </g>
                <g transform="matrix(0.371554,0,0,0.371554,-912.813,483.326)">
                    <path d="M4041.29,529.246C4157.69,529.246 4252.19,623.744 4252.19,740.139C4252.19,856.535 4157.69,951.033 4041.29,951.033C3924.9,951.033 3830.4,856.535 3830.4,740.139C3830.4,623.744 3924.9,529.246 4041.29,529.246ZM4041.29,611.43C4112.33,611.43 4170,669.103 4170,740.139C4170,811.176 4112.33,868.849 4041.29,868.849C3970.26,868.849 3912.58,811.176 3912.58,740.139C3912.58,669.103 3970.26,611.43 4041.29,611.43Z" style="fill:rgb(235,235,235);"/>
                </g>
                <g transform="matrix(0.371554,0,0,0.371554,-884.398,228.011)">
                    <path d="M4041.29,529.246C4157.69,529.246 4252.19,623.744 4252.19,740.139C4252.19,856.535 4157.69,951.033 4041.29,951.033C3924.9,951.033 3830.4,856.535 3830.4,740.139C3830.4,623.744 3924.9,529.246 4041.29,529.246ZM4041.29,611.43C4112.33,611.43 4170,669.103 4170,740.139C4170,811.176 4112.33,868.849 4041.29,868.849C3970.26,868.849 3912.58,811.176 3912.58,740.139C3912.58,669.103 3970.26,611.43 4041.29,611.43Z" style="fill:rgb(235,235,235);"/>
                </g>
                <g transform="matrix(0.371554,0,0,0.371554,-1272.49,112.418)">
                    <path d="M4190.42,591.015C4150.87,551.465 4097.23,529.246 4041.29,529.246C3924.82,529.246 3830.4,623.666 3830.4,740.139L3912.58,740.139C3912.58,669.055 3970.21,611.43 4041.29,611.43C4075.43,611.43 4108.17,624.991 4132.3,649.128L4190.42,591.015Z" style="fill:rgb(145,230,35);"/>
                </g>
                <g transform="matrix(0.371554,0,0,0.371554,-1073.22,116.172)">
                    <path d="M4190.42,591.015C4150.87,551.465 4097.23,529.246 4041.29,529.246C3924.82,529.246 3830.4,623.666 3830.4,740.139L3912.58,740.139C3912.58,669.055 3970.21,611.43 4041.29,611.43C4075.43,611.43 4108.17,624.991 4132.3,649.128L4190.42,591.015Z" style="fill:rgb(255,164,9);"/>
                </g>
                <g transform="matrix(0.371554,0,0,0.371554,-1273.65,306.369)">
                    <path d="M4190.42,591.015C4150.87,551.465 4097.23,529.246 4041.29,529.246C3924.82,529.246 3830.4,623.666 3830.4,740.139L3912.58,740.139C3912.58,669.055 3970.21,611.43 4041.29,611.43C4075.43,611.43 4108.17,624.991 4132.3,649.128L4190.42,591.015Z" style="fill:rgb(46,168,255);"/>
                </g>
                <g transform="matrix(0.371554,0,0,0.371554,-1069.53,320.143)">
                    <path d="M4190.42,591.015C4150.87,551.465 4097.23,529.246 4041.29,529.246C3924.82,529.246 3830.4,623.666 3830.4,740.139L3912.58,740.139C3912.58,669.055 3970.21,611.43 4041.29,611.43C4075.43,611.43 4108.17,624.991 4132.3,649.128L4190.42,591.015Z" style="fill:rgb(255,88,91);"/>
                </g>
                <g transform="matrix(0.371554,0,0,0.371554,-1176.43,509.178)">
                    <path d="M4190.42,591.015C4150.87,551.465 4097.23,529.246 4041.29,529.246C3924.82,529.246 3830.4,623.666 3830.4,740.139L3912.58,740.139C3912.58,669.055 3970.21,611.43 4041.29,611.43C4075.43,611.43 4108.17,624.991 4132.3,649.128L4190.42,591.015Z" style="fill:rgb(255,226,76);"/>
                </g>
                <g transform="matrix(0.371554,0,0,0.371554,-912.813,483.326)">
                    <path d="M4190.42,591.015C4150.87,551.465 4097.23,529.246 4041.29,529.246C3924.82,529.246 3830.4,623.666 3830.4,740.139L3912.58,740.139C3912.58,669.055 3970.21,611.43 4041.29,611.43C4075.43,611.43 4108.17,624.991 4132.3,649.128L4190.42,591.015Z" style="fill:rgb(30,109,166);"/>
                </g>
                <g transform="matrix(0.371554,0,0,0.371554,-884.398,228.011)">
                    <path d="M4190.42,591.015C4150.87,551.465 4097.23,529.246 4041.29,529.246C3924.82,529.246 3830.4,623.666 3830.4,740.139L3912.58,740.139C3912.58,669.055 3970.21,611.43 4041.29,611.43C4075.43,611.43 4108.17,624.991 4132.3,649.128L4190.42,591.015Z" style="fill:rgb(224,81,244);"/>
                </g>
            </g>
        </g>
        <g transform="matrix(1,0,0,0.970588,9751.15,1466.95)">
            <g transform="matrix(0.555143,0,0,0.571965,286.652,105.859)">
                <path d="M2533.5,1091.93C2533.8,1089.75 2534.09,1087.57 2534.36,1085.38L2534.38,1085.24C2534.82,1078.93 2535.1,1073.24 2535.28,1066.96L2535.3,1066.37C2535.14,1059.46 2534.8,1052.55 2534.3,1045.66L2534.26,1045.15C2531.31,1017.17 2524.5,990.355 2516.31,963.374L2516.21,963.046C2513.47,954.713 2510.62,946.415 2507.81,938.108C2507.4,936.9 2506.99,935.692 2506.58,934.484C2502.46,922.223 2498.33,909.607 2495.16,897.024C2495.05,896.59 2494.93,896.156 2494.82,895.722C2490.08,877.288 2488.38,863.895 2489.2,844.846C2491.57,789.833 2534.25,748.073 2573.47,714.761C2574.1,714.226 2574.73,713.692 2575.36,713.158C2587.61,702.88 2600.29,693.161 2613.11,683.617L2613.12,683.611C2618.68,680.335 2622.66,678.971 2629.07,678.29C2630.92,678.475 2632.77,678.659 2634.62,678.844C2642.67,681.332 2648.42,684.174 2653.49,691.819C2661.98,707.743 2658.71,724.332 2642.88,733.663C2641.88,734.26 2640.88,734.859 2639.88,735.46C2629.24,741.869 2618.61,748.295 2608.24,755.135C2574.06,777.681 2534.45,807.258 2530.91,851.814C2529.91,864.308 2531.48,875.669 2533.96,887.869C2534.04,888.246 2534.12,888.622 2534.21,888.998C2538.03,906.02 2543.43,922.704 2548.49,939.379C2548.88,940.669 2549.27,941.959 2549.66,943.25C2550.45,945.891 2551.24,948.533 2552.03,951.178C2552.03,951.178 2552.86,953.871 2553.28,955.216C2553.6,956.238 2553.92,957.261 2554.24,958.284C2559.78,976.23 2564.71,994.364 2568.53,1012.76C2568.73,1013.61 2568.93,1014.45 2569.12,1015.3C2571,1023.53 2572.53,1031.11 2573.97,1039.41C2573.97,1039.41 2574.33,1041.19 2574.51,1042.08C2581.68,1032.28 2589.3,1022.82 2597.12,1013.52L2597.37,1013.23C2597.99,1012.45 2598.61,1011.67 2599.24,1010.9C2599.94,1010.02 2600.65,1009.15 2601.35,1008.28C2606.24,1002.25 2611.18,996.255 2616.1,990.248C2617.14,988.972 2618.19,987.695 2619.23,986.417C2635.47,966.47 2650.63,945.819 2663.07,923.209L2663.2,922.963C2683.7,884.076 2695,841.491 2699.76,798.032L2699.76,798.022C2702.96,783.523 2712.42,775.671 2727.34,773.964C2729.41,774.13 2731.48,774.297 2733.55,774.463C2733.55,774.464 2733.56,774.465 2733.57,774.466C2736.66,775.173 2742.33,776.641 2744.86,778.805C2766.64,797.385 2752.47,828.809 2745.32,850.62C2745.04,851.533 2744.74,852.445 2744.45,853.356C2733.93,885.782 2719.63,916.929 2700.87,945.41C2700.64,945.781 2700.4,946.152 2700.16,946.522C2689.35,963.214 2677.15,978.927 2664.18,993.988C2663.6,994.686 2663.01,995.382 2662.43,996.077C2653.42,1006.75 2645.33,1015.78 2635.79,1026.57C2634.71,1027.79 2633.63,1029.02 2632.55,1030.25C2630.76,1032.29 2628.97,1034.34 2627.19,1036.39L2626.66,1037L2626.38,1037.33C2625.61,1038.26 2624.85,1039.19 2624.09,1040.13C2615.05,1051.28 2606.34,1062.68 2598.46,1074.68C2602.18,1074.52 2605.91,1074.39 2609.64,1074.24C2610.93,1074.19 2612.22,1074.13 2613.5,1074.08C2639.76,1072.89 2666.32,1067.8 2689.78,1055.49C2716.2,1041.63 2738.58,1021.1 2757.42,998.172C2780.46,970.143 2792.06,955.536 2810.63,924.288L2810.64,924.279C2822.63,908.331 2840.96,908.324 2855.91,920.894C2865.55,932.866 2867,946.851 2857.08,959.367C2856.44,960.19 2855.79,961.012 2855.15,961.833C2847.42,971.615 2839.91,980.732 2831.56,990.259C2830.99,990.92 2830.43,991.579 2829.86,992.238C2808.14,1017.31 2784.44,1040.9 2757.69,1060.62C2757.11,1061.05 2756.54,1061.49 2755.96,1061.92C2739.98,1073.81 2722.83,1084.3 2704.54,1092.24C2704.05,1092.46 2703.55,1092.68 2703.05,1092.9C2684.62,1101.05 2665.14,1106.47 2645.19,1109.14C2644.63,1109.21 2644.08,1109.31 2643.53,1109.39C2629.93,1111.39 2616.26,1112.08 2602.55,1112.81C2601.37,1112.88 2600.19,1112.94 2599.01,1113.01C2597.17,1113.12 2595.33,1113.25 2593.49,1113.39L2593.3,1113.4C2591.27,1113.64 2589.24,1113.91 2587.22,1114.24C2588.97,1123.57 2590.36,1132.43 2591.61,1141.93C2591.61,1141.93 2592.05,1144.39 2592.28,1145.62C2592.45,1146.55 2592.62,1147.48 2592.8,1148.41C2594.74,1159.1 2596.23,1168.84 2597.61,1179.62C2597.61,1179.62 2597.95,1181.68 2598.12,1182.71C2598.29,1183.74 2598.46,1184.78 2598.63,1185.81C2600.22,1195.75 2601.45,1204.75 2602.62,1214.78C2602.73,1215.58 2602.84,1216.38 2602.95,1217.18C2605.41,1235.91 2607.13,1254.72 2608.24,1273.57C2608.24,1273.57 2608.33,1280.07 2608.32,1283.32C2608.64,1285.03 2608.97,1286.73 2609.3,1288.43L2609.3,1288.44L2609.29,1288.94L2609.32,1289.05L2609.32,1289.06C2609.3,1289.55 2609.29,1290.04 2609.28,1290.53L2609.33,1290.79L2609.33,1290.8C2609.29,1291.38 2609.27,1291.97 2609.24,1292.55C2609.24,1293.2 2609.22,1293.85 2609.2,1294.5C2609.42,1295.53 2609.64,1296.55 2609.86,1297.58C2609.86,1297.58 2610.15,1299.8 2610.27,1300.91C2610.4,1302.02 2610.53,1303.12 2610.65,1304.22C2611.04,1307.49 2611.43,1310.76 2611.85,1314.03L2611.99,1315.11C2611.99,1315.11 2612.1,1317.94 2612.12,1319.36C2612.18,1323.54 2612.26,1327.71 2612.38,1331.89L2612.41,1332.81C2612.31,1333.86 2612.22,1334.92 2612.13,1335.97C2612.04,1336.99 2611.96,1338 2611.88,1339.01C2611.18,1347.64 2610.67,1355.23 2610.23,1363.84L2610.22,1363.91C2610.14,1364.86 2610.05,1365.81 2609.96,1366.76C2609.87,1367.73 2609.79,1368.69 2609.7,1369.66C2608.74,1380.71 2608.07,1390.79 2607.58,1401.87L2607.56,1402.22C2607.49,1403.34 2607.41,1404.46 2607.33,1405.57C2607.27,1406.5 2607.22,1407.42 2607.16,1408.35C2603.6,1466.34 2608.59,1524.64 2619.26,1581.68C2623.35,1603.57 2628.06,1625.97 2638.82,1645.75C2638.82,1645.75 2642.51,1650.94 2644.4,1653.51C2644.4,1653.51 2653.97,1664.45 2658.84,1669.85C2658.84,1669.85 2671.1,1681.87 2677.33,1687.77L2678.08,1688.49L2678.85,1689.25C2701.69,1741.6 2675.66,1803.45 2623.87,1825.6C2623.87,1825.6 2623.87,1825.6 2623.86,1825.6C2608.84,1831.14 2592.66,1835.34 2576.49,1833.83C2538.55,1830.28 2503.97,1805.21 2487.3,1771.17L2487.3,1771.16L2487.26,1770C2487.17,1768.41 2487.09,1766.81 2487.02,1765.22C2486.62,1756.88 2486.33,1749.8 2486.07,1741.46L2486.04,1740.28L2486.01,1739.55C2485.91,1738.25 2485.81,1736.95 2485.72,1735.65C2485.2,1728.75 2484.74,1721.86 2484.34,1714.96L2484.29,1714.23C2484.14,1712.98 2483.98,1711.73 2483.83,1710.48C2483.64,1709 2483.46,1707.52 2483.28,1706.03C2483.2,1705.29 2483.11,1704.55 2483.02,1703.81L2482.97,1703.34C2482.67,1702.07 2482.39,1700.79 2482.1,1699.52C2481.78,1698.09 2481.46,1696.67 2481.14,1695.24L2481.14,1695.22C2480.64,1693.87 2480.15,1692.52 2479.66,1691.17C2476.08,1681.32 2473.01,1672.49 2469.74,1662.54C2469.28,1661.17 2468.76,1659.83 2468.28,1658.47C2463.57,1645.22 2459.5,1632.93 2455.39,1619.48C2455.07,1618.44 2454.73,1617.41 2454.41,1616.38C2432.31,1546.25 2420.18,1474.25 2417.46,1400.81L2417.44,1400.08C2417.02,1370.61 2418.32,1342.87 2421.53,1313.67L2421.55,1313.54C2423.01,1306.6 2424.28,1300.84 2425.87,1293.92L2425.97,1293.47C2428.24,1286.79 2430.58,1280.13 2432.99,1273.5C2433.44,1272.54 2433.89,1271.58 2434.34,1270.61C2439.76,1259.16 2444.75,1249.04 2450.55,1237.73L2451.11,1236.62C2456.61,1227.01 2462.26,1217.47 2468.03,1208.01C2471.24,1197.47 2474.61,1186.95 2477.03,1176.2L2477.07,1175.77C2478.06,1161.78 2478.38,1149.76 2476.93,1136.1L2476.92,1136.06C2476.07,1131.12 2475.21,1126.71 2474.14,1121.83L2474.09,1121.61C2472.6,1116.42 2470.96,1111.28 2469.15,1106.19L2469.1,1106.06C2461.38,1086.99 2450.95,1069.72 2435.61,1055.48L2435.51,1055.38C2424.26,1045.65 2410.95,1038.61 2396.47,1035.15C2396.09,1035.07 2395.71,1034.99 2395.33,1034.91C2352.55,1026.29 2307.45,1045.93 2271.44,1066.59C2270.66,1067.04 2269.87,1067.5 2269.09,1067.95C2259.95,1073.29 2251.73,1078.45 2242.87,1084.3L2242.32,1084.66C2241.7,1085.09 2241.07,1085.51 2240.45,1085.93L2240.44,1085.93C2225.92,1093.57 2209.48,1090.46 2200.68,1075.18L2200.68,1075.17C2193.09,1058.51 2197.51,1042.25 2214.16,1034.01C2215.1,1033.55 2216.04,1033.08 2216.99,1032.62C2227.59,1027.46 2237.69,1022.84 2248.63,1018.28C2249.32,1017.99 2250.02,1017.69 2250.72,1017.39C2280.87,1004.67 2312.23,994.998 2344.86,991.668C2345.44,991.61 2346.02,991.554 2346.6,991.5C2351.91,991.015 2356.79,990.751 2362.12,990.691C2362.84,990.685 2363.55,990.682 2364.26,990.682C2400.04,990.797 2434.44,1002.63 2460.86,1027.45C2461.24,1027.8 2461.62,1028.14 2462,1028.49C2467.86,1033.87 2473.28,1039.7 2478.27,1045.91C2477.6,1043.36 2476.91,1040.82 2476.18,1038.28L2476.15,1038.17C2470.78,1021.37 2464.06,1004.92 2455.18,989.643L2455.06,989.448C2413.98,923.067 2335.05,908.599 2264.72,891.241L2262.78,890.762C2259.64,890.018 2256.5,889.272 2253.36,888.524C2251.03,887.969 2248.7,887.413 2246.38,886.856C2237.51,884.725 2228.66,882.517 2219.8,880.352C2218.97,880.148 2218.14,879.944 2217.31,879.739L2217.3,879.737L2211.81,877.742C2199.22,869.754 2195.07,858.002 2198.09,843.32L2198.09,843.301C2203,831.531 2210.47,824.683 2223.16,822.373C2225.04,822.434 2226.92,822.496 2228.8,822.557C2232.96,823.616 2232.89,823.413 2236.82,824.88C2237.6,825.17 2238.38,825.453 2239.16,825.739C2252.21,830.499 2261.99,833.969 2275.34,838.676C2281.77,840.969 2288.25,843.107 2294.71,845.317C2296.81,846.036 2298.91,846.756 2301.01,847.477C2328.62,856.985 2356.33,866.714 2382.76,879.228C2383.33,879.501 2383.91,879.762 2384.48,880.029C2405.29,889.771 2424.96,901.638 2442.63,916.34C2443.1,916.731 2443.56,917.124 2444.03,917.518C2461.5,932.395 2476.1,950.295 2487.5,970.197C2487.8,970.708 2488.11,971.221 2488.41,971.734C2498.53,988.923 2506.35,1007.31 2512.66,1026.26C2512.95,1027.05 2513.24,1027.85 2513.53,1028.65C2516.18,1036.13 2518.42,1043.1 2520.67,1050.73C2520.98,1051.77 2521.35,1052.81 2521.68,1053.84C2523.6,1059.84 2525.21,1065.23 2526.94,1071.31C2526.94,1071.31 2527.66,1073.54 2528.02,1074.65C2528.32,1075.54 2528.61,1076.44 2528.9,1077.34C2530.23,1081.48 2531.52,1085.63 2532.77,1089.8C2532.77,1089.8 2533.25,1091.22 2533.5,1091.93" style="fill:rgb(235,235,235);"/>
            </g>
        </g>
        <g transform="matrix(1,0,0,0.970588,9751.15,1466.95)">
            <g transform="matrix(0.984566,0,0,1.0144,1215.71,-120.693)">
                <g transform="matrix(1.01453,5.55112e-17,-5.55112e-17,1.01453,-3556.76,-4747.92)">
                    <path d="M4097.93,5592.69L4097.93,5663.26" style="fill:none;stroke:black;stroke-width:8.34px;"/>
                </g>
                <g transform="matrix(6.61067e-18,1.01453,-1.01453,6.61067e-18,6310.43,-3195.65)">
                    <path d="M4097.93,5592.69L4097.93,5663.26" style="fill:none;stroke:black;stroke-width:8.34px;"/>
                </g>
            </g>
        </g>
        <g transform="matrix(1,0,0,0.970588,9751.15,1466.95)">
            <g transform="matrix(9.64162e-17,-0.582064,0.564944,9.93379e-17,-943.591,3240.22)">
                <g transform="matrix(3.02092e-16,1.77009,-1.77009,3.02092e-16,4814.09,4336.61)">
                    <path d="M804.978,392.089L842.478,404.589L804.978,417.089L804.978,392.089Z"/>
                    <path d="M736.751,404.589L812.478,404.589" style="fill:none;stroke:black;stroke-width:8.33px;"/>
                </g>
            </g>
        </g>
    </g>
</svg>
