<?xml version="1.0" encoding="UTF-8" standalone="no"?>
<!DOCTYPE svg PUBLIC "-//W3C//DTD SVG 1.1//EN" "http://www.w3.org/Graphics/SVG/1.1/DTD/svg11.dtd">
<svg width="100%" height="100%" viewBox="0 0 2244 1452" version="1.1" xmlns="http://www.w3.org/2000/svg" xmlns:xlink="http://www.w3.org/1999/xlink" xml:space="preserve" xmlns:serif="http://www.serif.com/" style="fill-rule:evenodd;clip-rule:evenodd;">
    <g transform="matrix(1,0,0,1,-362.642,-774.124)">
        <g transform="matrix(2,0,0,2,-428.91,659.74)">
            <path d="M953.699,57.192C937.862,57.192 922.003,63.256 909.92,75.339C885.754,99.505 885.754,138.675 909.92,162.841C934.086,187.007 973.313,187.007 997.479,162.841C1021.64,138.675 1021.64,99.505 997.479,75.339C985.395,63.256 969.536,57.192 953.699,57.192ZM879.637,193.634C856.228,193.634 837.185,202.73 830.47,210.534C818.856,223.962 818.879,239.954 819.242,245.58L819.242,473.663C819.242,485.096 828.281,494.192 839.714,494.192C851.146,494.192 860.243,484.914 860.243,473.663L860.243,284.936L878.957,284.936L878.957,482L879.127,482L879.127,750.404C879.127,768.369 893.826,783.068 911.791,783.068C929.757,783.068 944.455,768.369 944.455,750.404L944.455,482L962.773,482L962.773,750.404C962.773,768.369 977.471,783.068 995.437,783.068C1013.4,783.068 1028.1,768.369 1028.1,750.404L1028.1,481.83L1028.27,481.83L1028.27,284.766L1046.99,284.766L1046.99,473.493C1046.99,484.926 1056.03,493.965 1067.46,493.965C1078.89,493.965 1087.99,484.744 1087.99,473.493L1087.99,245.58C1088.53,239.954 1088.37,223.781 1076.76,210.534C1070.04,202.912 1050.94,193.634 1027.53,193.634L953.699,193.634L879.637,193.634Z" style="fill:rgb(213,213,213);fill-rule:nonzero;"/>
        </g>
        <g transform="matrix(2,0,0,2,-428.91,-570.649)">
            <path d="M891.573,730.437C906.769,711.309 929.736,699.994 954.163,699.603C977.687,699.225 1000.22,709.04 1015.97,726.52C1010.46,739.401 998.243,748.145 984.273,749.2C973.347,750.025 962.62,745.949 954.999,738.077C943.938,751.901 924.781,756.229 908.851,748.503C901.111,744.748 894.979,738.337 891.573,730.437Z" style="fill:rgb(0,162,255);fill-rule:nonzero;"/>
        </g>
        <g transform="matrix(-1.60914,-1.18771,-1.18771,1.60914,3803.05,814.908)">
            <path d="M932.497,717.882C926.362,719.774 921.389,726.511 921.389,732.931C921.389,739.35 926.362,743.021 932.497,741.129C938.631,739.238 943.604,732.5 943.604,726.081C943.604,719.661 938.631,715.991 932.497,717.882Z" style="fill:rgb(213,213,213);fill-rule:nonzero;"/>
        </g>
        <g transform="matrix(2,0,0,2,-428.91,361.529)">
            <path d="M1068.12,440.926C1075.42,440.926 1080.2,440.926 1084.75,442.243C1091.05,444.246 1095.99,449.183 1097.99,455.485C1099.31,460.034 1099.31,464.821 1099.31,472.119L1099.31,517.246C1099.31,524.544 1099.31,529.332 1097.99,533.881C1095.99,540.182 1091.05,545.119 1084.75,547.122C1080.2,548.439 1075.42,548.439 1068.12,548.439C1060.82,548.439 1056.03,548.439 1051.48,547.122C1045.18,545.119 1040.25,540.182 1038.24,533.881C1036.92,529.332 1036.92,524.544 1036.92,517.246L1036.92,472.119C1036.92,464.821 1036.92,460.034 1038.24,455.485C1040.25,449.183 1045.18,444.246 1051.48,442.243C1056.03,440.926 1060.82,440.926 1068.12,440.926Z" style="fill:rgb(97,216,54);fill-rule:nonzero;"/>
        </g>
        <g transform="matrix(0,2,-2,0,1187.92,1316.7)">
            <path d="M29.105,-28.156L81.238,-28.156C100.107,-29.105 116.753,-15.914 120.141,2.673C124.48,26.479 106.142,46.112 90.526,64.825C75.346,83.015 62.54,103.061 52.416,124.48" style="fill:none;fill-rule:nonzero;stroke:rgb(238,34,12);stroke-width:7px;"/>
        </g>
        <g transform="matrix(-1.41421,-1.41421,-1.41421,1.41421,3488.33,1590.3)">
            <circle cx="901.649" cy="593.135" r="15.257" style="fill:rgb(248,186,0);"/>
        </g>
        <g transform="matrix(2,0,0,2,-428.91,512.253)">
            <path d="M630.363,431.328L685.526,431.328C689.229,431.328 691.109,431.328 693.106,431.96C695.291,432.756 697.012,434.477 697.807,436.662C698.44,438.659 698.44,440.539 698.44,444.299L698.44,469.762C698.44,473.465 698.44,475.344 697.807,477.341C697.012,479.526 695.291,481.248 693.106,482.043C691.109,482.676 689.229,482.676 685.469,482.676L630.363,482.676C626.661,482.676 624.781,482.676 622.784,482.043C620.599,481.248 618.877,479.526 618.082,477.341C617.449,475.344 617.449,473.465 617.449,469.705L617.449,444.241C617.449,440.539 617.449,438.659 618.082,436.662C618.877,434.477 620.599,432.756 622.784,431.96C624.781,431.328 626.661,431.328 630.42,431.328L630.363,431.328Z" style="fill:rgb(238,34,12);fill-rule:nonzero;"/>
        </g>
        <g transform="matrix(-1.41423,-1.4142,-1.4142,1.41423,3791.29,1715.76)">
            <ellipse cx="990.383" cy="593.135" rx="15.257" ry="15.257" style="fill:rgb(248,186,0);"/>
        </g>
        <g transform="matrix(-1.41423,-1.4142,-1.4142,1.41423,3611.9,2148.87)">
            <ellipse cx="990.383" cy="466.282" rx="15.257" ry="15.257" style="fill:rgb(248,186,0);"/>
        </g>
        <g transform="matrix(2,0,0,2,-428.91,-196.004)">
            <path d="M1163.09,608.392L1184.84,608.392C1188.55,608.392 1190.42,608.392 1192.42,609.025C1194.61,609.82 1196.33,611.541 1197.12,613.727C1197.76,615.723 1197.76,617.603 1197.76,621.363L1197.76,646.826C1197.76,650.529 1197.76,652.409 1197.12,654.406C1196.33,656.591 1194.61,658.312 1192.42,659.107C1190.42,659.74 1188.55,659.74 1184.79,659.74L1163.09,659.74C1159.39,659.74 1157.51,659.74 1155.51,659.107C1153.33,658.312 1151.61,656.591 1150.81,654.406C1150.18,652.409 1150.18,650.529 1150.18,646.769L1150.18,621.306C1150.18,617.603 1150.18,615.723 1150.81,613.727C1151.61,611.541 1153.33,609.82 1155.51,609.025C1157.51,608.392 1159.39,608.392 1163.15,608.392L1163.09,608.392Z" style="fill:rgb(248,186,0);fill-rule:nonzero;"/>
        </g>
        <g transform="matrix(1.97139,-0.337053,0.337053,1.97139,1394.58,1064.63)">
            <path d="M-4.162,34.881C76.734,-8.093 156.765,-8.093 235.93,34.881" style="fill:none;fill-rule:nonzero;stroke:rgb(248,186,0);stroke-width:7px;"/>
        </g>
        <g transform="matrix(1.44537,-1.38235,1.38235,1.44537,1495.08,1226.41)">
            <path d="M-30.293,75.503C42.416,19.454 115.242,19.454 188.184,75.503" style="fill:none;fill-rule:nonzero;stroke:rgb(248,186,0);stroke-width:7px;"/>
        </g>
        <g transform="matrix(1.94321,-0.473201,0.473201,1.94321,1572.16,1094.05)">
            <path d="M-3.11,20.304C46.373,-0.617 97.1,-0.617 149.072,20.304" style="fill:none;fill-rule:nonzero;stroke:rgb(248,186,0);stroke-width:7px;"/>
        </g>
        <g transform="matrix(-1.60915,-1.18771,-1.18771,1.60915,3956.9,865.531)">
            <path d="M975.126,717.882C968.991,719.774 964.018,726.511 964.018,732.931C964.018,739.35 968.991,743.021 975.126,741.129C981.26,739.238 986.233,732.5 986.233,726.081C986.233,719.661 981.26,715.991 975.126,717.882Z" style="fill:rgb(213,213,213);fill-rule:nonzero;"/>
        </g>
        <g transform="matrix(2,0,0,2,-428.91,180.26)">
            <text x="396.052px" y="571.335px" style="font-family:'HelveticaNeue-Bold', 'Helvetica Neue';font-weight:700;font-size:46px;fill:rgb(238,34,12);">A<tspan x="428.022px 446.376px 463.028px 489.892px 508.246px 520.574px 547.438px 559.766px 573.508px 608.054px 634.918px 651.57px 679.308px 706.172px 722.824px 749.688px " y="571.335px 571.335px 571.335px 571.335px 571.335px 571.335px 571.335px 571.335px 571.335px 571.335px 571.335px 571.335px 571.335px 571.335px 571.335px 571.335px ">rterial Catheter</tspan></text>
        </g>
        <g transform="matrix(2,0,0,2,-428.91,180.26)">
            <text x="1134px" y="603px" style="font-family:'HelveticaNeue-Bold', 'Helvetica Neue';font-weight:700;font-size:46px;fill:rgb(97,216,54);">B<tspan x="1166.84px 1185.2px 1212.06px 1238.93px 1266.66px 1278.99px 1305.86px 1318.18px 1331.93px 1366.47px 1394.21px " y="603px 603px 603px 603px 603px 603px 603px 603px 603px 603px 603px ">rachial Cuﬀ</tspan></text>
        </g>
        <g transform="matrix(2,0,0,2,-428.91,180.26)">
            <text x="1105px" y="382px" style="font-family:'HelveticaNeue-Bold', 'Helvetica Neue';font-weight:700;font-size:46px;fill:rgb(248,186,0);">E<tspan x="1135.27px 1147.6px 1174.46px 1201.32px 1217.98px 1235.5px 1264.07px 1290.93px 1317.8px 1335.32px 1363.89px 1376.22px 1404.78px 1433.35px 1451.7px 1478.57px " y="382px 382px 382px 382px 382px 382px 382px 382px 382px 382px 382px 382px 382px 382px 382px 382px ">lectrocardiogram</tspan></text>
        </g>
        <g transform="matrix(2,0,0,2,-428.91,180.26)">
            <text x="1134px" y="730px" style="font-family:'HelveticaNeue-Bold', 'Helvetica Neue';font-weight:700;font-size:46px;fill:rgb(239,95,167);">P<tspan x="1165.14px 1192.88px 1205.21px 1230.37px 1257.23px 1270.98px 1307.22px 1332.39px 1344.71px 1386.85px 1413.71px 1430.37px 1457.23px " y="730px 730px 730px 730px 730px 730px 730px 730px 730px 730px 730px 730px 730px ">ulse Oximeter</tspan></text>
        </g>
        <g transform="matrix(-1.41421,-1.41422,-1.41422,1.41421,3735.71,2596.98)">
            <ellipse cx="1067.74" cy="367.083" rx="20.411" ry="20.411" style="fill:rgb(239,95,167);"/>
        </g>
        <g transform="matrix(2,0,0,2,-428.91,180.26)">
            <text x="418.539px" y="367.845px" style="font-family:'HelveticaNeue-Bold', 'Helvetica Neue';font-weight:700;font-size:46px;fill:rgb(0,162,255);">F<tspan x="446.277px 473.141px 500.005px 526.869px 540.611px 582.793px 609.657px 634.819px " y="367.845px 367.845px 367.845px 367.845px 367.845px 367.845px 367.845px 367.845px ">ace Mask</tspan></text>
            <text x="674.437px" y="367.845px" style="font-family:'HelveticaNeue-Bold', 'Helvetica Neue';font-weight:700;font-size:46px;fill:rgb(0,162,255);">S<tspan x="704.751px 731.615px 759.353px 784.515px 813.081px 831.435px " y="367.845px 367.845px 367.845px 367.845px 367.845px 367.845px ">ensors</tspan></text>
        </g>
    </g>
</svg>
