<?xml version="1.0" encoding="UTF-8" standalone="no"?>
<!DOCTYPE svg PUBLIC "-//W3C//DTD SVG 1.1//EN" "http://www.w3.org/Graphics/SVG/1.1/DTD/svg11.dtd">
<svg width="100%" height="100%" viewBox="0 0 1153 287" version="1.1" xmlns="http://www.w3.org/2000/svg" xmlns:xlink="http://www.w3.org/1999/xlink" xml:space="preserve" xmlns:serif="http://www.serif.com/" style="fill-rule:evenodd;clip-rule:evenodd;stroke-linecap:round;stroke-linejoin:round;stroke-miterlimit:1.5;">
    <g transform="matrix(1,0,0,1,-123.88,-120.049)">
        <g transform="matrix(1,0,0,1,-800,-2349.36)">
            <g transform="matrix(1,0,0,1,384.281,2086.91)">
                <path d="M604.399,542C593.599,542 582.999,541.767 572.599,541.3C562.199,540.833 551.199,540.067 539.599,539L539.599,393C550.265,391.933 560.365,391.167 569.899,390.7C579.432,390.233 588.865,390 598.199,390C621.932,390 639.299,393.433 650.299,400.3C661.299,407.167 666.799,417.933 666.799,432.6C666.799,448.6 658.265,458.867 641.199,463.4L641.199,464.2C651.065,466.067 658.565,469.967 663.699,475.9C668.832,481.833 671.399,489.533 671.399,499C671.399,513.667 665.965,524.5 655.099,531.5C644.232,538.5 627.332,542 604.399,542ZM603.799,510.8C611.665,510.8 617.432,509.5 621.099,506.9C624.765,504.3 626.599,500.2 626.599,494.6C626.599,489 624.899,485.1 621.499,482.9C618.099,480.7 612.132,479.6 603.599,479.6L582.399,479.6L582.399,510C583.199,510.133 584.032,510.267 584.899,510.4C585.765,510.533 586.932,510.633 588.399,510.7C589.865,510.767 591.799,510.8 594.199,510.8L603.799,510.8ZM600.399,451C608.532,451 614.199,449.867 617.399,447.6C620.599,445.333 622.199,441.4 622.199,435.8C622.199,430.467 620.599,426.667 617.399,424.4C614.199,422.133 608.665,421 600.799,421C593.732,421 587.599,421.4 582.399,422.2L582.399,451L600.399,451Z" style="fill:rgb(37,153,238);fill-rule:nonzero;"/>
                <rect x="686.559" y="421.6" width="36" height="118.4" style="fill:rgb(37,153,238);"/>
                <path d="M798.239,541.6C778.185,541.6 763.039,536.48 752.799,526.24C742.559,516 737.439,500.907 737.439,480.96C737.439,460.8 742.559,445.6 752.799,435.36C763.039,425.12 778.185,420 798.239,420C818.185,420 833.305,425.147 843.599,435.44C853.892,445.733 859.039,460.907 859.039,480.96C859.039,500.907 853.892,516 843.599,526.24C833.305,536.48 818.185,541.6 798.239,541.6ZM798.239,513.12C803.039,513.12 806.985,512.667 810.079,511.76C813.172,510.853 815.625,509.227 817.439,506.88C819.252,504.533 820.505,501.28 821.199,497.12C821.892,492.96 822.239,487.573 822.239,480.96C822.239,474.56 821.839,469.253 821.039,465.04C820.239,460.827 818.932,457.493 817.119,455.04C815.305,452.587 812.852,450.88 809.759,449.92C806.665,448.96 802.825,448.48 798.239,448.48C793.652,448.48 789.812,448.96 786.719,449.92C783.625,450.88 781.172,452.587 779.359,455.04C777.545,457.493 776.239,460.8 775.439,464.96C774.639,469.12 774.239,474.453 774.239,480.96C774.239,487.467 774.612,492.8 775.359,496.96C776.105,501.12 777.385,504.4 779.199,506.8C781.012,509.2 783.465,510.853 786.559,511.76C789.652,512.667 793.545,513.12 798.239,513.12Z" style="fill:rgb(37,153,238);fill-rule:nonzero;"/>
                <path d="M876.199,392L992.199,392L992.199,426.4L921.199,426.4L921.199,448.8L984.599,448.8L984.599,483.2L921.199,483.2L921.199,505.4L994.199,505.4L994.199,540L876.199,540L876.199,392Z" style="fill:rgb(37,153,238);fill-rule:nonzero;"/>
                <path d="M1039.68,477.76L1001.12,421.6L1041.76,421.6L1056.64,446.72L1061.76,456.16L1063.2,456.16L1068.16,446.72L1083.84,421.6L1124,421.6L1084,479.04L1127.52,540L1087.04,540L1067.68,508.96L1063.04,500.64L1061.76,500.64L1057.44,508.96L1038.08,540L997.759,540L1039.68,477.76Z" style="fill:rgb(87,194,25);fill-rule:nonzero;"/>
                <path d="M1133.92,422.4C1147.79,420.8 1160.85,420 1173.12,420C1184.75,420 1194.69,420.827 1202.96,422.48C1211.23,424.133 1218.03,426.747 1223.36,430.32C1228.69,433.893 1232.61,438.453 1235.12,444C1237.62,449.547 1238.88,456.213 1238.88,464C1238.88,493.547 1217.33,508.32 1174.24,508.32L1169.92,508.32L1169.92,540L1133.92,540L1133.92,422.4ZM1180.16,480.64C1184.42,480.64 1188,480.373 1190.88,479.84C1193.76,479.307 1196.03,478.4 1197.68,477.12C1199.33,475.84 1200.51,474.133 1201.2,472C1201.89,469.867 1202.24,467.2 1202.24,464C1202.24,460.8 1201.94,458.16 1201.36,456.08C1200.77,454 1199.7,452.347 1198.16,451.12C1196.61,449.893 1194.48,449.013 1191.76,448.48C1189.04,447.947 1185.55,447.68 1181.28,447.68C1179.57,447.68 1177.57,447.733 1175.28,447.84C1172.99,447.947 1171.2,448.107 1169.92,448.32L1169.92,479.84C1171.52,480.053 1173.17,480.24 1174.88,480.4C1176.59,480.56 1178.35,480.64 1180.16,480.64Z" style="fill:rgb(87,194,25);fill-rule:nonzero;"/>
                <path d="M1251.2,421.6L1287.2,421.6L1287.2,512.48L1335.84,512.48L1335.84,540L1251.2,540L1251.2,421.6Z" style="fill:rgb(87,194,25);fill-rule:nonzero;"/>
                <path d="M1401.92,541.6C1381.87,541.6 1366.72,536.48 1356.48,526.24C1346.24,516 1341.12,500.907 1341.12,480.96C1341.12,460.8 1346.24,445.6 1356.48,435.36C1366.72,425.12 1381.87,420 1401.92,420C1421.87,420 1436.99,425.147 1447.28,435.44C1457.57,445.733 1462.72,460.907 1462.72,480.96C1462.72,500.907 1457.57,516 1447.28,526.24C1436.99,536.48 1421.87,541.6 1401.92,541.6ZM1401.92,513.12C1406.72,513.12 1410.66,512.667 1413.76,511.76C1416.85,510.853 1419.31,509.227 1421.12,506.88C1422.93,504.533 1424.18,501.28 1424.88,497.12C1425.57,492.96 1425.92,487.573 1425.92,480.96C1425.92,474.56 1425.52,469.253 1424.72,465.04C1423.92,460.827 1422.61,457.493 1420.8,455.04C1418.99,452.587 1416.53,450.88 1413.44,449.92C1410.35,448.96 1406.51,448.48 1401.92,448.48C1397.33,448.48 1393.49,448.96 1390.4,449.92C1387.31,450.88 1384.85,452.587 1383.04,455.04C1381.23,457.493 1379.92,460.8 1379.12,464.96C1378.32,469.12 1377.92,474.453 1377.92,480.96C1377.92,487.467 1378.29,492.8 1379.04,496.96C1379.79,501.12 1381.07,504.4 1382.88,506.8C1384.69,509.2 1387.14,510.853 1390.24,511.76C1393.33,512.667 1397.23,513.12 1401.92,513.12Z" style="fill:rgb(87,194,25);fill-rule:nonzero;"/>
                <path d="M1528.64,503.36C1527.04,503.573 1525.41,503.68 1523.76,503.68L1513.44,503.68L1513.44,540L1477.44,540L1477.44,422.4C1491.2,420.8 1504.27,420 1516.64,420C1528.16,420 1538.08,420.8 1546.4,422.4C1554.72,424 1561.55,426.48 1566.88,429.84C1572.21,433.2 1576.13,437.547 1578.64,442.88C1581.14,448.213 1582.4,454.56 1582.4,461.92C1582.4,478.453 1574.93,490.08 1560,496.8L1588.48,540L1548.16,540L1528.64,503.36ZM1523.68,476.48C1527.94,476.48 1531.52,476.24 1534.4,475.76C1537.28,475.28 1539.55,474.48 1541.2,473.36C1542.85,472.24 1544.03,470.747 1544.72,468.88C1545.41,467.013 1545.76,464.693 1545.76,461.92C1545.76,459.147 1545.44,456.827 1544.8,454.96C1544.16,453.093 1543.07,451.627 1541.52,450.56C1539.97,449.493 1537.84,448.747 1535.12,448.32C1532.4,447.893 1528.96,447.68 1524.8,447.68C1523.31,447.68 1521.41,447.733 1519.12,447.84C1516.83,447.947 1514.93,448.107 1513.44,448.32L1513.44,475.68C1514.61,476 1515.94,476.213 1517.44,476.32C1518.93,476.427 1521.01,476.48 1523.68,476.48Z" style="fill:rgb(87,194,25);fill-rule:nonzero;"/>
                <path d="M1597.44,421.6L1690.24,421.6L1690.24,449.12L1633.44,449.12L1633.44,467.04L1684.16,467.04L1684.16,494.56L1633.44,494.56L1633.44,512.32L1691.84,512.32L1691.84,540L1597.44,540L1597.44,421.6Z" style="fill:rgb(87,194,25);fill-rule:nonzero;"/>
            </g>
        </g>
        <g transform="matrix(1,0,0,1,-800,-2349.36)">
            <g transform="matrix(0.53136,0,0,0.53136,1523.61,2358.23)">
                <circle cx="492.369" cy="393.878" r="161.119" style="fill:white;stroke:rgb(132,77,231);stroke-width:47.05px;"/>
            </g>
        </g>
        <g transform="matrix(1,0,0,1,-800,-2349.36)">
            <g transform="matrix(-0.478336,0.828502,-0.859476,-0.496218,3108.65,1956.02)">
                <path d="M1245.23,640.225L1245.23,754.65" style="fill:none;stroke:rgb(132,77,231);stroke-width:25.65px;stroke-linecap:butt;"/>
            </g>
        </g>
        <g transform="matrix(1,0,0,1,-800,-2349.36)">
            <g transform="matrix(1,0,0,1,800,2349.36)">
                <g transform="matrix(0.5,-0.866025,0.952741,0.550065,264.7,959.678)">
                    <path d="M983.467,203.241L983.467,263.264" style="fill:none;stroke:rgb(255,225,76);stroke-width:8.56px;stroke-linecap:butt;"/>
                </g>
                <g transform="matrix(0.5,-0.866025,0.869975,0.50228,265.075,1000.41)">
                    <path d="M983.467,203.241L983.467,263.264" style="fill:none;stroke:rgb(255,225,76);stroke-width:8.98px;stroke-linecap:butt;"/>
                </g>
                <g transform="matrix(0.5,-0.866025,1.03821,0.599409,218.265,991.146)">
                    <path d="M983.467,203.241L983.467,263.264" style="fill:none;stroke:rgb(255,225,76);stroke-width:8.15px;stroke-linecap:butt;"/>
                </g>
                <g transform="matrix(0.5,-0.866025,1.03099,0.595242,254.348,933.987)">
                    <path d="M983.467,203.241L983.467,263.264" style="fill:none;stroke:rgb(255,225,76);stroke-width:8.19px;stroke-linecap:butt;"/>
                </g>
                <g transform="matrix(0.5,-0.866025,1.03099,0.595242,263.259,919.212)">
                    <path d="M983.467,203.241L983.467,263.264" style="fill:none;stroke:rgb(255,225,76);stroke-width:8.19px;stroke-linecap:butt;"/>
                </g>
                <g transform="matrix(0.5,-0.866025,0.92471,0.533881,305.392,901.943)">
                    <path d="M983.467,203.241L983.467,263.264" style="fill:none;stroke:rgb(255,225,76);stroke-width:8.7px;stroke-linecap:butt;"/>
                </g>
                <g transform="matrix(0.5,-0.866025,1.06274,0.613572,280.821,870.753)">
                    <path d="M983.467,203.241L983.467,263.264" style="fill:none;stroke:rgb(255,225,76);stroke-width:8.04px;stroke-linecap:butt;"/>
                </g>
            </g>
            <g transform="matrix(1,0,0,1,800,2349.36)">
                <path d="M981.127,296.784C982.106,291.083 983.439,287.344 981.856,282.107C980.273,276.869 978.083,271.745 975.454,268.133C972.826,264.521 960.432,250.11 957.969,247.154C955.505,244.197 949.827,236.745 947.915,231.292C946.002,225.839 944.074,219.204 945.31,212.592C946.546,205.98 950.438,196.541 954.851,191.674C959.317,186.749 962.769,182.689 970.52,181.286C978.23,179.891 981.443,180.583 981.443,180.583L991.486,191.923C991.486,191.923 981.754,189.316 976.943,189.473C972.306,189.624 966.315,191.378 962.291,196.781C958.268,202.184 954.083,208.87 954.083,214.888C954.083,220.906 954.414,223.229 955.728,227.04C957.539,232.289 965.441,242.188 971.032,248.649C972.732,250.613 978.107,256.984 980.58,260.303C983.054,263.622 987.323,269.564 988.586,273.172C989.849,276.781 992.66,282.407 991.014,291.45C989.368,300.494 989.365,302.946 989.365,302.946C989.365,302.946 980.149,302.486 981.127,296.784Z" style="fill:rgb(255,163,10);"/>
                <path d="M983.479,142.101C983.479,142.101 983.14,143.364 982.639,145.01C981.688,148.128 980.011,155.902 980.608,162.118C981.293,169.254 982.796,172.202 984.755,175.784C987.939,181.606 989.051,182.355 991.518,185.403C993.984,188.45 999.23,193.126 1002.11,195.761C1004.99,198.395 1011.88,205.124 1014.58,208.807C1017.28,212.489 1019.79,216.249 1020.16,220.349C1020.52,224.45 1020.03,230.292 1016.99,234.91C1013.96,239.527 1011.24,244.461 1007.7,246.377C1004.16,248.292 1002.55,249.996 997.432,250.802C992.313,251.608 980.954,250.49 980.915,250.49C980.877,250.49 986.908,260.134 986.908,260.134C986.908,260.134 999.016,261.021 1005.39,257.946C1011.76,254.871 1019.71,248.03 1021.71,244.713C1023.7,241.395 1027.04,235.867 1028.01,231.853C1028.98,227.839 1030.17,223.725 1028.97,218.726C1027.78,213.727 1025.17,207.971 1023,205.312C1020.83,202.652 1014.21,194.923 1010.27,191.553C1006.35,188.182 1001.14,183.249 997.658,178.799C994.172,174.348 992.005,170.768 990.6,166.724C989.195,162.681 988.616,155.289 989.946,151.337C991.276,147.386 992.608,143.641 992.608,143.641L983.479,142.101Z" style="fill:rgb(255,163,10);"/>
                <path d="M1029.48,199.471C1033.55,198.819 1039.14,197.727 1043.47,194.906C1047.8,192.085 1050.63,189.88 1053.02,186.978C1055.42,184.076 1050.95,176.828 1050.95,176.828C1050.95,176.828 1049.06,179.01 1046.14,181.589C1043.22,184.169 1039.06,187.635 1034.87,188.973C1030.67,190.311 1024.13,190.843 1020.34,190.205C1016.54,189.568 1014.75,189.179 1014.75,189.179L1024.22,199.423C1024.22,199.423 1027.75,199.749 1029.48,199.471Z" style="fill:rgb(255,163,10);"/>
                <g transform="matrix(-1,-1.22465e-16,1.22465e-16,-1,1971.68,442.95)">
                    <path d="M1029.44,198.034C1033.56,197.673 1037.1,197.11 1041.86,195.11C1046.9,192.994 1050.63,189.88 1053.02,186.978C1055.42,184.076 1050.95,176.828 1050.95,176.828C1050.95,176.828 1049.06,179.01 1046.14,181.589C1043.22,184.169 1040.93,186.019 1036.74,187.357C1032.54,188.694 1027.82,188.958 1023.9,188.788C1020.06,188.621 1013.64,187.532 1013.64,187.532L1020.96,197.685C1020.96,197.685 1026.27,198.313 1029.44,198.034Z" style="fill:rgb(255,163,10);"/>
                </g>
            </g>
        </g>
        <g transform="matrix(1,0,0,1,-800,-2349.36)">
            <g transform="matrix(0.53136,0,0,0.53136,1523.61,2358.23)">
                <circle cx="492.369" cy="393.878" r="161.119" style="fill:none;stroke:rgb(132,77,231);stroke-width:47.05px;"/>
            </g>
        </g>
        <g transform="matrix(1,0,0,1,-800,-2349.36)">
            <g transform="matrix(0.990121,0,0,0.990121,553.339,-16.8821)">
                <path d="M396.414,2782.53C395.182,2782.53 393.824,2782.51 392.34,2782.45C390.856,2782.39 389.386,2782.31 387.93,2782.2C386.474,2782.09 385.088,2781.95 383.772,2781.78C382.456,2781.61 381.35,2781.44 380.454,2781.27L380.454,2719.87C382.302,2719.64 383.926,2719.46 385.326,2719.32C386.726,2719.18 388,2719.07 389.148,2718.99C390.296,2718.9 391.374,2718.83 392.382,2718.78C393.39,2718.72 394.426,2718.69 395.49,2718.69C402.434,2718.69 407.544,2720.05 410.82,2722.77C414.096,2725.48 415.734,2729.72 415.734,2735.49C415.734,2739.47 414.908,2742.68 413.256,2745.11C411.604,2747.55 409.238,2749.07 406.158,2749.69L406.158,2750.03C409.742,2750.64 412.542,2752.28 414.558,2754.94C416.574,2757.6 417.582,2761.09 417.582,2765.4C417.582,2771.11 415.804,2775.39 412.248,2778.25C408.692,2781.11 403.414,2782.53 396.414,2782.53ZM397.086,2777.58C406.494,2777.52 411.198,2773.35 411.198,2765.06C411.198,2760.69 409.994,2757.56 407.586,2755.65C405.178,2753.75 401.146,2752.8 395.49,2752.8L386.25,2752.8L386.25,2776.82C386.642,2776.93 387.258,2777.03 388.098,2777.12C388.938,2777.2 389.862,2777.27 390.87,2777.33C391.878,2777.38 392.928,2777.44 394.02,2777.49C395.112,2777.55 396.134,2777.58 397.086,2777.58ZM395.406,2747.76C397.982,2747.76 400.152,2747.55 401.916,2747.13C403.68,2746.71 405.108,2746.02 406.2,2745.07C407.292,2744.12 408.076,2742.87 408.552,2741.33C409.028,2739.79 409.266,2737.93 409.266,2735.74C409.266,2727.79 404.842,2723.82 395.994,2723.82C394.314,2723.82 392.718,2723.86 391.206,2723.94C389.694,2724.03 388.042,2724.21 386.25,2724.49L386.25,2747.76L395.406,2747.76Z" style="fill:rgb(37,153,238);fill-rule:nonzero;"/>
                <path d="M429.174,2726.09C426.542,2726.09 425.226,2724.74 425.226,2722.05C425.226,2719.48 426.542,2718.19 429.174,2718.19C431.918,2718.19 433.29,2719.48 433.29,2722.05C433.29,2724.74 431.918,2726.09 429.174,2726.09ZM426.15,2736.33L432.282,2736.33L432.282,2781.69L426.15,2781.69L426.15,2736.33Z" style="fill:rgb(37,153,238);fill-rule:nonzero;"/>
                <path d="M458.07,2782.45C452.414,2782.45 448.13,2780.46 445.218,2776.49C442.306,2772.51 440.85,2766.68 440.85,2759.01C440.85,2751.28 442.306,2745.43 445.218,2741.46C448.13,2737.48 452.414,2735.49 458.07,2735.49C463.726,2735.49 468.01,2737.48 470.922,2741.46C473.834,2745.43 475.29,2751.28 475.29,2759.01C475.29,2766.74 473.834,2772.58 470.922,2776.53C468.01,2780.47 463.726,2782.45 458.07,2782.45ZM458.07,2777.24C461.878,2777.24 464.664,2775.8 466.428,2772.91C468.192,2770.03 469.074,2765.4 469.074,2759.01C469.074,2752.57 468.192,2747.9 466.428,2744.99C464.664,2742.07 461.878,2740.62 458.07,2740.62C454.262,2740.62 451.476,2742.07 449.712,2744.99C447.948,2747.9 447.066,2752.57 447.066,2759.01C447.066,2765.4 447.948,2770.03 449.712,2772.91C451.476,2775.8 454.262,2777.24 458.07,2777.24Z" style="fill:rgb(37,153,238);fill-rule:nonzero;"/>
                <path d="M499.398,2782.45C493.742,2782.45 489.402,2780.5 486.378,2776.61C483.354,2772.72 481.842,2767.13 481.842,2759.85C481.842,2751.9 483.298,2745.87 486.21,2741.75C489.122,2737.64 493.434,2735.58 499.146,2735.58C503.738,2735.58 507.21,2737.23 509.562,2740.53C511.914,2743.84 513.09,2748.71 513.09,2755.15C513.09,2756.55 513.062,2757.7 513.006,2758.59C512.95,2759.49 512.866,2760.41 512.754,2761.37L488.058,2761.37C488.282,2766.8 489.346,2770.82 491.25,2773.42C493.154,2776.02 495.954,2777.33 499.65,2777.33C501.442,2777.33 503.234,2777.13 505.026,2776.74C506.818,2776.35 508.75,2775.67 510.822,2774.72L511.242,2779.85C509.618,2780.63 507.756,2781.26 505.656,2781.74C503.556,2782.21 501.47,2782.45 499.398,2782.45ZM498.978,2740.62C495.674,2740.62 493.112,2741.96 491.292,2744.65C489.472,2747.34 488.422,2751.31 488.142,2756.58L507.294,2756.58C507.294,2750.92 506.622,2746.85 505.278,2744.36C503.934,2741.86 501.834,2740.62 498.978,2740.62Z" style="fill:rgb(37,153,238);fill-rule:nonzero;"/>
                <path d="M521.238,2736.33L526.53,2736.33L526.95,2741.2L527.286,2741.2C530.142,2739.24 532.718,2737.8 535.014,2736.88C537.31,2735.95 539.522,2735.49 541.65,2735.49C545.122,2735.49 547.6,2736.42 549.084,2738.26C550.568,2740.11 551.31,2743.16 551.31,2747.42L551.31,2781.69L545.178,2781.69L545.178,2748.85C545.178,2745.99 544.73,2743.98 543.834,2742.8C542.938,2741.62 541.51,2741.04 539.55,2741.04C537.758,2741.04 535.84,2741.44 533.796,2742.26C531.752,2743.07 529.61,2744.23 527.37,2745.74L527.37,2781.69L521.238,2781.69L521.238,2736.33Z" style="fill:rgb(37,153,238);fill-rule:nonzero;"/>
                <path d="M574.41,2800.17C570.602,2800.17 566.906,2799.53 563.322,2798.24L563.826,2793.12C565.73,2793.79 567.48,2794.28 569.076,2794.59C570.672,2794.89 572.31,2795.05 573.99,2795.05C578.19,2795.05 581.186,2793.78 582.978,2791.23C584.77,2788.68 585.722,2784.44 585.834,2778.5L585.834,2776.65L585.498,2776.65C582.81,2780.12 579.142,2781.86 574.494,2781.86C569.454,2781.86 565.716,2780.03 563.28,2776.36C560.844,2772.69 559.626,2767.05 559.626,2759.43C559.626,2751.76 561.264,2745.87 564.54,2741.75C567.816,2737.64 572.506,2735.58 578.61,2735.58C580.962,2735.58 583.146,2735.73 585.162,2736.04C587.178,2736.35 589.39,2736.84 591.798,2737.51L591.798,2776.4C591.798,2784.63 590.398,2790.65 587.598,2794.46C584.798,2798.27 580.402,2800.17 574.41,2800.17ZM575.754,2777.16C576.986,2777.16 578.204,2776.95 579.408,2776.53C580.612,2776.11 581.676,2775.49 582.6,2774.68C583.524,2773.87 584.266,2772.9 584.826,2771.78C585.386,2770.66 585.666,2769.4 585.666,2768L585.666,2741.2C584.042,2740.87 582.726,2740.63 581.718,2740.49C580.71,2740.35 579.646,2740.28 578.526,2740.28C570.182,2740.28 566.01,2746.5 566.01,2758.93C566.01,2771.08 569.258,2777.16 575.754,2777.16Z" style="fill:rgb(37,153,238);fill-rule:nonzero;"/>
                <path d="M605.322,2726.09C602.69,2726.09 601.374,2724.74 601.374,2722.05C601.374,2719.48 602.69,2718.19 605.322,2718.19C608.066,2718.19 609.438,2719.48 609.438,2722.05C609.438,2724.74 608.066,2726.09 605.322,2726.09ZM602.298,2736.33L608.43,2736.33L608.43,2781.69L602.298,2781.69L602.298,2736.33Z" style="fill:rgb(37,153,238);fill-rule:nonzero;"/>
                <path d="M618.93,2736.33L624.222,2736.33L624.642,2741.2L624.978,2741.2C627.834,2739.24 630.41,2737.8 632.706,2736.88C635.002,2735.95 637.214,2735.49 639.342,2735.49C642.814,2735.49 645.292,2736.42 646.776,2738.26C648.26,2740.11 649.002,2743.16 649.002,2747.42L649.002,2781.69L642.87,2781.69L642.87,2748.85C642.87,2745.99 642.422,2743.98 641.526,2742.8C640.63,2741.62 639.202,2741.04 637.242,2741.04C635.45,2741.04 633.532,2741.44 631.488,2742.26C629.444,2743.07 627.302,2744.23 625.062,2745.74L625.062,2781.69L618.93,2781.69L618.93,2736.33Z" style="fill:rgb(37,153,238);fill-rule:nonzero;"/>
                <path d="M674.874,2782.45C669.218,2782.45 664.878,2780.5 661.854,2776.61C658.83,2772.72 657.318,2767.13 657.318,2759.85C657.318,2751.9 658.774,2745.87 661.686,2741.75C664.598,2737.64 668.91,2735.58 674.622,2735.58C679.214,2735.58 682.686,2737.23 685.038,2740.53C687.39,2743.84 688.566,2748.71 688.566,2755.15C688.566,2756.55 688.538,2757.7 688.482,2758.59C688.426,2759.49 688.342,2760.41 688.23,2761.37L663.534,2761.37C663.758,2766.8 664.822,2770.82 666.726,2773.42C668.63,2776.02 671.43,2777.33 675.126,2777.33C676.918,2777.33 678.71,2777.13 680.502,2776.74C682.294,2776.35 684.226,2775.67 686.298,2774.72L686.718,2779.85C685.094,2780.63 683.232,2781.26 681.132,2781.74C679.032,2782.21 676.946,2782.45 674.874,2782.45ZM674.454,2740.62C671.15,2740.62 668.588,2741.96 666.768,2744.65C664.948,2747.34 663.898,2751.31 663.618,2756.58L682.77,2756.58C682.77,2750.92 682.098,2746.85 680.754,2744.36C679.41,2741.86 677.31,2740.62 674.454,2740.62Z" style="fill:rgb(37,153,238);fill-rule:nonzero;"/>
                <path d="M712.338,2782.45C706.682,2782.45 702.342,2780.5 699.318,2776.61C696.294,2772.72 694.782,2767.13 694.782,2759.85C694.782,2751.9 696.238,2745.87 699.15,2741.75C702.062,2737.64 706.374,2735.58 712.086,2735.58C716.678,2735.58 720.15,2737.23 722.502,2740.53C724.854,2743.84 726.03,2748.71 726.03,2755.15C726.03,2756.55 726.002,2757.7 725.946,2758.59C725.89,2759.49 725.806,2760.41 725.694,2761.37L700.998,2761.37C701.222,2766.8 702.286,2770.82 704.19,2773.42C706.094,2776.02 708.894,2777.33 712.59,2777.33C714.382,2777.33 716.174,2777.13 717.966,2776.74C719.758,2776.35 721.69,2775.67 723.762,2774.72L724.182,2779.85C722.558,2780.63 720.696,2781.26 718.596,2781.74C716.496,2782.21 714.41,2782.45 712.338,2782.45ZM711.918,2740.62C708.614,2740.62 706.052,2741.96 704.232,2744.65C702.412,2747.34 701.362,2751.31 701.082,2756.58L720.234,2756.58C720.234,2750.92 719.562,2746.85 718.218,2744.36C716.874,2741.86 714.774,2740.62 711.918,2740.62Z" style="fill:rgb(37,153,238);fill-rule:nonzero;"/>
                <path d="M734.178,2736.33L739.47,2736.33L739.89,2741.79L740.31,2741.79C741.43,2740.78 743.152,2739.69 745.476,2738.52C747.8,2737.34 750.25,2736.36 752.826,2735.58L754.254,2735.58L754.254,2742.05L751.818,2742.05C749.41,2742.44 747.212,2743.01 745.224,2743.77C743.236,2744.52 741.598,2745.41 740.31,2746.41L740.31,2781.69L734.178,2781.69L734.178,2736.33Z" style="fill:rgb(37,153,238);fill-rule:nonzero;"/>
                <path d="M763.494,2726.09C760.862,2726.09 759.546,2724.74 759.546,2722.05C759.546,2719.48 760.862,2718.19 763.494,2718.19C766.238,2718.19 767.61,2719.48 767.61,2722.05C767.61,2724.74 766.238,2726.09 763.494,2726.09ZM760.47,2736.33L766.602,2736.33L766.602,2781.69L760.47,2781.69L760.47,2736.33Z" style="fill:rgb(37,153,238);fill-rule:nonzero;"/>
                <path d="M777.102,2736.33L782.394,2736.33L782.814,2741.2L783.15,2741.2C786.006,2739.24 788.582,2737.8 790.878,2736.88C793.174,2735.95 795.386,2735.49 797.514,2735.49C800.986,2735.49 803.464,2736.42 804.948,2738.26C806.432,2740.11 807.174,2743.16 807.174,2747.42L807.174,2781.69L801.042,2781.69L801.042,2748.85C801.042,2745.99 800.594,2743.98 799.698,2742.8C798.802,2741.62 797.374,2741.04 795.414,2741.04C793.622,2741.04 791.704,2741.44 789.66,2742.26C787.616,2743.07 785.474,2744.23 783.234,2745.74L783.234,2781.69L777.102,2781.69L777.102,2736.33Z" style="fill:rgb(37,153,238);fill-rule:nonzero;"/>
                <path d="M830.274,2800.17C826.466,2800.17 822.77,2799.53 819.186,2798.24L819.69,2793.12C821.594,2793.79 823.344,2794.28 824.94,2794.59C826.536,2794.89 828.174,2795.05 829.854,2795.05C834.054,2795.05 837.05,2793.78 838.842,2791.23C840.634,2788.68 841.586,2784.44 841.698,2778.5L841.698,2776.65L841.362,2776.65C838.674,2780.12 835.006,2781.86 830.358,2781.86C825.318,2781.86 821.58,2780.03 819.144,2776.36C816.708,2772.69 815.49,2767.05 815.49,2759.43C815.49,2751.76 817.128,2745.87 820.404,2741.75C823.68,2737.64 828.37,2735.58 834.474,2735.58C836.826,2735.58 839.01,2735.73 841.026,2736.04C843.042,2736.35 845.254,2736.84 847.662,2737.51L847.662,2776.4C847.662,2784.63 846.262,2790.65 843.462,2794.46C840.662,2798.27 836.266,2800.17 830.274,2800.17ZM831.618,2777.16C832.85,2777.16 834.068,2776.95 835.272,2776.53C836.476,2776.11 837.54,2775.49 838.464,2774.68C839.388,2773.87 840.13,2772.9 840.69,2771.78C841.25,2770.66 841.53,2769.4 841.53,2768L841.53,2741.2C839.906,2740.87 838.59,2740.63 837.582,2740.49C836.574,2740.35 835.51,2740.28 834.39,2740.28C826.046,2740.28 821.874,2746.5 821.874,2758.93C821.874,2771.08 825.122,2777.16 831.618,2777.16Z" style="fill:rgb(37,153,238);fill-rule:nonzero;"/>
                <path d="M894.114,2758.43C893.162,2758.54 892.196,2758.62 891.216,2758.68C890.236,2758.73 889.214,2758.76 888.15,2758.76C887.142,2758.76 886.036,2758.75 884.832,2758.72C883.628,2758.69 882.522,2758.62 881.514,2758.51L881.514,2781.69L875.382,2781.69L875.382,2719.95C877.566,2719.51 879.736,2719.17 881.892,2718.95C884.048,2718.72 886.19,2718.61 888.318,2718.61C896.214,2718.61 901.954,2720.2 905.538,2723.4C909.122,2726.59 910.914,2731.71 910.914,2738.77C910.914,2743.7 910.018,2747.64 908.226,2750.61C906.434,2753.58 903.634,2755.74 899.826,2757.08L911.754,2781.69L905.202,2781.69L894.114,2758.43ZM888.738,2753.55C894.338,2753.55 898.384,2752.39 900.876,2750.07C903.368,2747.74 904.614,2743.98 904.614,2738.77C904.614,2733.62 903.41,2729.88 901.002,2727.55C898.594,2725.23 894.702,2724.07 889.326,2724.07C888.374,2724.07 887.226,2724.12 885.882,2724.24C884.538,2724.35 883.082,2724.52 881.514,2724.74L881.514,2753.05C884.202,2753.39 886.61,2753.55 888.738,2753.55Z" style="fill:rgb(37,153,238);fill-rule:nonzero;"/>
                <path d="M934.35,2782.45C928.694,2782.45 924.354,2780.5 921.33,2776.61C918.306,2772.72 916.794,2767.13 916.794,2759.85C916.794,2751.9 918.25,2745.87 921.162,2741.75C924.074,2737.64 928.386,2735.58 934.098,2735.58C938.69,2735.58 942.162,2737.23 944.514,2740.53C946.866,2743.84 948.042,2748.71 948.042,2755.15C948.042,2756.55 948.014,2757.7 947.958,2758.59C947.902,2759.49 947.818,2760.41 947.706,2761.37L923.01,2761.37C923.234,2766.8 924.298,2770.82 926.202,2773.42C928.106,2776.02 930.906,2777.33 934.602,2777.33C936.394,2777.33 938.186,2777.13 939.978,2776.74C941.77,2776.35 943.702,2775.67 945.774,2774.72L946.194,2779.85C944.57,2780.63 942.708,2781.26 940.608,2781.74C938.508,2782.21 936.422,2782.45 934.35,2782.45ZM933.93,2740.62C930.626,2740.62 928.064,2741.96 926.244,2744.65C924.424,2747.34 923.374,2751.31 923.094,2756.58L942.246,2756.58C942.246,2750.92 941.574,2746.85 940.23,2744.36C938.886,2741.86 936.786,2740.62 933.93,2740.62Z" style="fill:rgb(37,153,238);fill-rule:nonzero;"/>
                <path d="M965.598,2782.62C963.974,2782.62 962.28,2782.48 960.516,2782.2C958.752,2781.92 956.61,2781.47 954.09,2780.85L954.09,2775.73C955.882,2776.35 957.744,2776.81 959.676,2777.12C961.608,2777.42 963.442,2777.58 965.178,2777.58C967.81,2777.58 969.84,2776.89 971.268,2775.52C972.696,2774.15 973.41,2772.2 973.41,2769.68C973.41,2767.44 972.85,2765.65 971.73,2764.3C970.61,2762.96 968.79,2761.98 966.27,2761.37C964.926,2761.03 963.568,2760.65 962.196,2760.23C960.824,2759.81 959.564,2759.14 958.416,2758.22C957.268,2757.29 956.33,2756.05 955.602,2754.48C954.874,2752.91 954.51,2750.81 954.51,2748.18C954.51,2744.14 955.686,2740.99 958.038,2738.73C960.39,2736.46 963.638,2735.33 967.782,2735.33C969.238,2735.33 970.708,2735.42 972.192,2735.62C973.676,2735.82 975.538,2736.16 977.778,2736.67L977.778,2741.79C975.594,2741.23 973.858,2740.87 972.57,2740.7C971.282,2740.53 970.022,2740.45 968.79,2740.45C966.158,2740.45 964.086,2741.11 962.574,2742.42C961.062,2743.74 960.306,2745.57 960.306,2747.93C960.306,2749.38 960.516,2750.56 960.936,2751.45C961.356,2752.35 961.916,2753.09 962.616,2753.68C963.316,2754.27 964.128,2754.73 965.052,2755.07C965.976,2755.4 966.97,2755.74 968.034,2756.07C969.77,2756.58 971.338,2757.16 972.738,2757.84C974.138,2758.51 975.328,2759.35 976.308,2760.36C977.288,2761.37 978.044,2762.6 978.576,2764.05C979.108,2765.51 979.374,2767.3 979.374,2769.43C979.374,2773.46 978.128,2776.67 975.636,2779.05C973.144,2781.43 969.798,2782.62 965.598,2782.62Z" style="fill:rgb(37,153,238);fill-rule:nonzero;"/>
                <path d="M1002.98,2782.45C997.322,2782.45 992.982,2780.5 989.958,2776.61C986.934,2772.72 985.422,2767.13 985.422,2759.85C985.422,2751.9 986.878,2745.87 989.79,2741.75C992.702,2737.64 997.014,2735.58 1002.73,2735.58C1007.32,2735.58 1010.79,2737.23 1013.14,2740.53C1015.49,2743.84 1016.67,2748.71 1016.67,2755.15C1016.67,2756.55 1016.64,2757.7 1016.59,2758.59C1016.53,2759.49 1016.45,2760.41 1016.33,2761.37L991.638,2761.37C991.862,2766.8 992.926,2770.82 994.83,2773.42C996.734,2776.02 999.534,2777.33 1003.23,2777.33C1005.02,2777.33 1006.81,2777.13 1008.61,2776.74C1010.4,2776.35 1012.33,2775.67 1014.4,2774.72L1014.82,2779.85C1013.2,2780.63 1011.34,2781.26 1009.24,2781.74C1007.14,2782.21 1005.05,2782.45 1002.98,2782.45ZM1002.56,2740.62C999.254,2740.62 996.692,2741.96 994.872,2744.65C993.052,2747.34 992.002,2751.31 991.722,2756.58L1010.87,2756.58C1010.87,2750.92 1010.2,2746.85 1008.86,2744.36C1007.51,2741.86 1005.41,2740.62 1002.56,2740.62Z" style="fill:rgb(37,153,238);fill-rule:nonzero;"/>
                <path d="M1032.8,2782.11C1029.44,2782.11 1026.81,2781.06 1024.9,2778.96C1023,2776.86 1022.05,2773.97 1022.05,2770.27C1022.05,2761.93 1027.31,2757.33 1037.84,2756.49L1045.9,2755.91L1045.9,2751.03C1045.9,2747.22 1045.19,2744.55 1043.76,2743.01C1042.33,2741.47 1039.97,2740.7 1036.66,2740.7C1035.26,2740.7 1033.53,2740.83 1031.45,2741.08C1029.38,2741.33 1027.51,2741.68 1025.83,2742.13L1025.32,2737.09C1027.45,2736.64 1029.59,2736.29 1031.75,2736.04C1033.9,2735.79 1035.88,2735.66 1037.67,2735.66C1042.6,2735.66 1046.21,2736.81 1048.51,2739.11C1050.8,2741.4 1051.95,2744.99 1051.95,2749.86L1051.95,2781.69L1046.83,2781.69L1046.24,2776.23L1045.73,2776.23C1043.94,2777.69 1041.97,2779.03 1039.81,2780.26C1037.66,2781.5 1035.32,2782.11 1032.8,2782.11ZM1034.9,2777.07C1035.85,2777.07 1036.83,2776.89 1037.84,2776.53C1038.85,2776.16 1039.84,2775.72 1040.82,2775.18C1041.8,2774.65 1042.72,2774.09 1043.59,2773.5C1044.46,2772.91 1045.23,2772.43 1045.9,2772.03L1045.9,2760.27L1039.1,2760.86C1035.18,2761.2 1032.39,2762.07 1030.74,2763.47C1029.09,2764.87 1028.26,2766.97 1028.26,2769.76C1028.26,2772.12 1028.84,2773.92 1029.98,2775.18C1031.13,2776.44 1032.77,2777.07 1034.9,2777.07Z" style="fill:rgb(37,153,238);fill-rule:nonzero;"/>
                <path d="M1062.11,2736.33L1067.41,2736.33L1067.83,2741.79L1068.25,2741.79C1069.37,2740.78 1071.09,2739.69 1073.41,2738.52C1075.74,2737.34 1078.19,2736.36 1080.76,2735.58L1082.19,2735.58L1082.19,2742.05L1079.75,2742.05C1077.35,2742.44 1075.15,2743.01 1073.16,2743.77C1071.17,2744.52 1069.53,2745.41 1068.25,2746.41L1068.25,2781.69L1062.11,2781.69L1062.11,2736.33Z" style="fill:rgb(37,153,238);fill-rule:nonzero;"/>
                <path d="M1103.02,2782.53C1096.86,2782.53 1092.27,2780.62 1089.25,2776.78C1086.22,2772.94 1084.71,2767.02 1084.71,2759.01C1084.71,2743.33 1090.81,2735.49 1103.02,2735.49C1104.98,2735.49 1107.5,2735.86 1110.58,2736.59L1110.58,2741.79C1109.24,2741.46 1107.99,2741.22 1106.84,2741.08C1105.7,2740.94 1104.56,2740.87 1103.44,2740.87C1099.13,2740.87 1095.99,2742.31 1094.03,2745.2C1092.07,2748.08 1091.09,2752.68 1091.09,2759.01C1091.09,2765.28 1092.09,2769.89 1094.08,2772.83C1096.06,2775.77 1099.19,2777.24 1103.44,2777.24C1105.18,2777.24 1107.56,2776.91 1110.58,2776.23L1110.58,2781.36C1109.46,2781.69 1108.22,2781.97 1106.84,2782.2C1105.47,2782.42 1104.2,2782.53 1103.02,2782.53Z" style="fill:rgb(37,153,238);fill-rule:nonzero;"/>
                <path d="M1118.65,2713.82L1124.78,2713.82L1124.78,2741.2C1127.58,2739.24 1130.13,2737.8 1132.42,2736.88C1134.72,2735.95 1136.93,2735.49 1139.06,2735.49C1142.53,2735.49 1145.01,2736.42 1146.49,2738.26C1147.98,2740.11 1148.72,2743.16 1148.72,2747.42L1148.72,2781.69L1142.59,2781.69L1142.59,2748.85C1142.59,2746.05 1142.14,2744.05 1141.24,2742.84C1140.35,2741.64 1138.92,2741.04 1136.96,2741.04C1133.32,2741.04 1129.26,2742.61 1124.78,2745.74L1124.78,2781.69L1118.65,2781.69L1118.65,2713.82Z" style="fill:rgb(37,153,238);fill-rule:nonzero;"/>
                <path d="M1176.27,2719.53L1208.69,2719.53L1208.69,2725.08L1182.4,2725.08L1182.4,2747.51L1205.92,2747.51L1205.92,2752.97L1182.4,2752.97L1182.4,2776.15L1209.45,2776.15L1209.45,2781.69L1176.27,2781.69L1176.27,2719.53Z" style="fill:rgb(37,153,238);fill-rule:nonzero;"/>
                <path d="M1213.23,2781.19L1227.59,2758.17L1214.07,2736.84L1214.07,2736.33L1220.62,2736.33L1230.11,2751.96L1231.63,2754.73L1232.05,2754.73L1233.47,2751.96L1242.97,2736.33L1249.43,2736.33L1249.43,2736.84L1235.91,2758.68L1250.27,2781.19L1250.27,2781.69L1243.72,2781.69L1233.31,2764.56L1231.79,2761.87L1231.37,2761.87L1229.95,2764.56L1219.78,2781.69L1213.23,2781.69L1213.23,2781.19Z" style="fill:rgb(37,153,238);fill-rule:nonzero;"/>
                <path d="M1256.24,2736.33L1261.78,2736.33L1262.2,2740.87L1262.54,2740.87C1263.88,2739.24 1265.53,2737.96 1267.49,2737.01C1269.45,2736.05 1271.61,2735.58 1273.96,2735.58C1278.78,2735.58 1282.39,2737.45 1284.8,2741.2C1287.21,2744.96 1288.41,2750.56 1288.41,2758.01C1288.41,2761.31 1288.07,2764.45 1287.4,2767.41C1286.73,2770.38 1285.62,2772.99 1284.08,2775.22C1282.54,2777.47 1280.54,2779.24 1278.08,2780.56C1275.61,2781.88 1272.59,2782.53 1269.01,2782.53C1266.93,2782.53 1264.72,2782.28 1262.37,2781.78L1262.37,2800.17L1256.24,2800.17L1256.24,2736.33ZM1269.17,2777.83C1273.54,2777.83 1276.79,2776.26 1278.92,2773.12C1281.05,2769.99 1282.11,2765.12 1282.11,2758.51C1282.11,2752.29 1281.3,2747.73 1279.67,2744.82C1278.05,2741.91 1275.56,2740.45 1272.2,2740.45C1270.97,2740.45 1269.76,2740.67 1268.59,2741.12C1267.41,2741.57 1266.36,2742.2 1265.44,2743.01C1264.51,2743.82 1263.77,2744.82 1263.21,2745.99C1262.65,2747.17 1262.37,2748.51 1262.37,2750.03L1262.37,2776.91C1265.11,2777.52 1267.38,2777.83 1269.17,2777.83Z" style="fill:rgb(37,153,238);fill-rule:nonzero;"/>
                <rect x="1297.15" y="2713.82" width="6.132" height="67.872" style="fill:rgb(37,153,238);"/>
                <path d="M1329.15,2782.45C1323.49,2782.45 1319.21,2780.46 1316.3,2776.49C1313.39,2772.51 1311.93,2766.68 1311.93,2759.01C1311.93,2751.28 1313.39,2745.43 1316.3,2741.46C1319.21,2737.48 1323.49,2735.49 1329.15,2735.49C1334.81,2735.49 1339.09,2737.48 1342,2741.46C1344.91,2745.43 1346.37,2751.28 1346.37,2759.01C1346.37,2766.74 1344.91,2772.58 1342,2776.53C1339.09,2780.47 1334.81,2782.45 1329.15,2782.45ZM1329.15,2777.24C1332.96,2777.24 1335.74,2775.8 1337.51,2772.91C1339.27,2770.03 1340.15,2765.4 1340.15,2759.01C1340.15,2752.57 1339.27,2747.9 1337.51,2744.99C1335.74,2742.07 1332.96,2740.62 1329.15,2740.62C1325.34,2740.62 1322.56,2742.07 1320.79,2744.99C1319.03,2747.9 1318.15,2752.57 1318.15,2759.01C1318.15,2765.4 1319.03,2770.03 1320.79,2772.91C1322.56,2775.8 1325.34,2777.24 1329.15,2777.24Z" style="fill:rgb(37,153,238);fill-rule:nonzero;"/>
                <path d="M1354.85,2736.33L1360.15,2736.33L1360.57,2741.79L1360.99,2741.79C1362.11,2740.78 1363.83,2739.69 1366.15,2738.52C1368.48,2737.34 1370.93,2736.36 1373.5,2735.58L1374.93,2735.58L1374.93,2742.05L1372.49,2742.05C1370.09,2742.44 1367.89,2743.01 1365.9,2743.77C1363.91,2744.52 1362.27,2745.41 1360.99,2746.41L1360.99,2781.69L1354.85,2781.69L1354.85,2736.33Z" style="fill:rgb(37,153,238);fill-rule:nonzero;"/>
                <path d="M1388.54,2782.11C1385.18,2782.11 1382.55,2781.06 1380.64,2778.96C1378.74,2776.86 1377.79,2773.97 1377.79,2770.27C1377.79,2761.93 1383.05,2757.33 1393.58,2756.49L1401.64,2755.91L1401.64,2751.03C1401.64,2747.22 1400.93,2744.55 1399.5,2743.01C1398.07,2741.47 1395.71,2740.7 1392.4,2740.7C1391,2740.7 1389.27,2740.83 1387.19,2741.08C1385.12,2741.33 1383.25,2741.68 1381.57,2742.13L1381.06,2737.09C1383.19,2736.64 1385.33,2736.29 1387.49,2736.04C1389.64,2735.79 1391.62,2735.66 1393.41,2735.66C1398.34,2735.66 1401.95,2736.81 1404.25,2739.11C1406.54,2741.4 1407.69,2744.99 1407.69,2749.86L1407.69,2781.69L1402.57,2781.69L1401.98,2776.23L1401.47,2776.23C1399.68,2777.69 1397.71,2779.03 1395.55,2780.26C1393.4,2781.5 1391.06,2782.11 1388.54,2782.11ZM1390.64,2777.07C1391.59,2777.07 1392.57,2776.89 1393.58,2776.53C1394.59,2776.16 1395.58,2775.72 1396.56,2775.18C1397.54,2774.65 1398.46,2774.09 1399.33,2773.5C1400.2,2772.91 1400.97,2772.43 1401.64,2772.03L1401.64,2760.27L1394.84,2760.86C1390.92,2761.2 1388.13,2762.07 1386.48,2763.47C1384.83,2764.87 1384,2766.97 1384,2769.76C1384,2772.12 1384.58,2773.92 1385.72,2775.18C1386.87,2776.44 1388.51,2777.07 1390.64,2777.07Z" style="fill:rgb(37,153,238);fill-rule:nonzero;"/>
                <path d="M1432.89,2782.11C1425.22,2782.11 1421.38,2778.08 1421.38,2770.02L1421.38,2741.79L1413.23,2741.79L1413.23,2736.33L1421.63,2736.33L1422.47,2725.08L1427.43,2724.15L1427.43,2736.33L1438.94,2736.33L1438.94,2741.79L1427.43,2741.79L1427.43,2768.93C1427.43,2771.67 1428.02,2773.7 1429.19,2775.01C1430.37,2776.33 1432.05,2776.99 1434.23,2776.99C1434.85,2776.99 1435.58,2776.95 1436.42,2776.86C1437.26,2776.78 1438.01,2776.62 1438.69,2776.4L1438.69,2781.44C1436.45,2781.89 1434.51,2782.11 1432.89,2782.11Z" style="fill:rgb(37,153,238);fill-rule:nonzero;"/>
                <path d="M1448.26,2726.09C1445.63,2726.09 1444.31,2724.74 1444.31,2722.05C1444.31,2719.48 1445.63,2718.19 1448.26,2718.19C1451.01,2718.19 1452.38,2719.48 1452.38,2722.05C1452.38,2724.74 1451.01,2726.09 1448.26,2726.09ZM1445.24,2736.33L1451.37,2736.33L1451.37,2781.69L1445.24,2781.69L1445.24,2736.33Z" style="fill:rgb(37,153,238);fill-rule:nonzero;"/>
                <path d="M1477.16,2782.45C1471.5,2782.45 1467.22,2780.46 1464.31,2776.49C1461.39,2772.51 1459.94,2766.68 1459.94,2759.01C1459.94,2751.28 1461.39,2745.43 1464.31,2741.46C1467.22,2737.48 1471.5,2735.49 1477.16,2735.49C1482.81,2735.49 1487.1,2737.48 1490.01,2741.46C1492.92,2745.43 1494.38,2751.28 1494.38,2759.01C1494.38,2766.74 1492.92,2772.58 1490.01,2776.53C1487.1,2780.47 1482.81,2782.45 1477.16,2782.45ZM1477.16,2777.24C1480.97,2777.24 1483.75,2775.8 1485.52,2772.91C1487.28,2770.03 1488.16,2765.4 1488.16,2759.01C1488.16,2752.57 1487.28,2747.9 1485.52,2744.99C1483.75,2742.07 1480.97,2740.62 1477.16,2740.62C1473.35,2740.62 1470.56,2742.07 1468.8,2744.99C1467.04,2747.9 1466.15,2752.57 1466.15,2759.01C1466.15,2765.4 1467.04,2770.03 1468.8,2772.91C1470.56,2775.8 1473.35,2777.24 1477.16,2777.24Z" style="fill:rgb(37,153,238);fill-rule:nonzero;"/>
                <path d="M1502.86,2736.33L1508.15,2736.33L1508.57,2741.2L1508.91,2741.2C1511.77,2739.24 1514.34,2737.8 1516.64,2736.88C1518.93,2735.95 1521.15,2735.49 1523.27,2735.49C1526.75,2735.49 1529.22,2736.42 1530.71,2738.26C1532.19,2740.11 1532.93,2743.16 1532.93,2747.42L1532.93,2781.69L1526.8,2781.69L1526.8,2748.85C1526.8,2745.99 1526.35,2743.98 1525.46,2742.8C1524.56,2741.62 1523.13,2741.04 1521.17,2741.04C1519.38,2741.04 1517.46,2741.44 1515.42,2742.26C1513.38,2743.07 1511.23,2744.23 1508.99,2745.74L1508.99,2781.69L1502.86,2781.69L1502.86,2736.33Z" style="fill:rgb(37,153,238);fill-rule:nonzero;"/>
            </g>
        </g>
    </g>
</svg>
