<?xml version="1.0" encoding="UTF-8" standalone="no"?>
<!DOCTYPE svg PUBLIC "-//W3C//DTD SVG 1.1//EN" "http://www.w3.org/Graphics/SVG/1.1/DTD/svg11.dtd">
<svg width="100%" height="100%" viewBox="0 0 194 253" version="1.1" xmlns="http://www.w3.org/2000/svg" xmlns:xlink="http://www.w3.org/1999/xlink" xml:space="preserve" xmlns:serif="http://www.serif.com/" style="fill-rule:evenodd;clip-rule:evenodd;stroke-linejoin:round;stroke-miterlimit:2;">
    <g transform="matrix(1,0,0,1,-939.716,-635.353)">
        <g transform="matrix(-5.57244,-1.49313,-0.720797,2.69005,9975.82,717.194)">
            <path d="M1488.38,820.38C1488.38,816.318 1486.79,813.02 1484.83,813.02C1482.87,813.02 1481.27,816.318 1481.27,820.38L1481.27,859.664C1481.27,863.726 1482.87,867.024 1484.83,867.024C1486.79,867.024 1488.38,863.726 1488.38,859.664L1488.38,820.38Z" style="fill:rgb(49,174,181);"/>
        </g>
        <g transform="matrix(4.13109,-1.10692,0.534357,1.99425,-5615.65,801.59)">
            <path d="M1488.38,820.38C1488.38,816.318 1486.79,813.02 1484.83,813.02C1482.87,813.02 1481.27,816.318 1481.27,820.38L1481.27,859.664C1481.27,863.726 1482.87,867.024 1484.83,867.024C1486.79,867.024 1488.38,863.726 1488.38,859.664L1488.38,820.38Z" style="fill:rgb(49,174,181);"/>
        </g>
        <g transform="matrix(-1.55596,-0.416919,-0.416919,1.55596,3745.91,163.44)">
            <ellipse cx="1519.22" cy="744.269" rx="38.925" ry="25.401" style="fill:rgb(35,132,138);"/>
        </g>
        <g transform="matrix(1.1535,-0.30908,0.30908,1.1535,-997.159,391.069)">
            <ellipse cx="1519.22" cy="744.269" rx="38.925" ry="25.401" style="fill:rgb(35,132,138);"/>
        </g>
        <g transform="matrix(-0.383106,1.42977,1.42977,0.383106,279.607,-1883.3)">
            <path d="M1555.29,917.207C1556.51,917.207 1557.67,917.709 1558.5,918.594C1563.37,923.87 1567.1,931.112 1569.1,939.473C1569.42,940.781 1569.11,942.162 1568.28,943.219C1567.45,944.276 1566.18,944.893 1564.83,944.893C1553.24,944.902 1525.73,944.902 1514.14,944.902C1512.79,944.902 1511.51,944.284 1510.68,943.225C1509.84,942.165 1509.54,940.782 1509.86,939.47C1511.86,931.11 1515.6,923.868 1520.47,918.6C1521.3,917.717 1522.46,917.215 1523.67,917.215C1529.76,917.207 1549.21,917.207 1555.29,917.207Z" style="fill:rgb(49,174,181);"/>
        </g>
        <g transform="matrix(0.284012,1.05995,-1.05995,0.284012,1572.56,-1126.26)">
            <path d="M1554.62,917.207C1556.31,917.207 1557.91,917.922 1559.04,919.175C1563.22,923.932 1566.53,930.171 1568.55,937.327C1569.06,939.116 1568.7,941.043 1567.58,942.53C1566.46,944.017 1564.71,944.892 1562.85,944.892C1551.05,944.902 1527.91,944.902 1516.12,944.902C1514.26,944.902 1512.5,944.026 1511.38,942.537C1510.26,941.047 1509.9,939.117 1510.41,937.324C1512.44,930.169 1515.75,923.93 1519.94,919.185C1521.07,917.936 1522.67,917.223 1524.35,917.223C1530.84,917.207 1548.13,917.207 1554.62,917.207Z" style="fill:rgb(49,174,181);"/>
        </g>
        <g transform="matrix(1.11621,0.299088,-0.182818,0.682286,396.392,306.397)">
            <path d="M677.014,258.737C677.014,250.152 672.754,243.182 667.507,243.182L642.934,243.182C637.687,243.182 633.426,250.152 633.426,258.737L633.426,290.283C633.426,298.868 637.687,305.837 642.934,305.837L667.507,305.837C672.754,305.837 677.014,298.868 677.014,290.283L677.014,258.737Z"/>
        </g>
        <g transform="matrix(-0.827493,0.221726,0.135531,0.505807,1485.98,497.049)">
            <path d="M677.014,258.737C677.014,250.152 672.754,243.182 667.507,243.182L642.934,243.182C637.687,243.182 633.426,250.152 633.426,258.737L633.426,290.283C633.426,298.868 637.687,305.837 642.934,305.837L667.507,305.837C672.754,305.837 677.014,298.868 677.014,290.283L677.014,258.737Z"/>
        </g>
        <g transform="matrix(0.884977,0.237129,-0.252932,0.943954,613.482,327.35)">
            <path d="M591.628,226.225C594.891,219.214 601.416,219.214 604.678,222.305C607.941,225.396 607.941,231.578 604.678,237.76C602.395,242.397 596.522,247.034 591.628,250.125C586.735,247.034 580.862,242.397 578.579,237.76C575.316,231.578 575.316,225.396 578.579,222.305C581.841,219.214 588.366,219.214 591.628,226.225Z" style="fill:rgb(255,88,91);"/>
        </g>
        <g transform="matrix(0.65607,-0.175794,0.187509,0.699792,548.737,720.572)">
            <path d="M591.628,226.225C594.891,219.214 601.416,219.214 604.678,222.305C607.941,225.396 607.941,231.578 604.678,237.76C602.395,242.397 596.522,247.034 591.628,250.125C586.735,247.034 580.862,242.397 578.579,237.76C575.316,231.578 575.316,225.396 578.579,222.305C581.841,219.214 588.366,219.214 591.628,226.225Z" style="fill:rgb(255,88,91);"/>
        </g>
    </g>
</svg>
