<?xml version="1.0" encoding="UTF-8" standalone="no"?>
<!DOCTYPE svg PUBLIC "-//W3C//DTD SVG 1.1//EN" "http://www.w3.org/Graphics/SVG/1.1/DTD/svg11.dtd">
<svg width="100%" height="100%" viewBox="0 0 1975 741" version="1.1" xmlns="http://www.w3.org/2000/svg" xmlns:xlink="http://www.w3.org/1999/xlink" xml:space="preserve" xmlns:serif="http://www.serif.com/" style="fill-rule:evenodd;clip-rule:evenodd;stroke-linecap:round;stroke-linejoin:round;stroke-miterlimit:1.5;">
    <g transform="matrix(1,0,0,1,-0.00014557,-150.529)">
        <g transform="matrix(1,0,0,1,-134.934,-191.638)">
            <g transform="matrix(1,0,0,1,18.873,-67.271)">
                <g>
                    <path d="M1103.06,766.337C1101.63,777.451 1077.57,955.945 996.378,997.916C891.133,1052.32 771.103,998.357 764.187,996.156C645.714,958.445 331.045,850.937 331.045,850.937C331.045,850.937 279.652,825.039 279.652,773.602C279.652,691.697 370.019,649.304 486.786,577.185C765.177,405.242 967.329,409.447 1103.13,409.447L1109.54,409.445C1245.26,409.359 1445.43,407.928 1719.47,577.185C1836.23,649.304 1926.6,691.697 1926.6,773.602C1926.6,825.039 1875.21,850.937 1875.21,850.937C1875.21,850.937 1560.54,958.445 1442.07,996.156C1435.15,998.357 1315.12,1052.32 1209.88,997.916C1126.06,954.591 1103.13,765.794 1103.13,765.794L1103.06,766.337Z" style="fill:rgb(102,189,247);"/>
                </g>
            </g>
        </g>
        <g transform="matrix(1,0,0,1,-134.934,-191.638)">
            <g transform="matrix(1,0,0,1,18.873,-67.271)">
                <g>
                    <path d="M1396.07,875.405C1390.31,876.114 1384.43,876.478 1378.47,876.478C1299.37,876.478 1235.15,812.258 1235.15,733.158C1235.15,654.057 1299.37,589.837 1378.47,589.837C1396.31,589.837 1413.39,593.104 1429.15,599.07L1429.17,599.077C1431.44,599.935 1433.68,600.85 1435.89,601.818L1544.84,646.282C1546.55,646.931 1548.25,647.624 1549.92,648.358L1549.93,648.361L1549.93,648.362C1587.43,664.82 1613.65,702.291 1613.65,745.837C1613.65,796.095 1578.73,838.261 1531.84,849.37L1531.84,849.371C1528.9,850.068 1525.91,850.643 1522.88,851.089L1414.95,871.786C1408.81,873.399 1402.51,874.616 1396.08,875.404L1396.07,875.406L1396.07,875.405Z" style="fill:url(#_Radial1);"/>
                </g>
            </g>
        </g>
        <g transform="matrix(1,0,0,1,-134.934,-191.638)">
            <g transform="matrix(-1,0,0,1,2225.13,-67.271)">
                <g>
                    <path d="M1396.07,875.405C1390.31,876.114 1384.43,876.478 1378.47,876.478C1299.37,876.478 1235.15,812.258 1235.15,733.158C1235.15,654.057 1299.37,589.837 1378.47,589.837C1396.31,589.837 1413.39,593.104 1429.15,599.07L1429.17,599.077C1431.44,599.935 1433.68,600.85 1435.89,601.818L1544.84,646.282C1546.55,646.931 1548.25,647.624 1549.92,648.358L1549.93,648.361L1549.93,648.362C1587.43,664.82 1613.65,702.291 1613.65,745.837C1613.65,796.095 1578.73,838.261 1531.84,849.37L1531.84,849.371C1528.9,850.068 1525.91,850.643 1522.88,851.089L1414.95,871.786C1408.81,873.399 1402.51,874.616 1396.08,875.404L1396.07,875.406L1396.07,875.405Z" style="fill:url(#_Radial2);"/>
                </g>
            </g>
        </g>
        <g transform="matrix(1,0,0,1,-134.934,-191.638)">
            <g transform="matrix(-0.850811,-0.525471,-0.510567,0.826679,2550.45,422.206)">
                <g>
                    <path d="M679.316,715.783C665.375,715.783 654.056,740.581 654.056,771.124C654.056,801.668 665.375,826.466 679.316,826.466C675.134,813.553 671.738,793.201 671.738,771.124C671.738,749.048 675.134,728.696 679.316,715.783Z" style="fill:white;"/>
                </g>
            </g>
        </g>
        <g transform="matrix(1,0,0,1,-134.934,-191.638)">
            <g transform="matrix(0.850811,0.525471,0.510567,-0.826679,-307.086,932.226)">
                <g>
                    <path d="M679.316,715.783C665.375,715.783 654.056,740.581 654.056,771.124C654.056,801.668 665.375,826.466 679.316,826.466C675.134,813.553 671.738,793.201 671.738,771.124C671.738,749.048 675.134,728.696 679.316,715.783Z" style="fill:white;"/>
                </g>
            </g>
        </g>
        <g transform="matrix(1,0,0,1,-134.934,-191.638)">
            <g transform="matrix(0.884915,0.510906,0.680225,-1.17818,190.388,1179.12)">
                <g>
                    <path d="M679.316,715.783C665.375,715.783 654.056,740.581 654.056,771.124C654.056,801.668 665.375,826.466 679.316,826.466C675.831,812.631 673.001,792.596 673.001,771.124C673.001,749.653 675.831,729.618 679.316,715.783Z" style="fill:white;"/>
                </g>
            </g>
        </g>
        <g transform="matrix(1,0,0,1,-134.934,-191.638)">
            <g transform="matrix(-0.884915,-0.510906,-0.680225,1.17818,2054.25,154.51)">
                <g>
                    <path d="M679.316,715.783C665.375,715.783 654.056,740.581 654.056,771.124C654.056,801.668 665.375,826.466 679.316,826.466C675.831,812.631 673.001,792.596 673.001,771.124C673.001,749.653 675.831,729.618 679.316,715.783Z" style="fill:white;"/>
                </g>
            </g>
        </g>
        <g transform="matrix(1,0,0,1,-134.934,-191.638)">
            <g transform="matrix(1,0,0,1,18.873,-67.271)">
                <g>
                    <path d="M188.612,981.984C188.612,981.984 384.388,688.336 611.196,585.954C905.755,452.988 1028.46,601.307 1028.46,601.307" style="fill:none;stroke:rgb(30,109,166);stroke-width:15px;"/>
                </g>
            </g>
        </g>
        <g transform="matrix(1,0,0,1,-134.934,-191.638)">
            <g transform="matrix(1,0,0,1,18.873,-67.271)">
                <g>
                    <path d="M1000.26,1092.34C1000.26,1092.34 883.03,963.141 1000.26,849.72C1068.76,783.447 1057.97,661.993 1057.97,661.993" style="fill:none;stroke:rgb(30,109,166);stroke-width:15px;"/>
                </g>
            </g>
        </g>
        <g transform="matrix(1,0,0,1,-134.934,-191.638)">
            <g transform="matrix(-1,0,0,1,2225.13,-64.156)">
                <g>
                    <path d="M1000.26,1092.34C1000.26,1092.34 883.03,963.141 1000.26,849.72C1068.76,783.447 1057.97,661.993 1057.97,661.993" style="fill:none;stroke:rgb(30,109,166);stroke-width:15px;"/>
                </g>
            </g>
        </g>
        <g transform="matrix(1,0,0,1,-134.934,-191.638)">
            <g transform="matrix(-1,0,0,1,2225.13,-67.271)">
                <g>
                    <path d="M188.612,981.984C188.612,981.984 384.388,688.336 611.196,585.954C905.755,452.988 1028.46,601.307 1028.46,601.307" style="fill:none;stroke:rgb(30,109,166);stroke-width:15px;"/>
                </g>
            </g>
        </g>
        <g transform="matrix(1,0,0,1,-134.934,-191.638)">
            <g transform="matrix(1,0,0,1,-343.769,-841.396)">
                <g>
                    <g transform="matrix(0.751775,0,0,0.859469,153.927,797.047)">
                        <rect x="472.473" y="1075.22" width="72.618" height="82.087" style="fill:rgb(122,191,32);"/>
                    </g>
                    <g transform="matrix(0.200035,0,0,0.983805,366.511,1164.33)">
                        <rect x="892.767" y="572.904" width="57.232" height="57.232" style="fill:rgb(89,143,20);"/>
                    </g>
                    <g transform="matrix(0.349327,0,0,0.983805,204.555,1164.33)">
                        <rect x="892.767" y="572.904" width="57.232" height="57.232" style="fill:rgb(89,143,20);"/>
                    </g>
                    <g transform="matrix(1,0,0,1,364.364,772.751)">
                        <circle cx="162.056" cy="969.031" r="7.004" style="fill:rgb(255,88,91);"/>
                    </g>
                    <g transform="matrix(1,0,0,1,367.356,774.124)">
                        <rect x="152.06" y="988.119" width="14.008" height="14.008" style="fill:rgb(96,96,96);"/>
                    </g>
                    <g transform="matrix(1.18721,0,0,1.18721,312.117,463.986)">
                        <circle cx="188.93" cy="1088.37" r="48.613" style="fill:url(#_Radial3);"/>
                    </g>
                    <g transform="matrix(-0.454496,-0.454496,-0.3897,0.3897,1167.24,1785.91)">
                        <path d="M679.316,715.783C665.375,715.783 654.056,740.581 654.056,771.124C654.056,801.668 665.375,826.466 679.316,826.466C672.345,817.242 666.686,795.62 666.686,771.124C666.686,746.629 672.345,725.007 679.316,715.783Z" style="fill:white;"/>
                    </g>
                    <g transform="matrix(0.454496,0.454496,0.3897,-0.3897,-94.4044,1726.3)">
                        <path d="M679.316,715.783C665.375,715.783 654.056,740.581 654.056,771.124C654.056,801.668 665.375,826.466 679.316,826.466C672.345,817.242 666.686,795.62 666.686,771.124C666.686,746.629 672.345,725.007 679.316,715.783Z" style="fill:white;"/>
                    </g>
                </g>
            </g>
        </g>
        <g transform="matrix(1,0,0,1,-134.934,-191.638)">
            <g transform="matrix(1,0,0,1,1514.94,-841.396)">
                <g>
                    <g transform="matrix(0.751775,0,0,0.859469,153.927,797.047)">
                        <rect x="472.473" y="1075.22" width="72.618" height="82.087" style="fill:rgb(122,191,32);"/>
                    </g>
                    <g transform="matrix(0.200035,0,0,0.983805,366.511,1164.33)">
                        <rect x="892.767" y="572.904" width="57.232" height="57.232" style="fill:rgb(89,143,20);"/>
                    </g>
                    <g transform="matrix(0.349327,0,0,0.983805,204.555,1164.33)">
                        <rect x="892.767" y="572.904" width="57.232" height="57.232" style="fill:rgb(89,143,20);"/>
                    </g>
                    <g transform="matrix(1,0,0,1,364.364,772.751)">
                        <circle cx="162.056" cy="969.031" r="7.004" style="fill:rgb(255,88,91);"/>
                    </g>
                    <g transform="matrix(1,0,0,1,367.356,774.124)">
                        <rect x="152.06" y="988.119" width="14.008" height="14.008" style="fill:rgb(96,96,96);"/>
                    </g>
                    <g transform="matrix(1.18721,0,0,1.18721,312.117,463.986)">
                        <circle cx="188.93" cy="1088.37" r="48.613" style="fill:url(#_Radial4);"/>
                    </g>
                    <g transform="matrix(-0.454496,-0.454496,-0.3897,0.3897,1167.24,1785.91)">
                        <path d="M679.316,715.783C665.375,715.783 654.056,740.581 654.056,771.124C654.056,801.668 665.375,826.466 679.316,826.466C672.345,817.242 666.686,795.62 666.686,771.124C666.686,746.629 672.345,725.007 679.316,715.783Z" style="fill:white;"/>
                    </g>
                    <g transform="matrix(0.454496,0.454496,0.3897,-0.3897,-94.4044,1726.3)">
                        <path d="M679.316,715.783C665.375,715.783 654.056,740.581 654.056,771.124C654.056,801.668 665.375,826.466 679.316,826.466C672.345,817.242 666.686,795.62 666.686,771.124C666.686,746.629 672.345,725.007 679.316,715.783Z" style="fill:white;"/>
                    </g>
                </g>
            </g>
        </g>
        <g transform="matrix(1,0,0,1,-134.934,-191.638)">
            <g transform="matrix(1,0,0,1,482.716,-731.043)">
                <g>
                    <g transform="matrix(0.751775,0,0,0.859469,153.927,797.047)">
                        <rect x="472.473" y="1075.22" width="72.618" height="82.087" style="fill:rgb(122,191,32);"/>
                    </g>
                    <g transform="matrix(0.200035,0,0,0.983805,366.511,1164.33)">
                        <rect x="892.767" y="572.904" width="57.232" height="57.232" style="fill:rgb(89,143,20);"/>
                    </g>
                    <g transform="matrix(0.349327,0,0,0.983805,204.555,1164.33)">
                        <rect x="892.767" y="572.904" width="57.232" height="57.232" style="fill:rgb(89,143,20);"/>
                    </g>
                    <g transform="matrix(1,0,0,1,364.364,772.751)">
                        <circle cx="162.056" cy="969.031" r="7.004" style="fill:rgb(255,88,91);"/>
                    </g>
                    <g transform="matrix(1,0,0,1,367.356,774.124)">
                        <rect x="152.06" y="988.119" width="14.008" height="14.008" style="fill:rgb(96,96,96);"/>
                    </g>
                    <g transform="matrix(1.18721,0,0,1.18721,312.117,463.986)">
                        <circle cx="188.93" cy="1088.37" r="48.613" style="fill:url(#_Radial5);"/>
                    </g>
                    <g transform="matrix(-0.454496,-0.454496,-0.3897,0.3897,1167.24,1785.91)">
                        <path d="M679.316,715.783C665.375,715.783 654.056,740.581 654.056,771.124C654.056,801.668 665.375,826.466 679.316,826.466C672.345,817.242 666.686,795.62 666.686,771.124C666.686,746.629 672.345,725.007 679.316,715.783Z" style="fill:white;"/>
                    </g>
                    <g transform="matrix(0.454496,0.454496,0.3897,-0.3897,-94.4044,1726.3)">
                        <path d="M679.316,715.783C665.375,715.783 654.056,740.581 654.056,771.124C654.056,801.668 665.375,826.466 679.316,826.466C672.345,817.242 666.686,795.62 666.686,771.124C666.686,746.629 672.345,725.007 679.316,715.783Z" style="fill:white;"/>
                    </g>
                </g>
            </g>
        </g>
        <g transform="matrix(1,0,0,1,-134.934,-191.638)">
            <g transform="matrix(1,0,0,1,688.448,-731.043)">
                <g>
                    <g transform="matrix(0.751775,0,0,0.859469,153.927,797.047)">
                        <rect x="472.473" y="1075.22" width="72.618" height="82.087" style="fill:rgb(122,191,32);"/>
                    </g>
                    <g transform="matrix(0.200035,0,0,0.983805,366.511,1164.33)">
                        <rect x="892.767" y="572.904" width="57.232" height="57.232" style="fill:rgb(89,143,20);"/>
                    </g>
                    <g transform="matrix(0.349327,0,0,0.983805,204.555,1164.33)">
                        <rect x="892.767" y="572.904" width="57.232" height="57.232" style="fill:rgb(89,143,20);"/>
                    </g>
                    <g transform="matrix(1,0,0,1,364.364,772.751)">
                        <circle cx="162.056" cy="969.031" r="7.004" style="fill:rgb(255,88,91);"/>
                    </g>
                    <g transform="matrix(1,0,0,1,367.356,774.124)">
                        <rect x="152.06" y="988.119" width="14.008" height="14.008" style="fill:rgb(96,96,96);"/>
                    </g>
                    <g transform="matrix(1.18721,0,0,1.18721,312.117,463.986)">
                        <circle cx="188.93" cy="1088.37" r="48.613" style="fill:url(#_Radial6);"/>
                    </g>
                    <g transform="matrix(-0.454496,-0.454496,-0.3897,0.3897,1167.24,1785.91)">
                        <path d="M679.316,715.783C665.375,715.783 654.056,740.581 654.056,771.124C654.056,801.668 665.375,826.466 679.316,826.466C672.345,817.242 666.686,795.62 666.686,771.124C666.686,746.629 672.345,725.007 679.316,715.783Z" style="fill:white;"/>
                    </g>
                    <g transform="matrix(0.454496,0.454496,0.3897,-0.3897,-94.4044,1726.3)">
                        <path d="M679.316,715.783C665.375,715.783 654.056,740.581 654.056,771.124C654.056,801.668 665.375,826.466 679.316,826.466C672.345,817.242 666.686,795.62 666.686,771.124C666.686,746.629 672.345,725.007 679.316,715.783Z" style="fill:white;"/>
                    </g>
                </g>
            </g>
        </g>
        <g transform="matrix(1,0,0,1,-134.934,-191.638)">
            <g transform="matrix(1,0,0,1,-343.769,-841.396)">
                <g>
                    <g transform="matrix(1.07598,0,0,0.937297,282.312,785.897)">
                        <path d="M1195.5,482.411C1195.5,474.828 1190.14,468.681 1183.54,468.681L1016.25,468.681C1009.64,468.681 1004.29,474.828 1004.29,482.411L1004.29,706.07C1004.29,713.653 1009.64,719.8 1016.25,719.8L1183.54,719.8C1190.14,719.8 1195.5,713.653 1195.5,706.07L1195.5,482.411Z" style="fill:rgb(122,191,32);"/>
                    </g>
                    <g transform="matrix(1,0,0,1,521.841,722.743)">
                        <rect x="892.767" y="572.904" width="57.232" height="57.232" style="fill:rgb(96,96,96);"/>
                    </g>
                    <g transform="matrix(0.664553,0,0,0.664553,883.803,984.288)">
                        <rect x="892.767" y="572.904" width="57.232" height="57.232" style="fill:rgb(96,96,96);"/>
                    </g>
                    <g transform="matrix(0.508607,0,0,0.26161,960.047,1216.87)">
                        <rect x="892.767" y="572.904" width="57.232" height="57.232" style="fill:rgb(96,96,96);"/>
                    </g>
                    <g transform="matrix(0.508607,0,0,0.26161,978.853,1240.85)">
                        <rect x="892.767" y="572.904" width="57.232" height="57.232" style="fill:rgb(96,96,96);"/>
                    </g>
                    <g transform="matrix(0.508607,0,0,0.26161,1039.33,1169.73)">
                        <rect x="892.767" y="572.904" width="57.232" height="57.232" style="fill:rgb(96,96,96);"/>
                    </g>
                    <g transform="matrix(0.508607,0,0,0.26161,1027.62,1141.96)">
                        <rect x="892.767" y="572.904" width="57.232" height="57.232" style="fill:rgb(96,96,96);"/>
                    </g>
                    <g transform="matrix(0.508607,0,0,0.533129,966.566,940.175)">
                        <rect x="892.767" y="572.904" width="57.232" height="57.232" style="fill:rgb(96,96,96);"/>
                    </g>
                    <g transform="matrix(0.200035,0,0,0.70957,1206.79,854.347)">
                        <rect x="892.767" y="572.904" width="57.232" height="57.232" style="fill:rgb(89,143,20);"/>
                    </g>
                    <g transform="matrix(0.200035,0,0,0.553666,1356.13,974.638)">
                        <rect x="892.767" y="572.904" width="57.232" height="57.232" style="fill:rgb(89,143,20);"/>
                    </g>
                    <g transform="matrix(0.200035,0,0,1.29863,1206.79,594.281)">
                        <rect x="892.767" y="572.904" width="57.232" height="57.232" style="fill:rgb(89,143,20);"/>
                    </g>
                    <g transform="matrix(1.22486e-17,0.200035,-1.29863,7.9518e-17,2203.69,1251.8)">
                        <rect x="892.767" y="572.904" width="57.232" height="57.232" style="fill:rgb(89,143,20);"/>
                    </g>
                    <g transform="matrix(1.22486e-17,0.200035,-1.29863,7.9518e-17,2290.15,1251.8)">
                        <rect x="892.767" y="572.904" width="57.232" height="57.232" style="fill:rgb(89,143,20);"/>
                    </g>
                    <g transform="matrix(0.200035,0,0,1.29863,1356.13,598.744)">
                        <rect x="892.767" y="572.904" width="57.232" height="57.232" style="fill:rgb(89,143,20);"/>
                    </g>
                    <g transform="matrix(1,0,0,1,1473.47,1270.89)">
                        <text x="0px" y="0px" style="font-family:'PingFangHK-Semibold', 'PingFang HK', sans-serif;font-weight:600;font-size:38.766px;fill:white;">阳光</text>
                    </g>
                </g>
            </g>
        </g>
    </g>
    <defs>
        <radialGradient id="_Radial1" cx="0" cy="0" r="1" gradientUnits="userSpaceOnUse" gradientTransform="matrix(-189.247,0,0,130.92,1424.4,733.158)"><stop offset="0" style="stop-color:white;stop-opacity:1"/><stop offset="0.49" style="stop-color:rgb(242,242,242);stop-opacity:1"/><stop offset="1" style="stop-color:rgb(205,205,205);stop-opacity:1"/></radialGradient>
        <radialGradient id="_Radial2" cx="0" cy="0" r="1" gradientUnits="userSpaceOnUse" gradientTransform="matrix(-189.247,0,0,130.92,1424.4,733.158)"><stop offset="0" style="stop-color:white;stop-opacity:1"/><stop offset="0.49" style="stop-color:rgb(242,242,242);stop-opacity:1"/><stop offset="1" style="stop-color:rgb(205,205,205);stop-opacity:1"/></radialGradient>
        <radialGradient id="_Radial3" cx="0" cy="0" r="1" gradientUnits="userSpaceOnUse" gradientTransform="matrix(-48.613,1.19068e-14,1.08765e-14,44.4068,188.93,1088.37)"><stop offset="0" style="stop-color:rgb(138,138,138);stop-opacity:0"/><stop offset="0.49" style="stop-color:rgb(135,135,135);stop-opacity:0.12"/><stop offset="1" style="stop-color:rgb(126,126,126);stop-opacity:0.47"/></radialGradient>
        <radialGradient id="_Radial4" cx="0" cy="0" r="1" gradientUnits="userSpaceOnUse" gradientTransform="matrix(-48.613,1.19068e-14,1.08765e-14,44.4068,188.93,1088.37)"><stop offset="0" style="stop-color:rgb(138,138,138);stop-opacity:0"/><stop offset="0.49" style="stop-color:rgb(135,135,135);stop-opacity:0.12"/><stop offset="1" style="stop-color:rgb(126,126,126);stop-opacity:0.47"/></radialGradient>
        <radialGradient id="_Radial5" cx="0" cy="0" r="1" gradientUnits="userSpaceOnUse" gradientTransform="matrix(-48.613,1.19068e-14,1.08765e-14,44.4068,188.93,1088.37)"><stop offset="0" style="stop-color:rgb(138,138,138);stop-opacity:0"/><stop offset="0.49" style="stop-color:rgb(135,135,135);stop-opacity:0.12"/><stop offset="1" style="stop-color:rgb(126,126,126);stop-opacity:0.47"/></radialGradient>
        <radialGradient id="_Radial6" cx="0" cy="0" r="1" gradientUnits="userSpaceOnUse" gradientTransform="matrix(-48.613,1.19068e-14,1.08765e-14,44.4068,188.93,1088.37)"><stop offset="0" style="stop-color:rgb(138,138,138);stop-opacity:0"/><stop offset="0.49" style="stop-color:rgb(135,135,135);stop-opacity:0.12"/><stop offset="1" style="stop-color:rgb(126,126,126);stop-opacity:0.47"/></radialGradient>
    </defs>
</svg>
