<?xml version="1.0" encoding="UTF-8" standalone="no"?>
<!DOCTYPE svg PUBLIC "-//W3C//DTD SVG 1.1//EN" "http://www.w3.org/Graphics/SVG/1.1/DTD/svg11.dtd">
<svg width="100%" height="100%" viewBox="0 0 800 800" version="1.1" xmlns="http://www.w3.org/2000/svg" xmlns:xlink="http://www.w3.org/1999/xlink" xml:space="preserve" xmlns:serif="http://www.serif.com/" style="fill-rule:evenodd;clip-rule:evenodd;stroke-linejoin:round;stroke-miterlimit:2;">
    <g transform="matrix(1,0,0,1,-1828.02,0)">
        <g id="Artboard1" transform="matrix(1,0,0,1,1828.02,0)">
            <rect x="0" y="0" width="800" height="800" style="fill:none;"/>
            <clipPath id="_clip1">
                <rect x="0" y="0" width="800" height="800"/>
            </clipPath>
            <g clip-path="url(#_clip1)">
                <g transform="matrix(5.44493,0,0,5.44493,-2432.58,-1774.13)">
                    <circle cx="520.223" cy="399.294" r="73.463" style="fill:rgb(242,242,242);"/>
                </g>
                <g transform="matrix(0.263312,0,0,0.263312,43.7844,46.2822)">
                    <path d="M117.543,2227.26C158.195,2206.76 207.303,2181.12 241.727,2164.32C285.183,2143.1 335.477,2116.93 372.968,2102.5C403.118,2090.9 438.365,2088.34 466.672,2077.75C493.349,2067.77 524.394,2047.3 542.809,2038.96C553.784,2033.99 565.929,2032.08 577.161,2027.72C589.668,2022.87 603.68,2014.17 617.849,2009.85C632.363,2005.42 652.804,2011.98 664.24,2001.18C687.404,1979.3 731.382,1916.97 756.834,1878.56C779.566,1844.26 795.43,1791.45 816.948,1770.72C833.98,1754.32 876.845,1776.03 885.942,1754.2C899.72,1721.14 901.387,1615.54 899.621,1572.34C898.517,1545.35 880.181,1521.6 875.343,1495.02C869.109,1460.77 865.975,1403.59 862.22,1366.87C859.079,1336.16 855.098,1293.09 852.816,1274.72C852.052,1268.58 853.808,1259.88 848.526,1256.66C843.024,1253.29 829.208,1256.46 819.803,1254.54C810.327,1252.6 800.077,1250.24 791.672,1245.01C781.468,1238.66 766.619,1228.59 758.578,1216.43C746.65,1198.4 729.23,1159.51 720.106,1136.82C712.794,1118.64 709.087,1096.07 703.837,1080.32C699.523,1067.38 692.499,1055.41 688.608,1042.33C684.414,1028.24 679.999,1011.58 678.676,995.766C677.237,978.55 678.416,954.738 679.972,939.04C681.232,926.33 682.837,911.555 688.011,901.577C692.939,892.074 701.652,883.029 711.017,879.173C720.383,875.317 736.692,880.536 744.203,878.44C749.59,876.936 755.91,872.185 756.085,866.596C756.429,855.569 748.287,826.566 746.268,812.283C744.799,801.897 745.185,791.318 743.971,780.899C742.434,767.72 736.631,747.023 737.049,733.21C737.416,721.071 745.069,709.587 746.479,698.018C747.859,686.689 744.186,675.129 745.504,663.793C746.995,650.972 752.872,635.48 755.425,621.092C758.693,602.677 763.635,569.726 765.109,553.303C766.026,543.091 762.539,532.661 764.268,522.554C767.108,505.943 776.037,471.643 782.154,453.631C786.808,439.923 793.98,427.166 800.964,414.485C809.221,399.492 819.692,379.412 831.698,363.674C846.695,344.016 871.607,316.402 890.946,296.536C908.858,278.136 935.148,254.854 947.73,244.478C953.21,239.96 960.727,238.503 966.44,234.284C975.996,227.228 992.813,209.969 1005.07,202.14C1015.71,195.335 1028.73,193.108 1039.95,187.307C1057.62,178.176 1089.17,157.75 1111.09,147.355C1130.49,138.156 1154.36,129.331 1171.46,124.932C1185.15,121.41 1199.74,123.299 1213.67,120.958C1228.11,118.535 1246.57,111.91 1258.05,110.392C1266.18,109.319 1274.44,112.648 1282.6,111.852C1307.25,109.449 1374.03,95.418 1405.96,95.973C1429.57,96.384 1451,110.542 1474.16,115.181C1498.33,120.024 1531.84,120.377 1550.99,125.028C1564.65,128.344 1575.87,138.309 1589.09,143.088C1603.35,148.247 1622.19,148.092 1636.57,155.978C1652.32,164.615 1667.64,182.264 1683.59,194.913C1703.06,210.364 1732.05,233.119 1753.39,248.683C1772.36,262.518 1797.99,275.723 1811.63,288.298C1822.15,297.994 1828.72,315.582 1835.25,324.134C1839.68,329.946 1845.45,334.61 1850.78,339.611C1858.28,346.649 1872.36,359.512 1880.26,366.361C1886.03,371.373 1893.79,374.432 1898.16,380.709C1905.39,391.097 1916.96,416.155 1923.65,428.689C1928.5,437.778 1932.77,447.203 1938.28,455.912C1948.71,472.427 1978.02,508.284 1986.25,527.778C1992.11,541.633 1988.61,560.608 1987.71,572.879C1986.99,582.63 1979.86,591.674 1980.86,601.4C1981.92,611.728 1992.55,622.955 1994.06,634.844C1995.59,646.808 1989.45,660.343 1990.01,673.181C1990.67,688.499 1998.04,712.008 1998.05,726.752C1998.05,738.683 1992.4,749.944 1990.06,761.643C1987.04,776.703 1983.16,801.76 1979.94,817.115C1977.36,829.445 1973.81,842.551 1970.73,853.771C1967.91,864.066 1963.01,874.255 1961.49,884.434C1960,894.462 1960.67,908.669 1961.65,914.847C1962.11,917.734 1964.78,920.132 1967.36,921.504C1971.17,923.532 1979.93,924.779 1984.55,927.02C1988.5,928.935 1992.5,931.383 1995.06,934.947C1998.49,939.713 2003.17,948.203 2005.09,955.615C2008.85,970.078 2016.41,999.331 2017.61,1021.73C2018.82,1044.44 2016.26,1068.78 2012.35,1091.91C2008.3,1115.85 2000.78,1141.81 1993.33,1165.37C1986.03,1188.45 1978.06,1213.55 1967.63,1233.28C1957.89,1251.71 1942.42,1270.53 1930.74,1283.76C1921.03,1294.75 1905.89,1307.13 1897.54,1312.64C1892.69,1315.84 1886.38,1316 1880.63,1316.83C1870.98,1318.22 1848.13,1319.93 1839.65,1321C1836.29,1321.43 1832.49,1321.3 1829.74,1323.27C1826.93,1325.28 1823.85,1329.21 1822.81,1333.07C1821.16,1339.15 1820.59,1350.86 1819.85,1359.79C1818.58,1375.1 1818.24,1403.35 1815.21,1424.9C1812.05,1447.4 1807.44,1472.93 1800.89,1494.81C1794.55,1515.96 1785.01,1536.6 1775.88,1556.16C1766.95,1575.3 1756.64,1595.19 1746.14,1612.13C1736.23,1628.13 1723.8,1642.43 1712.89,1657.77C1700.38,1675.37 1680.5,1703.43 1671.06,1717.73C1665.59,1726.02 1659.06,1737.3 1656.24,1743.58C1654.6,1747.25 1654.57,1751.45 1654.17,1755.45C1653.63,1760.94 1653.58,1769.51 1652.97,1776.52C1651.78,1789.99 1646.7,1824.2 1647.07,1836.27C1647.23,1841.28 1652.88,1844.46 1655.2,1848.9C1667.57,1872.56 1707.83,1954.7 1721.24,1978.2C1724.31,1983.58 1730.55,1986.8 1735.69,1989.88C1740.76,1992.92 1746.6,1994.45 1752.07,1996.69C1760.15,2000 1775.1,2006.02 1784.14,2009.73C1791.55,2012.77 1799,2015.72 1806.34,2018.95C1813.83,2022.24 1822.6,2026.04 1829.13,2029.5C1834.81,2032.52 1839.4,2037.68 1845.5,2039.74C1853.85,2042.55 1868.18,2043.33 1879.23,2046.38C1900.46,2052.26 1945.58,2064.48 1972.91,2074.97C1997.26,2084.31 2023.86,2100.05 2043.22,2109.32C2058.43,2116.59 2074.55,2122.08 2089.11,2130.59C2113.49,2144.82 2158.64,2178.38 2189.52,2194.75C2216.46,2209.03 2245.7,2218.56 2274.41,2228.8C2303.78,2239.28 2340.74,2249.32 2365.7,2257.58C2385.33,2264.08 2410.26,2272.8 2424.16,2278.39C2432.8,2281.87 2439.93,2289.27 2449.07,2291.09C2461.71,2293.61 2500,2293.49 2500,2293.49L2500,2338.77C2449.86,2396.5 2395.44,2450.4 2337.23,2500L368.424,2500C274.173,2419.69 189.843,2328.07 117.543,2227.26Z" style="fill:rgb(234,234,234);"/>
                    <path id="Face" d="M117.543,2227.26C158.195,2206.76 207.303,2181.12 241.727,2164.32C285.183,2143.1 335.477,2116.93 372.968,2102.5C403.118,2090.9 438.365,2088.34 466.672,2077.75C493.349,2067.77 524.394,2047.3 542.809,2038.96C553.784,2033.99 565.929,2032.08 577.161,2027.72C589.668,2022.87 603.68,2014.17 617.849,2009.85C632.363,2005.42 652.804,2011.98 664.24,2001.18C687.404,1979.3 731.382,1916.97 756.834,1878.56C779.566,1844.26 795.43,1791.45 816.948,1770.72C833.98,1754.32 876.845,1776.03 885.942,1754.2C899.72,1721.14 901.387,1615.54 899.621,1572.34C898.517,1545.35 880.181,1521.6 875.343,1495.02C869.109,1460.77 865.975,1403.59 862.22,1366.87C859.079,1336.16 855.098,1293.09 852.816,1274.72C852.052,1268.58 853.808,1259.88 848.526,1256.66C843.024,1253.29 829.208,1256.46 819.803,1254.54C810.327,1252.6 800.077,1250.24 791.672,1245.01C781.468,1238.66 766.619,1228.59 758.578,1216.43C746.65,1198.4 729.23,1159.51 720.106,1136.82C712.794,1118.64 709.087,1096.07 703.837,1080.32C699.523,1067.38 692.499,1055.41 688.608,1042.33C684.414,1028.24 679.999,1011.58 678.676,995.766C677.237,978.55 678.416,954.738 679.972,939.04C681.232,926.33 682.837,911.555 688.011,901.577C692.939,892.074 701.652,883.029 711.017,879.173C720.383,875.317 736.692,880.536 744.203,878.44C749.59,876.936 755.91,872.185 756.085,866.596C756.429,855.569 748.287,826.566 746.268,812.283C744.799,801.897 745.185,791.318 743.971,780.899C742.434,767.72 736.631,747.023 737.049,733.21C737.416,721.071 745.069,709.587 746.479,698.018C747.859,686.689 744.186,675.129 745.504,663.793C746.995,650.972 752.872,635.48 755.425,621.092C758.693,602.677 763.635,569.726 765.109,553.303C766.026,543.091 762.539,532.661 764.268,522.554C767.108,505.943 776.037,471.643 782.154,453.631C786.808,439.923 793.98,427.166 800.964,414.485C809.221,399.492 819.692,379.412 831.698,363.674C846.695,344.016 871.607,316.402 890.946,296.536C908.858,278.136 935.148,254.854 947.73,244.478C953.21,239.96 960.727,238.503 966.44,234.284C975.996,227.228 992.813,209.969 1005.07,202.14C1015.71,195.335 1028.73,193.108 1039.95,187.307C1057.62,178.176 1089.17,157.75 1111.09,147.355C1130.49,138.156 1154.36,129.331 1171.46,124.932C1185.15,121.41 1199.74,123.299 1213.67,120.958C1228.11,118.535 1246.57,111.91 1258.05,110.392C1266.18,109.319 1274.44,112.648 1282.6,111.852C1307.25,109.449 1374.03,95.418 1405.96,95.973C1429.57,96.384 1451,110.542 1474.16,115.181C1498.33,120.024 1531.84,120.377 1550.99,125.028C1564.65,128.344 1575.87,138.309 1589.09,143.088C1603.35,148.247 1622.19,148.092 1636.57,155.978C1652.32,164.615 1667.64,182.264 1683.59,194.913C1703.06,210.364 1732.05,233.119 1753.39,248.683C1772.36,262.518 1797.99,275.723 1811.63,288.298C1822.15,297.994 1828.72,315.582 1835.25,324.134C1839.68,329.946 1845.45,334.61 1850.78,339.611C1858.28,346.649 1872.36,359.512 1880.26,366.361C1886.03,371.373 1893.79,374.432 1898.16,380.709C1905.39,391.097 1916.96,416.155 1923.65,428.689C1928.5,437.778 1932.77,447.203 1938.28,455.912C1948.71,472.427 1978.02,508.284 1986.25,527.778C1992.11,541.633 1988.61,560.608 1987.71,572.879C1986.99,582.63 1979.86,591.674 1980.86,601.4C1981.92,611.728 1992.55,622.955 1994.06,634.844C1995.59,646.808 1989.45,660.343 1990.01,673.181C1990.67,688.499 1998.04,712.008 1998.05,726.752C1998.05,738.683 1992.4,749.944 1990.06,761.643C1987.04,776.703 1983.16,801.76 1979.94,817.115C1977.36,829.445 1973.81,842.551 1970.73,853.771C1967.91,864.066 1963.01,874.255 1961.49,884.434C1960,894.462 1960.67,908.669 1961.65,914.847C1962.11,917.734 1964.78,920.132 1967.36,921.504C1971.17,923.532 1979.93,924.779 1984.55,927.02C1988.5,928.935 1992.5,931.383 1995.06,934.947C1998.49,939.713 2003.17,948.203 2005.09,955.615C2008.85,970.078 2016.41,999.331 2017.61,1021.73C2018.82,1044.44 2016.26,1068.78 2012.35,1091.91C2008.3,1115.85 2000.78,1141.81 1993.33,1165.37C1986.03,1188.45 1978.06,1213.55 1967.63,1233.28C1957.89,1251.71 1942.42,1270.53 1930.74,1283.76C1921.03,1294.75 1905.89,1307.13 1897.54,1312.64C1892.69,1315.84 1886.38,1316 1880.63,1316.83C1870.98,1318.22 1848.13,1319.93 1839.65,1321C1836.29,1321.43 1832.49,1321.3 1829.74,1323.27C1826.93,1325.28 1823.85,1329.21 1822.81,1333.07C1821.16,1339.15 1820.59,1350.86 1819.85,1359.79C1818.58,1375.1 1818.24,1403.35 1815.21,1424.9C1812.05,1447.4 1807.44,1472.93 1800.89,1494.81C1794.55,1515.96 1785.01,1536.6 1775.88,1556.16C1766.95,1575.3 1756.64,1595.19 1746.14,1612.13C1736.23,1628.13 1723.8,1642.43 1712.89,1657.77C1700.38,1675.37 1680.5,1703.43 1671.06,1717.73C1665.59,1726.02 1659.06,1737.3 1656.24,1743.58C1654.6,1747.25 1654.57,1751.45 1654.17,1755.45C1653.63,1760.94 1653.58,1769.51 1652.97,1776.52C1651.78,1789.99 1646.7,1824.2 1647.07,1836.27C1647.23,1841.28 1652.88,1844.46 1655.2,1848.9C1667.57,1872.56 1707.83,1954.7 1721.24,1978.2C1724.31,1983.58 1730.55,1986.8 1735.69,1989.88C1740.76,1992.92 1746.6,1994.45 1752.07,1996.69C1760.15,2000 1775.1,2006.02 1784.14,2009.73C1791.55,2012.77 1799,2015.72 1806.34,2018.95C1813.83,2022.24 1822.6,2026.04 1829.13,2029.5C1834.81,2032.52 1839.4,2037.68 1845.5,2039.74C1853.85,2042.55 1868.18,2043.33 1879.23,2046.38C1900.46,2052.26 1945.58,2064.48 1972.91,2074.97C1997.26,2084.31 2023.86,2100.05 2043.22,2109.32C2058.43,2116.59 2074.55,2122.08 2089.11,2130.59C2113.49,2144.82 2158.64,2178.38 2189.52,2194.75C2216.46,2209.03 2245.7,2218.56 2274.41,2228.8C2303.78,2239.28 2340.74,2249.32 2365.7,2257.58C2385.33,2264.08 2410.26,2272.8 2424.16,2278.39C2432.8,2281.87 2439.93,2289.27 2449.07,2291.09C2461.71,2293.61 2500,2293.49 2500,2293.49L2500,2338.77C2449.86,2396.5 2395.44,2450.4 2337.23,2500L368.424,2500C274.173,2419.69 189.843,2328.07 117.543,2227.26Z" style="fill:rgb(238,218,201);"/>
                    <g id="Light-Face-Shading" serif:id="Light Face Shading">
                        <path d="M1119.41,474.535C1113.8,416.268 1167.33,159.625 1171.46,124.932C1185.15,121.41 1199.74,123.299 1213.67,120.958C1228.11,118.535 1246.57,111.91 1258.05,110.392C1266.18,109.319 1274.44,112.648 1282.6,111.852C1307.25,109.449 1374.03,95.418 1405.96,95.973C1429.57,96.384 1451,110.542 1474.16,115.181C1498.33,120.024 1531.84,120.377 1550.99,125.028C1564.65,128.344 1575.87,138.309 1589.09,143.088C1603.35,148.247 1622.19,148.092 1636.57,155.978C1652.32,164.615 1667.64,182.264 1683.59,194.913C1703.06,210.364 1732.05,233.119 1753.39,248.683C1772.36,262.518 1797.99,275.723 1811.63,288.298C1822.15,297.994 1828.72,315.582 1835.25,324.134C1839.68,329.946 1845.45,334.61 1850.78,339.611C1858.28,346.649 1872.36,359.512 1880.26,366.361C1886.03,371.373 1893.79,374.432 1898.16,380.709C1905.39,391.097 1916.96,416.155 1923.65,428.689C1928.5,437.778 1932.77,447.203 1938.28,455.912C1948.71,472.427 1978.02,508.284 1986.25,527.778C1992.11,541.633 1988.61,560.608 1987.71,572.879C1986.99,582.63 1979.86,591.674 1980.86,601.4C1981.92,611.728 1992.55,622.955 1994.06,634.844C1995.59,646.808 1989.45,660.343 1990.01,673.181C1990.67,688.499 1998.04,712.008 1998.05,726.752C1998.05,738.683 1992.4,749.944 1990.06,761.643C1987.04,776.703 1983.16,801.76 1979.94,817.115C1977.36,829.445 1973.81,842.551 1970.73,853.771C1967.91,864.066 1963.01,874.255 1961.49,884.434C1960,894.462 1960.67,908.669 1961.65,914.847C1962.11,917.734 1964.78,920.132 1967.36,921.504C1971.17,923.532 1979.93,924.779 1984.55,927.02C1988.5,928.935 1992.5,931.383 1995.06,934.947C1998.49,939.713 2003.17,948.203 2005.09,955.615C2008.85,970.078 2016.41,999.331 2017.61,1021.73C2018.82,1044.44 2016.26,1068.78 2012.35,1091.91C2008.3,1115.85 2000.78,1141.81 1993.33,1165.37C1986.03,1188.45 1978.06,1213.55 1967.63,1233.28C1957.89,1251.71 1942.42,1270.53 1930.74,1283.76C1921.03,1294.75 1905.89,1307.13 1897.54,1312.64C1892.69,1315.84 1886.38,1316 1880.63,1316.83C1870.98,1318.22 1848.13,1319.93 1839.65,1321C1836.29,1321.43 1832.49,1321.3 1829.74,1323.27C1826.93,1325.28 1823.85,1329.21 1822.81,1333.07C1821.16,1339.15 1820.59,1350.86 1819.85,1359.79C1818.58,1375.1 1818.24,1403.35 1815.21,1424.9C1812.05,1447.4 1807.44,1472.93 1800.89,1494.81C1794.55,1515.96 1785.01,1536.6 1775.88,1556.16C1766.95,1575.3 1756.64,1595.19 1746.14,1612.13C1736.23,1628.13 1723.8,1642.43 1712.89,1657.77C1700.38,1675.37 1680.5,1703.43 1671.06,1717.73C1665.59,1726.02 1659.06,1737.3 1656.24,1743.58C1654.6,1747.25 1654.57,1751.45 1654.17,1755.45C1653.63,1760.94 1653.58,1769.51 1652.97,1776.52C1651.78,1789.99 1647.8,1822.73 1647.07,1836.27C1646.68,1843.45 1647.21,1850.73 1648.61,1857.78C1654.13,1885.77 1678.08,1957.85 1680.23,2004.2C1682.28,2048.49 1676.99,2094.35 1661.48,2135.89C1644.98,2180.05 1609.01,2230.33 1581.26,2269.15C1555.71,2304.89 1524.57,2344.64 1494.99,2368.8C1468.69,2390.28 1429.69,2392.28 1403.77,2414.14C1377.85,2436.01 1339.45,2500 1339.45,2500C1295.21,2732.43 1247.93,2746.94 1197.03,2500C1197.03,2500 1122.42,2482.82 1106.9,2452.64C1089.37,2418.53 1083.61,2321.32 1091.83,2295.33C1098.32,2274.84 1137.19,2293.2 1156.27,2296.69C1173.9,2299.9 1193.57,2314.74 1206.34,2316.23C1215.81,2317.33 1225.73,2311.92 1232.9,2305.64C1243.7,2296.2 1262.83,2276.99 1271.15,2259.53C1279.47,2242.07 1276.53,2215.23 1282.81,2200.88C1287.87,2189.33 1300.27,2182.69 1308.85,2173.45C1318.78,2162.74 1333.52,2150.66 1342.43,2136.65C1351.48,2122.42 1360.94,2103.64 1363.13,2088.1C1365.23,2073.12 1360.9,2054.67 1355.53,2043.37C1350.69,2033.2 1340.37,2026.3 1330.86,2020.28C1316.37,2011.1 1288.99,1997.74 1268.6,1988.31C1248.94,1979.21 1228.36,1972.27 1208.48,1963.67C1188.2,1954.9 1165.78,1946.18 1146.92,1935.69C1128.77,1925.58 1111.35,1913.93 1095.34,1900.68C1077.56,1885.97 1056.66,1866.98 1040.26,1847.4C1023.64,1827.56 1008.32,1804.92 995.656,1781.66C982.602,1757.71 968.997,1723.39 961.935,1703.65C957.292,1690.67 947.669,1661.79 953.287,1663.21C958.905,1664.62 981.397,1695.93 995.645,1712.12C1010.55,1729.06 1025.71,1748.52 1042.71,1764.83C1060.07,1781.5 1080.7,1796.48 1099.84,1812.14C1120.54,1829.08 1141.26,1853.49 1166.94,1866.49C1195.36,1880.87 1245.59,1893.21 1270.34,1898.42C1285.06,1901.52 1305.37,1900.03 1315.45,1897.76C1321.97,1896.29 1329.02,1891.28 1330.79,1884.83C1333.28,1875.75 1330.45,1857.02 1330.38,1843.33C1330.31,1829.78 1333.73,1815.4 1330.38,1802.68C1327.02,1789.96 1318.89,1777.52 1310.25,1767.01C1301.61,1756.49 1290.64,1746.61 1278.56,1739.59C1265.78,1732.17 1242.05,1730.98 1233.56,1722.48C1225.44,1714.35 1222.31,1698.72 1227.63,1688.54C1232.99,1678.26 1258.09,1670.8 1265.75,1660.82C1272.46,1652.07 1276.2,1635.8 1273.57,1628.66C1270.95,1621.53 1258.15,1620.83 1250,1618C1235.89,1613.11 1206.68,1607.68 1188.91,1599.29C1172.2,1591.4 1155.24,1577.65 1143.36,1567.66C1133.62,1559.47 1125.82,1541.23 1117.67,1539.39C1109.52,1537.55 1100.9,1549.57 1094.47,1556.62C1088.04,1563.67 1086.82,1577.96 1079.11,1581.69C1071.39,1585.43 1052.87,1588.25 1048.19,1579.03C1042.97,1568.75 1045.73,1539.57 1047.79,1520.01C1049.99,1499.16 1051.13,1469.49 1061.37,1453.93C1071.46,1438.6 1093.08,1425.93 1109.22,1426.68C1125.37,1427.43 1139.95,1451.75 1158.24,1458.41C1181.7,1466.94 1228.76,1477.18 1250,1477.88C1262.93,1478.31 1278.47,1473.35 1285.69,1462.61C1293.31,1451.26 1299.37,1421.99 1295.72,1409.82C1292.11,1397.74 1274.13,1396.78 1263.81,1389.54C1251.38,1380.8 1235.25,1367.37 1221.09,1357.42C1207.34,1347.77 1194.83,1328.15 1178.87,1329.88C1162.91,1331.61 1141.91,1354.93 1125.33,1367.78C1109.42,1380.12 1096.26,1398.18 1079.39,1407C1062.55,1415.8 1034.15,1423.47 1024.08,1420.7C1014.19,1417.99 1015.33,1399.98 1018.92,1390.38C1023.95,1376.92 1039.19,1353.9 1054.25,1339.97C1075.14,1320.63 1115.57,1289.34 1144.3,1274.35C1169.67,1261.11 1206.89,1254.06 1226.63,1250C1238.42,1247.58 1261.54,1242 1262.73,1250C1263.91,1258 1234.4,1283.89 1233.72,1297.98C1233.04,1312.07 1245.71,1327.46 1258.65,1334.56C1278.23,1345.3 1326.47,1362.48 1351.17,1362.41C1371.98,1362.36 1399.98,1353.82 1406.85,1334.18C1414.45,1312.49 1397.25,1259.93 1396.73,1232.28C1396.32,1210.83 1403.49,1189.74 1403.72,1168.29C1404.02,1139.87 1402.7,1094.68 1398.54,1061.78C1394.64,1031.02 1387.91,986.461 1378.7,970.895C1372.67,960.706 1353.88,963.622 1343.27,968.388C1332.66,973.153 1323.65,988.457 1315.03,999.49C1305.48,1011.71 1294.69,1029.66 1285.98,1041.68C1278.57,1051.89 1273.1,1064.36 1262.74,1071.57C1250.52,1080.09 1230.44,1089.34 1212.63,1092.8C1192.14,1096.77 1157.44,1100.58 1139.79,1095.43C1124.71,1091.03 1117.79,1069.78 1106.7,1061.88C1096.87,1054.89 1085.01,1050.76 1073.24,1048.08C1060.89,1045.27 1045.31,1049.77 1032.56,1045.03C1019.66,1040.24 1002.23,1029.04 995.806,1019.3C989.794,1010.17 986.737,994.69 994.038,986.558C1004.22,975.223 1037.68,957.43 1056.87,951.289C1073.46,945.974 1094.64,951.756 1109.12,949.708C1121.08,948.016 1145.37,942.359 1143.75,939.001C1142.12,935.644 1114.48,930.136 1099.36,929.563C1080,928.829 1047.82,934.262 1027.54,934.597C1010.91,934.872 987.424,938.949 977.724,931.571C968.024,924.193 960.762,901.427 969.342,890.328C979.329,877.409 1015.22,860.038 1037.65,854.057C1058.98,848.366 1081.95,851.901 1103.88,854.439C1129.73,857.431 1164.76,867.251 1192.73,872.008C1218.93,876.464 1249.42,874.549 1271.71,882.979C1292.77,890.945 1309.84,916.865 1326.43,922.583C1340.66,927.486 1357.01,922.1 1371.27,917.284C1390.82,910.684 1426.56,893.982 1443.71,882.979C1456.04,875.063 1462.01,859.458 1474.15,851.261C1494.96,837.221 1544.19,815.286 1568.55,798.743C1587.78,785.683 1612.2,773.791 1620.29,752.003C1629.65,726.837 1630.13,672.971 1624.65,647.749C1620.41,628.198 1606.1,607.849 1587.43,600.667C1567.62,593.052 1529.98,604.873 1505.85,602.057C1484.06,599.515 1462.38,593.329 1442.64,583.771C1422.18,573.864 1399.49,551.857 1383.08,542.613C1371.05,535.834 1357.81,530.7 1344.2,528.307C1330.45,525.886 1314.23,531.979 1300.53,528.088C1286.84,524.196 1275.1,512.283 1262.05,504.957C1246.15,496.031 1226.17,479.023 1205.12,474.535C1181.35,469.465 1122.15,502.975 1119.41,474.535Z" style="fill:rgb(227,192,164);"/>
                        <path d="M684.223,991.751C683.811,984.012 684.555,967.875 685.312,956.306C686.054,944.949 685.516,932.657 688.76,922.337C691.982,912.093 698.745,900.527 704.781,894.388C709.937,889.143 719.274,887.394 724.976,885.5C729.478,884.004 734.257,882.725 738.992,883.022C744.01,883.337 749.909,885.355 755.079,887.39C760.662,889.586 766.771,893.149 772.487,896.199C778.186,899.239 785.29,903.033 789.38,905.691C792.177,907.508 795.381,909.244 797.028,912.146C798.986,915.596 800.039,921.571 801.128,926.391C802.241,931.32 803.384,936.549 803.71,941.72C804.038,946.921 803.873,954.183 803.096,957.596C802.643,959.588 799.742,963.688 799.048,962.196C798.353,960.705 799.576,953.116 798.927,948.646C798.075,942.78 796.465,932.309 793.936,927C791.871,922.662 787.537,919.759 783.758,916.791C779.552,913.488 773.206,910.486 768.699,907.179C764.465,904.072 760.291,898.675 756.715,896.951C753.872,895.58 750.011,895.402 747.247,896.834C744.483,898.267 740.631,901.828 740.132,905.543C739.619,909.351 741.598,915.512 744.173,919.683C746.85,924.018 752.072,927.717 756.193,931.555C760.457,935.525 765.773,940.021 769.753,943.503C773.179,946.502 777.332,950.113 780.073,952.451C782.09,954.172 784.196,956.127 786.197,957.532C788.043,958.829 790.774,959.042 792.077,960.883C793.723,963.209 795.65,967.734 796.072,971.488C796.62,976.359 795.92,984.167 795.364,990.11C794.828,995.832 793.172,1001.84 792.734,1007.15C792.328,1012.07 791.808,1017.11 792.734,1021.95C793.78,1027.43 797.147,1034.68 799.012,1040C800.635,1044.63 803.548,1050.6 803.926,1053.88C804.169,1055.99 802.766,1058.16 801.277,1059.67C799.224,1061.76 794.208,1063.46 791.614,1066.41C788.398,1070.06 783.925,1075.91 781.981,1081.58C780.009,1087.33 779.897,1094.42 779.783,1100.9C779.667,1107.52 779.616,1116.65 781.282,1121.28C782.555,1124.83 787.859,1126.27 789.781,1128.72C791.401,1130.78 794.532,1134.4 792.817,1135.98C791.102,1137.56 783.82,1139.3 779.49,1138.19C775.161,1137.08 769.589,1133.69 766.839,1129.34C763.743,1124.44 762.41,1115.51 760.92,1108.82C759.481,1102.36 758.395,1095.81 757.897,1089.21C757.347,1081.92 757.034,1072.33 757.62,1065.06C758.15,1058.47 759.558,1051.93 761.41,1045.59C763.438,1038.63 766.103,1029.76 769.79,1023.34C773.327,1017.17 780.434,1012.72 783.534,1007.04C786.475,1001.65 787.668,994.606 788.386,989.276C789.019,984.576 788.791,979.04 787.841,975.059C786.994,971.506 785.068,968.159 782.688,965.389C779.975,962.232 774.998,958.814 771.563,956.115C768.485,953.698 765.464,949.877 762.074,949.198C758.684,948.52 753.566,949.13 751.221,952.044C747.939,956.124 744.656,966.462 742.381,973.681C740.156,980.74 739.064,989.079 737.571,995.357C736.297,1000.72 734.556,1005.96 733.424,1011.35C731.934,1018.45 729.26,1030.62 728.629,1037.93C728.132,1043.69 728.879,1049.51 729.638,1055.23C730.504,1061.77 734.368,1073.06 733.827,1077.16C733.483,1079.77 728.905,1080.62 726.392,1079.83C723.657,1078.97 719.362,1075.46 717.417,1072C714.592,1066.97 711.751,1055.52 709.444,1049.68C707.729,1045.34 705.131,1041.37 703.573,1036.97C701.67,1031.6 700.659,1023.15 698.028,1017.44C695.526,1012.02 690.084,1007.02 687.783,1002.74C685.961,999.346 684.427,995.595 684.223,991.751Z" style="fill:rgb(227,192,164);"/>
                    </g>
                    <g id="Dark-Face-Shading" serif:id="Dark Face Shading">
                        <path d="M1655.2,1848.9C1652.55,1846.36 1647.23,1841.28 1647.07,1836.27C1646.7,1824.2 1651.78,1789.99 1652.97,1776.52C1653.58,1769.51 1653.63,1760.94 1654.17,1755.45C1654.57,1751.45 1654.6,1747.25 1656.24,1743.58C1659.06,1737.3 1665.59,1726.02 1671.06,1717.73C1680.5,1703.43 1700.38,1675.37 1712.89,1657.77C1723.8,1642.43 1736.23,1628.13 1746.14,1612.13C1756.64,1595.19 1766.95,1575.3 1775.88,1556.16C1785.01,1536.6 1794.55,1515.96 1800.89,1494.81C1807.44,1472.93 1812.05,1447.4 1815.21,1424.9C1818.24,1403.35 1818.58,1375.1 1819.85,1359.79C1820.59,1350.86 1821.16,1339.15 1822.81,1333.07C1823.85,1329.21 1826.93,1325.28 1829.74,1323.27C1832.49,1321.3 1836.29,1321.43 1839.65,1321C1848.13,1319.93 1870.98,1318.22 1880.63,1316.83C1886.38,1316 1892.69,1315.84 1897.54,1312.64C1905.89,1307.13 1921.03,1294.75 1930.74,1283.76C1942.42,1270.53 1957.89,1251.71 1967.63,1233.28C1978.06,1213.55 1986.03,1188.45 1993.33,1165.37C2000.78,1141.81 2008.3,1115.85 2012.35,1091.91C2016.26,1068.78 2018.82,1044.44 2017.61,1021.73C2016.41,999.331 2008.85,970.078 2005.09,955.615C2003.17,948.203 1998.49,939.713 1995.06,934.947C1992.5,931.383 1988.5,928.935 1984.55,927.02C1979.93,924.779 1971.17,923.532 1967.36,921.504C1964.78,920.132 1962.11,917.734 1961.65,914.847C1960.67,908.669 1960,894.462 1961.49,884.434C1963.01,874.255 1967.91,864.066 1970.73,853.771C1973.81,842.551 1977.36,829.445 1979.94,817.115C1983.16,801.76 1987.04,776.703 1990.06,761.643C1992.4,749.944 1998.05,738.683 1998.05,726.752C1998.04,712.008 1990.67,688.499 1990.01,673.181C1989.45,660.343 1995.59,646.808 1994.06,634.844C1992.55,622.955 1981.92,611.728 1980.86,601.4C1979.86,591.674 1986.99,582.63 1987.71,572.879C1988.61,560.608 1992.11,541.633 1986.25,527.778C1978.02,508.284 1948.71,472.427 1938.28,455.912C1932.77,447.203 1928.5,437.778 1923.65,428.689C1916.96,416.155 1905.39,391.097 1898.16,380.709C1893.79,374.432 1886.03,371.373 1880.26,366.361C1872.36,359.512 1858.28,346.649 1850.78,339.611C1845.45,334.61 1839.68,329.946 1835.25,324.134C1828.72,315.582 1822.15,297.994 1811.63,288.298C1797.99,275.723 1772.36,262.518 1753.39,248.683C1732.05,233.119 1703.06,210.364 1683.59,194.913C1667.64,182.264 1652.32,164.615 1636.57,155.978C1622.19,148.092 1603.35,148.247 1589.09,143.088C1575.87,138.309 1564.65,128.344 1550.99,125.028C1531.84,120.377 1498.33,120.024 1474.16,115.181C1451,110.542 1429.57,96.384 1405.96,95.973C1374.03,95.418 1307.25,109.449 1282.6,111.852C1274.44,112.648 1266.18,109.319 1258.05,110.392C1246.57,111.91 1228.11,118.535 1213.67,120.958C1199.74,123.299 1185.15,121.41 1171.46,124.932C1154.36,129.331 1130.49,138.156 1111.09,147.355C1089.17,157.75 1057.62,178.176 1039.95,187.307C1028.73,193.108 1012.95,199.129 1005.07,202.14C1005.07,202.14 1281.71,376.03 1363.26,432.537C1409.9,464.859 1456.2,521.539 1494.34,541.177C1523.43,556.159 1560.06,543.606 1592.08,550.367C1625.4,557.403 1667.62,569.698 1694.26,583.394C1716.73,594.941 1738.63,616.252 1751.95,632.539C1763.22,646.323 1771.08,663.578 1774.19,681.113C1777.74,701.137 1776.52,729.052 1773.23,752.683C1769.53,779.289 1761.41,819.2 1751.95,840.747C1744.66,857.346 1731.52,874.001 1716.47,881.964C1701.41,889.927 1679.72,885.146 1661.62,888.526C1639,892.75 1606.13,902.318 1580.73,907.312C1557.07,911.966 1529.22,910.856 1509.25,918.492C1490.72,925.573 1473.98,940.944 1460.86,953.128C1448.89,964.241 1436.17,976.274 1430.52,991.596C1423.78,1009.88 1420.74,1040.8 1420.42,1062.85C1420.12,1083.38 1427.22,1105.73 1428.58,1123.91C1429.77,1139.88 1426.87,1157.39 1428.58,1171.95C1430.15,1185.39 1433.95,1198.6 1438.79,1211.24C1443.77,1224.24 1452.77,1236.67 1458.46,1250C1464.63,1264.46 1475.38,1284.44 1475.83,1297.98C1476.23,1310.08 1467.98,1321.21 1461.16,1331.22C1453.12,1343 1439.66,1357.88 1427.62,1368.66C1415.88,1379.18 1398.72,1389.9 1388.95,1395.91C1382.76,1399.72 1375.05,1402.76 1369.03,1404.75C1363.8,1406.48 1354.71,1402.7 1352.82,1407.87C1350.1,1415.33 1354.83,1439.3 1352.67,1449.55C1351.05,1457.25 1338.81,1465.86 1339.85,1469.36C1340.88,1472.85 1352.52,1470.75 1358.87,1470.5C1368.22,1470.12 1384.91,1467.93 1395.92,1467.11C1405.6,1466.39 1417.95,1464.55 1424.99,1465.59C1430.03,1466.33 1437.56,1468.27 1438.15,1473.33C1438.78,1478.61 1434.8,1491.2 1428.73,1497.26C1422.53,1503.45 1410.73,1507.32 1400.98,1510.45C1389.41,1514.18 1370.91,1518.9 1359.28,1519.59C1349.79,1520.16 1340.54,1516.35 1331.19,1514.63C1319.17,1512.43 1301.76,1509.5 1287.17,1506.35C1272.2,1503.11 1256.75,1498.39 1241.36,1495.23C1225.19,1491.9 1204.56,1489.02 1190.14,1486.39C1178.36,1484.25 1166.72,1481.22 1154.87,1479.46C1142.58,1477.63 1125.81,1478.93 1116.37,1475.41C1108.59,1472.52 1104.61,1459.81 1098.23,1458.35C1091.85,1456.89 1081.7,1460.36 1078.11,1466.66C1073.57,1474.62 1070.06,1498.02 1071,1506.1C1071.6,1511.28 1078.81,1516.6 1083.75,1515.14C1088.69,1513.68 1093.58,1498.68 1100.64,1497.33C1107.7,1495.97 1118.6,1502.29 1126.11,1507.01C1133.61,1511.74 1138.36,1520.39 1145.64,1525.69C1153.04,1531.08 1162.23,1534.74 1170.49,1539.34C1179.1,1544.13 1188.05,1550.01 1197.3,1554.45C1206.59,1558.91 1216.54,1562.36 1226.25,1566.09C1239.21,1571.08 1262.68,1580.47 1275.08,1584.37C1283.35,1586.97 1292.04,1588.03 1300.6,1589.48C1311.22,1591.28 1326.97,1594.29 1338.8,1595.18C1349.7,1596.01 1363.23,1595.63 1371.59,1594.85C1377.53,1594.3 1383.05,1591.39 1388.95,1590.54C1396,1589.51 1405.59,1589.56 1413.88,1588.72C1422.98,1587.81 1433.74,1586.61 1443.6,1585.05C1454.58,1583.31 1469.38,1579.88 1479.75,1578.29C1488.37,1576.98 1498.64,1574.45 1505.77,1575.56C1512.08,1576.55 1517.62,1580.82 1522.48,1584.97C1527.78,1589.49 1538.91,1595.2 1537.55,1602.68C1536.18,1610.16 1520.58,1621.94 1514.31,1629.83C1509.16,1636.3 1505.12,1643.6 1499.93,1650.03C1493.55,1657.93 1486.29,1670.88 1476.02,1677.23C1465.7,1683.6 1449.3,1684.26 1438.01,1688.3C1427.81,1691.95 1409.99,1697.17 1408.28,1701.46C1406.57,1705.76 1420.37,1711.8 1427.77,1714.07C1439.77,1717.75 1463.87,1726.4 1480.31,1723.59C1496.74,1720.77 1514.95,1710.67 1526.37,1697.15C1539.29,1681.86 1549.64,1650.63 1557.81,1631.82C1564.54,1616.32 1569.66,1598.1 1575.37,1584.28C1580.35,1572.23 1584.92,1559.8 1592.07,1548.9C1600.19,1536.53 1618.08,1524.3 1624.08,1510.04C1630.08,1495.78 1625.65,1475.5 1628.06,1463.32C1629.9,1454.06 1636.54,1446.23 1638.53,1437C1640.96,1425.73 1646.78,1407.84 1642.64,1395.69C1638.51,1383.54 1622.83,1375.11 1613.74,1364.1C1600.88,1348.52 1580.67,1322.62 1565.5,1302.19C1550.74,1282.32 1532.9,1256.26 1522.71,1241.51C1516.39,1232.36 1507.4,1224.36 1504.33,1213.68C1499.92,1198.28 1495.74,1166.16 1496.23,1149.14C1496.6,1136.09 1507.04,1122.38 1507.24,1111.57C1507.41,1101.9 1496.66,1093.92 1497.41,1084.28C1498.24,1073.62 1505.09,1054.49 1512.21,1047.6C1518.99,1041.04 1530.89,1041.08 1540.14,1042.95C1550.4,1045.03 1562.24,1055.03 1573.76,1060.07C1586.68,1065.71 1603.4,1070.72 1617.64,1076.8C1631.75,1082.82 1644.65,1092.37 1659.22,1096.54C1673.78,1100.7 1692.18,1096.88 1705.01,1101.77C1717.29,1106.45 1727.05,1116.44 1736.19,1125.88C1746.41,1136.43 1759.59,1154.28 1766.34,1165.07C1771.21,1172.85 1776.98,1181.42 1776.68,1190.59C1776.34,1201.28 1766.54,1215.89 1764.28,1229.23C1761.57,1245.21 1761.3,1272.18 1760.43,1286.48C1759.84,1296 1762.93,1306.66 1759.02,1315.05C1755.11,1323.43 1741.26,1327.42 1736.96,1336.81C1731.46,1348.82 1729.24,1373.38 1726.04,1387.09C1723.53,1397.83 1719.59,1408.23 1717.72,1419.09C1715.6,1431.39 1715.77,1447.07 1713.32,1460.85C1710.55,1476.47 1706.38,1496.88 1701.08,1512.82C1696.04,1527.94 1686.82,1541.42 1681.5,1556.44C1675.33,1573.85 1671.05,1600.61 1664.06,1617.28C1658.09,1631.49 1647.01,1643.25 1639.53,1656.46C1632.14,1669.5 1627.01,1683.78 1619.17,1696.55C1610.71,1710.33 1597.31,1728.75 1588.8,1739.13C1582.76,1746.5 1573.9,1751.29 1568.12,1758.86C1560.88,1768.36 1553.87,1784.3 1545.38,1796.11C1535.34,1810.07 1520.32,1829.85 1507.9,1842.63C1496.81,1854.05 1483.04,1864.25 1470.88,1872.82C1459.5,1880.84 1447.17,1887.44 1434.92,1894.04C1420.25,1901.94 1399.06,1915.64 1382.88,1920.21C1368.42,1924.29 1352.29,1920.96 1337.83,1921.42C1323.91,1921.87 1310,1923.52 1296.09,1922.99C1281.45,1922.43 1265.23,1920.7 1250,1918.08C1232.08,1915 1207.37,1912.96 1188.57,1904.5C1169.78,1896.05 1152.72,1877.14 1137.23,1867.35C1124.02,1859.01 1109.13,1853.61 1095.61,1845.78C1081.56,1837.63 1054.69,1816.36 1052.9,1818.5C1051.11,1820.63 1072.52,1846.76 1084.87,1858.58C1098.81,1871.91 1118.45,1886.42 1136.54,1898.53C1155.58,1911.26 1177.6,1923.96 1199.06,1934.96C1221.32,1946.38 1247.79,1956.89 1270.11,1967.03C1291.09,1976.55 1315.59,1987.77 1332.98,1995.76C1346.83,2002.12 1361.86,2006.42 1374.48,2014.97C1388.21,2024.26 1411.66,2037.86 1415.36,2051.53C1419.07,2065.19 1405.41,2083.1 1396.7,2096.97C1387.13,2112.22 1370.2,2127.16 1357.9,2143.03C1344.88,2159.81 1322.16,2179.74 1318.61,2197.69C1315.07,2215.64 1327.12,2238.84 1336.64,2250.71C1345.63,2261.93 1361.99,2273.18 1375.71,2268.93C1395.4,2262.84 1438.74,2211.01 1454.78,2214.17C1470.81,2217.34 1472.53,2265.35 1471.92,2287.92C1471.34,2309.59 1444.19,2329.01 1451.12,2349.56C1458.62,2371.78 1488.86,2437.53 1516.91,2421.25C1568.45,2391.34 1725.04,2237.3 1760.37,2170.09C1784.46,2124.27 1746.61,2066.33 1728.88,2018.01C1711.16,1969.69 1673.08,1910.01 1654.04,1880.17" style="fill:rgb(200,161,129);"/>
                        <path d="M1025.09,1010.76C1024.6,1015.57 1044.92,1013.89 1054.92,1014.45C1065.4,1015.03 1077.45,1013.91 1087.99,1014.26C1098.06,1014.59 1108.21,1014.75 1118.12,1016.53C1128.31,1018.37 1138.38,1024.85 1149.11,1025.28C1160.3,1025.72 1175.85,1019.97 1185.3,1019.2C1192.12,1018.64 1199.28,1018.54 1205.79,1020.67C1212.5,1022.87 1218.39,1029.63 1225.54,1032.36C1234.08,1035.61 1251.96,1043.16 1256.98,1040.19C1262.01,1037.22 1258.59,1022.6 1255.69,1014.54C1252.59,1005.91 1245.92,995.605 1238.33,988.402C1230.07,980.549 1217.63,972.135 1206.08,967.425C1194.54,962.716 1180.92,960.549 1169.06,960.143C1157.58,959.75 1146.18,962.638 1134.94,964.992C1123.17,967.455 1110.61,971.672 1098.42,974.926C1085.58,978.355 1070.11,979.593 1057.89,985.565C1045.67,991.537 1025.59,1005.94 1025.09,1010.76Z" style="fill:rgb(177,138,105);"/>
                        <path d="M1005.07,919.12C1017.68,922.251 1045.65,913.469 1065.94,914.867C1088.1,916.393 1116.45,922.346 1137.99,928.276C1157.69,933.702 1177.28,945.144 1195.14,950.45C1211.44,955.286 1231.72,961.68 1245.2,960.107C1257.21,958.706 1273.66,948.771 1276.05,941.013C1278.44,933.255 1268.5,919.378 1259.55,913.559C1246.79,905.266 1218.13,896.872 1199.5,891.257C1182.6,886.162 1163.48,881.691 1147.77,879.872C1133.69,878.242 1118.87,880.267 1105.25,880.344C1092.19,880.418 1079.14,880.171 1066.08,880.334C1052.72,880.502 1037.72,878.724 1025.08,881.348C1012.74,883.911 993.579,889.784 990.242,896.079C986.906,902.375 996.202,916.92 1005.07,919.12Z" style="fill:rgb(177,138,105);"/>
                    </g>
                    <g id="Face-Highlights" serif:id="Face Highlights">
                        <path d="M1568.27,1231.18C1580.25,1252.13 1606.87,1310.74 1629.49,1315.53C1652.1,1320.31 1694.85,1289.02 1703.97,1259.88C1713.08,1230.75 1704.77,1159.97 1684.16,1140.74C1663.54,1121.51 1601.36,1136.33 1580.26,1144.51C1564.52,1150.61 1559.6,1175.37 1557.6,1189.81C1555.65,1203.91 1561.2,1218.82 1568.27,1231.18Z" style="fill:rgb(238,218,201);"/>
                        <path d="M1655.76,1507.54C1643.65,1521.83 1616.3,1550.66 1607.32,1563.31C1603.3,1568.98 1600.92,1576.56 1601.91,1583.44C1602.97,1590.76 1606.02,1606.67 1613.66,1607.27C1621.3,1607.87 1640.17,1597.86 1647.75,1587.04C1657.41,1573.25 1666.27,1542.77 1671.64,1524.52C1676.14,1509.27 1689.11,1479.48 1679.98,1477.56C1671.28,1475.73 1664.06,1497.74 1655.76,1507.54Z" style="fill:rgb(238,218,201);"/>
                    </g>
                    <g id="Face-Shadows" serif:id="Face Shadows">
                        <path d="M1451.46,1378.97C1458.6,1370.83 1469.8,1365.96 1479.57,1360.44C1490.09,1354.51 1507.34,1351.37 1514.57,1343.36C1521.75,1335.42 1521.92,1323.02 1522.98,1312.37C1524.2,1300.13 1519.16,1275.38 1521.89,1269.92C1524.63,1264.47 1535.07,1274.55 1539.37,1279.64C1545.3,1286.66 1551.03,1301.46 1557.46,1312.02C1564.9,1324.21 1577.06,1340.99 1583.97,1352.78C1589.61,1362.41 1598.6,1373.65 1598.9,1382.76C1599.21,1391.87 1594.41,1403.9 1585.8,1407.44C1573.22,1412.62 1542,1411.17 1523.46,1413.79C1507.01,1416.12 1488.04,1420.15 1474.51,1423.2C1463.64,1425.65 1448.58,1434.4 1442.28,1432.08C1435.98,1429.76 1435.39,1416.98 1436.72,1409.27C1438.25,1400.41 1444.32,1387.11 1451.46,1378.97Z" style="fill:rgb(177,138,105);"/>
                        <path d="M1974.29,1047.42C1976.07,1063.9 1980.68,1109.37 1968.43,1151.13C1953.79,1201.06 1921.89,1247.03 1925.33,1250C1935.83,1259.08 1963.84,1218.25 1980.23,1168.89C1995.67,1122.35 2009.55,1049.99 1998.05,993.341C1995.54,980.98 1988.64,962.495 1983.13,958.567C1977.62,954.638 1968.86,964.292 1964.96,969.769C1961.06,975.246 1958.86,984.054 1959.74,991.427C1961.3,1004.37 1972.14,1027.57 1974.29,1047.42Z" style="fill:rgb(177,138,105);"/>
                        <path d="M1860.66,1230.59C1867.26,1234.62 1902.93,1214.77 1919.18,1199.9C1936.35,1184.2 1956.26,1157.51 1963.68,1136.33C1970.67,1116.37 1967.57,1091.92 1963.68,1072.87C1959.95,1054.6 1948.92,1026.7 1940.33,1022.03C1931.74,1017.35 1916.44,1035.93 1912.13,1044.81C1907.83,1053.69 1913.72,1065.14 1914.5,1075.31C1915.32,1086.07 1916.65,1100.84 1917.07,1109.41C1917.36,1115.16 1918.8,1121.21 1917.03,1126.7C1913.97,1136.23 1904.92,1158.41 1898.67,1166.57C1894.39,1172.18 1883.18,1169.62 1879.57,1175.68C1873.24,1186.35 1854.06,1226.55 1860.66,1230.59Z" style="fill:rgb(177,138,105);"/>
                        <path d="M1438.92,1075.95C1435.87,1064.8 1435.81,1042.26 1439.89,1028.21C1443.92,1014.3 1453.88,1002.58 1463.37,991.635C1473.57,979.875 1488.46,967.956 1501.09,957.652C1513.28,947.714 1525.48,934.448 1539.16,929.808C1552.85,925.167 1568.54,930.209 1583.22,929.808C1598.2,929.399 1613.77,927.114 1629.08,927.352C1645.55,927.609 1665.37,930.577 1682.02,931.346C1697.67,932.069 1718.14,927.792 1729.02,931.968C1738.52,935.613 1745.56,949.664 1747.31,956.401C1748.8,962.139 1745.19,970.637 1739.52,972.39C1731.11,974.997 1711.04,972.501 1696.81,972.039C1679.17,971.468 1651.67,968.911 1633.69,968.959C1618.73,968.999 1601.49,969.229 1588.93,972.33C1577.87,975.061 1568.4,982.231 1558.33,987.564C1546.9,993.617 1530.54,999.31 1520.38,1008.65C1510.21,1017.98 1503.14,1032.49 1497.35,1043.58C1492.14,1053.55 1487.87,1066.03 1485.62,1075.21C1483.76,1082.82 1488.45,1095.33 1483.87,1098.65C1479.3,1101.97 1465.67,1098.91 1458.18,1095.12C1450.69,1091.34 1441.31,1084.69 1438.92,1075.95Z" style="fill:rgb(177,138,105);"/>
                    </g>
                    <path id="Hair" d="M1954.73,915.274C1956.96,904.988 1958.84,894.619 1961.49,884.434C1964.16,874.184 1967.91,864.066 1970.73,853.771C1973.81,842.551 1977.36,829.445 1979.94,817.115C1983.16,801.76 1987.04,776.703 1990.06,761.643C1992.4,749.944 1998.05,738.683 1998.05,726.752C1998.04,712.008 1990.67,688.499 1990.01,673.181C1989.45,660.343 1995.59,646.808 1994.06,634.844C1992.55,622.955 1981.92,611.728 1980.86,601.4C1979.86,591.674 1986.99,582.63 1987.71,572.879C1988.61,560.608 1992.11,541.633 1986.25,527.778C1978.02,508.284 1948.71,472.427 1938.28,455.912C1932.77,447.203 1928.5,437.778 1923.65,428.689C1916.96,416.155 1905.39,391.097 1898.16,380.709C1893.79,374.432 1886.03,371.373 1880.26,366.361C1872.36,359.512 1858.28,346.649 1850.78,339.611C1845.45,334.61 1839.68,329.946 1835.25,324.134C1828.72,315.582 1822.15,297.994 1811.63,288.298C1797.99,275.723 1772.36,262.518 1753.39,248.683C1732.05,233.119 1703.06,210.364 1683.59,194.913C1667.64,182.264 1652.32,164.615 1636.57,155.978C1622.19,148.092 1603.35,148.247 1589.09,143.088C1575.87,138.309 1564.65,128.344 1550.99,125.028C1531.84,120.377 1498.33,120.024 1474.16,115.181C1451,110.542 1429.57,96.384 1405.96,95.973C1374.03,95.418 1307.25,109.449 1282.6,111.852C1274.44,112.648 1266.18,109.319 1258.05,110.392C1246.57,111.91 1228.11,118.535 1213.67,120.958C1199.74,123.299 1185.15,121.41 1171.46,124.932C1154.36,129.331 1130.49,138.156 1111.09,147.355C1089.17,157.75 1057.62,178.176 1039.95,187.307C1028.73,193.108 1015.71,195.335 1005.07,202.14C992.813,209.969 975.996,227.228 966.44,234.284C960.727,238.503 953.21,239.96 947.73,244.478C935.148,254.854 908.858,278.136 890.946,296.536C871.607,316.402 846.695,344.016 831.698,363.674C819.692,379.412 809.221,399.492 800.964,414.485C793.98,427.166 786.808,439.923 782.154,453.631C776.037,471.643 767.108,505.943 764.268,522.554C762.539,532.661 766.026,543.091 765.109,553.303C763.635,569.726 758.693,602.677 755.425,621.092C752.872,635.48 746.995,650.972 745.504,663.793C744.186,675.129 747.859,686.689 746.479,698.018C745.069,709.587 737.416,721.071 737.049,733.21C736.631,747.023 742.434,767.72 743.971,780.899C745.185,791.318 744.799,801.897 746.268,812.283C748.287,826.566 753.996,854.477 756.085,866.596C757.137,872.704 755.443,879.78 758.797,884.992C762.224,890.318 770.441,894.477 776.648,898.549C782.845,902.615 791.811,904.551 796.041,909.426C800.262,914.291 801.184,921.413 802.028,927.799C802.998,935.14 802.739,944.959 801.862,953.472C800.932,962.487 797.574,972.715 796.454,981.889C795.376,990.708 795.358,1000.62 795.139,1008.51C794.947,1015.43 793.287,1022.6 795.139,1029.26C797.193,1036.65 803.676,1046.54 807.466,1052.86C810.5,1057.91 814.89,1062.08 817.878,1067.16C820.892,1072.29 823.147,1078.07 825.551,1083.63C829.038,1091.69 827.633,1119.47 838.799,1115.53C845.699,1113.09 841.28,1080.52 844.379,1063.78C847.041,1049.4 846.293,1030.48 846.888,1020C847.25,1013.62 847.642,1007.24 847.948,1000.86C848.47,989.962 849.309,965.928 850.023,954.592C850.481,947.321 850.886,940.009 852.229,932.849C853.855,924.181 857.772,912.787 859.778,902.586C862.092,890.819 864.386,873.736 866.111,862.249C867.541,852.734 869.132,843.235 870.132,833.666C871.182,823.618 870.379,811.584 872.412,801.958C874.332,792.866 879.351,784.707 882.33,775.905C885.64,766.124 890.345,753.67 892.272,743.271C894.082,733.502 893.02,723.407 893.891,713.51C894.886,702.2 896.673,688.096 898.242,675.409C899.863,662.308 901.798,647.314 903.615,634.902C905.277,623.552 907.561,611.628 909.145,600.936C910.632,590.897 910.376,580.522 913.116,570.75C916.096,560.123 922.027,543.989 927.024,537.178C930.504,532.434 937.216,529.665 943.095,529.883C950.069,530.141 959.793,539.034 968.872,538.728C981.835,538.29 1005.15,530.658 1020.87,527.259C1034.96,524.211 1051.29,522.125 1063.2,518.331C1073.44,515.069 1082.11,507.832 1092.33,504.498C1102.93,501.037 1116.31,498.572 1126.84,497.566C1136.35,496.658 1145.99,499.582 1155.47,498.463C1167.97,496.987 1190.61,493.292 1201.82,488.715C1210.27,485.263 1213.9,473.425 1222.7,471.003C1233.65,467.99 1256.64,468.467 1267.49,470.637C1275.45,472.228 1280.49,480.524 1287.81,484.026C1298.05,488.929 1317.23,495.927 1328.96,500.056C1338.56,503.434 1348.06,508.076 1358.21,508.799C1370.85,509.7 1389.62,506.371 1404.81,505.459C1419.66,504.568 1439.44,503.682 1449.38,503.326C1454.4,503.147 1459.44,503.206 1464.46,503.326C1472.2,503.512 1486.69,500.763 1495.82,504.442C1504.96,508.12 1509.47,521.672 1519.27,525.397C1531.36,529.993 1552.57,531.267 1568.35,532.018C1583.54,532.742 1599.86,533.015 1613.92,529.904C1627.65,526.866 1639.45,518.025 1652.71,513.352C1667.49,508.143 1690.37,501.1 1702.59,498.65C1710.25,497.114 1719.03,495.162 1726.03,498.65C1734.34,502.798 1742.97,516.023 1752.46,523.535C1762.99,531.875 1778.08,539.398 1789.23,548.693C1800.22,557.858 1811.95,567.044 1819.33,579.302C1826.74,591.593 1829.35,607.925 1833.66,622.438C1837.98,636.95 1842.02,651.576 1845.23,666.377C1848.58,681.853 1851.77,698.864 1853.79,715.293C1856.48,737.087 1859.56,773.891 1861.35,797.14C1862.83,816.328 1862.38,838.603 1864.53,854.788C1866.31,868.218 1872.76,880.785 1874.26,894.249C1875.88,908.741 1874.19,926.662 1874.26,941.739C1874.33,956.063 1874.61,970.386 1874.68,984.71C1874.75,1000.11 1870.5,1018.2 1874.68,1034.13C1886.02,1077.32 1863.01,1120.69 1876.67,1126.2C1889.25,1131.28 1917.06,1049.63 1916.22,1020.58C1915.73,1003.5 1937,985.521 1943.42,967.97C1949.59,951.098 1951.72,929.196 1954.73,915.274Z" style="fill:rgb(79,79,79);"/>
                    <g id="Mouth">
                        <path d="M1578.78,1523.97C1588.03,1515.16 1603.8,1499.02 1601.69,1493.24C1599.58,1487.46 1578.03,1488.54 1566.12,1489.31C1547.97,1490.5 1509.61,1497.39 1492.78,1500.33C1483.44,1501.96 1474.31,1504.62 1465.12,1506.93C1449.56,1510.85 1417.75,1520.26 1399.42,1523.83C1384.84,1526.66 1369.93,1529.02 1355.1,1528.34C1338.26,1527.57 1317.32,1521.94 1298.36,1519.19C1279.16,1516.4 1259.16,1515.41 1239.87,1511.6C1219.57,1507.59 1193.32,1499.55 1176.61,1495.16C1164.24,1491.9 1149.05,1486.94 1139.55,1485.23C1133.01,1484.05 1120.15,1481.59 1119.61,1484.87C1119.07,1488.15 1130.38,1498.56 1136.32,1504.92C1142.77,1511.83 1149.98,1520.42 1158.33,1526.35C1168.24,1533.4 1182.88,1541.27 1195.8,1547.21C1208.72,1553.16 1222.36,1557.46 1235.85,1562.02C1250.28,1566.9 1266.33,1573.93 1282.36,1576.48C1304.38,1580 1344.93,1582.41 1367.97,1583.09C1385.52,1583.62 1403.15,1582.64 1420.59,1580.61C1439.42,1578.42 1466.22,1573.5 1480.92,1569.97C1490.58,1567.65 1499.44,1562.76 1508.81,1559.45C1519.47,1555.68 1533.6,1553.11 1544.91,1547.37C1556.58,1541.46 1569.31,1533 1578.78,1523.97Z" style="fill:rgb(118,118,118);"/>
                        <path d="M1460.99,1572.57C1460.22,1570.35 1458.88,1563.76 1455.23,1562.89C1450.48,1561.77 1438.34,1565.59 1432.5,1565.84C1428.36,1566.02 1424.13,1564.5 1420.16,1564.41C1416.33,1564.32 1412.52,1565.07 1408.69,1565.28C1403.24,1565.58 1394.54,1566.24 1387.46,1566.2C1378.43,1566.14 1363.89,1565.15 1354.54,1564.94C1346.81,1564.77 1339.07,1565.38 1331.35,1564.94C1321.98,1564.41 1306.35,1562.64 1298.34,1561.76C1293.31,1561.21 1288.32,1560.27 1283.3,1559.67C1275.24,1558.72 1256.81,1556.61 1250,1556.02C1247.49,1555.8 1244.93,1555.7 1242.44,1556.11C1239.66,1556.56 1236.1,1560.25 1233.31,1558.74C1229.72,1556.8 1225.63,1546.7 1220.89,1544.44C1216.15,1542.18 1209.29,1543.78 1204.88,1545.18C1200.76,1546.49 1191.69,1549.92 1194.42,1552.85C1197.15,1555.77 1214.88,1560.15 1221.28,1562.71C1225.24,1564.29 1228.91,1566.51 1232.83,1568.19C1238.09,1570.45 1246.12,1573.64 1252.81,1576.26C1259.58,1578.91 1266.46,1581.84 1273.47,1584.1C1281.24,1586.6 1290.62,1589.42 1299.39,1591.27C1309.04,1593.3 1320.6,1595.41 1331.35,1596.3C1343.34,1597.29 1359.54,1597.73 1371.32,1597.24C1381.62,1596.81 1391.91,1595.41 1402.02,1593.37C1412.94,1591.15 1427.19,1586.83 1436.84,1583.97C1444.6,1581.67 1455.85,1578.14 1459.87,1576.24C1461.03,1575.69 1461.41,1573.78 1460.99,1572.57Z" style="fill:rgb(208,208,208);"/>
                        <path d="M1157.81,1526.6C1159.69,1527.38 1164.4,1526.11 1166.22,1526.6C1167.47,1526.94 1168.47,1528.29 1168.74,1529.55C1169.15,1531.51 1167.56,1536.24 1168.7,1538.36C1169.84,1540.48 1173.17,1541.22 1175.6,1542.27C1178.09,1543.35 1180.95,1545.62 1183.66,1544.83C1186.6,1543.98 1191.15,1538.64 1193.24,1537.16C1194.1,1536.55 1195.37,1535.29 1196.16,1535.98C1197.38,1537.03 1199.15,1540.97 1200.56,1543.51C1202.3,1546.65 1204.63,1552.21 1206.58,1554.81C1208,1556.71 1209.9,1558.81 1212.26,1559.11C1215.09,1559.48 1220.11,1558.65 1223.57,1556.99C1227.68,1555.03 1234.18,1549.37 1236.93,1547.32C1238.02,1546.5 1239.06,1544.29 1240.06,1544.65C1241.06,1545.02 1242.07,1547.91 1242.91,1549.48C1243.71,1550.99 1243.9,1552.9 1245.11,1554.11C1247.65,1556.69 1254.09,1562.53 1258.18,1564.93C1261.65,1566.96 1265.66,1568.59 1269.68,1568.54C1273.9,1568.49 1280.2,1566.07 1283.51,1564.62C1285.86,1563.59 1287.9,1559.51 1289.51,1559.81C1291.12,1560.12 1291.61,1564.45 1293.16,1566.44C1295.08,1568.91 1297.5,1573.31 1301.06,1574.66C1305.75,1576.43 1314.5,1576.78 1321.28,1577.08C1329.12,1577.42 1342.99,1578.13 1348.11,1576.71C1351.01,1575.9 1351.02,1568.87 1351.97,1568.56C1352.93,1568.26 1351.98,1573.73 1353.86,1574.87C1355.81,1576.06 1360.43,1575.41 1363.71,1575.71C1367.47,1576.05 1372.19,1576.53 1376.43,1576.89C1382.21,1577.38 1393.27,1579.94 1398.39,1578.65C1402.56,1577.6 1405.08,1572.39 1407.13,1569.15C1409.01,1566.19 1409.46,1560.5 1410.69,1559.25C1411.74,1558.18 1413.42,1560.62 1414.51,1561.66C1416.36,1563.42 1418.39,1568.44 1421.75,1569.83C1425.33,1571.31 1431.32,1571.45 1435.99,1570.55C1440.79,1569.63 1447.18,1566.68 1450.55,1564.29C1453.23,1562.38 1454.39,1557.01 1456.19,1556.18C1457.99,1555.35 1459.89,1557.92 1461.33,1559.32C1463.59,1561.51 1467,1567.34 1469.76,1569.35C1472.01,1570.98 1475.14,1571.94 1477.86,1571.35C1480.87,1570.69 1485.08,1568.13 1487.82,1565.41C1490.57,1562.7 1492.26,1556.04 1494.31,1555.07C1496.36,1554.1 1497.68,1559.35 1500.12,1559.6C1502.99,1559.88 1508.35,1559.11 1511.49,1556.78C1514.78,1554.33 1517.88,1549.34 1519.87,1544.93C1522.08,1540 1523.97,1533.08 1524.78,1527.22C1525.57,1521.47 1525.18,1514.36 1524.71,1509.8C1524.36,1506.37 1524.45,1500.34 1521.96,1499.84C1519.48,1499.35 1512.64,1504.83 1509.82,1506.83C1507.92,1508.17 1507.22,1512.49 1504.99,1511.85C1501.98,1510.99 1495.91,1503.36 1491.75,1501.65C1488.13,1500.16 1483.71,1500.51 1480.01,1501.59C1476.3,1502.68 1472.66,1505.76 1469.53,1508.17C1466.51,1510.49 1463.61,1515.94 1461.21,1516.02C1458.82,1516.11 1458.22,1509.56 1455.17,1508.68C1451.61,1507.65 1444.7,1508.6 1439.88,1509.86C1435.05,1511.12 1429.92,1513.69 1426.2,1516.23C1422.81,1518.54 1419.95,1525.22 1417.6,1525.06C1415.25,1524.9 1415.33,1515.85 1412.1,1515.28C1408.88,1514.72 1402.69,1520.67 1398.24,1521.65C1394.06,1522.58 1389.67,1520.88 1385.4,1521.2C1379.8,1521.61 1369.41,1523.62 1364.69,1524.1C1362.16,1524.36 1358.82,1523.67 1357.06,1524.1C1355.79,1524.41 1355.43,1526.72 1354.13,1526.7C1352.75,1526.68 1350.68,1524.6 1348.78,1523.97C1343.96,1522.37 1332.98,1519.55 1325.22,1517.12C1317.51,1514.7 1307.31,1510.5 1302.25,1509.38C1299.83,1508.84 1296.92,1509.16 1294.87,1510.42C1292.82,1511.69 1292.23,1516.8 1289.97,1516.96C1287.7,1517.13 1284.09,1513.38 1281.29,1511.39C1277.77,1508.88 1273.35,1504.11 1268.81,1501.89C1264.27,1499.68 1257.88,1497.83 1254.05,1498.12C1250.76,1498.38 1247.86,1501.05 1245.83,1503.65C1243.61,1506.48 1242.83,1515.43 1240.76,1515.12C1238.7,1514.82 1236.01,1505.62 1233.45,1501.81C1231.12,1498.35 1229.07,1494.2 1225.38,1492.26C1221.58,1490.26 1215.09,1490.13 1210.63,1489.82C1206.62,1489.55 1200.7,1489.18 1198.59,1490.41C1196.63,1491.55 1198.75,1495.63 1197.97,1497.18C1197.27,1498.6 1195.37,1500.42 1193.96,1499.7C1192.38,1498.88 1190.95,1494.08 1188.45,1492.27C1185.01,1489.76 1176.99,1485.34 1173.27,1484.68C1170.65,1484.21 1168.77,1488.53 1166.14,1488.31C1163.52,1488.08 1160.78,1483.97 1157.52,1483.32C1152.99,1482.42 1142,1481.24 1138.96,1482.89C1135.92,1484.55 1138.32,1489.93 1139.26,1493.25C1140.49,1497.64 1143.71,1504.41 1146.33,1509.2C1148.79,1513.7 1153.03,1519.06 1154.94,1521.96C1155.95,1523.48 1156.13,1525.91 1157.81,1526.6Z" style="fill:rgb(242,242,242);"/>
                    </g>
                    <g id="Eyes">
                        <path d="M1066.25,1004.35C1072.46,1004.01 1090.07,993.774 1096.74,993.35C1100.98,993.08 1103.11,998.986 1106.29,1001.81C1109.85,1004.97 1113.11,1010.61 1118.09,1012.3C1125.99,1014.98 1144.22,1019.99 1153.67,1017.89C1162.75,1015.87 1169.41,1001.52 1174.82,999.686C1179.06,998.253 1181.73,1007.7 1186.13,1006.91C1190.65,1006.09 1202.84,998.895 1201.99,994.788C1201.14,990.681 1188.71,984.946 1181.03,982.263C1171.11,978.8 1154.28,974.314 1142.47,974.012C1131.49,973.732 1120.8,977.714 1110.16,980.452C1096.33,984.013 1066.8,991.398 1059.48,995.381C1056.19,997.172 1062.51,1004.56 1066.25,1004.35Z" style="fill:rgb(79,79,79);"/>
                        <g transform="matrix(1.65228,0,0,1.65228,-748.789,-643.043)">
                            <path d="M1133.84,987.762C1134.14,990.198 1136.34,996.903 1138.17,998.096C1140.01,999.289 1144.14,997.279 1144.83,994.919C1145.64,992.142 1144.43,983.344 1143.02,981.436C1141.63,979.566 1137.86,982.421 1136.33,983.475C1134.97,984.413 1133.63,986.121 1133.84,987.762Z" style="fill:rgb(213,213,212);"/>
                        </g>
                        <path d="M1538.64,1040.58C1546.04,1042.88 1566.04,1044.09 1578.28,1043.91C1589.64,1043.75 1602.08,1040.01 1612.08,1039.53C1620.83,1039.1 1629.99,1038.27 1638.31,1041.02C1648.19,1044.29 1661.17,1054.71 1671.41,1059.13C1680.46,1063.03 1690.57,1066.73 1699.75,1067.54C1708.7,1068.32 1725.45,1067.58 1726.46,1063.94C1727.47,1060.31 1712.92,1050.47 1705.78,1045.72C1699,1041.21 1690.77,1039.35 1683.63,1035.45C1675.3,1030.89 1664.83,1022.51 1655.79,1018.39C1647.45,1014.59 1638.27,1012.98 1629.38,1010.73C1620.18,1008.4 1610.17,1005.74 1600.59,1004.41C1591.09,1003.09 1580.41,1002.73 1571.87,1002.74C1564.35,1002.74 1555.72,1002.63 1549.37,1004.46C1543.57,1006.13 1536.37,1009.43 1533.79,1013.7C1531.2,1017.98 1533.06,1025.61 1533.87,1030.09C1534.55,1033.87 1534.97,1039.44 1538.64,1040.58Z" style="fill:rgb(79,79,79);"/>
                        <g transform="matrix(1.50639,0,0,1.50639,-789.789,-515.128)">
                            <path d="M1553.92,1016.92C1554.27,1019.16 1557.96,1023.73 1559.77,1024.67C1561.4,1025.51 1564.17,1024.24 1564.82,1022.54C1565.51,1020.71 1565.14,1015.59 1563.95,1013.7C1562.76,1011.82 1559.34,1010.69 1557.67,1011.22C1556,1011.76 1553.57,1014.68 1553.92,1016.92Z" style="fill:rgb(213,213,212);"/>
                        </g>
                    </g>
                    <path id="Shirt" d="M117.543,2227.26C158.195,2206.76 207.303,2181.12 241.727,2164.32C285.183,2143.1 335.477,2116.93 372.968,2102.5C403.118,2090.9 438.365,2088.34 466.672,2077.75C493.349,2067.77 524.394,2047.3 542.809,2038.96C553.784,2033.99 565.929,2032.08 577.161,2027.72C589.668,2022.87 603.68,2014.17 617.849,2009.85C632.363,2005.42 652.804,2011.98 664.24,2001.18C687.404,1979.3 731.382,1916.97 756.834,1878.56C779.566,1844.26 795.43,1791.45 816.948,1770.72C833.98,1754.32 885.942,1754.2 885.942,1754.2C885.942,1754.2 876.694,1809.97 873.094,1834.19C869.864,1855.93 864.345,1899.54 864.345,1899.54C864.345,1899.54 858.384,1949.31 856.875,1965.18C855.941,1975.02 854.208,1985.96 855.295,1994.78C856.301,2002.94 859.513,2010.83 863.397,2018.07C869.745,2029.92 884.541,2053.05 893.387,2065.84C900.41,2076 909.228,2085.61 916.472,2094.81C923.324,2103.51 930.124,2112.26 936.851,2121.06C943.809,2130.17 952.019,2141.27 958.22,2149.44C963.46,2156.34 969.236,2163.5 974.054,2170.06C978.562,2176.2 982.863,2182.83 987.127,2188.79C991.228,2194.52 996.324,2201.09 999.639,2205.84C1002.24,2209.56 1004.59,2213.45 1007.02,2217.28C1011.01,2223.58 1019.94,2237.26 1023.57,2243.63C1025.7,2247.38 1025.09,2253.21 1028.75,2255.49C1032.85,2258.06 1041.63,2258.38 1048.18,2259.01C1054.75,2259.65 1061.54,2258.49 1068.14,2259.31C1075.52,2260.23 1085.02,2262.41 1092.46,2264.55C1099.41,2266.55 1106.49,2268.57 1112.77,2272.13C1120.55,2276.55 1132.42,2284.34 1139.14,2291.03C1145.15,2297 1149.19,2304.76 1153.12,2312.26C1157.42,2320.46 1161.79,2331.76 1164.94,2340.25C1167.73,2347.75 1168.93,2355.96 1172.05,2363.18C1175.16,2370.36 1180.14,2376.58 1183.69,2383.56C1188.26,2392.58 1194.72,2407.28 1199.52,2417.29C1203.76,2426.12 1209.36,2436.49 1212.51,2443.64C1214.88,2449.02 1216.19,2454.82 1218.45,2460.24C1220.77,2465.8 1224.36,2471.77 1226.43,2476.97C1228.29,2481.68 1229.55,2487.65 1230.83,2491.49C1231.79,2494.37 1234.1,2500 1234.1,2500L1269.74,2645.97L1307.58,2500C1307.58,2500 1315.8,2490.3 1319.15,2485.98C1322.14,2482.11 1324.64,2477.87 1327.69,2474.05C1331.41,2469.37 1338.44,2462.06 1341.51,2457.89C1343.48,2455.22 1345.37,2452.3 1346.11,2449.07C1346.88,2445.7 1344.89,2441.27 1346.11,2437.67C1347.62,2433.21 1352.5,2426.88 1355.17,2422.31C1357.51,2418.31 1360.13,2414.45 1362.13,2410.26C1364.31,2405.7 1366.78,2399.71 1368.26,2394.93C1369.61,2390.6 1367.59,2384.55 1371.04,2381.6C1374.79,2378.39 1384.27,2377.84 1390.79,2375.65C1399.46,2372.73 1412.94,2367.81 1423.12,2364.09C1432.72,2360.58 1445.3,2356.69 1451.84,2353.3C1456.05,2351.13 1458.64,2346.69 1462.39,2343.79C1466.4,2340.69 1471.61,2337.74 1475.92,2334.69C1480.1,2331.72 1484.45,2328.93 1488.25,2325.48C1493.5,2320.72 1503.12,2312.65 1507.4,2306.14C1511.2,2300.35 1511.18,2292.49 1513.91,2286.42C1516.56,2280.51 1519.79,2274.78 1523.79,2269.68C1528.39,2263.8 1536.26,2257.91 1541.53,2251.19C1547.38,2243.73 1553.7,2233.56 1558.86,2224.91C1563.81,2216.61 1567.93,2207.82 1572.47,2199.31C1577,2190.81 1580.99,2182.01 1586.08,2173.84C1591.89,2164.51 1601.94,2150.51 1607.34,2143.37C1610.69,2138.95 1615.63,2135.77 1618.49,2131.03C1622.15,2124.96 1625.43,2114.86 1629.28,2106.96C1634.31,2096.65 1644.66,2079.97 1648.65,2069.19C1651.82,2060.64 1652.84,2051.35 1653.25,2042.24C1653.83,2029.37 1652.69,2006.57 1652.15,1991.94C1651.69,1979.44 1650.68,1966.97 1650.04,1954.48C1649.37,1941.29 1648.48,1926.73 1648.1,1912.84C1647.59,1893.72 1645.77,1850.42 1646.95,1839.76C1647.41,1835.68 1653.83,1847.38 1655.2,1848.9C1666.21,1870.45 1707.83,1954.7 1721.24,1978.2C1724.31,1983.58 1730.55,1986.8 1735.69,1989.88C1740.76,1992.92 1746.6,1994.45 1752.07,1996.69C1760.15,2000 1775.1,2006.02 1784.14,2009.73C1791.55,2012.77 1799,2015.72 1806.34,2018.95C1813.83,2022.24 1822.6,2026.04 1829.13,2029.5C1834.81,2032.52 1839.4,2037.68 1845.5,2039.74C1853.85,2042.55 1868.18,2043.33 1879.23,2046.38C1900.46,2052.26 1945.58,2064.48 1972.91,2074.97C1997.26,2084.31 2023.86,2100.05 2043.22,2109.32C2058.43,2116.59 2074.55,2122.08 2089.11,2130.59C2113.49,2144.82 2158.64,2178.38 2189.52,2194.75C2216.46,2209.03 2245.7,2218.56 2274.41,2228.8C2303.78,2239.28 2340.74,2249.32 2365.7,2257.58C2385.33,2264.08 2410.26,2272.8 2424.16,2278.39C2432.8,2281.87 2439.93,2289.27 2449.07,2291.09C2461.71,2293.61 2500,2293.49 2500,2293.49L2500,2338.77C2221.39,2659.52 1810.62,2862.45 1352.83,2862.45C844.014,2862.45 393.29,2611.76 117.543,2227.26Z" style="fill:rgb(49,174,181);"/>
                    <g id="Shirt-Shadows" serif:id="Shirt Shadows">
                        <path d="M864.345,1899.54L855.95,1998.72C855.95,1998.72 835.562,1900.98 840.486,1848.88C842.711,1825.33 832.353,1793.58 846.29,1778.16C858.281,1764.9 883.058,1771.71 883.058,1771.71L864.345,1899.54Z" style="fill:rgb(35,132,138);"/>
                        <path d="M778.557,2500C778.557,2500 812.461,2488.52 826.439,2484.82C838.254,2481.7 851,2482.14 862.427,2477.81C876.281,2472.55 895.037,2463.42 909.565,2453.29C925.634,2442.09 949.704,2422.2 958.837,2410.6C964.5,2403.41 963.459,2391.6 964.362,2383.69C965.138,2376.9 961.074,2366.69 964.255,2363.18C967.435,2359.67 978.559,2366.77 983.443,2362.64C991.042,2356.21 1008.18,2339.94 1009.85,2324.59C1011.56,2308.78 999.24,2277.54 993.736,2267.76C990.955,2262.82 981.186,2262.31 976.827,2265.94C966.055,2274.9 944.487,2303.11 929.107,2321.51C914.005,2339.58 899.924,2358.49 884.55,2376.33C868.241,2395.25 848.809,2418.56 831.25,2435.04C815.269,2450.05 794.882,2464.4 779.197,2475.23C765.808,2484.47 737.145,2500 737.145,2500L778.557,2500Z" style="fill:rgb(35,132,138);"/>
                        <path d="M1448.27,2500C1448.27,2500 1474.73,2472.98 1492.08,2467.57C1511.29,2461.57 1540.83,2471.32 1563.53,2464.01C1587.31,2456.36 1627.62,2437.46 1634.77,2421.62C1641.91,2405.78 1616.1,2386.4 1606.39,2368.99C1595.26,2349.05 1586.69,2304.69 1567.99,2301.99C1549.29,2299.29 1518.02,2337.51 1494.19,2352.8C1471.64,2367.26 1443.43,2381.64 1425.01,2393.7C1410.52,2403.17 1394.24,2411.41 1383.65,2425.11C1369.96,2442.83 1342.82,2500 1342.82,2500C1336.81,2605.64 1384.55,2585.93 1448.27,2500Z" style="fill:rgb(35,132,138);"/>
                        <path d="M1773.74,2074.27C1779.54,2110.03 1792.84,2189.36 1797.76,2231.88C1801.5,2264.22 1797.58,2301.21 1803.24,2329.39C1808.29,2354.55 1824.86,2405.52 1831.72,2400.93C1838.57,2396.34 1844.04,2329.43 1844.36,2301.86C1844.62,2279.46 1831.11,2252.54 1833.64,2235.51C1835.81,2220.94 1851.11,2210.66 1859.57,2199.71C1867.48,2189.46 1875.06,2169.89 1884.38,2169.82C1893.71,2169.74 1903.33,2197.93 1915.52,2199.25C1927.71,2200.56 1946.28,2188.7 1957.52,2177.69C1970.7,2164.79 1996.78,2137.63 1994.61,2121.83C1992.44,2106.04 1957.85,2081.36 1944.5,2082.93C1931.16,2084.49 1925.4,2124.81 1914.54,2131.2C1904.03,2137.39 1887.75,2130.09 1879.33,2121.27C1867.38,2108.75 1861.41,2072.66 1842.84,2056.07C1823.44,2038.74 1774.45,2014.25 1762.94,2017.29C1751.42,2020.32 1770.64,2055.19 1773.74,2074.27Z" style="fill:rgb(35,132,138);"/>
                    </g>
                    <path id="Button" d="M1048.6,2361.17C1052.98,2363.21 1057.85,2365.28 1062.8,2366.05C1068.29,2366.9 1076.21,2367.34 1081.52,2366.3C1086.33,2365.35 1091.6,2363.31 1094.69,2359.79C1097.78,2356.27 1099.55,2350.35 1100.06,2345.19C1100.6,2339.78 1100.14,2332.68 1097.93,2327.36C1095.72,2322.04 1091.55,2316.9 1086.79,2313.27C1081.61,2309.32 1073.24,2305.52 1066.86,2303.65C1060.97,2301.93 1053.55,2301.55 1048.51,2302.07C1044.29,2302.49 1039.9,2303.99 1036.65,2306.72C1033.28,2309.55 1030.25,2314.61 1028.28,2319.05C1026.3,2323.51 1024.71,2329.09 1024.81,2333.42C1024.91,2337.53 1026.95,2341.65 1028.9,2345.05C1030.82,2348.41 1033.51,2351.36 1036.51,2353.81C1039.79,2356.49 1044.32,2359.18 1048.6,2361.17Z" style="fill:rgb(245,245,245);"/>
                </g>
            </g>
        </g>
    </g>
</svg>
