<?xml version="1.0" encoding="UTF-8" standalone="no"?>
<!DOCTYPE svg PUBLIC "-//W3C//DTD SVG 1.1//EN" "http://www.w3.org/Graphics/SVG/1.1/DTD/svg11.dtd">
<svg width="100%" height="100%" viewBox="0 0 238 259" version="1.1" xmlns="http://www.w3.org/2000/svg" xmlns:xlink="http://www.w3.org/1999/xlink" xml:space="preserve" xmlns:serif="http://www.serif.com/" style="fill-rule:evenodd;clip-rule:evenodd;stroke-linecap:round;stroke-linejoin:round;stroke-miterlimit:2;">
    <g transform="matrix(1,0,0,1,-1209.58,-188.64)">
        <g transform="matrix(-0.71168,0,0,0.71168,1582.07,126.807)">
            <g transform="matrix(-1.28704,0,0,1.28704,962.658,-52.1455)">
                <g transform="matrix(0.0341976,0.283152,0.283152,-0.0341976,320.761,128.377)">
                    <path d="M348.558,527.041C409.911,520.74 464.168,544.95 502.629,560.944C523.826,569.758 542.09,592.378 551.346,601.015C555.817,605.188 548.675,629.16 534.292,624.994C524.381,622.124 499.898,626.253 486.558,613.713C486.558,613.713 384.532,627.696 347.907,632.715C322.823,636.153 348.233,579.837 348.558,527.041Z" style="fill:rgb(214,194,182);fill-rule:nonzero;"/>
                </g>
                <g transform="matrix(-0.277454,-0.0660587,-0.0660587,0.277454,612.724,36.6922)">
                    <path d="M360.586,685.02C360.586,685.02 291.751,653.348 279.997,692.314C266.324,779.491 281.807,792.625 288.035,857.185C265.597,903.36 268.709,934.849 250.773,1000.96C247.262,1013.89 269.264,1013.34 273.667,1005.46C285.952,983.483 331.323,893.082 341.983,848.309C347.981,823.119 375.132,721.613 360.586,685.02Z" style="fill:rgb(214,194,182);fill-rule:nonzero;"/>
                </g>
                <g transform="matrix(0.0341976,0.283152,0.283152,-0.0341976,320.761,128.377)">
                    <path d="M348.558,527.041C409.911,520.74 445.275,533.508 483.736,549.501C485.931,578.566 483.367,605.154 470.817,621.335C470.817,621.335 384.532,627.696 347.907,632.715C322.823,636.153 348.233,579.837 348.558,527.041Z" style="fill:rgb(97,110,143);fill-rule:nonzero;"/>
                </g>
                <g transform="matrix(-0.277454,-0.0660587,-0.0660587,0.277454,612.724,36.6922)">
                    <path d="M360.586,685.02C360.586,685.02 291.751,653.348 279.997,692.314C266.324,779.491 273.85,767.502 280.077,832.061C302.055,844.608 327.317,855.742 349.705,838.89C355.703,813.699 375.132,721.613 360.586,685.02Z" style="fill:rgb(97,110,143);fill-rule:nonzero;"/>
                </g>
                <g transform="matrix(-0.2851,-0.00791711,-0.00791711,0.2851,608.877,78.7616)">
                    <path d="M446.108,777.682C442.943,784.034 442.164,778.611 439.309,774.901C438.309,778.901 419.326,809.603 422.638,817.221C427.57,828.564 443.691,831.1 454.084,847.65C468.159,870.065 490.763,868.846 499.954,862.69C505.622,858.893 503.277,838.609 494.277,832.609C483.364,825.334 468.164,791.052 468.998,780.528C469.351,776.07 449.229,771.416 446.108,777.682Z" style="fill:rgb(96,96,96);fill-rule:nonzero;"/>
                </g>
                <g transform="matrix(-0.2851,-0.00791711,-0.00791711,0.2851,649.29,35.9771)">
                    <path d="M451.506,808.083C448.236,805.355 443.695,799.582 445.522,792.143C437.174,798.563 439.06,801.913 436.899,810.558C433.899,822.558 424.881,821.968 424.206,841.499C423.557,860.246 430.252,875.534 442.061,875.942C454.831,876.384 459.161,853.281 459.422,845.76C459.875,832.653 469.206,822.002 470.039,811.479C470.392,807.021 461.952,816.797 451.506,808.083Z" style="fill:rgb(96,96,96);fill-rule:nonzero;"/>
                </g>
                <g id="Skin" transform="matrix(-0.0803617,0.543812,0.543812,0.0803617,407.507,73.8467)">
                    <path d="M221.587,128.23C220.332,124.901 225.713,120.622 229.265,120.819C234.313,121.098 245.825,126.283 251.879,129.906C253.309,131.209 255.037,133.848 249.107,133.392C243.176,132.936 236.918,132.723 236.1,134.746C235.281,136.768 238.87,139.187 237.216,141.917C236.113,143.736 222.912,131.746 221.587,128.23Z" style="fill:rgb(214,194,182);"/>
                </g>
                <g transform="matrix(-0.253144,0.487963,-0.487963,-0.253144,765.928,-10.4601)">
                    <path d="M507.82,352.004C500.243,348.677 502.201,333.908 508.589,332.104C520.237,328.815 571.976,334.884 577.707,332.268C582.878,329.906 599.268,319.394 603.661,314.483C605.545,312.376 616.077,315.203 614.772,317.711C612.445,322.185 599.369,340.972 584.505,348.96C570.17,356.663 520.429,357.54 507.82,352.004Z" style="fill:rgb(214,194,182);"/>
                </g>
                <g transform="matrix(-0.548794,0.0318565,0.0318565,0.548794,797.358,-15.6099)">
                    <path d="M595.546,248.126L600.791,258.452C584.67,282.836 572.078,264.264 565.231,256.177L569.359,240.737L595.546,248.126Z" style="fill:rgb(214,194,182);"/>
                </g>
                <g transform="matrix(-0.548794,0.0318565,0.0318565,0.548794,495.722,113.625)">
                    <path d="M7.327,37.873C2.522,32.232 -0.163,19.559 0.381,11.813C1.946,-10.506 35.466,-3.679 41.51,7.585C47.553,18.849 46.537,42.354 38.781,44.568C26.399,48.102 7.327,37.873 7.327,37.873Z" style="fill:rgb(214,194,182);"/>
                </g>
                <g transform="matrix(-0.769886,7.03005e-17,9.53813e-17,0.567442,935.161,-0.0329615)">
                    <path d="M573.887,242.595C573.887,242.595 580.85,258.992 589.207,262.016C594.942,258.695 594.491,249.76 594.491,249.76C594.491,249.76 607.369,256.789 612.191,264.359C617.377,272.5 609.365,288.885 607.842,307.61C606.632,322.477 609.895,349.178 609.895,363.974C596.76,370.786 566.017,366.174 549.884,361.769C549.884,345.045 554.871,326.891 554.541,310.656C554.225,295.069 544.683,275.703 547.907,264.359C550.996,253.492 573.887,242.595 573.887,242.595Z" style="fill:rgb(208,208,208);"/>
                </g>
                <g transform="matrix(-0.0428792,0.548043,0.548043,0.0428792,358.815,-152.929)">
                    <path d="M526.064,322.295C520.49,315.333 538.687,301.409 544.939,306.918C550.966,312.229 562.9,327.331 573.897,331.712C580.003,327.137 604.403,315.429 608.797,310.518C610.681,308.411 621.213,311.238 619.908,313.746C617.58,318.22 592.737,352.746 572.238,352.924C561.887,353.014 545.517,346.593 526.064,322.295Z" style="fill:rgb(214,194,182);"/>
                </g>
                <g id="Skin1" serif:id="Skin" transform="matrix(-0.219084,0.504174,-0.504174,-0.219084,615.774,109.52)">
                    <path d="M224.554,128.006C223.299,124.678 228.68,120.399 232.231,120.595C237.28,120.875 248.792,126.059 254.846,129.683C256.276,130.986 258.004,133.624 252.073,133.168C246.143,132.712 239.885,132.499 239.066,134.522C238.248,136.545 241.837,138.964 240.183,141.693C239.08,143.512 225.879,131.522 224.554,128.006Z" style="fill:rgb(214,194,182);"/>
                </g>
                <g transform="matrix(-0.421115,0.353344,0.353344,0.421115,701.339,-218.31)">
                    <path d="M690.513,319.494C695.882,312.439 710.646,310.98 717.74,319.186C721.949,309.971 724.158,281.607 724.158,281.607C716.472,273.245 707.542,269 695.776,274.144C695.776,274.144 687.123,297.66 690.513,319.494Z" style="fill:rgb(208,208,208);"/>
                </g>
                <g transform="matrix(1.30866,0,0,1.30866,-302.452,-4545.66)">
                    <path d="M591.744,3567.84C591.744,3567.84 592.363,3563.78 593.952,3563.42C599.535,3562.16 603.654,3561.35 603.254,3565.17C603.073,3566.9 604.04,3566.72 605.069,3567.58C605.669,3568.08 606.31,3569.93 606.704,3570.09C608.362,3566.82 610.133,3568.04 610.133,3568.04C610.948,3565.83 610.342,3562.5 608.749,3560.5C607.088,3558.42 603.529,3556.08 600.501,3556.08C597.474,3556.08 593.715,3557.29 591.744,3558.69C589.019,3560.63 591.744,3567.84 591.744,3567.84Z" style="fill:rgb(96,96,96);"/>
                </g>
                <g transform="matrix(1,0,0,1,35.7288,-3758.88)">
                    <path d="M428.115,3908.89C423.125,3913.71 417.907,3924.3 417.907,3924.3C417.907,3924.3 422.041,3924.76 424.221,3926.74C426.974,3929.23 429.474,3933.43 429.474,3933.43L434.919,3922.24C434.919,3922.24 433.104,3904.06 428.115,3908.89Z" style="fill:rgb(208,208,208);"/>
                </g>
            </g>
            <g transform="matrix(1.2429,0,0,1.2429,-339.566,-742.458)">
                <g transform="matrix(-4.28797,0,0,3.72137,2951.6,-1941.96)">
                    <path d="M535.722,771.157L538.773,735.631" style="fill:none;stroke:rgb(192,192,191);stroke-width:0.75px;"/>
                </g>
                <g transform="matrix(-3.11897,0,0,3.11897,2316,-1463.99)">
                    <path d="M520.59,772.672L536.925,724.464" style="fill:none;stroke:rgb(192,192,191);stroke-width:0.96px;"/>
                </g>
                <g transform="matrix(1,0,0,1,0,-4647.28)">
                    <path d="M641.353,5442.87L641.353,5483.17" style="fill:none;stroke:rgb(171,171,169);stroke-width:2.41px;stroke-miterlimit:1.5;"/>
                </g>
                <g transform="matrix(1,0,0,1,0,-4647.28)">
                    <path d="M625.765,5483.89L641.353,5483.17L655.733,5485.31" style="fill:none;stroke:rgb(171,171,169);stroke-width:2.41px;stroke-miterlimit:1.5;"/>
                </g>
                <g transform="matrix(-3.11897,0,0,3.11897,2316,-1463.99)">
                    <path d="M520.59,772.672L536.925,724.464" style="fill:none;stroke:rgb(192,192,191);stroke-width:0.96px;"/>
                </g>
                <g transform="matrix(3.11897,0,0,3.11897,-1075.58,-1463.99)">
                    <path d="M533.089,770.231L550.483,724.464" style="fill:none;stroke:rgb(192,192,191);stroke-width:0.96px;"/>
                </g>
                <g transform="matrix(1,0,0,1,-62.6801,-4484.65)">
                    <path d="M649.781,5422.99L651.892,5417.43" style="fill:none;stroke:rgb(171,171,169);stroke-width:4.02px;stroke-miterlimit:1.5;"/>
                </g>
                <g transform="matrix(1,0,0,1,-62.6801,-4484.65)">
                    <path d="M674.797,5357.17L676.907,5351.61" style="fill:none;stroke:rgb(171,171,169);stroke-width:4.02px;stroke-miterlimit:1.5;"/>
                </g>
                <g transform="matrix(1,0,0,1,43.7438,-4479.73)">
                    <path d="M648.558,5425.68L646.606,5419.91" style="fill:none;stroke:rgb(171,171,169);stroke-width:4.02px;stroke-miterlimit:1.5;"/>
                </g>
                <g transform="matrix(1,0,0,1,43.7438,-4479.73)">
                    <path d="M623.975,5353.13L622.023,5347.36" style="fill:none;stroke:rgb(171,171,169);stroke-width:4.02px;stroke-miterlimit:1.5;"/>
                </g>
                <g transform="matrix(1,0,0,1,16.0375,-4508.45)">
                    <path d="M638.4,5436.25L637.833,5430.53" style="fill:none;stroke:rgb(171,171,169);stroke-width:4.02px;stroke-miterlimit:1.5;"/>
                </g>
                <g transform="matrix(1,0,0,1,16.0375,-4508.45)">
                    <path d="M632.946,5381.15L632.38,5375.42" style="fill:none;stroke:rgb(171,171,169);stroke-width:4.02px;stroke-miterlimit:1.5;"/>
                </g>
                <g transform="matrix(1,0,0,1,0,-4647.28)">
                    <path d="M645.559,5442.36L649.578,5442.87L654.965,5443.21L657.442,5444.21L656.834,5446.35L649.34,5443.81L645.465,5443.11L645.202,5445.23L637.37,5444.83L637.37,5442.87L635.167,5442.87L634.032,5440.1L628.907,5439.65L628.907,5438.53L631.649,5437.06L633.234,5435.69L634.032,5429.47L635.167,5428.83L636.541,5425.59L638.268,5425.59L649.34,5425.05L649.297,5427.77L647.652,5430.34L639.612,5430.34L639.875,5432.78L643.566,5432.78L641.353,5437.06L646.034,5438.53L645.559,5442.36Z" style="fill:rgb(171,171,169);"/>
                </g>
                <g transform="matrix(1.18142,-0.111675,0,1.12345,-116.345,-5244.34)">
                    <path d="M647.039,5412.98L647.039,5429.96C647.039,5430.73 646.453,5431.35 645.73,5431.35L639.819,5432.24C639.097,5432.24 638.511,5431.62 638.511,5430.85L638.511,5412.09C638.511,5411.32 639.097,5410.7 639.819,5410.7L645.73,5411.59C646.453,5411.59 647.039,5412.22 647.039,5412.98Z" style="fill:rgb(97,110,143);"/>
                </g>
                <g transform="matrix(1,0,0,1,1.13687e-13,-4647.66)">
                    <path d="M638.004,5425.97L639.875,5425.87L639.875,5428.9L637.44,5429.13L638.004,5425.97Z" style="fill:rgb(171,171,169);"/>
                </g>
                <g transform="matrix(1,0,0,1,9.42194,-4648.64)">
                    <path d="M636.626,5426.52L638.657,5426.41L638.657,5429.13L636.626,5429.32L636.626,5426.52Z" style="fill:rgb(171,171,169);"/>
                </g>
            </g>
            <g transform="matrix(-1.2429,0,0,1.2429,1052.25,-727.418)">
                <g transform="matrix(-4.28797,0,0,3.72137,2951.6,-1941.96)">
                    <path d="M535.722,771.157L538.773,735.631" style="fill:none;stroke:rgb(192,192,191);stroke-width:0.75px;"/>
                </g>
                <g transform="matrix(-3.11897,0,0,3.11897,2316,-1463.99)">
                    <path d="M520.59,772.672L536.925,724.464" style="fill:none;stroke:rgb(192,192,191);stroke-width:0.96px;"/>
                </g>
                <g transform="matrix(1,0,0,1,0,-4647.28)">
                    <path d="M641.353,5442.87L641.353,5483.17" style="fill:none;stroke:rgb(171,171,169);stroke-width:2.41px;stroke-miterlimit:1.5;"/>
                </g>
                <g transform="matrix(1,0,0,1,0,-4647.28)">
                    <path d="M625.765,5483.89L641.353,5483.17L655.733,5485.31" style="fill:none;stroke:rgb(171,171,169);stroke-width:2.41px;stroke-miterlimit:1.5;"/>
                </g>
                <g transform="matrix(-3.11897,0,0,3.11897,2316,-1463.99)">
                    <path d="M520.59,772.672L536.925,724.464" style="fill:none;stroke:rgb(192,192,191);stroke-width:0.96px;"/>
                </g>
                <g transform="matrix(3.11897,0,0,3.11897,-1075.58,-1463.99)">
                    <path d="M533.089,770.231L550.483,724.464" style="fill:none;stroke:rgb(192,192,191);stroke-width:0.96px;"/>
                </g>
                <g transform="matrix(1,0,0,1,-62.6801,-4484.65)">
                    <path d="M649.781,5422.99L651.892,5417.43" style="fill:none;stroke:rgb(171,171,169);stroke-width:4.02px;stroke-miterlimit:1.5;"/>
                </g>
                <g transform="matrix(1,0,0,1,-62.6801,-4484.65)">
                    <path d="M674.797,5357.17L676.907,5351.61" style="fill:none;stroke:rgb(171,171,169);stroke-width:4.02px;stroke-miterlimit:1.5;"/>
                </g>
                <g transform="matrix(1,0,0,1,43.7438,-4479.73)">
                    <path d="M648.558,5425.68L646.606,5419.91" style="fill:none;stroke:rgb(171,171,169);stroke-width:4.02px;stroke-miterlimit:1.5;"/>
                </g>
                <g transform="matrix(1,0,0,1,43.7438,-4479.73)">
                    <path d="M623.975,5353.13L622.023,5347.36" style="fill:none;stroke:rgb(171,171,169);stroke-width:4.02px;stroke-miterlimit:1.5;"/>
                </g>
                <g transform="matrix(1,0,0,1,16.0375,-4508.45)">
                    <path d="M638.4,5436.25L637.833,5430.53" style="fill:none;stroke:rgb(171,171,169);stroke-width:4.02px;stroke-miterlimit:1.5;"/>
                </g>
                <g transform="matrix(1,0,0,1,16.0375,-4508.45)">
                    <path d="M632.946,5381.15L632.38,5375.42" style="fill:none;stroke:rgb(171,171,169);stroke-width:4.02px;stroke-miterlimit:1.5;"/>
                </g>
                <g transform="matrix(1,0,0,1,0,-4647.28)">
                    <path d="M645.559,5442.36L649.578,5442.87L654.965,5443.21L657.442,5444.21L656.834,5446.35L649.34,5443.81L645.465,5443.11L645.202,5445.23L637.37,5444.83L637.37,5442.87L635.167,5442.87L634.032,5440.1L628.907,5439.65L628.907,5438.53L631.649,5437.06L633.234,5435.69L634.032,5429.47L635.167,5428.83L636.541,5425.59L638.268,5425.59L649.34,5425.05L649.297,5427.77L647.652,5430.34L639.612,5430.34L639.875,5432.78L643.566,5432.78L641.353,5437.06L646.034,5438.53L645.559,5442.36Z" style="fill:rgb(171,171,169);"/>
                </g>
                <g transform="matrix(1.18142,-0.111675,0,1.12345,-116.345,-5244.34)">
                    <path d="M647.039,5412.98L647.039,5429.96C647.039,5430.73 646.453,5431.35 645.73,5431.35L639.819,5432.24C639.097,5432.24 638.511,5431.62 638.511,5430.85L638.511,5412.09C638.511,5411.32 639.097,5410.7 639.819,5410.7L645.73,5411.59C646.453,5411.59 647.039,5412.22 647.039,5412.98Z" style="fill:rgb(97,110,143);"/>
                </g>
                <g transform="matrix(1,0,0,1,1.13687e-13,-4647.66)">
                    <path d="M638.004,5425.97L639.875,5425.87L639.875,5428.9L637.44,5429.13L638.004,5425.97Z" style="fill:rgb(171,171,169);"/>
                </g>
                <g transform="matrix(1,0,0,1,9.42194,-4648.64)">
                    <path d="M636.626,5426.52L638.657,5426.41L638.657,5429.13L636.626,5429.32L636.626,5426.52Z" style="fill:rgb(171,171,169);"/>
                </g>
            </g>
        </g>
    </g>
</svg>
