<?xml version="1.0" encoding="UTF-8" standalone="no"?>
<!DOCTYPE svg PUBLIC "-//W3C//DTD SVG 1.1//EN" "http://www.w3.org/Graphics/SVG/1.1/DTD/svg11.dtd">
<svg width="100%" height="100%" viewBox="0 0 1850 2327" version="1.1" xmlns="http://www.w3.org/2000/svg" xmlns:xlink="http://www.w3.org/1999/xlink" xml:space="preserve" xmlns:serif="http://www.serif.com/" style="fill-rule:evenodd;clip-rule:evenodd;stroke-linecap:round;stroke-linejoin:round;stroke-miterlimit:1.5;">
    <g transform="matrix(1,0,0,1,0.00163733,0.000974793)">
        <g transform="matrix(6.53384,0,0,6.53384,-2414.86,-440.336)">
            <g>
                <g transform="matrix(1,0,0,1,-315.957,-125.564)">
                    <g transform="matrix(1,0,0,1,206.063,-110.5)">
                        <g transform="matrix(1,0,0,1,126.017,27.5245)">
                            <ellipse cx="398.511" cy="560.281" rx="45.042" ry="8.936" style="fill:rgb(208,208,208);"/>
                        </g>
                        <g transform="matrix(1,0,0,4.60661,126.017,-2074.9)">
                            <rect x="353.469" y="560.281" width="90.085" height="17.736" style="fill:rgb(208,208,208);"/>
                        </g>
                        <g transform="matrix(1,0,0,1,126.017,-54.1803)">
                            <ellipse cx="398.511" cy="560.281" rx="45.042" ry="8.936" style="fill:rgb(228,228,228);"/>
                        </g>
                    </g>
                    <g transform="matrix(0.937276,-0.348589,0.348589,0.937276,128.043,221.783)">
                        <path d="M547.404,264.131C551.281,256.419 570.667,261.007 572.764,269.38C575.217,279.181 561.997,306.239 562.127,322.935C562.251,338.934 566.299,362.312 573.544,369.557C580.052,376.065 566.391,377.254 564.354,375.217C556.52,367.384 546.969,343.519 544.297,326.009C541.472,307.495 542.66,273.569 547.404,264.131Z" style="fill:rgb(150,130,117);"/>
                    </g>
                    <g transform="matrix(1,0,0,1,143.592,14.1301)">
                        <path d="M596.63,235.75L599.674,269.868L572.764,269.38L582.066,228.421L596.63,235.75Z" style="fill:rgb(150,130,117);"/>
                    </g>
                    <g transform="matrix(1,0,0,1,718.026,210.686)">
                        <path d="M8.617,35.97C3.811,30.329 0.559,23.416 1.102,15.67C2.668,-6.648 33.736,-1.739 39.78,9.526C45.823,20.79 43.914,44.716 36.158,46.93C23.776,50.465 8.617,35.97 8.617,35.97Z" style="fill:rgb(150,130,117);"/>
                    </g>
                    <g id="hair" transform="matrix(1,0,0,1,661.709,178.356)">
                        <path d="M107.184,26.24C106.666,24.418 105.272,22.858 103.393,22.395C102.937,22.283 102.467,22.238 101.998,22.256C101.83,22.263 101.783,22.312 101.704,22.194C101.646,22.107 101.645,21.894 101.621,21.791C101.546,21.473 101.453,21.158 101.337,20.852C100.944,19.806 100.284,18.881 99.487,18.102C97.998,16.644 95.985,15.638 93.894,15.456C92.749,15.356 91.613,15.542 90.531,15.914C89.971,16.107 89.428,16.347 88.899,16.612C88.739,16.692 88.223,17.083 88.063,17.058C87.886,17.03 87.531,16.591 87.388,16.481C85.613,15.12 83.422,14.585 81.212,14.601C78.718,14.619 76.315,14.744 74.235,16.265C73.795,16.587 73.375,16.939 72.976,17.31C72.765,17.506 72.562,17.708 72.367,17.92C72.25,18.047 72.136,18.177 72.026,18.311C71.84,18.538 71.87,18.613 71.609,18.454C70.607,17.846 69.447,17.561 68.278,17.705C67.584,17.79 66.909,17.999 66.268,18.273C66.05,18.366 65.545,18.739 65.312,18.742C65.081,18.746 64.583,18.401 64.345,18.313C63.061,17.839 61.677,17.722 60.328,17.941C58.935,18.167 57.568,18.723 56.388,19.49C55.821,19.859 55.326,20.268 54.928,20.817C54.757,21.054 54.602,21.305 54.407,21.525C54.293,21.654 54.067,21.786 54.006,21.949C54.043,21.851 52.484,21.25 52.337,21.212C51.553,21.007 50.755,21.048 49.987,21.301C48.544,21.776 47.303,22.841 46.283,23.933C45.759,24.494 45.3,25.114 44.911,25.775C44.724,26.091 44.554,26.417 44.398,26.749C44.322,26.91 44.272,27.111 44.172,27.256C44.044,27.443 43.958,27.447 43.725,27.528C42.544,27.942 41.467,28.643 40.647,29.589C39.818,30.547 39.28,31.726 39.054,32.968C39.041,33.041 39.033,33.344 38.99,33.383C38.931,33.438 38.694,33.414 38.604,33.424C38.293,33.461 37.984,33.515 37.679,33.587C37.117,33.72 36.57,33.916 36.053,34.172C34.036,35.17 32.593,37.041 31.887,39.146C31.146,41.356 31.16,43.887 32.045,46.055C32.188,46.405 32.358,46.745 32.558,47.066C32.681,47.264 32.72,47.264 32.641,47.471C32.552,47.702 32.39,47.926 32.284,48.151C31.94,48.886 31.699,49.665 31.547,50.461C31.298,51.766 31.175,53.138 31.421,54.453C31.535,55.064 31.734,55.661 32.037,56.205C32.192,56.483 32.373,56.746 32.578,56.989C32.684,57.115 32.796,57.236 32.914,57.352C32.982,57.418 33.07,57.475 33.128,57.549C33.268,57.729 33.297,57.581 33.225,57.845C33.124,58.215 32.895,58.579 32.755,58.938C32.611,59.308 32.48,59.684 32.361,60.063C32.119,60.83 31.915,61.612 31.787,62.406C31.541,63.932 31.584,65.558 32.306,66.959C32.615,67.558 33.058,68.084 33.595,68.492C33.857,68.692 34.142,68.865 34.441,69.006C34.594,69.079 34.79,69.11 34.86,69.259C34.936,69.418 34.824,69.735 34.798,69.914C34.576,71.466 34.465,73.095 34.926,74.616C35.351,76.017 36.287,77.254 37.502,78.073C39.858,79.662 43.035,79.572 45.511,78.3C46.156,77.969 46.76,77.557 47.299,77.072C48.67,78.918 51.493,78.86 53.498,78.334C55.995,77.678 57.999,75.942 59.154,73.66C60.733,75.582 64.046,74.958 65.141,72.873C65.409,72.363 65.568,71.8 65.646,71.231C65.688,70.932 65.661,70.63 65.692,70.333C65.732,69.955 65.984,69.587 66.13,69.221C66.413,68.509 66.588,67.773 66.596,67.005C66.6,66.604 66.549,66.213 66.511,65.815C66.476,65.457 66.576,65.123 66.632,64.769C65.992,64.875 65.211,64.702 64.608,64.516C64.016,64.334 63.461,63.854 63.043,63.416C62.072,62.398 61.479,61.063 61.074,59.735C60.184,56.82 60.549,53.322 63.481,51.722C64.847,50.977 68.939,50.979 70.566,51.348C72.276,51.735 74.216,55.51 74.311,55.864C74.37,56.084 74.34,56.356 74.542,56.502C74.985,56.824 75.717,56.265 76.044,55.99C76.608,55.514 77.01,54.882 77.359,54.24C78.118,52.843 78.731,51.345 79.163,49.815C79.496,48.636 79.71,47.42 80.145,46.271C80.579,45.127 81.263,44.105 82.326,43.457C83.482,42.753 84.808,42.382 86.077,41.939C87.335,41.5 88.572,40.964 89.547,40.032C89.762,39.828 89.97,39.61 90.142,39.369C90.279,39.179 90.413,38.814 90.621,38.693C90.944,38.506 91.415,38.994 91.694,39.171C93.071,40.046 94.22,41.266 95.147,42.598C96.068,43.923 96.824,45.199 97.439,46.678C97.894,47.776 98.179,49.182 98.98,50.081C99.338,50.483 101.998,50.726 102.86,50.375C103.721,50.024 104.687,49.114 104.976,48.543C105.272,47.959 105.343,47.318 105.216,46.678C105.142,46.302 104.99,45.951 104.907,45.581C104.837,45.271 104.773,44.978 104.622,44.694C104.336,44.155 103.847,43.768 103.257,43.606C103.871,43.04 104.38,42.363 104.732,41.606C105.097,40.82 105.407,39.863 105.495,39.001C105.567,38.3 105.456,37.573 105.073,36.971C104.67,36.339 103.957,35.927 103.34,35.533C104.282,34.795 105.089,33.899 105.752,32.906C107.042,30.975 107.839,28.541 107.184,26.24Z" style="fill:rgb(77,77,77);"/>
                    </g>
                    <g transform="matrix(0.518829,0,0,0.518829,561.831,82.9008)">
                        <path d="M498.952,747C498.952,747 493.952,770 492.952,772C491.952,774 511.952,781 511.952,781L535.952,764C535.952,764 525.952,742 525.952,738L498.952,747Z" style="fill:rgb(150,130,117);fill-rule:nonzero;"/>
                    </g>
                    <g transform="matrix(0.518829,0,0,0.518829,561.831,82.9008)">
                        <path d="M371.541,523.973C371.541,530.605 377.657,532.844 382.423,534.513C407.658,543.351 513.601,535.249 522.952,577C531.13,613.512 533.295,717.008 528.811,745.14C527.767,751.689 499.154,759.23 496.571,753.121C487.848,732.486 471.952,634 475.952,614C475.952,614 302.952,592 298.952,567C294.952,542 302.952,531 302.952,531C302.952,531 339.771,523.973 371.541,523.973Z" style="fill:rgb(97,110,143);fill-rule:nonzero;"/>
                    </g>
                    <g transform="matrix(0.518829,0,0,0.518829,561.831,82.9008)">
                        <path d="M496.952,770C496.952,770 492.952,761 490.952,764C488.952,767 481.952,802 488.952,802C495.952,802 559.952,818 568.952,816C577.952,814 594.952,817 592.952,807C590.952,797 580.952,796 580.952,796C580.952,796 543.952,774 541.952,763C539.952,752 528.952,758 528.952,758L528.952,765C528.952,765 507.952,781 496.952,770Z" style="fill:rgb(228,228,228);fill-rule:nonzero;"/>
                    </g>
                    <g transform="matrix(0.518829,0,0,0.518829,628.501,111.696)">
                        <path d="M284.195,715.154L283.452,743.5L321.452,743.5L324.452,734.5L315.174,706.802L284.195,715.154Z" style="fill:rgb(150,130,117);fill-rule:nonzero;"/>
                    </g>
                    <g transform="matrix(0.518829,0,0,0.518829,561.831,82.9008)">
                        <path d="M254.952,543C254.952,557.675 256.525,598.697 278.952,604C322.16,614.216 381.619,607.706 388.952,617C394.167,623.609 402.452,748.345 411.952,772.562C416.276,783.583 443.7,773.924 445.955,762.302C451.955,731.375 453.933,602.676 447.952,587C442.885,573.718 417.016,549.061 324.093,528.398C324.093,528.398 254.952,520.106 254.952,543Z" style="fill:rgb(97,110,143);fill-rule:nonzero;"/>
                    </g>
                    <g transform="matrix(0.518829,0,0,0.518829,561.831,82.9008)">
                        <path d="M414.952,792C414.952,792 408.952,779 407.952,783C406.952,787 394.952,822 406.952,825C418.952,828 456.952,844 481.952,843C506.952,842 509.952,841 509.952,841C509.952,841 516.952,831 507.952,825C498.952,819 461.952,784 459.952,780C457.952,776 442.952,773 442.952,780C442.952,787 421.952,801 414.952,792Z" style="fill:rgb(228,228,228);fill-rule:nonzero;"/>
                    </g>
                    <g transform="matrix(1,0,0,1,143.592,14.1301)">
                        <path d="M577.776,247.311C577.776,247.311 585.358,261.088 593.715,264.111C599.45,260.791 597.825,249.144 597.825,249.144C597.825,249.144 611.541,252.6 616.363,260.17C621.55,268.311 616.414,290.447 613.046,304.449C609.715,318.297 611.006,325.827 611.006,340.623C597.871,347.435 566.65,354.899 550.516,350.495C550.516,333.771 550.318,324.121 549.988,310.939C549.621,296.275 543.682,273.118 548.313,262.514C552.736,252.386 577.776,247.311 577.776,247.311Z" style="fill:rgb(192,192,191);"/>
                    </g>
                    <g transform="matrix(1,0,0,1,147.117,15.2612)">
                        <path d="M547.404,264.131C551.315,256.436 571.102,260.91 572.764,269.38C574.82,279.86 558.502,308.276 559.741,327.01C560.981,345.743 572.955,374.537 580.199,381.782C586.707,388.29 573.046,389.479 571.009,387.442C563.176,379.608 545.846,350.635 541.911,330.084C537.977,309.532 542.262,274.248 547.404,264.131Z" style="fill:rgb(150,130,117);"/>
                    </g>
                    <g id="Skin" transform="matrix(0.207133,0.978313,0.978313,-0.207133,551.859,200.795)">
                        <path d="M224.554,128.006C223.299,124.678 228.68,120.399 232.231,120.595C237.28,120.875 248.792,126.059 254.846,129.683C256.276,130.986 258.004,133.624 252.073,133.168C246.143,132.712 239.885,132.499 239.066,134.522C238.248,136.545 241.837,138.964 240.183,141.693C239.08,143.512 225.879,131.522 224.554,128.006Z" style="fill:rgb(150,130,117);"/>
                    </g>
                    <g transform="matrix(1,0,0,1,0.179727,-0.241979)">
                        <path d="M690.206,294.122C695.575,287.066 714.122,287.271 718.109,296.564C722.946,288.016 724.158,281.607 724.158,281.607C716.472,273.245 707.542,269 695.776,274.144C695.776,274.144 689.762,289.252 690.206,294.122Z" style="fill:rgb(192,192,191);"/>
                    </g>
                </g>
                <g transform="matrix(1,0,0,1,164.293,-1046.78)">
                    <g transform="matrix(0.0585743,-0.0294826,-5.24156e-17,1.81194,150.947,-2460.08)">
                        <rect x="2715.93" y="2110.55" width="112.086" height="102.764" style="fill:rgb(188,188,188);"/>
                    </g>
                    <g transform="matrix(0.0822259,0,0,1.81194,77.4941,-2540.15)">
                        <rect x="2715.93" y="2110.55" width="112.086" height="102.764" style="fill:rgb(208,208,208);"/>
                    </g>
                    <g transform="matrix(0.0822259,0,0,1.83414,249.26,-2641.22)">
                        <rect x="2715.93" y="2110.55" width="112.086" height="102.764" style="fill:rgb(208,208,208);"/>
                    </g>
                    <g transform="matrix(0.0585743,-0.0294826,-5.24156e-17,1.83414,322.69,-2561.15)">
                        <rect x="2715.93" y="2110.55" width="112.086" height="102.764" style="fill:rgb(188,188,188);"/>
                    </g>
                    <g transform="matrix(0.0822259,0,0,1.81194,161.877,-2540.15)">
                        <rect x="2715.93" y="2110.55" width="112.086" height="102.764" style="fill:rgb(208,208,208);"/>
                    </g>
                    <g transform="matrix(0.0822259,0,0,1.83414,191.679,-2641.22)">
                        <rect x="2715.93" y="2110.55" width="112.086" height="102.764" style="fill:rgb(208,208,208);"/>
                    </g>
                    <g transform="matrix(1.01969,-0.513247,-1.09918e-16,0.245227,-2374.99,2160.41)">
                        <path d="M2808.04,2068.74C2762.3,2045.79 2744.91,2087.6 2715.93,2110.55L2715.93,2213.31L2808.04,2171.51L2808.04,2068.74Z" style="fill:rgb(188,188,188);"/>
                    </g>
                    <g transform="matrix(0.0585743,-0.0294826,-5.24156e-17,1.81194,235.33,-2460.08)">
                        <rect x="2715.93" y="2110.55" width="112.086" height="102.764" style="fill:rgb(188,188,188);"/>
                    </g>
                    <g transform="matrix(0.0585743,-0.0294826,-5.24156e-17,1.83414,265.11,-2561.15)">
                        <rect x="2715.93" y="2110.55" width="112.086" height="102.764" style="fill:rgb(188,188,188);"/>
                    </g>
                    <g transform="matrix(0.835069,0,0,0.245227,-1967.17,766.469)">
                        <path d="M2828.01,2110.55C2797.44,2080.34 2760.15,2080.01 2715.93,2110.55L2715.93,2213.31L2828.01,2213.31L2828.01,2110.55Z" style="fill:rgb(208,208,208);"/>
                    </g>
                    <g transform="matrix(0.835069,0,-7.69443,3.87289,15420.6,-7450.18)">
                        <path d="M2761.51,2240.37L2673.81,2240.37L2673.81,2255.22L2785.89,2255.22L2761.51,2240.37Z" style="fill:rgb(228,228,228);"/>
                    </g>
                </g>
                <g transform="matrix(1,0,0,1,372.429,-183.36)">
                    <g transform="matrix(0.265941,0,-0.863346,0.434553,1386.01,-591.397)">
                        <rect x="2673.81" y="2240.37" width="112.086" height="14.854" style="fill:rgb(97,110,143);"/>
                    </g>
                    <g transform="matrix(0.175742,0,-0.514966,0.259201,851.625,-197.242)">
                        <rect x="2673.81" y="2240.37" width="112.086" height="14.854" style="fill:rgb(67,76,98);"/>
                    </g>
                    <g transform="matrix(0.923789,-0.382902,0.825141,1.99074,-306.021,-321.606)">
                        <ellipse cx="160.775" cy="385.906" rx="2.1" ry="0.516" style="fill:rgb(67,76,98);"/>
                    </g>
                    <g transform="matrix(0.114413,-0.0575884,-1.90921e-17,0.0314061,-130.879,478.739)">
                        <rect x="2715.93" y="2110.55" width="112.086" height="102.764" style="fill:rgb(67,76,98);"/>
                    </g>
                    <g transform="matrix(0.265941,0,0,0.0309592,-572.226,323.276)">
                        <rect x="2715.93" y="2110.55" width="112.086" height="102.764" style="fill:rgb(82,94,121);"/>
                    </g>
                </g>
            </g>
        </g>
        <g transform="matrix(6.53384,0,0,6.53384,-6734.08,-362.057)">
            <g>
                <g>
                    <g>
                        <clipPath id="_clip1">
                            <rect x="1131.77" y="141.775" width="51.762" height="47.213"/>
                        </clipPath>
                        <g clip-path="url(#_clip1)">
                            <g transform="matrix(1.09151,0,0,1.09151,-121.564,-6.82426)">
                                <circle cx="1195.68" cy="179.396" r="11.452" style="fill:none;stroke:rgb(67,76,98);stroke-width:1.46px;"/>
                            </g>
                            <g transform="matrix(2.18302,0,0,2.18302,-1426.66,-202.636)">
                                <circle cx="1195.68" cy="179.396" r="11.452" style="fill:none;stroke:rgb(67,76,98);stroke-width:0.73px;"/>
                            </g>
                            <g transform="matrix(3.27452,0,0,3.27452,-2731.76,-398.448)">
                                <circle cx="1195.68" cy="179.396" r="11.452" style="fill:none;stroke:rgb(67,76,98);stroke-width:0.49px;"/>
                            </g>
                        </g>
                    </g>
                </g>
            </g>
        </g>
    </g>
</svg>
