<?xml version="1.0" encoding="UTF-8" standalone="no"?>
<!DOCTYPE svg PUBLIC "-//W3C//DTD SVG 1.1//EN" "http://www.w3.org/Graphics/SVG/1.1/DTD/svg11.dtd">
<svg width="100%" height="100%" viewBox="0 0 1000 1000" version="1.1" xmlns="http://www.w3.org/2000/svg" xmlns:xlink="http://www.w3.org/1999/xlink" xml:space="preserve" xmlns:serif="http://www.serif.com/" style="fill-rule:evenodd;clip-rule:evenodd;stroke-linejoin:round;stroke-miterlimit:2;">
    <g transform="matrix(3.34528,0,0,3.34528,-1214.62,-610.302)">
        <path d="M468.98,274.624C468.98,274.624 466.055,276.159 465.181,278.827C464.634,280.496 464.992,282.519 466.988,284.852C469.559,287.171 471.903,287.015 473.755,285.636C474.654,284.967 475.438,284.009 476.015,282.935C477.141,280.839 477.635,278.582 477.635,278.582C477.817,278.097 477.572,277.556 477.088,277.374C476.604,277.191 476.062,277.437 475.88,277.921C475.88,277.921 474.311,280.476 472.414,281.994C471.665,282.592 470.807,282.847 469.883,281.859C468.806,280.999 468.327,280.251 468.386,279.465C468.524,277.653 470.021,276.184 470.021,276.184C470.451,275.897 470.567,275.314 470.28,274.884C469.993,274.453 469.41,274.337 468.98,274.624Z"/>
    </g>
    <g transform="matrix(3.34528,0,0,3.34528,-1214.62,-610.302)">
        <path d="M430.866,214.563C431.742,217.123 433.237,221.153 435.831,223.737C437.846,225.744 440.501,226.698 443.804,226.222C450.278,224.917 453.168,220.715 453.506,216.447C453.661,214.488 453.246,212.484 452.378,210.735C451.029,208.019 448.784,205.809 446.045,205.042C444.897,204.746 443.541,204.721 442.123,205.167C439.809,205.897 437.332,207.469 435.85,208.452C435.332,208.712 435.123,209.344 435.382,209.862C435.642,210.38 436.274,210.59 436.792,210.33C438.08,209.869 440.094,209.183 442.016,208.887C442.964,208.741 443.853,208.761 444.506,209.097C446.799,210.174 447.786,213.196 447.479,215.897C447.23,218.087 445.867,220.144 442.583,221.027C440.527,221.711 438.825,220.948 437.417,219.691C435.372,217.864 433.799,215.367 432.768,213.673C432.523,213.148 431.897,212.921 431.372,213.167C430.847,213.412 430.62,214.038 430.866,214.563Z"/>
    </g>
    <g transform="matrix(3.34528,0,0,3.34528,-1214.62,-610.302)">
        <path d="M575.892,379.893C577.413,376.571 578.802,372.846 580.124,368.867C584.88,354.55 588.78,337.108 594.679,322.855C595.088,321.807 596.273,321.288 597.321,321.698C598.37,322.108 598.888,323.293 598.478,324.341C593.175,338.732 589.947,356.204 585.831,370.628C584.134,376.574 582.271,382.012 580.073,386.565C583.938,392.722 587.915,398.964 591.669,404.32C594.993,409.063 598.13,413.088 600.83,415.667C602.094,416.873 603.105,417.833 604.014,418.078C604.168,417.776 604.393,417.295 604.518,416.876C605.496,413.593 605.847,407.863 605.894,401.239C605.965,391.372 605.31,379.589 604.709,370.629C604.497,367.47 603.573,356.937 602.51,347.511C601.772,340.97 600.979,334.97 600.301,332.439C600.004,331.353 600.644,330.231 601.73,329.934C602.816,329.637 603.939,330.277 604.236,331.363C604.968,333.989 605.881,340.218 606.718,347.015C607.887,356.509 608.925,367.123 609.172,370.306C610.15,382.865 611.276,400.896 610.363,411.723C610.014,415.864 609.293,419.042 608.31,420.742C607.339,422.421 606.021,423.126 604.662,423.179C603.467,423.225 602.075,422.834 600.564,421.921C598.104,420.433 595.079,417.34 591.78,413.231C587.225,407.556 582.044,399.858 576.974,392.119C571.192,401.604 564.308,410.898 555.535,418.737C551.684,422.177 547.482,425.359 542.831,428.057C529.586,435.741 513.072,440.011 492.518,439.153C482.245,438.745 470.882,438.201 461.977,433.786C455.7,430.674 450.502,425.76 447.618,417.54C446.306,413.888 445.564,410.114 445.343,406.365C445.115,402.484 445.459,398.629 446.339,394.961C446.992,392.239 448.126,389.289 449.472,386.339C451.338,382.249 453.62,378.154 455.497,374.72C459.92,366.615 467.684,357.993 476.476,350.899C485.683,343.472 496.015,337.759 504.62,335.741C519.602,332.399 530.377,333.806 539.292,338.371C548.677,343.177 556.01,351.599 564.035,362.04C567.264,366.233 571.409,372.743 575.892,379.893ZM572.799,385.723C567.637,377.792 562.816,370.42 559.172,365.855C551.636,356.442 544.901,348.731 536.23,344.484C528.471,340.684 519.154,339.823 506.278,342.909C498.528,344.677 489.303,349.92 480.95,356.508C472.824,362.915 465.504,370.609 461.332,377.966C459.472,381.249 457.205,385.159 455.345,389.073C454.141,391.609 453.101,394.141 452.5,396.488C451.715,399.555 451.373,402.785 451.52,406.043C451.664,409.218 452.262,412.42 453.336,415.523C455.623,421.972 459.651,425.933 464.636,428.264C472.835,432.097 483.293,431.782 492.654,431.754C511.359,431.661 525.93,426.751 537.913,419.662C542.053,417.213 545.929,414.571 549.52,411.665C558.513,404.385 565.891,395.777 572.083,386.83C572.326,386.471 572.566,386.102 572.799,385.723Z"/>
    </g>
    <g transform="matrix(2.97424,1.53127,-1.54652,3.00387,-467.666,-1267.52)">
        <path d="M500.477,380.315C496.113,383.007 495.19,388.876 496.61,393.269C497.974,397.489 501.808,399.847 506.363,399.301C510.886,398.031 513.334,395.847 514.255,393.112C514.864,391.304 515.018,389.374 514.576,387.447C514.002,384.94 512.836,382.632 511.922,380.921C511.712,380.25 510.991,379.873 510.314,380.081C509.636,380.289 509.256,381.003 509.466,381.674C509.73,383.806 509.945,386.922 509.066,389.552C508.589,390.977 507.32,391.771 504.904,392.02C503.972,392.272 503.202,391.821 502.666,391.077C502.041,390.209 501.426,389.248 501.195,388.116C500.781,386.084 500.781,383.904 502.165,382.236C502.7,381.775 502.757,380.97 502.291,380.44C501.825,379.91 501.013,379.853 500.477,380.315Z"/>
    </g>
    <g transform="matrix(3.34528,0,0,3.34528,-1482.84,-831.546)">
        <path d="M501.508,373.224C499.546,375.336 496.897,378.258 495.196,381.396C493.777,384.016 493.204,386.791 493.703,389.39C494.362,392.822 497.168,396.063 503.817,398.336C505.876,398.96 509.408,399.145 512.877,398.28C514.856,397.786 516.816,396.96 518.438,395.77C521.46,393.552 523.573,390.305 523.215,385.848C522.876,382.614 521.382,379.58 519.02,377.055C515.85,373.667 511.54,371.125 508.818,369.546C508.248,369.13 507.447,369.256 507.031,369.827C506.616,370.398 506.742,371.199 507.313,371.614C509.438,373.525 512.757,376.601 515.02,380.156C516.185,381.986 516.956,383.957 516.835,385.993C516.766,388.385 514.931,389.537 513.063,390.363C510.439,391.523 507.318,391.982 505.65,391.567C500.635,390.575 498.697,388.828 498.757,386.211C498.849,382.244 501.679,377.747 503.54,374.779C503.969,374.218 503.862,373.415 503.301,372.986C502.741,372.557 501.937,372.664 501.508,373.224Z"/>
    </g>
</svg>
